<?xml version="1.0" encoding="utf-8"?>
<!-- Generator: Adobe Illustrator 23.0.3, SVG Export Plug-In . SVG Version: 6.00 Build 0)  -->
<svg version="1.1" id="Layer_1" xmlns="http://www.w3.org/2000/svg" xmlns:xlink="http://www.w3.org/1999/xlink" x="0px" y="0px"
	 viewBox="0 0 792 612" style="enable-background:new 0 0 792 612;" xml:space="preserve">
<style type="text/css">
	.st0{fill:#FFFFFF;}
	.st1{fill:none;stroke:#FFFFFF;stroke-miterlimit:10;}
	.st2{fill:none;stroke:#FFFFFF;stroke-width:1.15;stroke-miterlimit:10;}
	.st3{fill:none;stroke:#FFFFFF;stroke-width:2;stroke-miterlimit:10;}
	.st4{fill:none;stroke:#FFFFFF;stroke-width:2;}
	.st5{fill:none;stroke:#FFFFFF;stroke-width:1.25;stroke-miterlimit:10;}
	.st6{fill:none;stroke:#FFFFFF;stroke-width:0.75;stroke-miterlimit:10;}
	.st7{fill:none;stroke:#FFFFFF;stroke-width:1.15;}
</style>
<g>
	<path class="st0" d="M240.7,201.5h-5.6v15.1h-2v-15.1h-5.6v-1.9h13.2V201.5z"/>
	<path class="st0" d="M255.1,199.6h2v7.2h9v-7.2h2v16.9h-2v-7.9h-9v7.9h-2V199.6z"/>
	<path class="st0" d="M284.3,199.6h10.6v1.9h-8.6v5.3h8.1v1.9h-8.1v6h9.1v1.9h-11.1V199.6z"/>
	<path class="st0" d="M329.1,199.6h3l5.7,13.3h0l5.8-13.3h2.9v16.9h-2v-14.2h0l-6.1,14.2h-1.2l-6.1-14.2h0v14.2h-2V199.6z"/>
	<path class="st0" d="M375.4,210.1c0,0.9-0.1,1.8-0.3,2.6c-0.2,0.8-0.6,1.6-1.1,2.2c-0.5,0.6-1.2,1.1-2,1.5c-0.8,0.4-1.8,0.6-3,0.6
		c-1.2,0-2.2-0.2-3-0.6c-0.8-0.4-1.5-0.9-2-1.5c-0.5-0.6-0.9-1.4-1.1-2.2c-0.2-0.8-0.3-1.7-0.3-2.6v-10.5h2v10.2
		c0,0.7,0.1,1.3,0.2,2c0.1,0.6,0.4,1.2,0.7,1.7c0.3,0.5,0.8,0.9,1.3,1.2c0.6,0.3,1.3,0.4,2.1,0.4c0.8,0,1.5-0.1,2.1-0.4
		s1-0.7,1.3-1.2c0.3-0.5,0.6-1.1,0.7-1.7c0.1-0.6,0.2-1.3,0.2-2v-10.2h2V210.1z"/>
	<path class="st0" d="M399.6,202.6c-0.3-0.5-0.8-0.9-1.3-1.2c-0.6-0.2-1.1-0.4-1.7-0.4c-0.4,0-0.9,0.1-1.3,0.2
		c-0.4,0.1-0.8,0.3-1.2,0.5c-0.3,0.2-0.6,0.5-0.8,0.9c-0.2,0.4-0.3,0.8-0.3,1.3c0,0.4,0.1,0.7,0.2,1c0.1,0.3,0.3,0.6,0.6,0.8
		c0.3,0.2,0.6,0.5,1.1,0.7c0.5,0.2,1,0.4,1.7,0.6c0.7,0.2,1.3,0.4,1.9,0.7s1.2,0.5,1.6,0.9c0.5,0.4,0.8,0.8,1.1,1.4
		c0.3,0.6,0.4,1.2,0.4,2.1c0,0.8-0.2,1.6-0.5,2.2s-0.8,1.1-1.3,1.5c-0.5,0.4-1.2,0.7-1.9,0.9c-0.7,0.2-1.5,0.3-2.2,0.3
		c-0.5,0-1,0-1.5-0.1c-0.5-0.1-1-0.2-1.4-0.4s-0.9-0.4-1.3-0.7c-0.4-0.3-0.7-0.7-1-1.1l1.7-1.4c0.4,0.6,0.9,1.1,1.5,1.4
		c0.7,0.3,1.3,0.5,2.1,0.5c0.4,0,0.9-0.1,1.3-0.2c0.4-0.1,0.8-0.3,1.2-0.6c0.4-0.2,0.6-0.6,0.9-0.9c0.2-0.4,0.3-0.8,0.3-1.3
		c0-0.5-0.1-1-0.3-1.3s-0.4-0.6-0.8-0.8c-0.4-0.2-0.8-0.5-1.4-0.6s-1.2-0.4-2-0.7c-0.6-0.2-1.2-0.4-1.7-0.7c-0.5-0.2-1-0.6-1.3-0.9
		c-0.4-0.4-0.7-0.8-0.9-1.3c-0.2-0.5-0.3-1.1-0.3-1.8c0-0.8,0.2-1.5,0.5-2.1s0.8-1.1,1.3-1.5c0.5-0.4,1.2-0.7,1.8-0.9
		c0.7-0.2,1.4-0.3,2.2-0.3c1,0,1.8,0.1,2.6,0.4c0.8,0.3,1.5,0.8,2.1,1.5L399.6,202.6z"/>
	<path class="st0" d="M416.8,199.6h10.6v1.9h-8.6v5.3h8.1v1.9h-8.1v6h9.1v1.9h-11.1V199.6z"/>
	<path class="st0" d="M455.7,210.1c0,0.9-0.1,1.8-0.3,2.6c-0.2,0.8-0.6,1.6-1.1,2.2c-0.5,0.6-1.2,1.1-2,1.5c-0.8,0.4-1.8,0.6-3,0.6
		c-1.2,0-2.2-0.2-3-0.6c-0.8-0.4-1.5-0.9-2-1.5c-0.5-0.6-0.9-1.4-1.1-2.2c-0.2-0.8-0.3-1.7-0.3-2.6v-10.5h2v10.2
		c0,0.7,0.1,1.3,0.2,2c0.1,0.6,0.4,1.2,0.7,1.7c0.3,0.5,0.8,0.9,1.3,1.2s1.3,0.4,2.1,0.4c0.8,0,1.5-0.1,2.1-0.4s1-0.7,1.3-1.2
		c0.3-0.5,0.6-1.1,0.7-1.7c0.1-0.6,0.2-1.3,0.2-2v-10.2h2V210.1z"/>
	<path class="st0" d="M471.8,199.6h3l5.7,13.3h0l5.8-13.3h2.9v16.9h-2v-14.2h0l-6.1,14.2h-1.2l-6.1-14.2h0v14.2h-2V199.6z"/>
	<path class="st0" d="M531.9,217c-1.3,0-2.5-0.2-3.6-0.7c-1.1-0.4-2-1.1-2.8-1.9c-0.8-0.8-1.4-1.7-1.8-2.8c-0.4-1.1-0.7-2.3-0.7-3.6
		c0-1.3,0.2-2.5,0.7-3.6c0.4-1.1,1.1-2,1.8-2.8c0.8-0.8,1.7-1.4,2.8-1.9c1.1-0.4,2.3-0.7,3.6-0.7c1.3,0,2.5,0.2,3.6,0.7
		c1.1,0.4,2,1.1,2.8,1.9c0.8,0.8,1.4,1.7,1.8,2.8c0.4,1.1,0.7,2.3,0.7,3.6c0,1.3-0.2,2.5-0.7,3.6c-0.4,1.1-1.1,2-1.8,2.8
		c-0.8,0.8-1.7,1.4-2.8,1.9C534.4,216.8,533.2,217,531.9,217z M531.9,215.1c1,0,1.9-0.2,2.7-0.6c0.8-0.4,1.5-0.9,2.1-1.5
		c0.6-0.6,1-1.4,1.4-2.2c0.3-0.9,0.5-1.8,0.5-2.7c0-1-0.2-1.9-0.5-2.7s-0.8-1.6-1.4-2.2c-0.6-0.6-1.3-1.1-2.1-1.5
		c-0.8-0.4-1.7-0.6-2.7-0.6c-1,0-1.9,0.2-2.7,0.6c-0.8,0.4-1.5,0.9-2.1,1.5c-0.6,0.6-1,1.4-1.4,2.2c-0.3,0.9-0.5,1.8-0.5,2.7
		c0,1,0.2,1.9,0.5,2.7c0.3,0.9,0.8,1.6,1.4,2.2c0.6,0.6,1.3,1.1,2.1,1.5C530,214.9,530.9,215.1,531.9,215.1z"/>
	<path class="st0" d="M556,199.6h10.5v1.9H558v5.6h7.9v1.9H558v7.6h-2V199.6z"/>
</g>
<g>
	<path class="st1" d="M418.5,268.6"/>
	<path class="st1" d="M546.3,281.1"/>
	<path class="st2" d="M203.3,342.8 M195.3,277.9 M239.8,408.1c-20.4-15.9-33.4-39.2-35.7-65.3c-2.3-21.6-2.3-43.3-8-65
		c-3.4-11.5-9.1-20.6-12.5-30.8l-0.1-0.2l-0.2-0.1c-3-1.2-6.1-1-9.3-1.6c-3-0.6-8.2-0.3-8.2-0.3 M153,367.9c11,3.9,23.7,8,35.6,9.4
		c6.8,12.4,12.5,26.1,23.9,35.3l0.2,0.1l0.2-0.1c9-2.3,18.1-1.1,27.4-4.6 M164.5,244.7c-3.4,17-12.5,30.3-23.3,43
		c-10.8,12.7-23.4,24.6-33.6,38.9c-17.1,25.1-26.3,52.9-27.5,81.5l0-0.3 M182.8,343.9"/>
	<path class="st1" d="M511.4,342.8"/>
	<path class="st1" d="M555.4,362.1"/>
	<path class="st2" d="M416.4,286.9c-4.7,30.3-13,60.6-13,90.8c0,8.8,0.7,17.7,2.4,26.5l0.1,0.3l-0.3,0.1c-2.4,1.2-5,1.5-7.6,1.8
		c-2.6,0.3-5.1,0.6-7.3,1.7l-0.5,0.2l-0.1-0.5c-2.8-13.1-4.9-26.3-4.9-39.5c0-2.8,0.1-5.7,0.3-8.5c2.1-29.8,9.2-57.6,9.2-87.1
		c0-2.1,0-4.2-0.1-6.3c-1.1-6.8-2.3-14.8-4.5-21.6l0.4-0.1"/>
	<path class="st2" d="M506.1,348.9c-15.9,16.9-32.7,36.3-37.6,58.9l-0.1,0.3l-0.3,0.1c-1.2,0.3-2.4,0.5-3.5,0.5
		c-3.7,0-6.8-1.6-9.1-4.2c-2.3-2.6-5.5-11-5.7-11.5c-0.5-0.8-4.1-9.7-4.4-10.7c-0.3-1-0.6-1.9-0.9-2.9c-0.3-1-0.6-1.9-0.9-2.9
		c-0.3-1-0.6-1.9-0.9-2.9c-0.3-1-1.5-4.8-1.7-5.8c-0.5-1.9-1-3.9-1.3-5.9c-0.2-1-0.3-2-0.4-3c-1.1-8-1.6-15.7-2.1-23.5"/>
	<path class="st2" d="M468.2,359.4c3.8-4.7,8.2-8.9,12.1-13.5l0,0l0,0c13.7-11.4,26.2-22.8,36.4-37.5c11.4-18.2,18.2-37.5,20.4-59.1
		l0-0.4h0.4c7.9,0,10.8-2.6,17.7-3.8l3.2-0.2l1,4c2.7,12.9,3.8,21.7,3.8,34.7c0,26-4.1,52.1-7.1,78.6c-0.9,6.2-1.4,12.2-1.4,18
		c0,9.3,0.1,15.6,3.6,24.6v3.2h-3c-8,1.1-12,2.4-20,4.6l-0.4,0.1l-0.1-0.4c-2.8-8.5-4.9-17.7-4.9-27.1c0-2,0.1-4.1,0.3-6.1
		c1.6-15.1,5.3-29.9,8.7-44.7"/>
	<path class="st2" d="M390.6,244.8l-0.4,0.1l-0.2-0.5l0.5-0.1c11.4-2.3,24-3.4,35.4-4.6l0.2,0l0.1,0.1c10.3,10.3,18.3,22.9,24,36.6
		c1.2,3.5,3.4,10.2,3.4,10.2l0,0.1c2.3,6.9,2.3,13.8,3.4,20.6c0.1,2.8,0.2,5.5,0.2,8.2c0,5.9-0.3,11.9-0.4,17.7"/>
	<path class="st3" d="M674.1,338.2 M599.2,244.7 M670.2,247.1 M686.6,325.4c-6,3.7-13.2,6.1-21.6,7.5l46.4,75.2h-23.8l-44.3-73.4
		h-24.9v73.4c0,0-18.8,0-19.4,0l0-163.3h41.8c7.8,0,15.6,0.5,23.4,1.4c7.8,0.9,14.7,2.9,20.9,6c6.1,3.1,11.1,7.6,15,13.5
		c3.8,5.9,5.8,14,5.8,24.1c0,12-3.6,21.7-10.8,29.1C692.5,321.3,689.7,323.5,686.6,325.4z"/>
	<path class="st4" d="M539,303.1v105h19.4V244.7h-28.1l-55.8,128H474l-55.4-128h-28.8v163.3h19.4V271h0.5l58.6,137H480l24-56.1
		c0.4-1,1-1.9,1.7-2.6c1.7-1.8,4.5-4.7,6-6.3c6.9-8,12.6-16,19.4-25.1C534,313.2,536.6,308.2,539,303.1"/>
	<path class="st4" d="M618.4,316.7h17.3c5.4,0,11-0.2,16.7-0.5c5.8-0.3,11.1-1.3,15.9-3c4.8-1.7,8.8-4.3,12-8
		c3.2-3.6,4.7-8.8,4.7-15.6c0-5.8-1.2-10.5-3.5-14.1c-2.3-3.5-5.3-6.3-9.1-8.2c-3.8-1.9-8-3.2-12.7-3.8c-4.7-0.6-9.4-0.9-14.2-0.9
		h-27.2V316.7z"/>
	<path class="st4" d="M152.2,244.8h18.2l69.4,163.3h-22.6l-16.6-40.1h-81.7l-16.8,40.1H80.2L152.2,244.8z M160.9,269.7h-0.5
		L126.6,350h66.7L160.9,269.7z"/>
	<path class="st2" d="M642.2,334.7c2.2,11.8,3.1,24.1,8.9,34.8c9.1,14.8,18.3,28.5,32,40l0.1,0.1h0.2c9.1,0,15.7,1.4,24.9-0.9l3-0.7
		l-1.1-1.9c-27-13.5-43.2-40.1-47.9-69.4c3.9,0.9,7.8,1.5,11.8,1.5c5.1,0,10.1-0.9,15.2-2.8c8.3-3.6,14.4-9.6,18.5-16.8
		c4.1-7.3,6-15.8,6-24.4c0-7.9-1.7-15.9-4.9-23.2c-6.9-13.8-23.8-20.6-38.7-24"/>
	<path class="st5" d="M617.2,408.1h1.2v-1.3c-3.3-11.4-5.1-22.6-5.1-34.4c0-16.4-0.1-21.8,5.1-37.6"/>
	<g>
		<path class="st2" d="M332.2,405.5c5-3,9.2-6.7,12.3-12.4c3.6-6.7,5.3-13.8,5.3-20.8c0-6.3-1.4-12.6-4.1-18.7
			c-0.1-0.2-0.2-0.4-0.3-0.5c-8.3-14.1-44.2-43.8-50.1-49.7l-0.3,0.3l0.3-0.3c-6.4-5.9-11.1-15.2-11-23.7c0-6.4,2.5-12.2,8.7-16.1
			l0,0c5.7-3.4,12.1-5,18.4-5c2.6,0,5.3,0.3,7.8,0.8"/>
		<path class="st3" d="M351.1,281.5l-0.4,0.4l-0.3-0.6c-7.7-22.4-36.9-22.8-40.9-22.8c-4.3,0-8.5,0.5-12.7,1.6
			c-4.2,1.1-7.9,2.7-11.2,4.8c-3.3,2.2-6,5-8,8.5c-2,3.5-3,7.7-3,12.5c0,3.7,0.6,7,1.7,9.8c1.2,2.8,3,5.4,5.7,7.7
			c2.6,2.3,6.1,4.5,10.6,6.5c4.5,2,9.9,4,16.4,6c6.3,2,12.4,4.2,18.3,6.5c5.9,2.3,11.1,5.2,15.7,8.8c4.5,3.5,8.1,8,10.8,13.3
			c2.7,5.3,4,12,4,20c0,8.2-1.6,15.2-4.8,21.2c-3.2,6-7.5,11-12.8,14.9c-1.9,1.4-3.9,2.7-6,3.8c-3.8,2.1-7.9,3.7-12.4,5
			c-6.9,1.9-14.1,2.9-21.5,2.9c-4.8,0-9.5-0.4-14.3-1.3c-5.3-0.9-10.4-2.5-15.2-4.5c-10.3-4.9-19.1-11.8-25.3-21.2l-0.2-0.3l0.2-0.2
			c4.5-5.6,7.9-12.5,13.7-17.2l0.5-0.4l0.2,0.6c3.2,10.1,11.2,18,20.9,22.4c0,0,0.9,0.4,1.8,0.8c1.9,0.7,3.9,1.3,3.9,1.3
			c4.7,1.6,9.9,2,15,2c4.2,0,8.3-0.6,12.6-1.8c4.2-1.2,8-3,11.4-5.4c3.4-2.4,6.1-5.3,8.3-8.9c2.2-3.5,3.2-7.6,3.2-12.2
			c0-5.1-0.8-9.2-2.5-12.3c-1.7-3.2-4.3-5.9-7.8-8.2c-3.5-2.3-8-4.4-13.4-6.2c-5.4-1.8-11.7-4-18.9-6.5c-5.8-1.8-11.2-4-16.1-6.3
			c-4.9-2.4-9.2-5.3-12.8-8.8c-3.6-3.5-6.5-7.6-8.5-12.5c-2.1-4.8-3.1-10.6-3.1-17.4c0-7.8,1.5-14.7,4.6-20.5
			c3.1-5.8,7.2-10.7,12.5-14.6c5.2-3.9,11.1-6.9,17.8-8.9c4.9-1.5,10.5-2.6,15.7-3.1c22-1.9,47.3,7.2,58.2,23.4l0.1,0.2l-0.1,0.2
			C359.2,270,355.8,276.9,351.1,281.5"/>
		<path class="st6" d="M319.8,352.2"/>
		<path class="st6" d="M305,339.6"/>
		<path class="st7" d="M293.6,393.8c1.2,0.1,5.5,0.5,6.7,0.5c5.6,0,11.1-1.1,16.1-3.3l0.2,0.4l-0.2-0.4c8.2-3.8,12.4-12.1,12.4-20.5
			c0-6.5-2.6-13.1-8-17.5c-3.8-3.2-10.3-8-14.9-12.6c-2-2-4-4-6-5.9"/>
	</g>
	<path class="st2" d="M605.8,290.1c-5.9,25.9-12.3,51.4-12.3,76.8c0,13.6,0.7,27.5,5.5,41.2"/>
	<path class="st2" d="M599.2,244.7c4.1,10.7,7.9,21.5,7.9,32.6c0,4.2-0.4,8.5-1.4,12.8"/>
</g>
</svg>
