<?xml version="1.0" encoding="utf-8"?>
<!-- Generator: Adobe Illustrator 23.0.3, SVG Export Plug-In . SVG Version: 6.00 Build 0)  -->
<svg version="1.1" id="Layer_1" xmlns="http://www.w3.org/2000/svg" xmlns:xlink="http://www.w3.org/1999/xlink" x="0px" y="0px"
	 viewBox="0 0 792 350" style="enable-background:new 0 0 792 350;" xml:space="preserve">
<style type="text/css">
	.st0{fill:#232323;}
	.st1{fill:#FFFFFF;}
</style>
<g>
	<path class="st0" d="M121.6,82.5c52.1,0,92.5,40.8,92.3,93.2c-0.2,50.6-42.2,92.1-93,91.7c-50.6-0.4-91.7-42-91.8-93.1
		C29.1,123.6,70.4,82.5,121.6,82.5z M150.7,116.3c-11.9,2-23,1.8-32,6c-16.8,7.9-9.9,26.1-13.6,40.3c-5.7,0.6-11.1,1.2-16.6,1.9
		c0,6.8,0,13.1,0,19.2c6,0.6,11,1,18,1.7c0,18.6,0,36.9,0,55.4c8.3,0,14.5,0,22.1,0c0-19,0-37,0-54.7c21.6-3.8,21.6-3.8,19.6-21.9
		c-6.2-0.5-12.4-1.1-18.4-1.6c-3.4-20.6-3-21.2,20.9-27.1C150.7,130.7,150.7,125.7,150.7,116.3z"/>
	<path class="st0" d="M670.4,82.5c51.5-0.1,92.4,40.4,92.4,91.7c0.1,51.2-40.8,93-91.4,93.3c-51.2,0.3-93.7-41.9-93.6-92.9
		C578,123.7,619.2,82.6,670.4,82.5z M616.2,216.1c45.2,22.2,94.9-4.2,102.2-53.5c1.1-7.7,4.7-15.1,7.3-23.2c0.3,0.1-1.8-0.4-3.9-0.8
		c1.4-2.9,2.7-5.8,2.9-6.2c-6.9-1.6-13-4-19.1-4.2c-8.7-0.2-19.2-1.3-25.6,2.9c-6.5,4.4-8.9,14.8-14.5,25.1
		c-6.5-2.2-16-4.3-24.4-8.5s-15.7-10.5-23.5-15.8c-1.1,0.3-2.2,0.7-3.4,1c2.2,9.7,4.4,19.5,6.5,29.2c-0.7,0-2.9,0-8.6,0
		c6.9,9.3,12.3,16.7,17.6,23.8c-7,14.1,9.9,11.9,15,20C635.1,209.3,625.9,212.7,616.2,216.1z"/>
	<path class="st0" d="M397.5,82.5c50.6,0.2,91.4,40.9,91.6,91.3c0.1,51.7-41.5,93.9-92.5,93.7s-93.2-43-92.7-94
		C304.4,123,346.3,82.3,397.5,82.5z M398.5,113.7c-8.4,0-16.7-0.2-25.1,0c-22,0.5-36.4,14.7-36.9,36.8c-0.4,16.7-0.4,33.5,0,50.2
		c0.5,21.2,14.9,35.6,36.2,36.2c15.8,0.4,31.6,0.2,47.4,0.1c24-0.2,39-14.8,39.6-39c0.4-15.3,0.4-30.7,0-46
		c-0.6-23.3-15.7-38-38.8-38.3C413.4,113.6,406,113.7,398.5,113.7z"/>
	<path class="st1" d="M150.7,116.3c0,9.4,0,14.4,0,19.2c-23.8,5.9-24.3,6.4-20.9,27.1c6,0.5,12.2,1.1,18.4,1.6c2,18,2,18-19.6,21.9
		c0,17.7,0,35.6,0,54.7c-7.6,0-13.8,0-22.1,0c0-18.5,0-36.8,0-55.4c-7-0.7-12-1.1-18-1.7c0-6.2,0-12.4,0-19.2
		c5.6-0.6,10.9-1.2,16.6-1.9c3.7-14.2-3.2-32.4,13.6-40.3C127.7,118.1,138.8,118.4,150.7,116.3z"/>
	<path class="st1" d="M616.2,216.1c9.7-3.5,18.9-6.8,28.5-10.2c-5.1-8.2-22.1-5.9-15-20c-5.2-7.1-10.7-14.5-17.6-23.8
		c5.8,0,7.9,0,8.6,0c-2.2-9.7-4.3-19.4-6.5-29.2c1.1-0.3,2.2-0.7,3.4-1c7.8,5.4,15.1,11.7,23.5,15.8c8.4,4.2,17.8,6.3,24.4,8.5
		c5.6-10.3,8-20.8,14.5-25.1c6.4-4.3,16.9-3.1,25.6-2.9c6.1,0.1,12.2,2.6,19.1,4.2c-0.2,0.5-1.6,3.3-2.9,6.2
		c2.1,0.4,4.2,0.8,3.9,0.8c-2.6,8.2-6.1,15.5-7.3,23.2C711.1,211.9,661.4,238.4,616.2,216.1z"/>
	<path class="st1" d="M398.5,113.7c7.4,0,14.9-0.1,22.3,0c23.1,0.3,38.2,15,38.8,38.3c0.4,15.3,0.4,30.7,0,46
		c-0.6,24.2-15.6,38.7-39.6,39c-15.8,0.1-31.6,0.4-47.4-0.1c-21.3-0.6-35.7-15-36.2-36.2c-0.4-16.7-0.4-33.5,0-50.2
		c0.5-22.1,14.9-36.3,36.9-36.8C381.8,113.5,390.2,113.7,398.5,113.7z M348.2,175.9c0,6.5,0,13,0,19.6c0.1,20.9,8.6,29.8,29.5,30
		c14.4,0.2,28.9,0.4,43.3-0.1c15.9-0.5,25.8-9.3,26.5-24.8c0.8-17.2,0.8-34.5-0.2-51.7c-0.8-13.8-9.9-22.9-23.3-23.5
		c-17.7-0.8-35.4-0.9-53.1,0c-13.8,0.7-22.4,11.1-22.8,25.2C348,159.1,348.2,167.5,348.2,175.9z"/>
	<path class="st0" d="M348.2,175.9c0-8.4-0.2-16.8,0-25.2c0.4-14.1,8.9-24.5,22.8-25.2c17.7-0.9,35.4-0.8,53.1,0
		c13.3,0.6,22.5,9.7,23.3,23.5c0.9,17.2,1,34.5,0.2,51.7c-0.7,15.5-10.7,24.3-26.5,24.8c-14.4,0.4-28.9,0.3-43.3,0.1
		c-20.9-0.3-29.4-9.1-29.5-30C348.2,188.9,348.2,182.4,348.2,175.9z M429.4,175.2c-0.1-17.8-13.9-31.3-32.1-31.2
		c-17.6,0.1-31.9,14.7-31.4,32.2c0.5,17.1,14.4,30.4,31.7,30.5C415.6,206.8,429.4,193,429.4,175.2z"/>
	<path class="st1" d="M429.4,175.2c0.1,17.8-13.8,31.6-31.8,31.5c-17.3-0.1-31.2-13.5-31.7-30.5c-0.5-17.5,13.7-32.1,31.4-32.2
		C415.4,143.9,429.3,157.4,429.4,175.2z M398.1,155.7c-11-0.1-19.5,7.8-19.9,18.6c-0.5,11.5,7.9,20.5,19.4,20.6
		c10.6,0.1,19.7-8.3,20.2-18.7C418.3,165.4,409.2,155.9,398.1,155.7z"/>
	<path class="st0" d="M398.1,155.7c11.2,0.1,20.3,9.6,19.7,20.6c-0.5,10.4-9.6,18.8-20.2,18.7c-11.5-0.1-19.9-9.1-19.4-20.6
		C378.6,163.5,387.1,155.6,398.1,155.7z"/>
</g>
</svg>
