<svg width="90" height="142" viewBox="0 0 90 142" fill="none" xmlns="http://www.w3.org/2000/svg">
<path d="M45 1.5C56.7328 1.5 67.572 9.00644 75.5529 21.5984C83.5219 34.1719 88.5 51.634 88.5 71C88.5 90.366 83.5219 107.828 75.5528 120.402C67.572 132.994 56.7328 140.5 45 140.5C33.2672 140.5 22.428 132.994 14.4472 120.402C6.47806 107.828 1.5 90.366 1.5 71C1.5 51.634 6.47806 34.1719 14.4472 21.5984C22.428 9.00644 33.2672 1.5 45 1.5Z" stroke="black" stroke-width="3"/>
<path d="M43.9393 118.061C44.5251 118.646 45.4749 118.646 46.0607 118.061L55.6066 108.515C56.1924 107.929 56.1924 106.979 55.6066 106.393C55.0208 105.808 54.0711 105.808 53.4853 106.393L45 114.879L36.5147 106.393C35.9289 105.808 34.9792 105.808 34.3934 106.393C33.8076 106.979 33.8076 107.929 34.3934 108.515L43.9393 118.061ZM43.5 26L43.5 117H46.5L46.5 26H43.5Z" fill="black"/>
</svg>
