<?xml version="1.0" encoding="utf-8"?>
<!-- Generator: Adobe Illustrator 24.1.3, SVG Export Plug-In . SVG Version: 6.00 Build 0)  -->
<svg version="1.1" id="Layer_1" xmlns="http://www.w3.org/2000/svg" xmlns:xlink="http://www.w3.org/1999/xlink" x="0px" y="0px"
	 viewBox="0 0 792 422.7" style="enable-background:new 0 0 792 422.7;" xml:space="preserve">
<style type="text/css">
	.st0{fill:#608161;}
	.st1{font-family:'HalyardMicroMedium';}
	.st2{font-size:10px;}
	.st3{fill:none;stroke:#000000;stroke-width:2;stroke-miterlimit:10.0006;}
	.st4{font-size:8px;}
</style>
<g>
	<path class="st0" d="M525.7,390.5c-0.5-1.2-1.2-2.2-2.2-3c-0.8-1.1-1.3-2.2-1.4-3.6c-0.2-2.2-1.3-3.8-3.8-3.9
		c-0.9,0-2.1-0.2-2.3-0.9c-0.6-1.9-2.3-1.9-3.6-2.5c-3.9-1.5-7.8-3.1-12.2-2c-1.1,0.3-2.4-0.1-3.4-0.5c-1.1-0.4-2.9-0.6-2.3-2.6
		c-0.2-0.2-0.4-0.4-0.6-0.7c-1.2-1.3-2.1-2.7-2.8-4.3c-0.7-1.7-2-2.2-3.9-2.1c-2,0.1-2.7,1.4-3.7,2.7c-1.7,2.2-3.2,2.8-5.3,1.4
		c-2.3-1.5-3.8-0.7-5.6,0.8c-2.3,1.9-3.2,4.6-4.9,6.8c-0.6,0.6-0.9,1.4-1,2.3c-1.3,1.5-2,3.5-4.3,4.3c-3.6,1.2-6.3,3.6-7.9,7.1
		c-1.6,3.4-4.1,4.7-8,4.5c-5-0.3-9.9-1.6-15-1.7c-1.1,0-2.5-0.6-3.2-1.8c-1.6-2.9-3.8-5-7.1-5.9c-0.3-0.1-0.5-0.6-0.8-0.8
		c-0.3-0.6-0.8-0.9-1.4-0.8l0,0c-0.1-0.4-0.3-0.5-0.7-0.5c-0.4,0.1-0.9-0.1-1-0.4c-0.4-1.5-1.7-1.5-2.9-1.9c-1-0.4-2.4-0.3-2.5-2
		c-0.1-2.7-0.6-5.3-2.8-7.2c0.5-0.1,1-0.3,1.2-0.9c0.5-1,1-1.9,1.3-3c1.1-3.9-0.8-7.5-0.6-11.3c0-0.6-0.5-0.9-1-1.2
		c-1.6-0.9-1.6-2.5-1-3.6c1.4-2.4,1.7-5.2,3.6-7.3c0.5-1.1,0.7-2.3,0.8-3.6c0.9-0.9,1.8-1.9,1.9-3.3c0-0.6,0.4-1,1-1.2
		c2.4-0.8,3.4-2.9,4.6-4.8c0-0.3,0-0.7,0.1-1c-1-2.5-0.5-6.1,1.5-7.6c1.7-1.3,2-2.9,2-4.7c0-1.9-1.2-2.7-3.1-2.2
		c-0.6,0.2-1.8,0.7-1.8,0.2c-0.1-1.7-2-2.7-1.6-4.2c0.6-2.2,0-4-0.8-5.9c-0.9-1.9,0.2-2.5,1.7-2.9c1.9-0.5,3.8-1.1,5.7-1.3
		c1.7-0.2,1.8-1.2,1.6-2.5c0.1-0.4-0.1-0.8-0.4-1.1c-0.5-2.2-2.2-3-4.2-3.3c-0.8-0.1-2,0.1-1.5-1.3c0.6-1.4,3.2-1,2.9-3.2
		c0.6,0.1,1.7,0.6,1.3-0.7c-0.3-1.1-1.2-0.6-2.1-0.3c-1.4,0.4-2.2,1.9-3.7,1.9c-0.2-1,1-1.6,0.4-2.5c-0.9-1.3-1-2.3-0.2-3.8
		c0.4-0.7,0-1-0.3-1.4c-0.5-0.6-1.1-0.1-1.4,0.2c-0.5,0.5-0.6,1.2-0.4,1.9c0.5,1.9-0.9,4.2-2.7,4.3c-2.4,0.1-1.1-1.6-1.1-2.6
		c0-0.1-0.1-0.3-0.2-0.4c-1.4-1.9,0.5-3.6,1.3-3.8c2.5-0.9,1.3-2.3,0.7-3.3c-0.8-1.3,0.3-1.9,0.5-2.8c0.1-0.5,1.4-1,1.5-0.7
		c0.5,1,2.3,0.8,2.1,2.1c-0.2,1.9,1.3,2.6,2.4,3.6c0.3,0.2,0.6,0.4,1,0.6l0,0c0.2,0.3,0.3,0.5,0.5,0.8c0.9,0.8,2.9,0.5,2.5,2.7
		c-0.1,0.8,0.8,0.7,1.3,0.2c0.8-0.7,0.9-1.7,0.9-2.6c0-1,0.1-2.1,1-2.7c2-1.4,1.7-2.5,0-4c-1.8-1.5-1.4-3,0.8-4
		c0.3,1.2,1.2,2.1,1.1,3.6c-0.1,0.9,1.6,1.2,1.8,0.9c0.9-1.7,3.2-1.5,4-3.3c0.2-0.5,0.7-1.3,1.1-1.4c2.3-0.7,1.4-2.2,0.7-3.1
		c-1.2-1.7-1.8-2.9,0.6-4c-0.9-1-2.6-0.7-2.6-2.3c0.6-0.6,1.2-1.2,1.8-1.8c0.6-0.5,1-1.3,0.3-1.8s-1.1,0.3-1.4,0.8
		c-0.4,0.8-0.8,1.7-1.2,2.6c-0.7,0.7-1.6,1.1-2.3,0.4c-1.2-1.3-3-2.2-2.9-4.5c0.1-1,0-2.2-0.8-3.3c-0.6,0.5-1.6,1-1,1.8
		c1.2,1.5,0.6,3,0.6,4.5c0,1.7,0.6,2.9,2.4,3.1c0.9,0.1,1.4,0.5,1.3,1.3c-0.2,1.8,0.5,3.3,1.2,4.9c0.4,1,0.4,2.5-0.7,3.3
		c-1.1,0.9-1.6-0.5-2.3-1c-0.5-0.3-1.1-0.7-1.6-1c-0.8-0.5-1.3-2.6-2.5-0.8c-2,2.9-2.1,3-4.4,0.3c0-0.7-0.5-1.1-0.9-1.6
		c-1-1.6-0.6-3.1,0.1-4.6c1-2.2,1-4.4,0.6-6.8c-0.2-1.2-1.5-1.8-1.3-3c0.1-0.8,0.2-1.5,0.4-2.3c0.6-2.2,1.1-4.5,2.9-6.2
		c0.6,0,1.2,0,1.9,0c2.1-0.3,3.7-1.9,5.8-2.4c1-0.2,1.9-0.3,2.5,0.6c0.6,0.9,0.4,1.9-0.5,2.7c-0.4,0.4-0.9,0.8-1.3,1.2
		c0.2,0.1,0.3,0.2,0.4,0.3c1.6,0.9,1.6,0.9,2-0.6c0.1-0.3,0.4-0.5,0.6-0.6c0.5-0.3,1.1-0.5,0.1-1c-0.7-0.3-0.9-1.3-0.8-1.9
		c0.5-2.4-1.1-2.3-2.6-2.5v-0.1c-0.3-0.3-0.2-0.7-0.1-1c0.2-0.1,0.2-0.2,0.2-0.4c1-0.8,1.8,0.4,3.2,0.4c-1.6-1.6-2.2-3.4-1.8-5
		c0.9-3.2,0.7-3.6-2.1-3.2c-1.2-1.8-3.1-1-5.2-1.7c1.6,2.3,3.1,2.9,5,1.8c0,1,0,2-1.2,2.6s-2.1,0-3-0.7c-0.8-0.6-1.5-1.3-2.3-2
		c-0.3-0.2-0.7-0.4-1-0.6c-0.4-0.6-0.9-1.2-1.3-1.8c-0.1-0.3-0.1-0.6-0.2-0.9c-0.1-0.4-0.1-0.9-0.3-1.3c-0.2-0.4-0.8-0.9-0.1-1.3
		c0.5-0.3,1-0.1,1.4,0.4c0.2,0.3,0.4,0.7,0.5,1c0.1,1,0.5,1.7,1.3,2.2c1.2,0.2,2.4,0.5,3.7,0.6c3.8,0.5,3.8,0.5,5.9-3.6
		c-2.8,2.1-4.7-0.2-6.8-0.9c-1.2-0.3-0.1-0.9,0.1-1.4c2.3-0.3,4.6,0.2,6.8-0.7c1.4-0.6,2.4,0.4,3.7,0.6c-1-1.7-2.4-2.1-4.1-1.1
		c-0.6,0-1.3,0-1.9,0c-2.4,0.2-3.1-0.5-3.7-3.2l0.1-0.1l-0.1,0.1c-0.2,0.1-0.4,0.3-0.5,0.4c-0.9,0.2-1.8,0.6-2.1-0.8
		c-0.2-0.7-0.6-1.3-1.5-1.1c-0.4,0-0.8-0.1-1.2-0.1c-0.3-0.2-0.6-0.3-1-0.5c-0.1-0.5-0.4-0.8-0.9-0.9c-1-1.7-2.6-2.5-4.5-2.4
		c0-0.3,0-0.6,0.1-1c0.6-1.3-1.5-2.8,0.3-4.1c0.4-0.1,0.9-0.1,1.1-0.6c0.6-0.1,1.2,0.3,1.7-0.3c-0.6-0.8-1.2-1.6-1.8-2.4
		c-0.1-0.4-0.2-0.8-0.3-1.1v-0.2c-0.2-0.9-0.6-0.9-1.1-0.2c-0.2,0-0.4,0-0.6,0c-0.2-0.2-0.4-0.4-0.5-0.5c-0.6-1-1.6-1.9-0.4-3
		c0.5-0.5,1.1-1.1,0.7-1.7c-0.7-1.1-1,0.9-1.8,0.3c-0.3-0.8-0.9-0.7-1.5-0.6c-0.4-0.2-0.8-1.1-1.3-0.3c-0.9,1.5-1.9,0.8-3,0.2
		c-0.7-0.4-1.4-0.7-2.1-1.1c-0.1-0.6-0.1-1.2-0.8-1.5c-0.6-0.7-1.3-0.9-2.2-0.9c-1.3,0-2.5-0.3-2.3-2.1c-0.6-0.9-1.2-0.5-1.9-0.2
		c-0.1,0-0.3,0-0.4,0.1c-0.2,0-0.4,0-0.6-0.1c-0.1,0-0.2-0.1-0.3-0.1c-0.3-0.3-0.5-0.2-0.7,0.2l0,0c-1,1-1.1-0.7-1.9-0.8
		c0,1.2-0.4,1.8-1.6,1.7c-1.4-0.1-2.8-0.1-4.1-0.1c-1.8-0.6-3.5-1.6-5.5-1.2c-0.7,0.2-1.9-0.1-1.9-0.9c-0.1-1.2,0.2-2.5,0.6-3.5
		c0.3-0.7,1.2-0.3,1.9,0c1.3,0.5,2.4,0.6,2.8-1.1c1.2-0.6,1-1.3,0.3-2.1c-0.6-0.6-1.5-1.2-0.7-2.4c1.9,0,2.5-1.7,3.7-2.8
		c1.5-2.5,4.7-1.9,6.7-3.4c1.2-0.9,2-1.8,1.1-3.5c-1.2-2.1,0.2-4.7,1.2-5.6c1.2-1.2,1.6-2.8,2.9-3.8c0.8-0.7,1.1-2.6,2.3-2.4
		c1.1,0.2,0.6,2,0.8,3.1c0.5,3.1,1.2,6.5-1.6,8.7c-2,1.6-3.1,3.8-4.9,5.3c-0.4,0.1-0.5,0.4-0.3,0.7c0.3,0.3,0.5,0,0.7-0.2
		c0.7-0.1,1.5-2.7,2.2,0.1c0.2,0.9,1.3,0.6,1.7,0.2c0.5-0.5,1.9-0.8,0.9-2c-0.1-0.1-0.8-0.1-0.2-0.3c0.8-0.2,1-0.5,1.4-1.2
		c0.5-1,2.9-0.5,3.5,0.6c0.7,0.8,1.4,0.6,2.2,0c5.4,2.9,8.9-1.7,13.2-3.1c-0.4-1.8-2.4-1.9-3-2.9c-1.1-1.7-1.6-1.9-3,0
		c0.3-3.4,1.2-6.3,0.9-9.3c0-0.3,0.1-0.6,0.5-0.5c2.2,0.1,2.2-1.3,2-2.9c-0.1-0.6-0.3-1.7,0.3-1.5c0.7,0.2,1.5-0.2,1.9,0.2
		c0.5,0.5-0.1,1.1-0.3,1.7c-0.9,2.5-2.1,4.9-2.4,7.8c1.5-0.5,1.6-1.6,1.9-2.5c0.5-1.6,1.7-2.4,2.9-3.5c2.4-2.2,5.4-3.3,8.1-4.9
		c1.1,0,2.2,0,3.3,0c0.6,1.1,1.2,1.5,2.6,1.1c2.1-0.6,3.8-2.5,6.2-2c0.5,0.1,0.7-0.5,0.6-1c-0.1-0.7-0.1-1.4-0.1-2.1
		c0-4.2,1.7-5.7,5.6-4.8c0.5,0.1,1.4-0.2,1.5,0.7c0.1,0.7-0.4,1.2-0.8,1.8c-0.8,1.3-3.2,2.3-1.1,4.5c0.5,0.6,0,1.3-0.7,1.7
		c-2.2,1.3-0.5,2,0.5,2.5s2.2,0.5,3.5,0.7c-0.5,0.9-1,1.5-1.9,1.7c-0.5,0.1-0.9,0.4-0.7,1c0.2,0.4,0.6,0.3,1,0.3
		c1.6-0.1,3.2-0.7,4.7,0.4c0.4,0.3,1-0.2,0.8-0.5c-0.7-1,1.2-3.3-1.7-3.4c-1.1,0-2.3-1.7-2-2.7c0.3-1.2,1.6,0.1,2.4,0
		c1.7-0.1,3.4,0.2,3.7-2.4c0.2-1.6,1.3-3.1,1.3-4.9c0-0.8,0.4-1.9,1.7-1.9c0.3,0.2,0.5,0.3,0.7-0.1c0-0.1-0.2-0.3-0.3-0.5
		c-0.1-0.3-0.2-0.7-0.3-1c0.3-0.2,0.5-0.4,0.8-0.5c1.2-0.4,2.3-1.1,3.7-1.3c1.4-0.2,3.1-0.8,4.1-2.4c0.5-0.9,1-1.5-0.5-1.7
		c-2.1-0.2-1.6-1.4-0.5-2.2c1.3-1,2.8-1.9,4.3-2.7c1.4-0.7,0.5,1.8,1.8,1.3c0.1,0,0.1-0.1,0.2-0.1c-1.5,1.8-2.9,3.6-4.5,5.6
		c2.3,0,4.2-0.1,6,0c4.5,0.4,7.8,3.5,11.7,5.3c1.3,0.6,2.2,0.4,2.3-0.7c0.2-2.6,2.2-2,3.6-2.1c1.3,0,2.3,1,2,2.4
		c-0.2,1.2-1.1,2-2.6,1.3c-1-0.5-1.9-0.4-2.4,0.9c-0.5,1.3,0,2.1,1.1,2.7c1.4,0.7,2.8,0.7,4.3,0.9c1.9,0.2,2.6-0.6,3.1-2.3
		c0.7-2.3,0.4-4.7,0.9-6.9c0.3-0.9,0.7-1.9,1-2.8c0.3-0.4,0.6-0.9,0.9-1.3c1.3-1.3,2.8-3.4,4.4-3.1c2.9,0.4,5.8,1.3,8.7,1.8
		c0.7,0.3,1.3,0.6,2,0.9c0.2,1.5-2.4,1.6-1.8,2.6c1.3,2.5,0.2,4.6-0.1,6.9c-0.1,0.7-0.2,1.4,0.4,2c0.5,0.6,0.8,1.1,0.2,1.8
		c-0.3,0.3-0.3,0.8,0,1.1c0.5,0.4,0.9,0,1.2-0.3c1.3-1.1,2.9-1.5,4.5-1.9c1-0.2,2.5-1,2.2-1.7c-0.5-1.7,0.6-2.6,1.1-3.8
		c0.5-1.3,0.7-2.2,0.5-3.7c-0.2-2.1-1-4.7,0.3-6.4c1.5-2.1,3.4-3.8,4-6.4c0.1-0.5,0.6-0.9,1-0.5c3.6,3.6,1.7-0.4,2.1-1.4
		c0-0.1,0.1-0.3,0.2-0.4c0.2,0,0.3,0,0.4-0.2c2.2-0.4,0.4-1.5,0.5-2.3c0.9-0.9,1-2,0.6-3.1c-0.6-1.1-0.9-2.5,0.2-3.1
		c1.3-0.7,2-1.9,3.2-2.7c1.3-0.9,0.9-1.7,0-2.4c-1.3-1-1.8-2.4-2.3-3.9c-0.4-1.3-1.2-2.9-2.3-2.9c-1.4,0-1.4-0.9-1.9-1.5
		c-1.4-1.6-0.6-4.2-2.5-5.7c-0.9-0.7,0.2-1.3,0.7-1.9s0.9-0.4,1.3,0.2c3,4,5.8,8.1,9,12c1,1.2,0.4,2.8,1.6,3.7c-0.2,1-2.5,2-0.1,3.1
		c1,5.1,2,10.2-0.4,15.2c-0.4,0.8-0.5,1.6-0.6,2.5c0,0.3,0.1,0.5,0.4,0.6l0,0c0,0.3,0.1,0.7,0.1,1c-0.5,1.5-2,2.6-1.8,4.2
		c0.3,3.1-0.5,6.1-0.1,9.2c0.1,0.9-0.5,1.6-0.9,2.4c-0.4,0.6-1.1,0.7-1.2,0.1c-0.6-2.5-3.4-4.3-2.4-7.5c0.8-2.5-0.8-5.2-0.2-7.8
		c0.1-0.2-0.5-0.6-0.7-0.9c0-0.6,0.3-1.2-0.5-1.7c-0.1,0.7-0.4,1.3,0.2,1.9c-1.1,2.3-1.2,5.1-3.3,6.9c-2,1.8-1.9,4.3-1.7,6.5
		c0.1,1.5-0.5,2.3-1.4,2.7c-4.2,1.9-7.7,4.6-10,8.7c-0.4,0.2-0.8,0.4-0.9,0.9c-2.6,2.6-2.6,2.6,0.7,4c0.2,0.1,0.4,0.2,0.6,0.3
		c1.2,0.4,1.6,1.5,1.8,2.5c0.1,1.2-1.1,1.1-1.8,1.4c-1.7,0.7-2.5,2-3.4,3.5c-1.2,1.9-1.5,4.2-2.7,6c-0.6,0.9-2.1,1.2-1.9,2.5
		c0.3,1.2,2,0.7,2.7,1.6c0.2,0.3,0.4,0.7,0.7,1c0.5,0.8,1.3,1.5,1.4,2.6c0.2,1.2,0.8,2,2.4,1.5c0.9-0.3,2.1-0.3,2.9,0.5
		c2.4,2.5,5.9,2.9,8.5,4.9c1.6,1.2,3.9,1,5.4,2.8c0.5,0.6,0.9,2.4,2.4,2.2c0.6,0.2,1.2,0,1.6-0.5c2.1-0.7,3.8-2.7,6.3-2.1
		c2.8,0.7,4.7-1.3,7-1.9c0.4-0.1,0.5-0.4,0.5-0.7c-0.3-3.2,2.3-5.2,3.5-7.8c0.9-1.9,2.7-2.5,4.8-2.2c1.8,0.3,2.9,1.6,3.5,3.1
		c0.6,1.3-0.8,2.1-1.6,2.9c-2.1,2-4.5,3.5-7.7,3.4c-0.5,0-1.2,0.2-1.5,0.5c-0.3,0.4-1.3,0.3-1,1.3c0.3,0.9,1.3,1.4,1.8,1.1
		c1.7-1.1,2.4,0.1,3.3,1c0.6,0.6,1.2,0.5,1.9,0.4c1.6-0.1,2.5,0.6,2.4,2.4c-0.2,2.5-1.7,4.1-3.7,5.4c-2.3,1.5-4.7,2.7-6.4,5
		c-0.5,0.2-0.9,0.6-0.9,1.2l0,0c-0.5-0.2-0.8,0.1-1.1,0.4c-2.4,1.6-5.2,2.4-7.4,4.2c-0.3,0.2-0.6,0.5-0.9,0.7
		c-0.7,0.8-1.5,1.4-2.5,1.7c-3.9,1.2-7.7,2.9-12,2.8c-0.7,0-1.4,0.2-1.6,0.7c-0.3,0.6,0.6,0.7,0.9,1.1c0.8,1.3,1.2,2.7,0.5,4
		c-0.8,1.5-2.1,3-3.9,3c-1,0-1.2,0.4-1.7,0.8c-1.5,1.3-2.5,3.2-4.7,3.8c-1.2,0.3-1.3,1.5-1.4,2.7c-0.2,3.5-0.1,7-1.5,10.2
		c-0.3,0.7-0.5,1.4-0.8,2.1c-0.9,1.8-0.9,4.5-3.5,4.7c-1.7,0.2-2,0.8-1.8,2.2c0.2,1.5,0.1,3-1.1,3.9c-2.1,1.6-4.1,3.8-7.2,3.7
		c-1.8-0.1-3.4,0.8-3.1,2.6c0.4,1.9,2.4,1.3,3.8,1.1c1.9-0.2,3.6-1.6,5.6-0.7c0.6-0.8-0.8-1.4,0.1-2c0.7-0.5,1.4-0.2,2,0.1
		c0.4,0.2,0.7,0.3,1,0.6c0.9,0.7,1.6,0.1,1.6-0.5c0.2-1.9,1.8-3.7,0.1-5.7c-0.5-0.6-0.9-1.5-1.1-2.3c-0.2-0.5-0.9-1.1-0.3-1.7
		c0.5-0.4,1,0,1.5,0.2c1.7,0.6,3.2,0.2,4.1-1.3c1-1.8,2.6-2.6,4.3-3.4c1.1-0.3,1.6,0.7,2.4,1c2,1.6,1.9,5.1,5.1,5.6
		c0.2,0,0.3,0.9,0.3,1.3c-0.1,0.9,0.4,1.5,0.8,2.3c0.9,1.7,1.7,4.2,1.4,5.5c-0.9,3-0.8,5.6,0.5,8.3c-0.4,0.8-0.4,1.8-0.4,2.7
		c0,0.2-0.1,0.3-0.1,0.5c-0.3,0.3-0.5,0.6-0.4,1.1c-0.1,0.8-0.2,1.6-0.2,2.3c0.4,4.6-1.5,8.5-3.1,12.6c-0.7,1.7-1.7,1.9-3.3,1
		c-2-1.1-4.2-2.2-6.3-2.9c-2.8-0.8-6-0.5-9-0.7c-0.2,0-0.5,0.1-0.6,0.3c-1.6,1.1-3,0.5-4.3-0.4c-1.1-0.8-2.3-1.7-3.6-1.3
		c-3.3,0.9-6.5-0.2-9.7-0.4c-1-0.1-1.6,0.2-1.9,1.3c-0.3,1.2,0.7,1,1.2,1.3c2.6,1.2,5.7,0.6,8.2,2.4c0.2,0.2,0.8,0.1,1.1-0.1
		c2-1.1,3.5,0,5.1,1c1.5,0.9,2.8,1.9,4.7,1.1c1.4-0.5,3-0.3,4.3,0.7c1.3,1,3,0.8,4,0.1c1.5-1,3.1-1.1,4.6-1.1c2.1,0,4.3-1.7,6.5,0.6
		c1,1.1,3.2-0.3,4.1-1.9c1.5-2.9,2.2-6.1,4-8.9c0.5-0.8,0.8-1.8,0.8-2.7c0-1-0.3-1.9,0.8-2.4c1.2-0.5,1.9,0.5,2.6,1.2
		c4,3.4,5.6,8.4,7.6,12.9c1.8,4.1,2.2,8.9,1.7,13.5c-0.4,0.5-0.7,1.1-0.6,1.9c0.4,1.6-0.6,3.1-0.3,4.8c0,0.4,0.1,0.8,0.1,1.2
		c0.6,4.8-0.1,9.7,1.7,14.4c0.6,1.7,1.1,3.1,3.2,3c0.6,0,1,0.4,1.2,1c0.6,1.8,2.2,3.1,3.7,3.3c3.1,0.4,4.2,2.9,6,4.7
		c0.8,0.9,1.7,1.8,2.5,2.7c0.3,0.2,0.5,0.3,0.8,0.5l0,0c0.1,0.4,0.2,0.7,0.3,1.1c0,1,0,2.1,0,3.1c-0.4,1-0.5,2-0.5,3
		c-2.2,1.5-1.6,4-2.1,6.1c-0.7,2.8,0,4.3,2.3,5.9c3.5,2.5,4.8,4.4,2.2,8c-0.4,0.5-1.1,1.3-0.3,1.9c2.5,1.9,2.8,4.6,2.5,7.4
		c-0.1,0.8-0.1,1.6,0.5,2.2c0,0.7,0,1.4,0,2.1c0,0.5,0.1,1,0.1,1.5c0,0.9-0.1,1.8-0.1,2.8c-0.1,0.2-0.2,0.5-0.2,0.7
		c-0.1,0.5-0.1,1.1-0.2,1.6c-0.2,0.4-0.5,0.7-0.7,1.1c-1.3,2.7-3.9,4.6-5.2,7.4c-1.1,2.4-3.6,3.3-5.3,1.5c-1.5-1.6-3.2-1.6-4.9-2
		c-0.3-0.7-0.9-0.7-1.5-0.7c-0.4-0.2-0.9-0.3-1.3-0.5c-0.3-0.2-0.7-0.2-1,0c-0.3,0.1-0.6,0.1-0.8,0.2c-1-0.4-2-0.2-3.1-0.2
		c-5.1-3.1-10.2-6.1-16.4-6.2C529.4,394.1,527.4,392.8,525.7,390.5z M466.1,274.5L466.1,274.5c0.1-0.2,0.3-0.3,0.4-0.5
		c0.7-0.5,1.3-1.2,2.1-1.4c1.8-0.6,2.6-2.1,3.4-3.7c0.4-0.9,0.6-1.9-0.2-2.6c-0.7-0.6-1.6-0.3-2.4,0.2c-0.4,0.3-1,0.4-1.5,0.5
		c-2.5,1-5.3,1.6-5.2,5.2c0,0.2-0.5,0.5-0.8,0.8c-0.3-1.1-1.3-0.6-1.9-0.9c-1.4,0-2.8,0-2.1,2c0.1,1.8,1,3.3,1.6,5
		c0.4,1.1,0.8,1.9,2,1.9c1.2,0.1,2.2-0.3,2.5-1.6c0.1-0.1,0.1-0.1,0.2-0.2c0.7-0.3,0.9-0.9,0.8-1.6c0-0.4,0-0.8,0.1-1.3
		c0.2-0.5,0.4-1,0.6-1.5l0,0C465.8,274.8,465.9,274.6,466.1,274.5z M451.2,297.2c0.1,0.3,0.2,0.5,0.2,0.8c-1.2-1.5-2.4-2.8-4.6-2.4
		s-4.3,0.2-6.2-1.2c-1.2-0.9-2-0.7-2.7,0.8c-0.7,1.6-1.4,3.3-3.8,3c-0.7-0.1-1.4,0.7-1.1,1.2c1.3,2-0.2,3-1.1,4.4
		c-0.7,1.1-1.5,2.5-0.3,3.9c0.6,0.7,0.5,1.6,0.1,2.2c-1.2,1.7-1.5,4.2-4.2,4.5c-0.6,0.1-1.2,0.5-1.5,1c-0.5,0.7-0.3,2,0.6,1.6
		c1.8-0.7,4.1-0.3,5.3-2.3c1.7-2.8,4.2-4.7,7.2-6c2-0.8,3.8-1.8,5.3-3.2c1.1-1.1,2.9-1.8,3.3-1.3c0.9,0.9,2.1,1.8,2.4,3.3
		c0.2,0.6-1.1,1.9,0.6,1.8c0.9-0.1,1.8,0.7,2.7,0.1c0.9-0.5,1.8-0.9,2.7-1.4c0.7-0.4,1.5-1,2.2-0.6c2.5,1.4,4.5-0.6,6.8-0.7
		c1.4-0.1,1.8-1.3,1-2.4c-1.6-2.3-0.8-5.2,1.9-5.6c3.7-0.7,6.4-3.2,9.4-5.2c0.3-0.2,0.3-0.7,0.4-1.1c0.1-0.3,0.2-0.6,0.4-0.9
		c0.4-1,1-1.8,2.1-2.4c1.2-0.6,2.4-1.6,1.6-3.1c-1.3-2.4-2.6-4.8-4.9-6.5c-1.3-1-2.2-0.1-2.2,0.8c0.1,2.6-1.7,3-3.5,3.7
		c-0.4,0.2-0.4,0.5-0.2,0.8c0,0.4,0.1,0.7,0.1,1.1c-0.9,0.5-1.7,0.9-2.6,1.4s-1.6,0.6-2.7,0.5c-1.8-0.2-2.7-1.5-4.1-2
		c-0.8-0.3-1.2-1-2.2-0.3c-1.2,0.8-0.5,2-0.9,3c-0.2,0.5,1.2,0.5,1.9,0.8c0.3,0.1,0.6-0.1,0.9-0.1c0.5,0,1,0.1,1.1,0.7
		s-0.1,1-0.7,1.3c-3.7,2.2-5.9,2-9-0.9c-0.4-0.4-0.9-0.7-1.4-0.6c-3.4,0.7-6.7-0.3-10.2-0.5c0.5,0.9,0.4,2,1.3,2.1
		c1.9,0.2,3.6,1.8,5.8,1c1.2-0.4,2.8,0,4.2,0c0.5,0,1,0.1,1,0.7c0,0.5-0.3,0.6-0.7,0.7c-0.9,0.1-1.2,0.5-0.4,1.1
		c1,0.7,1.1,2.1,0.9,2.7c-0.8,2.1,0.6,3.7,1,5.5h0.1c-0.8-1.8-2.3-1.4-3.8-1.3c-0.7,0-1.8,0.9-2.2-0.4c-0.2-0.9,0.7-1.2,1.4-1.5
		c0.8-0.3,1.3-0.8,1.2-1.7c0.7-0.2,0.9-0.5,0.4-1.2c-0.3-0.5-0.6-1.1-1.2-0.6C450.3,296.6,450.8,297.1,451.2,297.2z M476.7,252.2
		c-0.2,0.2-0.5,0.5-0.7,0.7c-1.1,0.4-2.3,1.4-3.5,0.3c-0.9-0.8-0.9-2.1-0.6-3.3c0.1-0.5,1-1,0-1.5c-0.8-0.4-1.3-0.1-1.9,0.4
		c-1.7,1.4-1.3,7,0.6,8.1c0.2,0.1,0.4,0.2,0.7,0.2c2.6,0.3,5.2,0.2,7.7-0.7c0.8-0.3,0.9-0.3,1.4,0.4c2.5,3.3,3.7,3.3,6.3,0.4
		c1.5-1.7,1-3.7-1.1-4.5c-1.2-0.4-2.3-0.9-3.4,0.1c-0.7,0.6-1.1,0-1.6-0.4c-0.2-0.8,1-1.6,0-2.3c-0.5-0.3-1.3,0-1.6,0.4
		c-0.6,0.8,0.4,1.1,0.7,1.7c-0.6,0-1.2,0-1.8,0.1c-0.3-0.3-0.5-1-1-0.3L476.7,252.2z M477.3,241.6c1.2-1.8-1-1.4-1.4-2.2
		c-0.8-1.3-1.6,0.3-2.3,0.4c-1,0.2-0.1,1,0,1.5c0.3,1,1,1.5,2,1.6C476.5,243,477.5,243,477.3,241.6z M533.8,331.8
		c-1,0.7-2.5,1.5-2.6,2.8c-0.1,1.6,1.9,2.2,2.6,3.5c0.8-0.6,1.8-1,2.2-1.7C536.6,335.6,534.7,331.9,533.8,331.8z M463.2,267.3
		c-0.1-0.7-0.3-1.4-0.9-1.3c-1.2,0.2-0.9,1.4-1.1,2.2c-0.1,0.4,0.3,1.2,0.6,1C462.7,268.9,463,268,463.2,267.3z"/>
	<path class="st0" d="M244.1,354.3c0-0.9,0-1.7,0-2.6c1-1.4,1.3-2.9,1.5-4.6c0.4-2.4,0.9-4.7,1.6-7c0.9-2.8,1.2-5.6,0.8-8.4
		c-0.3-2.2,1-5,2.1-5c2.7-0.1,4.1-0.9,4.8-3.4c0.5-1.7,2.3-1.5,3.4-2.3c0.4-0.1,0.7-0.1,1.1-0.2c2.9-0.3,5.7-1,8.6-0.6
		c0.7,0.1,1.5,0.2,2.1-0.5c2.6-2.6,5-5.3,5.9-8.9c0.2-0.8,0.7-1.9-0.3-2.2c-0.7-0.3-2-1-2.6,0.4c-0.4,0.8-1,0.7-1.6,0.4
		c-0.6-0.3-0.9-0.8-0.9-1.7c0.1-1.6,0.1-3.1-1.1-4.5c-0.6-0.7-1.3-1.9-0.1-3.1c0.3-0.3,0.3-1.3,0.1-1.8c-0.9-2.1-1.5-4.1,1.2-5.4
		c0.2-0.1,0.2-0.6,0.2-0.9c0-2.8,1.8-5.7-0.3-8.4c-0.1-0.2-0.1-0.5-0.1-0.7c-0.2-1,0.3-2.2-0.4-3.1c-1.2-1.9-0.9-4-0.4-6
		c0.9-0.4,0.8-1.3,0.8-2c0.4-2.3,0.4-4.5-2-5.9c-0.5-0.3-0.7-0.7-0.8-1.3c-0.3-1.9-0.6-3.8-0.5-5.8c0.3-6,1.1-11.9,3.7-17.4
		c0.1-0.3,0.2-0.6,0.4-0.9c1.1-0.8,1.7-2.7,3.6-1.9c2.1,0.9,3.6-0.6,4.8-1.7c3.5-3.2,6.2-7.2,10.2-9.9c2.7-1.8,4.7-4.6,8.2-5.2
		c1.1-0.2,2.2-0.8,1.7-2c-0.4-0.9-1.7-0.5-2.5-0.1c-1.8,1-3.8,1.9-5.4,3.2c-3.1,2.5-7.5,2.6-10.1,6.1c-0.6,0.8-1.4,0.3-2-0.4
		c-0.7-0.9-0.1-1,0.6-1.5c1.4-1,2.6-2.2,3.6-3.6c0.3-0.4,0.3-1.1,0.9-0.9c2.8,1.2,3.5-0.9,4.5-2.7c0.9-1.6,1.7-1.7,3.3-0.8
		c0.3,0.2,0.9,0.1,1.1-0.1c0.8-0.7,1.9-1.1,2.3-2.2c1.1-0.1,2.1-0.3,3-1c2.7-0.8,5.9-0.7,7.6-3.8c0.5-0.5,0.9-1.1,1.1-1.8
		c3.2-1.6,6.7-2.4,10.1-3.2c1-0.3,2.3-0.8,3.4-0.2c2.4,1.3,5.3,1,7.6,2.4c0.4,0.3,0.8,0.6,1.3,0.5c2.1,0.5,4.3,0.8,6.4-0.1
		c1.7-0.8,3-3.1,5.4-1.4c0.2,0.1,0.6-0.2,0.9-0.2c1.6-0.2,3-1.9,4.9-0.7c0.1,0.1,0.6-0.3,0.7-0.5c0.5-1.5,1.7-1.4,2.9-1.4
		c0.7-0.2,1.3-0.3,2-0.5c3.2-0.4,6.3-1.3,8.2-4.2c0.6-0.2,1.1-0.5,1.7-0.7c1.6-0.5,1.6-1.3,0.4-2.2c0-0.1,0-0.2,0.1-0.3
		c0.8-0.7,0.3-1.6,0.4-2.4c1.7-0.2,1.7-0.2,0.7-2.1c-0.2-0.4-0.2-0.9-0.2-1.4c0.1-3.5,0.6-6.8,2.7-9.7c0.3,0,0.6,0,0.9,0.1
		c-0.1,0.2-0.2,0.4-0.3,0.7c-0.3,0.6-0.3,1.2-0.3,1.8c-1.4,1.3-1.1,3-1.1,4.6c0,0.5,0.5,1.2,0.8,1c1.4-1.1,3-1.2,4.7-1.4
		c0.1,0,0.1-0.1,0.2-0.2c0.6,0.1,1.3,0.2,1.9,0.2c2.7,2,2.9,2.8,1.4,5.6c-0.2,0.3-0.5,0.7-0.2,1.1c0.4,0.5,0.8,0.1,1.2-0.1
		c0.9-0.5,1.7-1.9,3-0.7c1.1,0.6,0.8,1.6,0.8,2.5l-0.1,0.2c-0.5,0.3-1.4-0.1-1.6,0.9c0.9,0.3,1.8,0.7,2.8,1c0.7,0.2,1.3,0.4,1.2,1.3
		c-1,0.5-1,1.2-0.4,2c-0.8,2-0.6,4.7-3.6,5.1c-0.6,0.1-1,0.4-1.2,1c-1.9,1.6-3.7,3.2-5.6,4.8c0,0.5,0.1,1,0.1,1.5
		c-0.1,1.6,0.8,3.3-1.1,4.5c-0.6,0.4-0.4,1.4-0.4,2.2c0,0.6,0.5,0.7,1,0.8c0.4,0.1,0.6-0.1,0.6-0.5c-0.1-1.4,1.4-1.8,1.8-1.5
		c1.3,0.8,3.3,0.5,3.8,2.4c-0.1,0.3-0.1,0.6-0.2,0.9c-0.4,0.8-1.1,1.3-1.7,1.8c-1,1-1.4,2.1-0.5,3.4c0.2,0.1,0.4,0.2,0.7,0.3
		l0.1,0.1c-0.6,1.1-1.8,0.5-2.6,1c-0.6,0.8-2,0-2.3,1.1c-0.7,3-1.8,1.4-3,0.4c-0.1-0.8,1.1-1.3,0.4-2.3c-1.1-1.5-1.2-3.2,0.4-4.9
		c-2.2,0.8-3.4,3.3-2.4,3.8c2.2,1,0.8,2.3,0.7,3.5c-0.7,0.7-1.3,1.3-0.6,2.3c0.8,1,1.3-0.2,1.9-0.3c0.3,0,0.7,0.1,1.1,0.2
		c0.8,2.1-1.3,1.5-2.3,2.2c1.7,0.9,2.7,0.7,3.3-0.9c0.4-1,2.2-0.2,2.1-1.2c-0.2-1.5,0.7-2.2,1.6-2.9c0.3,0,0.6,0.1,1,0.1l0,0
		c0.3,0.5,0.9,0.4,1.3,0.5c0.4,0.9,0.3,1.7-0.9,2.1c0.8,0.4,1.5,0,1.9,0.6c0.3,1.5-0.7,1.8-1.9,1.9h0.1c-0.2-0.2-0.4-0.3-0.6-0.5
		c-1.3-0.5-1.9,0.5-2.6,1.2c-1.6,0.4-2.7,1.1-2.1,3c-0.4,0.5-1.3,0.4-1.6,1.3c2.2,0.5,3.5-0.4,4-2.5c0.6-0.4,0.9-0.9,1.2-1.5h0.1
		c1.5-0.1,2.9-0.4,4.2,0.5c0,0.1,0.1,0.3,0.2,0.4c0,0.5,0.3,1.1,0.7,0.9c0.5-0.2,0.3-0.7-0.2-1c-0.1-0.2-0.2-0.4-0.4-0.6
		c0-1,0-1.9-0.1-2.9c-0.1-0.3,0.1-0.8-0.5-0.4h0.1c0.3-0.9-0.1-1.7-0.2-2.6c0.6-0.8,0.9-2,2.1-2.4c0.6-0.2,1.3-0.3,1.9-0.5
		c0,0.2,0,0.5-0.1,0.7c-0.3,0-0.6,0-1,0.1c-0.7,0.2-0.7,0.6-0.2,1.1c0.4,0.7-0.5,1.2-0.7,1.9c2.4-0.4,4.8,0.3,6.8-1.2
		c0.3-0.2,0.9,0,1.3,0.1c0.5,0.8,1.4,0.6,2.1,1c0.6,0.2,1.1,0.3,1.7,0.5c0.2,0.5,0.5,0.9,1,1.2c0.2,0.6,0.4,1.1,0.6,1.7
		c-0.2,0.9-0.1,1.5,1,1.6c0.3,0.1,0.5,0.2,0.8,0.4c0.4,0,0.8,0.1,1-0.4l0,0c1.3-0.1,2.6,0,3.9,0.3c0.9,0.8,0.7,2,1.2,3
		c0.5,0,1,0,1.6,0c0.6,0.6,0.1,1.1-0.2,1.7c-0.2,0.4-0.3,0.8-0.5,1.1c-0.7,2.5-1.1,5-0.4,7.5c0,0.2,0,0.4,0,0.6
		c0,1.5-1.6,2.5-1.4,4.1c0.5,4.4-1.7,5.4-5.2,6.4c-0.1-0.1-0.2-0.1-0.3,0c-0.5-0.3-0.9-0.2-1.2,0.2c-1.2,1.9-2.9,2.7-5.1,2.4
		c-0.6-0.1-1,0.3-1.3,0.8c-1.3,2.3-3.2,4-4.7,6.1c-0.1,0.2-0.1,0.3-0.2,0.5c-0.2,0-0.4,0-0.6,0c-1-0.8-1.1-2.3-2.4-2.8
		c-0.2,0-0.4-0.1-0.5-0.1h0.1c-0.4-3,0.4-5.8,0.9-8.7c0.5-2.6,1.7-4.1,4.2-4.7c-0.2-0.8-2.3-0.8-1.1-2.2c1.6-1.9,2.1-4.4,3.4-6.4
		c0.6-1.2,0.9-2.4-0.2-3.4c-0.5-0.4-1-0.8-1.7-0.5h0.1c-0.4-1.6,1-2.6,1.3-4c0.7-1.1,1.9-0.1,2.8-0.5c-0.7-1.1-1.4-1.6-2.6-0.8
		c-1.7,1.1-4.2-0.6-5.6,1.7c-3-0.4,0,1.8-0.9,2.2s-1.1,1.1-0.9,2.1c-0.5,0.4-0.3,1-0.3,1.5c-0.1,1.4,0.3,3.2-0.9,3.9
		c-2,1.1-1.2,2.6-1,4.1c0.1,0.8,0.5,1.4,0.1,2.2c-0.3,0.2-0.5,0.3-0.8,0.5c-1.7,0.3-3.3,0.6-2.2-2.4c-1.1,0.8-0.9,1.7-1,2.4
		c-0.2,2.4-2.2,2.5-3.7,2.4c-1.2,0-1.6-1.7-1.9-3c-0.2-1.2,0.6-2.1,0.4-3.2c0.5-0.5,0.3-1-0.1-1.5c-0.5-0.6-1.8-1-0.8-2.2
		c0.7,0.1,1.4,0.1,2.2,0.2c0.1,0.2,0.1,0.4,0.2,0.7c0.6,1.6,1.2,0.1,1.9,0c1,0.2,1.8,0.2,2.3-0.9c0.6-0.8,0.4-1.6,0.2-2.4
		c0.7-0.5,1.2-0.9,0.4-1.8c-1.1-1.2-2.6-0.8-3.2-0.1c-1.1,1.2-2.1,1.2-3,0.4s-1.1-0.4-1.3,0.4c-0.1,0.5-0.2,1.1-0.5,1.6
		c-0.3,0.6-0.6,1.7-1,1.7c-1.3,0.1-0.4-1-0.6-1.5c-0.1-0.2-0.2-0.4-0.4-0.5c-0.6-0.3-1.8,0.1-1.6-1.4c0.2-1.2,1.3-0.7,1.9-1.3
		c-0.8-0.3-1.6-0.4-1.9-1.1c-0.5-1.2-1.4-0.3-2.1-0.5c-1.4-1-2.9-1.5-4.6-1.4c-0.2,0-0.5,0.1-0.7,0.1c-1.9,0.5-2.1,2.6-3.5,3.6
		c-0.1,0,0.2,0.5,0.3,0.8c-0.2,0.4-0.3,0.8-0.1,1.3c-0.3,1.8-1.2,3.6-0.6,5.5c0.4,1.3,1,2.6-0.8,3c-1.5,0.3,0.1,2.7-2,2.6
		c-0.9,0-1.3,0.9-0.9,1.7c0.4,0.7,1.1,0.7,1.8,0.1c0.6-0.6,1.4-1,2-1.6s1.2-0.8,2.1-0.5c2.5,0.7,3.8,0.2,4.7-2.3
		c0.5-1.5,1.3-1.1,2.2-1c0.4,0,0.7-0.3,0.7-0.7c1.4-0.4,2-3,4.1-1.4c-0.1,0.7,0.1,1.4,0.9,1.6c0.5,2.2,0.6,4.5-1.3,6.2
		c-0.8,0.7-0.8,1.6-0.4,2.3c0.5,0.6,1.4,0.6,2.1,0c0.5-0.5,1-0.6,1.4-0.1c0.4,0.4,0.1,1,0,1.6c-0.4,2.2-1.5,4.1-2.3,6.2
		c0,0.6-0.1,1.1,0.4,1.5c1.1,3.3,1.1,6.3-1.9,8.7c-0.7,0.6-0.7,1.5,0,2.4c0.9,1.1,0.5,4.1-0.7,5c-0.7,0.5-1.1,0.4-1.7-0.3
		c-1.5-1.6-2.3-3.8-4.2-5.1c0.3-0.3,0.5-0.6,0.8-1c0.7-0.3,1.4-0.6,2.1-0.9c0.9-0.5,2.4-0.8,2.1-2c-0.2-0.9-1.6-0.1-2.5-0.2
		c-0.4-0.1-0.7-0.2-1.1-0.3c-1.9-1.4-3-4.1-5.8-4.2c0.3,0.7,0.9,1.1,1.3,1.6c0.6,0.7,0.5,1.6-0.5,1.9c-1.1,0.3-2.2,0.6-1.6,2.1
		c0.6,1.4,1,3,3.1,2.5c0,0.6-0.1,1.2-0.1,1.8v0.2c-1,0.1-2,0.3-3,0.4c-1.1-0.7-2.3-1.1-3.5-1.3c-3-0.5-3.1-0.5-1.3-3.3
		c-1.9,0-3-1.7-4.8-1.6c-0.9,0.1-2.1-0.2-2.2,1.2c0,1.7-0.6,1.2-1.5,0.6c-2.9-2-5.9-2.7-9.2-0.8c-2.2,0.2-4,2-6.3,1.5
		c-1-0.5-2-1.3-3.1-1.4c-2.7-0.4-5.2-2.6-8-0.7c-0.7,0.3-1,0.9-1.4,1.5c-0.2,0.3-0.4,0.7-0.7,1c-1.4,1.7-2.5,3.8-4.8,4.6
		c-0.8,0.3-1.5,0.3-2.2-0.2c-0.8-0.6-0.2-1.3,0-1.9c0.7-1.8,1.4-3.5,3-4.7c2.8-2.2,2.9-3.2,0.7-5.7c1.8-2.7-0.9-4.4-1.4-6.7
		c-0.4-2-2.4-0.8-3.6-1.1c-0.4-0.7-0.6-1.3-0.2-2.2c0.6-1.5-0.9-4.8-2.3-5.6c-0.8-0.5-1.5-1-2.2-1.7c-1.4-1.5-3-2.6-5.1-0.9
		c-0.5,0.4-1.3,0.6-2,0.5c-5.5-0.6-9.3,2-12.5,6.1c-1.8,2.4-2,5.2-0.1,7.6c0.5,0.7,1.2,1.3,1.5,2.1c0.7,2,2.2,2,3.9,1.9
		c1.2,0,2.3-1.2,3.6-0.3c0.2,0.2,0.5,0.4,0.7,0.7c0.8,1.5,2.3,2.5,2.9,4.2c0.3,0.9,0.3,1.9-0.6,1.8c-2.9-0.4-5.1,1.8-8,1.6
		c-1.4-0.1-3.4,0.3-4,1.2c-0.6,1,1.2,2.2,1.7,3.5c0.2,0.4,0.7,0.6,1,1c1.1,1.6,2.5,3.1,1.8,5.3c-0.2,0.6-0.4,1.3-0.5,1.9
		c-2.2,1.2-4.5,2.3-6.7,3.7c-2.1,1.3-2.2,3.3-2.1,5.5c0,1.9,1,3.2,2.6,3.7c2.9,0.8,3.5,2.9,3.4,5.3c-0.1,1.7,0.7,1.6,1.8,1.8
		c1.9,0.4,3.3-1.2,5.1-1c0.3,0.2,0.7,0.4,1,0.7c1.9,1.3,3.7,2.7,6.2,2.7c0.5,0,0.8,0.5,0.8,1s-0.3,0.8-0.8,1s-1.1-0.2-1.5,0.6
		c0.8,0.5,1.5,1.2,2.6,0.6c0.5-0.3,1.5,0.1,1.4,0.2c-1.2,1.5,1,2.3,0.6,3.3c-0.7,2,0.9,2.6,1.6,3.9c1.2,2.2,2.7,3.7,5,4.6
		c0.6,0.2,1,1,1.5,1.5c0.3,0.3,0.5,0.9,0.1,0.8c-0.9-0.1-1.3,0.1-0.9,0.9c0.3,0.6,1.2,0.6,1.6,0.1c0.8-0.8,1.2,0,1.5,0.4
		c0.4,0.6-0.3,1.1-0.7,1.3c-1.5,0.7-1.4,1.9-1.3,3.1c0,0.6,0.1,1.1,0.5,1.5c0.3,1.4,0.4,2.7,0.4,4.1c0,1.8,0,4,1.8,5.3
		c2.3,1.7,3.7,4,4.6,6.8c0.9,3,0.8,5.6-1.1,8.1c-0.1,0.2-0.3,0.5-0.3,0.6c1.1,3-1.1,2.7-2.8,2.9c-1.2-0.1-2.4-0.6-3.2,1
		c1.2,0.6,2.4,0.1,3.6,0.3l0,0c0.2,0.2,0.3,0.3,0.5,0.5l0,0c0.2,0.2,0.3,0.3,0.5,0.5l0,0c0.2,0.2,0.3,0.3,0.5,0.5l0,0
		c0.2,0.2,0.3,0.3,0.5,0.5l0,0c0,0.5,0.1,1,0.1,1.5c1.6,2.3,2.6,4.9,3.6,7.5c0.2,0.1,0.4,0.3,0.5,0.4c-0.3,2.4-0.3,2.4,1.4,5
		c0.1,0.2,0.2,0.4,0.4,0.6c1.1,1.8,1.4,4.3,3.8,5.2c0.2,0.1,0.5,0.5,0.5,0.7c-0.1,2.2,1.1,4.1,0.8,6.4c-0.3,2.2-0.5,4.7,1.5,6.5
		c0.9,0.8,1,2.2,0.4,3.1c-2.1,3.2-4.3,6.4-8.8,6s-8.9-0.9-13.3-1.7c-1.7-0.3-3.2-0.5-4.6,0.6c-0.3,0-0.5,0.2-0.5,0.5l0,0
		c-0.2,0.1-0.4,0.2-0.5,0.3c-4.6,2.4-9.3,4-14.6,3.2c-0.3,0-0.6-0.1-0.9,0c-3.1,0.5-4.7-0.2-6.1-3c-0.6-1.2-1.4-1.8-2.5-2.2
		c-0.4-0.3-0.8-0.7-1.2-1c-3.1-1.9-6.1-3.2-9.3-0.3c-0.8,0.8-2,0.7-3.1,0.4c-1.7-0.7-3.3-0.3-4.9,0.2c-0.6,0-1.2-0.1-1.8-0.1
		c-0.2-0.1-0.4-0.1-0.6-0.2c-0.8-0.4-1.7-0.4-2.5-0.3c-3.4,0.3-6.4-0.1-7.4-4.3c-4.3,4.5-5.4,4.8-8.8,2.1c-0.3-0.4-0.6-0.7-1.1-0.8
		c-0.9-1.2-1.9-0.9-2.8-0.1c-1.3,1.1-2.4,1-3.3-0.4c-0.2-0.3-0.3-1-1-0.7c-0.5,0.3-0.6,0.7-0.3,1.3c0.8,1.3,0,1.7-1.2,1.5
		c-1.1-0.2-2-0.1-2.7,0.8c-0.7,0-1.4,0-2.1,0c-1.7-0.5-2.8-0.1-2.3,1.9c0.5,1.9-0.4,2.2-1.9,2.3c-2.9,0.2-5.4,0.7-6.7,4
		c-0.7,1.8,0.1,3.3-0.1,5c-1-0.4-1.7-0.8-2.5-1.1c-1.9-0.8-3.6-4.7-2.9-6.8c0-0.7,0.1-1.3,0.1-2l0.1-0.1c0.1-0.3,0.3-0.6,0.4-0.9
		c1.7-3.2,3.7-6.3,6.3-8.8c1.5,0.1,2-1.6,3.2-2c0.1,0,0.2,0,0.3,0c0.3,0.6,0.5,1.2,1.1,0.2c0.8-0.9,2.3-1.4,1.4-3.2
		c-0.1-0.3,0.4-1.1,0.8-1.4c2.6-2,3.7-5.5,7.1-6.7c3.6-1.3,5.9-4.2,8-7.2c0.7-0.1,1.3-0.3,1.5-1.1c3.3-3.1,6.9-6,10.2-9.1
		c2.2-2,4.1-4.2,5.8-6.6c0.3-0.4,0.4-0.8,0.3-1.3c-0.5-3.2-1.4-6.2-3-8.9c-0.1-0.2-0.2-0.4-0.2-0.6
		C244.2,355.3,244.1,354.8,244.1,354.3z M373.3,242.8c0,0.1,0,0.2,0,0.4c0.1,0,0.2-0.1,0.2-0.1C373.5,243,373.4,243,373.3,242.8
		L373.3,242.8C373.2,242.9,373.3,242.8,373.3,242.8z M332.6,257c-1.3,0.1-2.6,0.3-3.8,0.9c-0.5,0.2-1.1,0.5-0.8,1.2
		c0.3,0.6,0.9,0.5,1.5,0.3c1.2-0.4,2-1.5,3.4-1.4c0.3,0.1,0.6,0.1,0.9,0.2c0.5,0.1,1.2,0.8,1.5-0.1c0.2-0.6-0.4-1.1-1-1.4
		C333.6,256.3,333,256.4,332.6,257z M339.3,254.3c-0.3-1.7-1.7-2.1-3-2.6c-0.4-0.1-0.7-0.4-1,0.1c-0.2,0.3-0.1,0.8,0.4,1
		c1.4,0.5,1.5,1,0.5,2.2c-0.7,0.9,0.6,1.6,1.2,2.3c0.3,0.3,0.8,0.3,0.9-0.2C338.7,256.2,338.9,255.3,339.3,254.3z M333.4,263.8
		c3.3,0.1,3.9-0.7,3.1-4.1C335.4,261.1,333.9,261.9,333.4,263.8z M333.8,267.5c-0.8-1.4-1.9-2.4-3.7-2.8
		C330.9,266.4,332.3,267,333.8,267.5z M338,270c-0.6-1-1-2.3-3-2.9C336.3,268.4,336.4,269.8,338,270z M309.8,261.9
		c-0.1,0-0.3,0.1-0.5,0.2c0.3-0.1,0.6-0.2,0.9-0.3C310.1,261.8,310,261.9,309.8,261.9z M306.8,263.2
		C306.6,263.3,306.6,263.3,306.8,263.2c0-0.1,0.1-0.1,0.2-0.1C307,263.2,306.9,263.2,306.8,263.2z"/>
	<path class="st0" d="M545.6,7.4c1.6,1.2,3.5-0.1,5.2,0.6c0.2,1.5,0.9,2.8,2.2,3.4c1.5,0.7,1.6,1.3,0.7,2.6
		c-0.4,0.5-0.1,1.2,0.3,1.9c1.7,2.4,1.5,6.6-0.6,7.7c-1,0.5-1.1,1.5-1.5,2.3c-0.5,1.1-0.3,1.7,0.1,2.6c0.3,0.6-0.5,0.5-0.9,0.5
		c-0.4-0.1-1.1-0.2-1.2,0.3c-0.2,0.8,0.6,0.7,1.1,0.9c0.4,0.1,0.8,0.2,1.1,0.3c0.5,1.3-1,1.7-1.3,2.7l0,0c-0.2,0.2-0.3,0.4-0.5,0.6
		c0.3,1.1-1.1,1.6-1,2.9c0.5,5.4,4.1,8.6,8.3,10.7c2.7,1.3,5,2.6,6.6,5c0.5,0.5,1.2,0.5,1.9,0.5c1.7,0.3,3.1,1.1,3.8,2.7
		c0.5,1.2,1.1,3.1-0.4,3.4c-2.7,0.7-3.3,2.7-4.3,4.7c-0.4,0.3-0.7,0.7-0.7,1.2c-1.4,1.7-1.8,3.8-2.5,5.8c-0.2,0.7-0.4,1.6-1.1,1.5
		c-1.4-0.2-1.3,0.9-1.7,1.6c-0.8,1.5-4.2,3.9-5.1,3.5c-2.9-1.3-6.3-1.4-8.7-3.9c-0.3-0.3-0.8-0.3-1.3-0.5c-0.4-0.7-0.9-1.1-1.7-1.3
		c-2-1.3-3.9-0.9-5.8,0.2c-0.9,0.5-2.2,1.3-2.8-0.5c-0.4-0.2-0.8-0.5-0.3-0.9c0.3-0.2,0.8-0.1,0.9,0.3c0.1,0.5,0,0.9-0.7,0.6
		c-1.3,0.7-2.2-1.4-3.5-0.6c-0.7,0.1-1.3,0.2-2,0.3c-1.3,0.4-1.9-1-3.1-1.1c-1.5-0.1-2.2-1.1-1.9-2.6c1.3-1.8,0.2-2.9-1-4.1
		c-0.3,0.5-0.6,0.9-0.9,1.3c-0.5,0-0.9,0-1.4,0s-1-0.5-1.4,0.1c-1.6,0.8-2.9,0.4-4-1.1c-0.3-0.5-0.8-1.6-1.5-0.9
		c-1.7,1.6-1.8-0.1-1.9-0.9c-0.2-1.3-1-2.4-1.4-3.5c0.2-0.6,0.1-1.2-0.6-1.6c-0.8-0.4-0.9-1.4-1.7-2.1c-0.8-0.6-0.5-1.7,0.8-2.1
		c1.2-0.3,2.1,0.7,3.2,0.2c0.2-0.1,0.4-0.2,0.5-0.3c0.5,0,1.1-0.1,1.6-0.1c1.1-0.6,0.6-1.7,0.7-2.6c0.1-0.2,0.4-0.4,0.3-0.6
		c-0.6-2.7-0.9-5.4,0-8.1c0.4-1-0.5-2.1-1.4-1.9c-1.8,0.4-3.8-0.2-5.4,1.1c-0.7,0-1.3,0.3-1.7,0.9c-2.5,1.1-5,2.5-7.8,2.9
		c-0.7,0.1-1.5,0.4-1.9-0.4c-0.3-0.6-0.3-1.4,0.4-1.9c2.1-1.3,2.7-4,5.1-5.1c0.7-0.3,1-0.9,0.5-1.5c-0.9-1.2-0.1-2.2,0.2-3.3
		c0.3-0.3,0.7-0.6,1-0.9c2.8-1.1,4-4.3,6.8-5.3c0.4-0.2,0.9-1,0.9-1.5c0.1-3.8,2.1-6.6,4.9-8.8c0-0.4,0-0.8,0.1-1.3
		c0.2-1,0.8-1.8,1.7-2.1c0.8-0.3,1.2-0.7,1.6-1.5c1.1-2.3,2.8-3.8,5.3-4.6s4.9-2,7.7-1.9c0.4,0.1,0.7,0.2,1.1,0.3
		C538,4.5,541.7,6.5,545.6,7.4z M525.4,67.1L525.4,67.1L525.4,67.1L525.4,67.1C525.5,67.2,525.4,67.1,525.4,67.1z M526.4,68.3h-0.2
		l0.1-0.2L526.4,68.3z"/>
	<path class="st0" d="M486.8,24.8c-0.6,1.2-0.4,2.4,0.2,3.4c1.9,3.6,0.4,6.9-1,10c-0.9,2-0.3,3.8,0.6,5.3c0.7,1.2,2.5,1.5,4,0.9
		c1.1-0.4,2.1,0,2.5,0.8c0.9,1.8,2.6,3.6,2,5.8c-0.6,2.3,0.4,3.6,2.1,4.7c0.7,0.4,1.5,1,1.3,1.8c-0.3,1-1.4,0.8-2.2,0.8
		c-2.6,0-4.4,2.2-3.7,4.8c0.5,1.7,1,3.5,2.1,5c0.2,0.4,0.5,0.7,0.7,1.1c0.4,1.4-0.1,3.2,2,3.8c0.7,0.2,1,1,0.5,1.5
		c-1.1,1.1,0.3,3.1-1.5,3.8c0.3,0.8-0.5,1.5-0.1,2.3c0.3,0.5,0.9,1.2,0.3,1.6c-0.6,0.5-1.5,0.4-2.2,0c-0.6-0.3-1.1-0.6-1.8-0.5
		c-0.4-0.3-0.8-0.7-1.4-0.5l0,0c-0.1-0.3-0.1-0.7-0.2-1c0-0.6,0-1.2-0.8-1.4h0.1c-0.8-1.5-0.5-2.7,0.9-3.5c0.7-0.4,0.9-1,0.6-1.7
		c0.4-0.9,1.1-1.8,0.3-2.8c-0.7-0.7-1.3,0-2,0c-3.6,0.1-5.9-1-6.7-3c-1.8-4.5-3.9-9-5.5-13.5c-1-2.7-2-5.7-0.9-8.4
		c0.9-2.4,1.1-4.2-0.5-6.2c-0.7-0.9-0.2-1.9,0.5-2.5c0.5-0.4,1.2-1.4,2.2-0.3c0.9,1,1.4,0.7,1.7-0.6c0.3-1.6,0.2-3.4,2-4.4
		c0.4-0.2,0.5-0.9,0.3-1.3c-0.6-0.9-1-1.7,0.4-2.3c0.3-0.1,0.1-0.9-0.3-1.3c-0.1-1,2-1.1,0.9-2.5c0-0.6-0.5-1.5,0.4-1.8
		s1.6,0.2,2.1,1C486.6,24.1,486.7,24.5,486.8,24.8z"/>
	<path class="st0" d="M588,362.2c-4.1-0.6-6.9-3.6-7.2-7.7c-0.1-2-0.5-3.8-2.3-5c-2.1-1.3-2.3-3.4-2.2-5.5c0.6-0.2,0.9-0.6,1-1.2
		c0.6-0.9,1.1-1.8,1.7-2.7c0.6-0.7,0.6-1.6,0.7-2.4c0.2-1.4-1.1-2.9,0.5-4.2c0.6-0.5-0.2-1.3-0.5-1.9c-0.3-0.7-0.2-1.3,0.2-1.8
		s1-0.1,1.5,0.1c2,0.8,3.1,2.6,4.6,4c0.1,0.6,0.7,0.9,1.1,1.2c0.1,0.2,0.2,0.4,0.2,0.6c-0.2,0.6-0.3,1.3-0.5,1.9
		c1.9,5.8,2.4,11.9,4,17.7c0.8,2.9-0.5,4.7-2.3,6.5C588.5,361.9,588.3,362.1,588,362.2z"/>
	<path class="st0" d="M440.8,144.6c-1.4-1.1-1.9,0.6-2.8,0.9c-0.5,0.1-1,1.5-1.3-0.2c-0.2-0.7-1.1-0.4-1.6-0.1
		c-2.8,1.4-4.7,3.6-5.1,6.8c-0.2,1.3-0.9,2.1-2.1,2.4c-1.1,0.3-1.7,0.9-2,2.1c-0.2,1.2-0.9,1.8-1.7,0.3c0-0.5-0.1-0.9-0.4-1.2
		s-0.4-1-1-0.5h0.1c0-0.2,0.1-0.3,0.1-0.5c-0.3-0.8-1.4-0.5-1.6-1.3c-0.1-0.4-0.3-0.8-0.2-1.1c0.4-0.7,4.5-1.1,5.1-0.6
		c0.8,0.6,1.9,1.1,1.7-0.4c-0.7-3.8,1.8-6.1,3.7-8.7c2.5-3.5,2.6-3.6,7-2.3c1.6,0.5,2.7-1.3,4.2-0.4c-0.1,0.6-0.2,1.1-0.3,1.7
		c0.1,2.1,1.9,1,2.8,1.5c1.1,0.5,3.2-0.1,3.2,1.5s-2,0.5-3.1,1c-1.2,0.5-2.5-0.1-3.7-0.8C441.4,144.8,441.1,144.7,440.8,144.6z"/>
	<path class="st0" d="M238.4,6.2c-2.2-1.9-2.3-3.3-0.8-5.6c0.5-0.8,1-0.8,1.7-0.4c0.4,0.4,0.8,0.8,1.3,1.2c0.8,0.6,1.2,1.4,1.5,2.3
		c0.7,2,2,3.8,3.8,4.9c1.6,1,1.1,1.6,0.3,2.7c-0.3,0.4-1.5,0.8-0.7,1.6c0.7,0.7,1.5,0.8,2.3-0.1c0.8-0.9,1.4-1,2,0.3
		c1,1.8,2.7,1.4,4.4,1c1.4-0.4,2.6-1.4,4.3-0.8c-0.9,1.5-2.4,1.8-3.7,2.6c-1.5,0.9-4.7,0.1-4.3,3.7c0.2,1.4-1.6,0.4-1.8,0
		c-1.2-1.9-4-3.4-4.1-5.1c-0.2-3.5-3.7-4.5-4.3-7.4C239.7,6.5,239.1,6.3,238.4,6.2z"/>
	<path class="st0" d="M238.7,300c0.9-0.1,1,0.5,1,1.1c-0.1,0.4-0.2,0.8-0.3,1.1c-0.2,0.8-0.4,1.6-1.4,1.5c-0.5,0-0.9-0.3-1.1-0.7
		c-0.6-1,0.5-1.1,0.8-1.6c0.2-0.4,0.5-0.8,0.7-1.2C238.5,300.2,238.7,300.1,238.7,300z"/>
	<path class="st0" d="M521.2,93.1c0.8,1.1,0,1.6-0.8,2.2c-1,0.6-2.2,1-1.3,2.6c0.3,0.5-0.3,1.1-0.7,1.3c-1.3,0.7-2.6,1.5-3.9,1.7
		c-2,0.2-1.9,1.1-1.2,2.4l0,0c-0.5-0.6-1.1-0.9-1.8-0.5c-0.3,0.1-0.5,0.3-0.8,0.4h-0.1c-0.2-0.1-0.5-0.3-0.7-0.4
		c-2-0.1-2.9-1.5-3.7-3.1c-0.9-1.6-2-2.9-4.1-2.8c-0.6,0-1.3,0.2-1.4-0.8c0-0.8,0.6-0.7,1.1-0.9c0.8-0.4,1.7-0.3,2.4,0.2
		c1.9,1.7,3.9,3.3,5.4,5.3c0.6,0.7,1.1,1.1,1.9,0.4c0.4-0.3,0.7-0.5,0.7-1.1c-0.3-2.5-2.5-2.5-4.1-3.3l0,0c-0.2-0.5-0.6-0.5-1-0.5
		l0.1,0.1c0.1-1.2,0-2.1,1.8-1.2c1.2,0.5,3.3,1.7,3.7-1.6c0.1-1.2,1-2.6,1.4-4c0.2-0.8,0.9-1.8,2-1.5c1.2,0.3,0.6,1.2,0.8,2
		c0.3,1.7-1,3.1-0.3,4.8c1.7-0.2,2.1-2.7,4.2-2.2C520.8,92.8,521,93,521.2,93.1z"/>
	<path class="st0" d="M488.6,126.6c-1.9,1.9-3.7,3.7-5.6,5.6c0.3-0.4,0.7-0.7,0.6-1.3c0.2-0.1,0.4-0.2,0.2-0.4
		c-0.2-0.2-0.4,0-0.4,0.2c-2,0.4-1.7-2.2-3.1-2.4c1-2.7,3-3.9,5.6-4.4c0.4-0.3,0.5-0.7,0.5-1.1c0.7-0.8,0.5-1.3-0.4-1.8
		c-1.1-0.5-1.6-1.6-1.5-2.7c0.1-0.7,0.1-2,1-2.1s0.7,1.3,1.1,1.7c1.1,1.1,0.8,3,2.4,3.7c0.5,0.2,0.9,0.8,0.9,1.5h0.1
		c-0.5,0.1-0.6,0.5-0.7,0.9c-0.3,0.4-0.2,0.8,0.1,1.2c0,0.2-0.1,0.4-0.1,0.5C488.9,125.8,488.7,126.2,488.6,126.6z"/>
	<path class="st0" d="M497.9,109.3c-1.3,2.3-4.2,2.6-5.6,0.8c-1.2-1.5-2.5-1.6-4-0.8c-0.9,0.5-0.9-0.1-1-0.7
		c-0.7-3.3,3.4-7.4,6.6-6.5c1.2,0.3,1,1.9,1.5,2.9c0.4,0.9,0.1,1.6-0.7,2c-1.6,0.7-0.9,1.1,0.2,1.4
		C495.9,108.7,496.4,110.3,497.9,109.3z"/>
	<path class="st0" d="M314.7,140.5c-0.6-0.2-1.6-0.2-1.2-1.2c0.2-0.6-0.1-1.9,1.1-1.7c0.9,0.2,1.8,1,2.1,1.9
		C316.7,140,315.5,140.4,314.7,140.5z"/>
	<path class="st0" d="M481.6,133.5c-0.7,1-1.3,2.2-2.4,2.9C480,135.5,480.8,134.5,481.6,133.5z"/>
	<path class="st0" d="M482.6,132.6c-0.2,0.5-0.5,0.8-1,1C481.9,133.2,482.2,132.9,482.6,132.6z"/>
	<path class="st0" d="M479.3,136.4c-0.2,0.2-0.3,0.3-0.5,0.5C478.9,136.7,479.1,136.5,479.3,136.4z"/>
	<path class="st0" d="M483,132.1c-0.2,0.2-0.3,0.3-0.5,0.5C482.7,132.5,482.9,132.3,483,132.1z"/>
	<path class="st0" d="M528.7,119.4c-0.6,0.2-0.3,0.8-0.5,1.2c-0.5,0.9-1.3,1.2-2.4,1.2c-0.9,0-1.1-0.5-1.4-1.2
		c-0.6-1.3-1.3-2.4-2.9-1c-0.5,0.4-1.1,0.2-1.5-0.2c-1.4-1.2-3-1-4.6-1.1c-2.9,0-5.8-1.1-8.8-0.5c-1.3,0.3-1.5-0.7-1.4-1.6
		c0.3-2-0.3-3.8-0.8-5.7l-0.1-0.1l-0.1,0.1c0.4,0.6,1.1,0.4,1.6,0.5c2.9,0.7,5.9-1.7,5.7-4.3c0-0.7-0.5-1.5,0.2-2
		c0.7-0.4,1.2,0.4,1.8,0.8c0.5,0.4,1,0.3,1.4-0.1c0.1-0.1-0.3-0.5-0.4-0.8v0.1c2.8,0.2,5.2-1,7.7-2.3c1.8-0.9,3.7,0.2,4.1,2.2
		c0.2,0.7,0.6,1.7,1.1,1.9c2.1,0.9,2.4,3.1,3.7,4.6c0.4,0.5,0.9,1,0.4,1.6c-1.5,1.7-2,3.7-2.4,5.8C529,119,528.8,119.2,528.7,119.4z
		"/>
	<path class="st0" d="M514.1,104.4c0.2,0.2,0.3,0.3,0.5,0.5v-0.1C514.4,104.7,514.3,104.5,514.1,104.4L514.1,104.4z"/>
	<path class="st0" d="M513.6,103.9c0.2,0.2,0.3,0.3,0.5,0.5v-0.1C513.9,104.2,513.8,104,513.6,103.9L513.6,103.9z"/>
	<path class="st0" d="M513.1,103.4c-0.1,0.4,0.1,0.6,0.5,0.5l0,0C513.5,103.7,513.3,103.6,513.1,103.4L513.1,103.4z"/>
	<path class="st0" d="M557.6,11.7c0,0,0-0.4-0.1-0.9c-0.2-0.8-1.8-1.5-0.5-2.3c1.2-0.8,2.8-1,4.2,0c1.9,1.3,1.9,2.4,0,3.7
		c-0.6,0.4-1.1,0.8-1.8,1.1c-0.5,0.3-1.1,0.8-1.7,0.4C557.2,13.3,557.6,12.7,557.6,11.7z"/>
	<path class="st0" d="M405.2,265.2c0.7,1,1.9,2,0.5,3.3c-0.5,0.1-0.8,0.3-1.1,0.8c-2.9,1.6-4.7,0.9-5.6-2.1
		c-0.2-0.7-0.2-1.2,0.2-1.7c0.5-0.6,0.9-0.4,1.6-0.1c1,0.5,2.1-0.1,3.1-0.4C404.3,265.1,404.8,265.1,405.2,265.2z"/>
	<path class="st0" d="M379.7,223.1c1.1-1.9,1.5-0.1,2.2,0.4c0.1,0.8,0.4,1.6,0.1,2.4c-1.2-0.8-1.9,0.7-1.7,0.9
		c1.2,1.2-0.4,1.7-0.5,2.5c-1.6,0.4-1.6-1.2-2.3-1.9c-1-1-0.3-1.6,0.5-2.2C378.5,224.4,379.7,224.2,379.7,223.1z"/>
	<path class="st0" d="M440.2,295.5c1.1,1.8,2.6,3.1,3.7,4.7c0.6,0.9,0.5,2-0.4,2.5s-1.3-0.5-1.7-1.1
		C440.7,299.7,440,297.7,440.2,295.5z"/>
	<path class="st0" d="M454.7,302.9h0.1C454.8,302.9,454.7,302.9,454.7,302.9C454.7,303,454.7,302.9,454.7,302.9z"/>
	<path class="st0" d="M432.3,243.1c0,0,0-0.1-0.1-0.1C432.3,243,432.3,243,432.3,243.1C432.3,243,432.3,243.1,432.3,243.1z"/>
	<path class="st0" d="M300.5,300.1c-0.4-1-0.9-1.8-1.6-2.6c-0.7-0.6-2-1.1-0.2-2.3c0.6-0.4,0.2-2.4,0-3.7c-0.4-2.3-2-4.3-1.9-6.9
		c0-0.7-1.6-1.5-2.6-2c-0.6-0.3-1-0.6-1.1-1.3c3.5,0,7,3.2,7.5,6.8c0.5,3.3,1.3,6.6,1.9,9.8c-0.6,0.9,0.2,1.5,0.5,2.2
		c-0.3,2-1.3,0.4-2,0.4C300.8,300.4,300.6,300.3,300.5,300.1z"/>
	<path class="st0" d="M296.7,299.9c-0.1,0.4-0.2,1.2-0.7,0.9c-1.3-0.7-2-1.9-2.2-3.5c0-0.5,0.2-0.8,0.6-0.7
		C296.1,297.1,296.4,298.5,296.7,299.9z"/>
	<path class="st0" d="M306.7,288.3c0.2,0.5-0.1,0.9-0.3,1.3c-0.4,0.6-0.7,1.4-1.6,1.6c-0.3,0.1-0.6-0.3-0.5-0.6
		c0.3-0.9,0.1-2.1,1.5-2.3C306.2,288.2,306.4,288,306.7,288.3z"/>
	<path class="st0" d="M411,239.5c0.4-0.4,0.9-0.8,1.3-1.3c0.6-0.1,1,0.2,1.4,0.5c0.2,1-0.6,2.5,1.4,2.4c0.4,0,0.6,0.8,0.4,0.9
		c-1.6,0.5-0.7,2.2-1.7,3c-0.2-0.2-0.3-0.4-0.5-0.5c-1.1-1.2-3-1.6-3.5-3.4C410.7,240.8,411.1,240.3,411,239.5z"/>
	<path class="st0" d="M298.8,302.8c0.9-0.2,1.5,0,1.9,0.9c0.3,0.6,0.5,1.7,1.2,1.5c0.8-0.3,1-1.3,0.8-2.2c0-0.1,0.1-0.3,0.1-0.4
		c2.7,0.9,5.7,6.2,5.3,9c-0.1,0.5-0.3,0.9-0.8,1c-0.4,0.1-0.6-0.2-0.9-0.5c-1-1.3-1.7-3.1-3.9-2.8c-0.1,0-0.2,0-0.2-0.1
		C302.4,306.3,298.7,305.6,298.8,302.8C298.9,302.8,298.8,302.8,298.8,302.8z"/>
	<path class="st0" d="M310.5,316.6c-1-0.2-1.7-0.9-2.1-1.9c-0.2-0.5,0.5-1.2,0.9-1c0.9,0.4,1.6,1.2,2,2.1
		C311.6,316.4,311.1,316.6,310.5,316.6z"/>
</g>
<polygon points="470.8,272.1 473.1,276.7 478.1,277.4 474.5,281 475.3,286 470.8,283.6 466.3,286 467.1,281 463.5,277.4 
	468.5,276.7 "/>
<text transform="matrix(1 0 0 1 482.7369 283.3571)" class="st1 st2">Turkey</text>
<text transform="matrix(1 0 0 1 399.7099 279.061)" class="st1 st2">Berlin</text>
<circle cx="439.8" cy="276.3" r="2.8"/>
<ellipse transform="matrix(0.7413 -0.6712 0.6712 0.7413 -52.9405 370.2727)" class="st3" cx="453.8" cy="253.8" rx="15.6" ry="8.9"/>
<text transform="matrix(1 0 0 1 468.7908 259.3279)" class="st1 st2">Russia</text>
<text transform="matrix(1 0 0 1 701.9852 15.5121)" class="st1 st4">Peirce Quincincial</text>
</svg>
