<?xml version="1.0" encoding="utf-8"?>
<!-- Generator: Adobe Illustrator 24.1.3, SVG Export Plug-In . SVG Version: 6.00 Build 0)  -->
<svg version="1.1" id="Layer_2_1_" xmlns="http://www.w3.org/2000/svg" xmlns:xlink="http://www.w3.org/1999/xlink" x="0px" y="0px"
	 viewBox="0 0 792 422.7" style="enable-background:new 0 0 792 422.7;" xml:space="preserve">
<style type="text/css">
	.st0{fill:none;}
	.st1{fill:#608161;}
	.st2{fill:none;stroke:#000000;stroke-width:2;stroke-miterlimit:9.9996;}
	.st3{font-family:'HalyardMicroMedium';}
	.st4{font-size:10px;}
	.st5{font-size:8px;}
</style>
<g>
	<path class="st0" d="M246.4,415.9c0,0.1-0.1,0.3-0.1,0.4c1.2,0.3,2.4,0.5,3.5,0.7l0,0c-1.1-0.2-2.2-0.5-3.4-0.7
		C246.3,416.1,246.4,416,246.4,415.9z"/>
	<path class="st0" d="M269.6,3.2L269.6,3.2c-0.1,0-0.2,0.1-0.3,0.1C269.4,3.3,269.5,3.2,269.6,3.2z"/>
	<path class="st0" d="M427.1,93.9h8.6c-0.6-0.5-1.3-1-1.7-1.7c-0.6-1.1-0.7-2.3-1.3-3.4c-1-2-2.2-3.9-3.1-6c-0.5-1-0.9-2.3-0.6-3.3
		c0.3-1.4-0.3-2.2-1.2-2.8c-1.2-0.9-2.6-1.5-3.8-2.5c-1.6-1.3-4.1-1.6-4.3-4.4c0-0.3-0.4-0.6-0.7-0.8c-0.9-0.5-1.8-0.9-2.8-1.4
		c-0.9,0.7-1.2,2.5-0.5,3.5c0.9,1.3,1.7,2.7,2.6,3.9c0.6,0.8,1.2,1.6,2,2c2.2,1.2,4,2.8,5.8,4.6c0.4,0.4,0.7,1,1.3,1.9
		c-1-0.3-1.5-0.5-2-0.6c-0.6-0.1-1.3-0.2-1.7,0.1c-0.3,0.3-0.1,1.1,0,1.6c0,0.5,0.3,1.2,0.2,1.6c-0.6,1.5-1.4,2.9-2.1,4.3
		c-0.2-0.1-0.5-0.1-0.7-0.2c0.1-0.6,0.2-1.3,0.3-1.9c0.1-0.7,0.4-1.4,0.4-2.1c-0.1-3.2-2.5-5.1-4.9-6.2s-3.6-3.2-5.3-4.9
		c-0.7-0.8-1.1-2-1.5-3.1c-0.5-1.5-2-1.9-3.3-0.9s-2.7,1.9-4.1,2.7c-0.6,0.3-1.5,0.3-2.1,0c-2.6-1.2-4.2-0.4-4.2,2.4
		c0,1.1-0.1,1.9-1.4,2.5c-2.8,1.2-4.7,3.3-5.2,6.5c0,0.2-0.3,0.4-0.2,0.5c1.7,1.8-0.1,3-0.9,4.1c-1.2,1.9-2.3,4-5,4.1
		c-0.5,0-1,0-1.4,0.1c-1.1,0.3-2.6,0.3-2.8,1.8c-0.2,1.4,1,2.1,2.8,2.1c0.5,0,1.3-0.2,1.6,0.1c1.4,1.3,2.1,0,3.2-0.6
		c1.8-1.2,3.7-2.2,5.6-3.1c1.1-0.5,2.6-0.5,3.7-1.1c1.4-0.8,2.5-0.9,3.8-0.1c0.3,0.2,0.7,0.1,1.1,0.1c3-0.5,6.1-1.1,9.1-1.6
		c0.3,0.7,0.4,1.2,0.6,1.8c0.5-0.5,0.8-0.9,1.2-1.4c0.1,0.3,0.3,0.5,0.2,0.6c-1.3,2-0.4,3.9,0.4,5.8c0.2,0.4,0,0.9,0,1.4
		c-0.1-0.1-0.2-0.1-0.3-0.2c-0.7,0.9-1.3,1.7-2,2.6c0.2,0,0.4,0,0.7,0c0.6,0.6,1.1,1.2,1.8,1.7c1,0.7,2,1.8,3,1.9
		c2.8,0.2,4.5,1.5,5.5,4c0.2,0.4,0.5,0.9,0.9,1.1c2.1,1.2,4.3,2.4,6.4,3.6c1.4-2,1.5-2,1.3-4.6l1.3-3.7h-4.3V93.9z M407.6,87.2
		c-0.6-2.1-1.2-3.9-1.4-5.8l0,0l0,0l0,0c0-0.5,1-1.2,1.7-2c0.2-3,0.2-3,1.3-3.9c-0.3,1-0.4,1.9-0.3,2.8s0.3,1.7,0.4,2.6
		c0.1,0.6,0.2,1.1,0.2,1.7C409.7,84.7,408.5,85.6,407.6,87.2z M420.3,94.3c-0.2,0-0.4,0.1-0.5,0.1c-0.6-1.3-1.9-1.7-3-2.4
		c-0.8-0.5-1.4-1.2-1.6-2.5l0,0v-0.1c1.9-0.1,3.8-0.3,6-0.4v0.1l0,0c-0.3,1.9-0.5,3.5-0.7,5.2C420.4,94.3,420.4,94.3,420.3,94.3z"/>
	<path class="st0" d="M160.1,16.7c0,0.2,0,0.5-0.1,0.7c1.5,0.5,3,1.5,4.5,1.5c3,0,5.9-1.2,9.1,0.4c-0.5-1.1-0.9-1.7-1.2-2.4
		C168.3,18.8,164.2,17.9,160.1,16.7z"/>
	<path class="st0" d="M248.8,414.4C248.8,414.4,248.7,414.4,248.8,414.4c-0.2,0.4-0.4,0.9-0.6,1.5h0.1
		C248.5,415.3,248.7,414.8,248.8,414.4z"/>
	<path class="st0" d="M158.5,29.8c0.1,0.1,0.2,0.3,0.3,0.4c0.8-0.5,1.7-1,2.5-1.6c0,0-0.3-0.6-0.5-1
		C159.9,28.5,159.2,29.2,158.5,29.8z"/>
	<path class="st0" d="M449.6,256.8c1.3,2.8,1.1,6.1,2.9,8.7c-1.3-6.1-2.5-12.2-3.7-18.6C449.3,250.4,448.1,253.7,449.6,256.8z"/>
	<path class="st0" d="M461.4,65.9c-0.5,1-0.3,1.4,0.8,1.6c1.9,0.5,3.3,0.1,3.8-2.1C464.1,64.1,462.2,64.3,461.4,65.9z"/>
	<path class="st0" d="M451.4,79.8c0.9,0.2,1.5,0.1,2.1-0.6c1.7-1.8,5.4-2.3,7.5-1.1c2.9,1.7,6,2.3,9.4,2c2-0.2,3.4-1.4,2.8-3.1
		c-0.4-1.1-0.6-2.3-2-3c-1.9-1-3.3-2.7-5.1-3.8c-1.6-0.9-3.3-1.9-5.3-1c-1.1,0.5-2.1,1-3.2,1.4c-0.6-1.1-1.2-2.1-1.9-3.3
		c0.1-0.2,0.4-0.7,0.8-1.3c-1-0.3-1.9-0.4-2.6-1c-1-0.9-1.7-0.5-2.2,0.3c-0.7,1.1-1.1,2.4-1.7,3.8c-0.1,0.1-0.8,0.1-1.1,0.4
		c-1.1,1.8-2.4,3.6-2.9,5.6c-0.2,1.3,0.8,2.8,1.1,4.1C448.6,79.4,450.1,79.4,451.4,79.8z"/>
	<path class="st0" d="M454.9,31.6c-0.2,0.1-0.4,0.2-0.6,0.3C454.5,31.8,454.7,31.7,454.9,31.6z"/>
	<path class="st0" d="M150.7,20.3c-1.6-0.7-3,0.4-4.5,0.4c-0.2,0-0.4,0.4-0.7,0.7c-0.4,0.4-0.7,0.8-1.5,1.7c1.3-0.3,2.1-0.5,3-0.7
		c0.4-0.1,0.9-0.4,1-0.2c1.4,1.1,1.7,0,2.1-1c2.1,1.2,3,1,3.6-0.7C152.7,20.4,151.6,20.6,150.7,20.3z"/>
	<path class="st0" d="M455.1,31.4C455.1,31.4,455.2,31.4,455.1,31.4c0.2-0.1,0.2-0.7,0.1-0.8c-0.5-0.1-1-0.4-1.4-0.7
		c0.4,0.3,0.9,0.6,1.3,0.8C455.2,30.7,455.2,31.3,455.1,31.4z"/>
	<path class="st0" d="M459.7,109.2c0.5-2,1.1-4.1,1.4-6.1c0.4-2.3,0.7-4.6,0.7-6.9c0-1.7-1.5-2.3-2.7-1.5c-1.8,1.4-3.3,1.5-5,0.2
		c-1.4-1.1-2.4-1-3.4,0.3c-0.3,0.3-0.6,0.6-0.7,0.7c-1.7-1.1-3.3-2.1-5-3.3c-0.1-2.7-0.1-2.7-1.9-3.3c0.1-0.7,0.2-1.4,0.3-2.1
		c-0.9-0.4-1.9-2.6-1.1-3.6c0.9-1.3,0.1-2.1-0.7-2.5c-1.3-0.7-3.1,0.2-3.5,1.2c-0.1,0.4-0.3,0.8-0.4,1.3c-0.6-0.4-1.1-0.6-1.5-0.9
		c0,0.8,0.3,1.4,0.5,2c0.1,0.5,0,1.1,0,2.2c0.8,0.5,3.2,0.7,2,3.2c-2.1,0.4-2.4,1-1.7,2.9v0.9h4.6v12.4h-5v0.8
		c2.6,2,5.3,3.5,8.6,4.2c0.9,0.2,1.7,0.9,2.5,1.2c0.4,0.2,1.2,0.2,1.4,0c1.6-1.7,3.7-2.2,5.8-1.1
		C457.1,112.5,459.1,111.6,459.7,109.2z M458.8,98.8c-1.3,0.8-2.3,1.5-3.7,2.3C455,98.3,456.4,97.5,458.8,98.8z"/>
	<path class="st0" d="M604.1,48.6c1.2,0.4,1.9,0.1,3.7-1.8c1.8-1.9,2.2-2.9,1.6-4.5C607.8,44.3,606,46.4,604.1,48.6z"/>
	<path class="st0" d="M223.6,69.9c0.1,0.7,0.6,1.2,0.9,1.8c0.4,0.7,0.8,1.3,1.3,2.1c0.4-1.2,0.7-2.3,1-3.4c0.2-0.6,0.3-1.2,0.5-1.8
		c0.5,0.3,1.1,0.5,2.1,1.1c-0.4-1.3-0.7-2.3-1-3.5c-0.6,0.2-1.1,0.6-1.6,0.6c-0.6,0-1.5,0-1.6-0.3c-0.3-0.8-0.7-1.6-1.6-1.2
		c-0.8,0.3-1.3,1.1-2.1,1.8C223.4,68.1,223.3,68.1,223.6,69.9z"/>
	<path class="st0" d="M210.2,63.4c0.9-0.6,2.7-1.1,3.3-0.6c1.6,1.2,3.2,1.5,5,1.3c0.8-0.1,1.5-0.7,2.2-1c-0.6-0.7-1.1-1.5-1.7-2.2
		c-0.6-0.6-1.2-1.2-1.8-1.7c-0.6-0.4-1.3-1.2-1.8-1.1c-1.1,0.2-2.2,0.6-3.2,1.3c-1.6,1-2.9,2.3-4.5,3.6
		C208.4,63.2,208.9,64.3,210.2,63.4z"/>
	<path class="st0" d="M215.5,69.6c0,0.6-0.3,1.1-0.5,1.7c-0.8,2.5-0.6,4.7,0.5,6.9c0.3,0,0.6,0,0.8,0c0.2-1.5,0.6-2.9,0.7-4.4
		c0-2.3-0.2-4.6,2-6.1c0.3-0.2,0.3-0.8,0.5-1.3C216.5,66.1,215.7,66.8,215.5,69.6z"/>
	<path class="st0" d="M237.2,72.7c0-0.2,0.1-0.3,0.1-0.5c-1-0.1-2-0.6-2.9-0.4c-1.2,0.2-2.4,0.9-3.6,1.4c0,0.1,0.1,0.1,0.1,0.2
		C233,73.3,235.1,73,237.2,72.7z"/>
	<path class="st0" d="M224.7,78.3c0.3,0.3,0.6,0.6,0.7,0.8c1.9-1.2,3.8-2.3,5.7-3.5c-0.1-0.2-0.2-0.3-0.2-0.5
		C229.1,76.6,226.1,75.6,224.7,78.3z"/>
	<path class="st0" d="M458.6,270.3c-0.5,3.2,0.6,6.3,0.1,9.5c-0.3,1.9,0.6,4.1,1,6.2c0.1,0.4,0.4,0.8,0.6,1.1
		c-0.4-5.7-0.8-11.3-1.2-16.9C458.9,270.2,458.8,270.3,458.6,270.3z"/>
	<path class="st0" d="M474.7,165.7c-0.3-0.4-0.9-0.8-1-1.2c0-0.5,0.5-0.9,0.8-1.5c-0.6-2.1-1.3-4.4-2-6.7c-0.4-1.3-0.6-2.8-1.4-3.7
		c-2.5-2.5-2.9-5.5-2.8-8.7c0-2.1-0.6-4-1.5-5.8c-0.4-0.8-1.1-1.4-1.4-2.2c-1.1-3.1-2.1-6.3-3.3-9.5c-0.9-1.5-1.9-3.1-2.5-4.3
		c-0.4,0.6-1.1,1.4-1.6,2.1c0.3,1.4,0.4,2.9,0.9,4.3c0.9,2.8,2.1,5.5,2.9,8.2c0.3,1.1-0.1,2.4,0.2,3.4c0.5,1.4,1.6,2.6,2,3.9
		c0.7,2.9,1.2,5.9,1.5,8.9c0.2,2.1,0.6,3.9,1.7,5.7c0.6,0.9,0.9,2.1,1.2,3.3c0.4,1.9,0.7,3.8,1.1,5.9c0.5-0.7,0.8-1.2,1.2-1.7
		c0.5,1,0.9,1.8,1.3,2.8c-1.2,0.6-0.9,1.4-0.1,2.3c0.8,0.9,1.4,1.9,2,2.9c0.9,1.7,1.8,3.4,2.9,5.5c-0.5-4.5-0.9-8.4-1.4-12.3
		C475.3,166.7,475,166.2,474.7,165.7z"/>
	<path class="st0" d="M461.9,28.4c-0.5-0.3-1.1-0.1-1.7-0.1C460.8,28.3,461.5,28.2,461.9,28.4z"/>
	<path class="st0" d="M457.1,230.5c-1,0.6-2.6,0.7-2.7,2.4c-0.2,2.5-0.5,5-0.7,7.6c1.4,0,2.3,0,3,0c0.1-0.9-0.1-2,0.4-2.6
		c1.7-2,1-4.3,1-6.4C458.1,231.2,457.2,230.4,457.1,230.5z"/>
	<path class="st0" d="M495.1,76.7c0-0.2,0.1-0.5,0-0.6c-1.6-1.4-3-2.9-3.6-5c-0.2-0.9-1.1-1.6-1.6-2.3c0.1,0,0.1-0.1,0.2-0.1
		c-0.6-0.8-1.2-1.5-2-2.3c-0.4,0.4-1,1-1.7,1.4c-1.1,0.7-1.5,1.4-0.6,2.6c0.3,0.4,0.4,1.5,0.2,1.7c-1,0.7-0.5,1.5-0.2,2.1
		c1.5,2.7,3.1,5.3,4.7,7.9c-0.5,1.6-0.9,3.4-1.7,5.1c-0.4,0.9-1.2,1.9-0.3,2.6c1.6,1.4,3.4,2.7,5.3,3.7c1.3,0.6,3.4-0.5,3.4-1.5
		c-0.2-2.5-0.4-5.1-0.8-7.6C496,81.8,495.5,79.3,495.1,76.7z"/>
	<path class="st0" d="M537.3,15.5c-2.6,1.2,1.2,2.6,0,4c0.9-0.3,1.6-0.6,2.2-1.2c0.1-0.1-0.1-0.9-0.4-1.2
		C538.7,16.5,538,16.1,537.3,15.5z"/>
	<path class="st1" d="M347.3,14.2c-0.7-0.4-1.4-0.8-1.9-1.1c1.4-3.1,4.9-1.9,7.3-3.5c-0.7-0.5-1.2-0.8-1.7-1.1
		c-0.5,0.4-1,0.8-1.4,1.1c1.1-0.9,0.1-1.3-0.4-1.7c0.8-0.6,1.4-1.1,2-1.6c0.3,0.3,0.5,0.5,0.8,0.7c0.1-0.1,0.2-0.1,0.3-0.2
		c-0.2-0.5-0.4-1-0.6-1.5c1.3-0.5,2.6,0.9,4,0c0.6-0.4,1.6-0.3,2.4-0.4c3-0.2,3-0.2,2.3-2.7c-0.5,0.4-1,1.1-1.6,1.2
		c-1.7,0.3-3.3,0.3-5,0.4c-2.7,0.2-5.5,0.3-8.2,0.4c-0.4,0-0.9,0-1.4-0.1c-1.4-0.4-2.8-0.9-4.3-1c-2.5-0.1-5.1,0-7.6,0
		c-1.2,0-1.9-0.4-1.7-1.8c-0.2,0-0.4,0-0.7,0.1c0,0.5,0,1,0,1.7c-0.1,0-0.1,0-0.2,0c0,0.1,0,0.1,0,0.2c-3.1,0-6.2-0.1-9.2,0
		c-3.8,0-7.5,0.3-11.3,0.3c-2.6,0-5.1-0.2-7.7-0.3c-1.3,0-1.1-1-1.1-1.8c-0.1,0-0.3,0-0.5,0c0,0.7,0,1.2-0.5,1.4
		c-0.2,0.2-0.6,0.4-1.2,0.4c-8.9,0-17.7,0.2-26.6,0.3c-0.4,0-0.7-0.1-1-0.1c-0.2-0.8-0.4-1.4-0.6-2.1h-0.1c0,0.7,0,1.2,0,1.7
		c-0.1,0-0.2,0.1-0.3,0.1l0,0c-0.1,0-0.2,0.1-0.3,0.1c-0.7,0.2-1.5,0.5-2.2,0.6c-0.6,0.2-1.2,0.3-1.8,0.5c-0.5,0.1-1-0.1-1.5-0.2
		c-2.1-0.3-4.3-0.9-6.4-1c-5.6-0.1-11.2,0-16.8,0c-0.2-0.6-0.4-1.2-0.6-1.8h-0.1c0.1,1-0.1,1.5-1.1,1.7c-0.2,0.1-0.6,0.1-1,0.1
		c-7.7,0-15.5,0.1-23.2,0.3c-1.4,0-2.8,0.3-4.2,0.4c-0.3-1-0.4-1.8-0.6-2.6c-0.2,0-0.3,0-0.4,0c-0.2,0.7-0.2,1.8-0.6,2
		c-1.2,0.5-2.6,0.7-3.9,0.8c-1.6,0.2-3.1,0-4.7,0.1c-1.2,0.1-2.3,0.4-3.4,0.6c3.4,0.9,6.8,1.6,10.2,1.8c3.4,0.2,6.8-0.5,10.2,0.3
		c-2.2,0.2-4.4,0.3-6.6,0.5c0,0.2,0,0.5,0,0.7c2,0,4,0,6,0c-1.2,0.4-2.4,0.4-3.6,0.4c-0.9-0.1-1.8,0-2.7-0.2c-1-0.2-2-0.8-3-0.9
		c-2-0.1-4.1,0-6.1,0c-1.6,0-3.3,0-5,0c0,0.2,0,0.3,0,0.4c0.5,0.2,1,0.4,1.5,0.6c-0.6,0.2-1.2,0.4-1.8,0.6c0.1,0.3,0.1,0.5,0.1,0.8
		c2.1,0.1,4.3,0.2,6.6,0.3c-0.2-0.6-0.3-1-0.6-1.9c1.1,0.4,2,0.8,2.9,1.1c0.8,0.3,1.7,0.7,2.5,0.7c7,0,14,0,21,0
		c0.7,0,1.3-0.3,2-0.5c0-0.1-0.1-0.3-0.1-0.4c-0.3-0.2-0.7-0.3-1.1-0.4c1.4-0.2,3,0.1,3.9-0.6c1.6-1.1,3.2-0.9,4.9-1
		c0.6,0,1.3-0.1,1.9-0.3c1.2-0.4,2.4-0.9,3.6-1.1c1-0.2,2.1,0.1,3.2-0.1c3.7-0.6,7.4-1.1,11-0.1c-3.6,0.2-7.3,0.3-11,0.5
		c-0.9,0-1.7,0-1.7,1.3c1.4,0.2,2.7,0.4,4,0.5c4.7,0.3,9.4,0.6,14.1,0.7c5.1,0.1,10.1,0.2,14.3,2.3c0.6,1.5,1.1,2.5,1.5,3.6
		c2.9-2.1,5.4-0.4,8.3-0.1c-0.5,0.5-0.8,0.7-1.1,1c0.8,0.2,1.6,0.5,2.4,0.7c-1.7,2.2-4.2,1.4-6.8,1.8c0.5,1.6,0.6,3.2,1.4,4.2
		c1.3,1.5,3,2.4,4.1,4.1c0.6,1,2,1.5,2.9,2.3c1.9,1.6,3.9,3.1,6.7,3.1c1.4,0,2.9,0.5,4,1.2c1.3,0.8,2,0.4,2.7-0.5
		c1.8-2.3,2.4-5.4,5.2-6.9c0.1-0.1,0.2-0.2,0.2-0.3c0.8-2.2,2.6-2.5,4.6-2.7c1.7-0.2,3.4-0.2,4.9-0.8c4.6-1.9,9.2-3.4,14.3-3.6
		c2.5-0.1,4.9-0.8,7.4-1c2.4-0.2,4.1-2.2,6.5-2C346.8,14.9,347,14.6,347.3,14.2z"/>
	<path class="st1" d="M299.7,1.5c0.1,0,0.1,0,0.2,0c0-0.1,0-0.1,0-0.2c-9.9,0-19.8,0-29.7-0.1c0.2,0.7,0.4,1.3,0.6,2.1
		c0.3,0.1,0.6,0.1,1,0.1c8.9-0.1,17.7-0.2,26.6-0.3c0.4,0,0.8-0.1,1-0.2C299.7,2.6,299.8,2.1,299.7,1.5z"/>
	<path class="st1" d="M299.9,1.5c-0.1,0-0.2,0-0.2,0c0.1,0.6,0,1.1-0.3,1.4C299.9,2.7,300,2.2,299.9,1.5z"/>
	<path class="st1" d="M239.6,1.4c0.1,0,0.2,0,0.3,0V1.3c-9.9,0-19.8,0-29.7-0.1c0.2,0.8,0.4,1.6,0.6,2.6c1.4-0.1,2.8-0.4,4.2-0.4
		c7.7-0.1,15.5-0.2,23.2-0.3c0.3,0,0.5,0,0.7,0C239.5,2.8,239.7,2.3,239.6,1.4z"/>
	<path class="st1" d="M239.9,1.4c-0.1,0-0.2,0-0.3,0c0.1,0.9-0.1,1.4-0.7,1.7C239.8,2.9,240,2.4,239.9,1.4z"/>
	<path class="st1" d="M269.6,3.2c0-0.5,0-1.1,0-1.8c0.1,0,0.2,0,0.3,0V1.3c-9.9,0-19.8,0-29.6,0c0.2,0.6,0.4,1.2,0.6,1.8
		c5.6,0,11.2-0.1,16.8,0c2.1,0,4.3,0.7,6.4,1c0.5,0.1,1,0.3,1.5,0.2c0.5-0.1,1-0.2,1.5-0.4c0.7-0.2,1.4-0.4,2.2-0.6
		C269.4,3.3,269.5,3.2,269.6,3.2z"/>
	<path class="st1" d="M269.6,3.2c0.1,0,0.2-0.1,0.3-0.1c0-0.5,0-1,0-1.7c-0.1,0-0.2,0-0.3,0C269.6,2.1,269.6,2.7,269.6,3.2z"/>
	<path class="st1" d="M267.1,3.9c0.7-0.2,1.5-0.4,2.2-0.6C268.5,3.5,267.8,3.7,267.1,3.9z"/>
	<path class="st1" d="M329.9,1.4V1.3c-9.8,0-19.5,0-29.3,0c0,0.8-0.2,1.7,1.1,1.8c2.6,0.1,5.1,0.3,7.7,0.3c3.8,0,7.5-0.2,11.3-0.3
		c2.9,0,6,0,9,0c0-0.6,0-1.2,0-1.6C329.8,1.5,329.8,1.4,329.9,1.4z"/>
	<path class="st1" d="M329.9,1.4c-0.1,0-0.1,0-0.2,0.1c0,0.4,0,1,0,1.6c0.1,0,0.1,0,0.2,0C329.9,2.5,329.9,1.9,329.9,1.4z"/>
	<path class="st1" d="M513.2,4.4c-1.7,0.4-2.3-0.2-2.2-1.6c0.1-0.5-0.2-1-0.3-1.5c-0.2,0-0.3,0-0.4,0c0,1.6,0.6,3.6-2.5,3.3
		C510.6,6,511,6,513.2,4.4z"/>
	<path class="st1" d="M571.8,4.7c-0.4-1.2-0.8-2.3-1.1-3.4c-0.2,0-0.3,0-0.3,0c0,0.6,0,1.2,0,1.8c0,0.5-0.2,1.4,0,1.5
		C570.9,4.8,571.6,4.7,571.8,4.7z"/>
	<path class="st1" d="M392.6,54C392.6,54,392.7,54,392.6,54c0.1,0,0.1-0.1,0.1-0.1L392.6,54z"/>
	<path class="st1" d="M769.4,20.2c-2-0.5-4-1.1-5.9-0.8c-1.7,0.3-2.8-0.3-4.1-0.8c-1.4-0.4-2.8-1.1-4.1-1c-2,0.1-3.7-1.8-5.7-0.5
		c-0.1,0-0.3-0.2-0.5-0.2c-1.2-0.2-2.3-0.5-3.5-0.5c-3.6-0.1-7.1,0-10.7-0.1c-0.9,0-1.8-0.4-3.1-0.7c0,0.2-0.1,0.8-0.3,1.8
		c-1.1-0.5-2.1-1-3.1-1.4c-0.5-0.2-1.1-0.3-1.6-0.3c-4.1,0.1-8.1,0.4-12.2,0.5c-1.3,0-2.9,0.2-3.8-0.5c-1.9-1.4-3.9-1.2-5.9-1.3
		c-3-0.1-6.1,0-9.1-0.4c-3.9-0.6-7.9-1.5-11.9-1.4c-7.3,0.2-14.6,0.4-21.9,0.7c-0.9,0-1.9,0.6-2.8,0.4c-1.9-0.5-3.7-0.5-5.5,0.4
		c-1,0.5-2.3,0.3-3.4,0.2c-0.8-0.1-1.3-0.6-0.5-1.4c0.2-0.2,0.2-0.6,0.3-0.9c-5.6-0.7-11-1.5-16.5-0.6c-5.4,0.9-10.9-1.8-16.8,0
		c0.5-0.7,0.9-1.1,1-1.5c0-0.4-0.1-1-0.3-1.1c-0.6-0.3-1.3-0.6-2-0.6c-4-0.3-8,0.5-11.9-1c-1.2-0.4-2.6-0.2-3-1.4
		c-3.4,0.2-6.6,0.3-9.8,0.5c0,0.2,0,0.5,0,0.7c1.5,0,3.1,0,4.6,0c0,0.1,0,0.3,0,0.4c-4.1,0.4-8.1,0.8-12.2,1.2
		c-0.2-1.2-0.8-1.2-2-0.9c-1.7,0.5-3.5,0.6-5.3,0.8c-4.4,0.4-8.8,0.7-13.2,1.1c-0.3,0-0.5,0.2-0.8,0.3c-0.8,0.3-1.5,0.7-2.3,0.7
		c-2.7,0.1-5.5,0-7.8,0c-0.7,0.8-1.1,1.7-1.5,1.7c-3.1,0-6.2,0.8-9.2-0.7c-0.3-0.1-1.1,0-1.3,0.3c-1.2,1.5-2.2,1.4-3.9,0.7
		c-1.8-0.7-3.8-0.9-5.8-1.1c-0.7,0-1.4,0.7-2.1,1c-1.7,0.8-3.4,1.5-5.6,2.5c2,1,3.4,1.7,5.2,2.7c-1,0-1.7,0.3-2.2,0.1
		c-4.2-1.9-8.6-1.8-13.1-1.7c-0.5,0-1.2,0.2-1.4,0.5c-0.6,0.9-1.3,0.8-2.2,0.5c-0.6-0.2-1.8-0.2-1.9,0.1c-0.6,1.4-1.6,0.8-2.2,0.4
		c-2.8-1.8-5.9-0.6-8.6-0.3c-2.2,0.3-4.3,0.5-6.5,0.6c-0.1,0.1-0.3,0.3-0.4,0.4c-1,0.3-2.1,0.4-3.1,0.9c-0.8,0.4-1.4,0.5-2-0.2
		c-1.4-1.7-3.2-1.1-4.9-1.1c-0.4,0-1.2,0.3-1.3,0.6c-0.2,0.3,0.2,0.9,0.4,1.4c0.1,0.3,0.4,0.5,0.7,0.8c-1.6,1.5-2.9,0.7-3.7,0
		c-1.1,0.3-1.8,0.5-2.5,0.8c-1,0.5-2.2,0.8-2.9,1.5c-0.8,0.9-2.2,1.4-3.3,0.9c-0.7-0.3-1.4-0.4-2.1-0.5c-0.2,0-0.5,0.3-0.8,0.4
		c0.2,0.2,0.5,0.5,0.8,0.6s0.7,0.1,1.1,0.1c-1.1,0.6-4.2,0.4-4.9-0.3c-0.1-0.2-0.3-0.4-0.3-0.6c0.3-1.8-0.8-2.2-2.3-2.4
		c0.2-0.3,0.4-0.4,0.6-0.4c4.4,0.3,8.8,1.3,13.2-0.1c0.3-0.2,0.7-0.5,1-0.8c-0.3-0.4-0.5-0.9-0.8-1c-1.1-0.3-2.2-0.3-3.3-0.5
		c-2.9-0.6-5.9-1.2-8.9-1.7c-2.4-0.5-4.9-0.7-7.3-1.1c-2.1-0.4-4.2-1.4-6.3-1.4c-3.7,0-7.5,0.4-11.2,0.7c-1.4,0.2-2.7,0.6-4.1,0.9
		c-0.4,0.1-0.9,0.1-1.1-0.1c-0.8-1-1.5-0.8-2.4-0.1c-0.4,0.3-1.1,0.3-1.7,0.4c-2.1,0.4-4.2,0.8-6.3,1.2c0.1,0.6,0.2,1.1,0.2,1.7
		c-1.7,0.8-3.8,1.3-5,2.6c-0.9,1-2.1,1.4-2.9,2.2c-2,2-4.8,1.9-7,3.1c-0.6,0.3-1.4,0.7-2.1,0.7c-1.4,0-2.4,0.5-2.6,1.9
		c-0.1,1.2-0.7,2.8,1.3,3.3c-1.2,1.9-0.9,2.7,1,3.1c0.5,0.2,0.9,0.6,1.3,0.6c1.2,0,2.4,0.3,3.5-0.1c1.6-0.5,3.1-1.5,4.5-2.2
		c1,1.7,1.7,3.3,2.7,4.6c0.9,1.1,0.3,1.6-0.5,2.1c-2,1.1-2.1,1.5-0.5,3.4c0.8-0.6,1.6-1.2,2.4-1.8c0.9,1.1,1.7,0.4,2.6-0.2
		c1.2-0.8,2.5-1.4,3.8-2.1c0.5-0.3,1.1-0.6,1.3-1c0.5-1.3,0.9-2.7,1.2-3.5c1.4-0.7,2.4-1.2,3.4-1.8c0.7-0.5,0.8-1-0.1-1.5
		c-1.2-0.7-2.3-1.6-3.7-2.6c1-0.9,1.7-1.6,2.5-2.1c1.8-1.1,4.2-1.8,5.6-3.3c2.3-2.5,4.9-1.9,7.5-1.9c0.1,0.3,0.2,0.5,0.3,0.7
		c-2.5,1.3-5.1,2.5-7.9,3.8c0.6,1.2,1.3,2.5,0.1,3.8c-0.1,0.1,0.4,1.1,0.7,1.2c2.1,0.5,3.9,1.8,6.5,0.6c2.2-1,4.8-0.9,7.3-1.1
		c0.6,0,1.3,0.5,2,0.8c-0.7,0.3-1.2,0.2-1.7,0.3c-2.8,0.3-5.5,0.8-8.3,0.9c-1.7,0-2.7,1.3-4.2,1.7c-0.3,0.1-0.5,0.4-0.6,0.7
		s-0.1,0.7,0.1,0.8s0.7,0,0.8-0.1c1.2-1.7,2.6-0.9,4.1-0.6c-0.5,0.9-0.8,1.6-1.2,2.3l-5.7,4.5c-0.1,1.2-3,3.6-3.9,3
		c-3.3-2.3-5.7,0.4-8.9,1.1c-0.7-0.4-1.8-1-2.9-1.6c-1.6,0.8-3.3,1.8-5.2,0.4c1.3-1.2,0.4-2.1-0.3-2.8c0.3-1.3,0.6-2.5,0.9-3.6
		c-1.5-1.4-2.5-0.1-3.7,0.4c-2,0.7-2.6,2-1.6,3.9c0.7,1.5,0.3,2.8-1.2,3.5c-0.7,0.3-1.5,0.5-2.3,0.5c-1.7,0.1-3,0.7-3.8,2.2
		c-1.5,2.5-3.7,3.8-6.5,4.3c-0.1,0.7,0.2,1.6-0.2,2c-0.9,0.9-2,1.5-3.1,2.1c-0.2,0.2-0.7-0.1-1-0.3c-1.2-0.8-2-0.5-2.2,0.9
		c0,0.4,0,0.9-0.1,1.6c-2.2-1.5-4.2-1.9-5.9,0.3c0.4,0.8,0.9,1.5,1.3,2.3c2.7,0.2,5.5,2.3,5.8,4.8c0.3,2.2,0.1,4.5,0.1,7
		c-2-0.2-3.7-0.3-5.4-0.5c-2.3-0.2-4.7-0.5-7-0.7c-0.2,0-0.5,0-0.7,0.1c-0.8,0.5-1.9,0.9-2.3,1.6c-0.3,0.7,0.2,1.8,0.3,2.7
		c0.2,1.6,0.7,3.2,0.6,4.8c-0.1,1.4-0.9,2.7-1.4,4c-0.8,1.8-0.4,2.9,1.4,3.6c-0.2,0.2-0.4,0.3-0.4,0.5c-0.1,1.1-0.1,2.2,0.1,3.3
		c0.1,0.2,1.6,0.4,2.1,0.1c1.7-1,2.1,0.2,2.8,1.2c1,1.5,0.6,3.1,0.2,4.6c-0.6,2.1-1.4,4.2-3.3,5.3c-1.8,1-2.6,2.6-3.1,4.2
		c-0.7,2.4-0.9,5-1.2,7.5c-0.4,2.9-2,5.1-4.3,6.6c-1.5,0.9-2.7,1.8-2.7,3.8c0,0.8-0.7,1.6-1.1,2.3c-0.5,0.9-1.7,1.8-1.6,2.5
		c0.4,3.7-1.9,6.6-3,9.7c-1.5,4-0.9,7.9-1.5,11.8c0,0.1,0,0.4,0.1,0.5c1.4,2,1.8,4.2,1.7,6.6c-0.1,1.7-0.4,3.4-0.7,5.1
		c-0.5,2.5-1.2,5-1.7,7.5c-0.1,0.4-0.1,1.1,0.1,1.5c0.6,1.6,0.9,3.1,0.7,4.9c-0.2,2.1-0.1,4.4,0.6,6.4c0.6,1.8,1.8,3.7,3.3,4.9
		c2,1.6,2.9,3.4,3.1,5.9c0.1,1.6,0.3,3.3,1,4.7c0.6,1.4,1.9,2.5,2.9,3.8c1.8,2.4,3.7,4.8,5.5,7.3c1.3,1.8,2.3,1.9,4.2,0.7
		c1.4-0.8,3.1-1.3,4.7-1.6c1.2-0.2,2.4,0.4,3.6,0.6c2.3,0.4,4-0.8,5.4-2.3c1.7-1.8,3.7-2.9,6-3.6c0.6-0.3,2-0.1,2.2,0.3
		c0.8,1.8,1.6,3.6,1.9,5.5c0.5,2.6,1.8,3.4,4.3,2.4c0.8-0.3,2.5-0.3,2.7,0.1c0.9,1.7,1.7,3.5,2,5.3c0.5,3.3-1.1,6.5-0.7,9.8
		c0.1,1.1,0.1,2.6-0.5,3.4c-1,1.4-1.1,2.6-0.5,4.1c0.6,1.6,1,3.3,1.5,4.9c1.4,4.1,4.6,7.4,4.9,12c0.1,2.4,1.2,4.8,1.5,7.2
		s1.8,4.8,0.1,7.2c-0.1,0.1,0,0.3,0,0.5c0.3,1.9,0.3,3.9,1.2,5.5c1.4,2.6,0.1,4.8-0.4,7.1c-0.4,2-1.4,3.8-1.9,5.8
		c-0.4,1.9-0.3,4-0.9,5.9c-1.1,3-0.8,6.1-0.4,9c0.5,3.4,2,6.6,3,9.9c0.6,1.9,1.5,3.8,1.8,5.7c0.7,4.8,1,9.7,1.5,14.5
		c0.3,3.3,0.7,6.5,2.8,9.3c0.8,1,1.1,2.5,1.5,3.8c0.8,2.2,1.5,4.4,2.1,6.7c0.2,1-0.1,2.1-0.1,3.1c0,0.7,0,1.5,0.1,2.2
		c0.1,0.5,0.4,1,0.4,1.5c0.1,1,1.8,3.5,2.7,3.7c0.3,0.1,0.7,0.1,1,0c0.6-0.1,1.1-0.4,1.7-0.6c1-0.4,1.9-0.8,2.8-1.1
		c0.9-0.3,2.3-1,2.9-0.6c1.4,1,2.4,0.3,3.6-0.3c1.2-0.6,2.9-0.8,3.6-1.8c2.5-3.2,4.6-6.6,6.7-10c1.1-1.8,2-3.9,2.8-5.9
		c0.5-1.4,0.7-2.9,1.1-4.3c0.2-0.7,0.3-1.5,0.6-2.2c0.7-1.4,0.6-2.7-0.2-4.1c2.1-2.4,4.2-4.8,6.3-7.2c-1.4-1.1-1.1-1-0.8-2.4
		c0.3-1.5,0.2-3.1,0-4.6c-0.3-2.1-0.9-4.1-1.2-6.2c-0.1-0.5,0.1-1.1,0.4-1.6c1-1.7,2.3-3.2,3-5c1.1-2.6,2.7-4.7,5-6.3
		c0.3-0.2,0.8-0.5,0.9-0.9c0.7-2.2,1.8-4.4,2-6.7c0.3-3.9-0.4-8,0.2-11.9c0.5-4.2-2.6-7.4-2-11.4c0-0.2-0.2-0.3-0.2-0.5
		c-0.1-0.9-0.3-1.9-0.4-2.8c0-0.4,0-0.9,0-1.4c0.1-0.5,0.2-1.1,0.3-1.6c0-0.6,0.1-1.1,0-1.6c-0.5-2.3-1-4.5-1.5-6.7
		c-0.1-0.1-0.1-0.4,0-0.5c1-2.1,1.4-4.2,1.9-6.4c0.6-3,2.4-5.8,3.7-8.7c0.8-1.9,1.6-3.8,2.6-5.6c1.5-2.7,3.1-5.3,4.7-8
		c1.3-2.2,2.7-4.5,3.9-6.8c0.8-1.7,1.5-3.6,2.1-5.4c0.6-1.7,1-3.5,1.5-5.3s0.6-3.6,1.3-5.3c2-4.7,2.9-9.7,3-14.8
		c0-0.6-0.3-1.2-0.5-1.8c-0.7,0.2-1.3,0.4-1.9,0.7c-0.9,0.5-1.8,1.1-2.8,1.4c-1.2,0.3-2.5,0.2-3.6,0.7c-1.9,0.8-3.7,1.9-5.4,2.9
		c-0.6-1.4-0.9-3-1.8-3.9c-1.2-1.2,0.2-1.9,0.1-2.8c-0.2-1.7,1-1.6,2.1-1.6c0.3,0,0.6-0.4,0.9-0.6c1.3-1,2.4-2,3.7-2.9
		c0.7-0.5,1.6-0.8,2.3-1.3c2.5-1.8,5-3.7,7.4-5.6c0.6-0.5,1.2-1.3,1.3-2c0.4-2.7,2.5-3.5,4.5-4.1c1.5-0.5,1.9-1.2,2.1-2.4
		c0.1-0.6,0.3-1.3,0.7-1.7c1.8-1.5,3.6-3,4-5.6c0.2-1.4,0.1-3,1.8-3.8c0.2-0.1,0.2-0.7,0.3-1c0.5-1.6,1-3.1,1.5-4.7
		c0.2-0.6,0.4-1.3,0.3-1.9c-0.1-0.7-0.6-1.4-1-2c-0.7-1-1.2-2.2-2.2-2.8c-2.4-1.6-3.6-3.5-3.6-6.4c0-0.6-0.2-1.2-0.5-2.3
		c-0.8,0.9-1.2,1.4-1.6,2c-1.2,1.8-2,4.1-4.8,4.1c-0.7,0-1.3,0.6-2,0.9c-0.3-0.5-0.6-1.2-0.9-1.9c0.6-0.4,1.1-0.7,1.6-1.1
		c-0.6-1.4-0.8-3-1.7-3.9c-1.7-1.8-3.4-3.5-4.3-5.9c-0.5-1.5-1.2-2.9-1.9-4.4c0.1-0.2,0.5-0.5,0.6-0.9c0.3-1.4,1.4-1.9,2.5-1.7
		c0.6,0.1,0.9,1.5,1.2,2.3c0.8,2,0.7,4.5,3.2,5.6c0.3,0.1,0.5,0.6,0.8,0.9c2.5,2.4,4.8,4.2,8.2,1.4c0.5,1.8,0.5,4,2.9,4.7
		c2.2,0.6,4.4,1.5,6.7,2.1c0.5,0.1,1.1-0.2,1.7-0.3c0.5-0.1,0.9-0.4,1.3-0.4c2.2-0.2,4.5-0.3,6.8-0.5c0.2,0.2,0.4,0.5,0.5,0.8
		c0.6,1.7,1.2,3.4,2,5c0.4,0.9,1.3,1.6,1.7,2.5c0.9,1.9,1.7,3.9,2.6,5.9c0.3,0.6,0.6,1.5,1.1,1.7c1.2,0.5,2.6,0.7,3.2,2.2
		c0.3,0.7,0.9,1.3,1.2,2c0.2,0.4,0,0.9,0.1,1.4c0.5,3.8,1.1,7.7,1.7,11.5c0.2,1,0.2,2.1,0.5,3c1.2,3.8,2.4,7.6,2.5,11.7
		c0.1,1.1,0.4,2.1,0.7,3.1c0.6,1.9,1.3,3.7,1.8,5.6c0.5,2,0.7,4.1,1.1,6.2c0.2,0.6,0.3,1.2,0.7,1.6c0.5,0.5,1.3,0.9,1.9,1.3
		c0.3-0.7,0.9-1.4,1-2.1c0.2-1,0.1-2.1,1.5-2.4c0.4-0.1,0.7-0.7,1.2-1.3c0.1,0.5,0.3,0.9,0.3,1.3c-0.1,0.9-0.4,1.7-0.4,2.6
		c0,2.9-0.5,6,0.7,8.8c0.2,0.5,0.6,1.2,1,1.3c0.8,0.2,1.7,0.3,2.2-0.9c0.9-2.3,0.8-4.4,0.2-6.9c-0.7-2.8-1.8-5.4-2.6-8.1
		c-0.7-2.4-1-5-0.5-7.5c0.3-1.7-0.5-3.7,1.1-5.1c0.1-0.1,0-0.5-0.1-0.7c-0.3-1.1-0.8-2.3-0.9-3.4c-0.1-2-0.6-4.2,1.8-5.7
		c1.2-0.7,2-2.1,2.8-3.3c0.6-1,0.8-2.2,1.4-3.3c0.8-1.5,1.8-2.9,2.7-4.4c0.9-1.4,1.8-2.9,2.8-4.3c1-1.5,2.3-2.8,3.7-4.5
		c2.1-0.8,4.7-1.9,7.5-3c0.6,1.7,0.9,3.1,1.5,4.4c1,2.2,2.9,4.1,2.5,6.8c0,0.2,0.2,0.6,0.3,0.6c1.6,0.3,1.1,1.5,1.1,2.5
		c-0.1,2.2-0.1,4.4-0.4,6.6c-0.2,1.4,0.9,1.7,1.7,2.2c0.3,0.2,1.2-0.1,1.5-0.4c1-1.1,1.8-2.3,2.9-3.6c0.3,1.1,0.7,1.8,0.8,2.6
		c0.3,2.5,0.5,5.1,0.8,7.6c0.1,0.9,0.4,1.7,0.5,2.6c0.1,0.9,0.1,1.9,0.1,2.8c0,1.2-0.5,2.5-0.2,3.7c0.8,3.5,1.2,6.9-0.2,10.4
		c-0.2,0.4-0.2,1.1,0,1.5c0.9,2.4,2.1,4.6,2.9,7c0.7,2,1.1,4,1.5,6.1c0.2,1-0.1,2.2,0.1,3.2c0.6,2.6,1.4,5.1,2.1,7.7
		c-0.2,0.1-0.5,0.2-0.7,0.3c-2.6-3-5.2-6.1-6-10.2c-0.9-0.2-1.8-0.4-2.6-0.6c-0.1,0.2-0.1,0.4-0.2,0.6c-0.7-0.7-1.4-1.3-2.5-2.3
		c0.1,1.8-0.1,3.2,0.3,4.3c0.9,2.4,2.2,4.7,3.4,7c0.5,1,0.8,2.3,1.6,3.1c1.3,1.2,1.7,2.6,1.6,4.3c-0.1,1.6,0.4,2.9,1.3,4.3
		c1.1,1.7,1.7,3.9,2.3,5.9c0.6,1.9,0.8,4,1.4,5.9c1.2,3.6,3.5,6.5,5.4,9.7c0.3,0.4,0.8,0.8,1.3,0.9c2,0.4,3.4,0.9,2.1,3.4
		c-0.6,1.3,0.6,2,1.5,2.7c1.3,1,2.6,2.6,4,2.8c2.2,0.3,4.1,1,6.1,1.9c0.4,0.2,0.9,0.1,1.4,0.2c1.5,0.4,3.1,0.9,4.9,1.4
		c0.1-0.1,0.6-0.4,1.2-0.7c1.1-0.6,1.1-1.4,0.3-2c-1.3-0.9-2.8-1.5-4.4-2.3c0.4-0.3,0.8-0.8,1.3-1c1.9-0.6,1.1-1.3,0.2-2.2
		c-0.5,1.6-1.1,1.1-2,0.6c-3.5-2.1-4.4-1.6-5.6,0.5c-0.5-1.1-1.8-0.9-2.6-2.2c-0.8-1.4-3.2-1.7-5.1-2.6c0-1.9-0.1-4.1,0.1-6.2
		c0.1-1.3,0.8-2.5,1.1-3.7c0.2-0.8,0.5-1.7,0.3-2.4c-0.3-1.1-1.1-2-1.4-3c-0.5-1.7-0.8-1.9-2.5-0.8c0-0.3-0.1-0.8,0-0.9
		c1.2-1.1,0.4-1.7-0.5-2.3c-0.4-0.3-0.7-0.5-1-0.8l0,0l-0.1-0.1l0.1,0.1c-0.2-1.9-0.3-3.8-0.5-5.5c0.8-0.1,1.3-0.1,1.7-0.3
		c0.2-0.1,0-0.8-0.1-1.2c-0.2-1-0.5-1.9-0.7-2.9c-0.1-0.5-0.2-1.1-0.3-1.7c-0.5-2.1-1.8-4-1.5-6.4c0.1-1.3-0.1-2.7,0-4
		c0.1-2.6-1.4-4.4-2.6-6.4s-3.6-3.3-2.9-6.1c0.1-0.2-0.3-0.5-0.3-0.8c-0.3-2-2.4-3.7-1.2-5.4c-0.4-1.1-0.9-1.8-0.9-2.5
		c0.1-1.2,0.5-2.4,0.7-3.6c0.5-2.7,0.8-5.5,1.2-7.9c0.4,0.5,0.8,1.7,1.3,1.7c1.4,0.1,2,0.5,1.9,1.9c0,0.2,0.4,0.4,0.5,0.7
		c0.5,0.8,1.3,1.7,1.2,2.5c-0.2,2.1,1.3,3.6,2.3,4.6c1.1,1.1,1.3,2,1.4,3.3c0,1.1,0,2.2,0,3.4c0.4-0.1,0.6-0.1,0.7-0.2
		c1.3-1.6,3-3.1,3.8-5c0.6-1.6,1.4-2.7,2.5-3.8c2.7-2.5,1.6-6.4,3.1-9.3c0,0-0.1-0.2-0.1-0.3c-0.5-2.8-1.1-5.6-1.7-8.4
		c-0.2-0.8-0.3-1.6-0.7-2.3c-1.5-3.1-3.2-6.2-4.7-9.3c-0.4-0.7-0.9-1.6-0.7-2.2c0.7-3.1,1.9-6,4.3-8.3c0.9-0.9,1.7-0.5,2.4-0.3
		c0.4,0.1,0.8,1,0.8,1.5c-0.1,1-0.4,2.1-0.8,3c-0.4,1-1.4,1.8-1.6,2.8c-0.4,1.8,0.6,3.2,2,4.2c2.2-1.1,4-5.3,3.2-7.2
		c-1.1-2.4-0.3-4.1,2-5.1c1.9-0.8,3.6-2,5.4-3.1c0.7-0.4,1.4-1.1,2.2-1.4c1.7-0.7,2.9-1.9,3.9-3.4c1-1.6,2.3-3,3.3-4.6
		c0.7-1,1-2.3,1.4-3.5c0.1-0.4-0.1-1,0.1-1.4c2.4-3.7,3.7-7.9,4.7-12.1c0.4-1.8,0.5-3.9,0.2-5.7c-0.4-2.5-1.7-4.9-1.4-7.6
		c0-0.4-0.5-1-0.9-1.4c-0.9-0.8-2-1.5-2.9-2.4c-0.3-0.3-0.4-1.3-0.2-1.7c0.6-0.8,1.7-1.4,2-2.2c0.5-1.5,1.5-2,2.9-2.4
		c0.5-0.1,0.9-1,1-1.6c0.1-0.8-0.3-1.4-1.4-1.4c-0.4,0.1-0.9-0.2-1.3-0.4c-1-0.4-2-0.8-3.1-1.2c-0.1-0.3-0.4-0.9-0.7-1.5
		c-0.3-0.7-0.7-1.1-0.1-2.2c0.8-1.5,2.2-1.6,3.1-2.6c0.1,0.1,0.3,0.1,0.4,0.2c-0.2,1.5-0.3,2.9-0.6,4.8c0.9-0.5,1.8-0.7,2.4-1.3
		c1.1-1.2,2.4-1.6,4-1.5c1.4,0.1,1.9,0.8,1.6,2.2c-0.2,0.9-0.2,1.9,0.2,2.7c0.4,0.9,1.6,1.5,1.9,2.4c0.5,1.4,2,2.7,0.6,4.4
		c-0.4,0.4-0.5,1-0.8,1.5c-0.7,1.2-0.2,2.1,0.6,3c0.7,0.8,1.3,1,2.3,0.3c1.5-1.1,3.9-1.2,4.2-3.6c0.5-4,0.5-7.9-2.5-11.1
		c-1.5-1.7-1.1-2.7,0.9-3.8c0.9-0.5,2.1-1.6,2.2-2.5c0.2-2.9,2.7-4.1,4.2-6.1c0.2-0.2,0.7-0.3,1-0.2c2.5,0.7,5.2,0,6.5-2
		c0.9-1.4,1.2-3.1,3.2-3.3c0.1,0,0.2-0.4,0.3-0.6c1.1-1.9,2.2-3.9,3.4-5.8c1.8-2.6,4-5,3.5-8.6c-0.1-0.7,0.2-1.5,0.5-2.2
		c0.1-0.4,0.7-0.8,1-0.7c0.5,0.1,1.1,0.5,1.2,0.9c0.3,0.8,0.4,1.7,0.4,2.6c0,0.8-0.1,1.6-0.5,2.2c-0.8,1,0.1,1.8,0.1,2.7
		c-0.1,1.9-0.4,3.7-0.6,5.3c1.4,0,2.5,0,3.9,0c-0.3-0.6-0.4-1.4-0.9-2c-1.7-2.1-1.3-4.4,1-5.7c0.5-0.2,0.8-1.5,0.7-2.2
		c-0.4-2.5-1.1-4.9-1.6-7.3c-0.2-1-0.4-2-1.6-1.6c-2,0.7-3.4-0.3-5-1.3c-0.6-0.4-1.9-0.4-2.7,0c-2,1-2.8,0.8-3.6-1.2
		c-0.7-0.2-1.4-0.3-2.2-0.5c2.8-1.8,5.3-3.5,7.9-5.2c0.6-0.4,1.4-0.6,1.7-1.1c1-1.9,3-2.2,4.6-2.6c2.3-0.6,4.9-0.3,7.3-0.5
		c1.9-0.2,3.8-0.5,5.7-0.7c0.5-0.1,1.1,0.1,1.7,0.2c0.5,0.1,1.1,0.1,1.8,0.2c1,1.8,2.4,2,4.7,0.5c0.9,0.1,1.7,0.1,2.5-0.1
		c0.2,0,0.1-0.9,0.2-1.8c0.9-0.5,2.3-0.9,3.4-1.8c2.9-2.4,5.3-2.3,7.5,0.5c0.3,0.2,1.1,0.5,1.3,0.3c1.6-1.6,4.6-0.9,5.6-3.4
		c0-0.1,0.5,0,0.8,0c-0.2,2.1-2,2.3-3.3,3.2c-1.8,1.2-4.5,0.9-5.6,3.3c-0.1,0.2-0.5,0.4-0.8,0.6c-1.7,0.9-3.5,1.7-5.1,2.8
		c-0.7,0.5-1.4,1.3-1.7,2.1c-1.4,3.3,0.6,6.5,1,9.7c0.2,1.8,0.2,2.8-0.9,3.9c-0.5,0.5-0.9,0.9-1.4,1.5c0.4,0.1,0.6,0.3,0.7,0.2
		c2-2,4.9-3,6-5.9c0.1-0.2,0.2-0.3,0.4-0.4c0.9-0.5,1.8-1,2.6-1.6c0.3-0.3,0.3-0.9,0.4-1.4c-0.2-0.2-0.3-0.3-0.5-0.5
		c1.1-0.5,2.3-0.9,3.3-1.5c0.5-0.2,0.7-0.9,1-1.4c0.4-0.7,0.6-1.4,0.9-2.1c0.6,0.4,1,0.6,1.6,1c-0.1-1.8-0.2-3.3-0.3-4.9
		c-0.5-0.1-1.3-0.1-2.4-0.2c1.6-1.3,2.7-2.8,4.2-3.2c1.3-0.4,3-1.6,4.1-0.3c1.6-0.6,2.9-1.4,4.3-1.4s2.7,0.8,4,1.3
		c5.6-3.5,12-4.8,18.8-5.4c-0.9-1.2-1.5-2-1.9-2.6c1.5-1.3,2.8-2.4,4.4-3.7c1.2,0.2,2.9,0.4,4.6,0.8c2,0.5,3.9,1.3,5.9,1.8
		c0.8,0.2,1.9,0.2,2.7-0.2c1.4-0.6,2.6-1.6,4.3-2.6C770.1,21.2,769.8,20.3,769.4,20.2z M466,65.4c-0.5,2.2-1.9,2.6-3.8,2.1
		c-1.1-0.2-1.3-0.6-0.8-1.6C462.2,64.3,464.1,64.1,466,65.4z M459.6,28.2c0.2,0,0.4,0.1,0.6,0.1c0.6,0,1.3-0.2,1.7,0.1
		c0.4,0.2,0.6,0.6,0.6,1.6c-1.1-0.4-2-0.8-2.9-1.2C459.5,28.8,459.6,28.4,459.6,28.2z M453.8,29.9c0.5,0.3,0.9,0.6,1.4,0.7
		c0.1,0.1,0.1,0.7,0,0.8h-0.1c0,0,0,0,0,0.1c-0.1,0-0.1,0.1-0.2,0.1c-0.2,0.1-0.4,0.2-0.6,0.3c-0.2,0.1-0.4,0.1-0.6,0.1
		c-0.9-0.5-1.9-1.3-3-2C452.1,29,453,29.4,453.8,29.9z M446,75.1c0.5-2,1.8-3.8,2.9-5.6c0.3-0.3,1-0.3,1.1-0.4
		c0.6-1.4,1-2.7,1.7-3.8c0.5-0.8,1.2-1.2,2.2-0.3c0.7,0.6,1.6,0.7,2.6,1c-0.4,0.6-0.7,1.1-0.8,1.3c0.7,1.2,1.3,2.2,1.9,3.3
		c1.1-0.4,2.1-0.9,3.2-1.4c2-0.9,3.7,0.1,5.3,1c1.8,1.1,3.2,2.8,5.1,3.8c1.4,0.7,1.6,1.9,2,3c0.6,1.7-0.8,2.9-2.8,3.1
		c-3.4,0.3-6.5-0.3-9.4-2c-2.1-1.2-5.8-0.7-7.5,1.1c-0.6,0.7-1.2,0.8-2.1,0.6c-1.3-0.4-2.8-0.4-4.3-0.6
		C446.8,77.9,445.8,76.4,446,75.1z M449.6,256.8c-1.5-3.1-0.3-6.4-0.8-9.9c1.2,6.4,2.4,12.5,3.7,18.6
		C450.7,262.9,450.9,259.6,449.6,256.8z M449.1,112.5c-0.2,0.2-1,0.2-1.4,0c-0.8-0.3-1.6-1-2.5-1.2c-3.3-0.7-6-2.2-8.6-4.2v-0.8
		h-1.3c-2.4,0-4.5,1.5-5.2,3.7l0,0c0.2,2.6,0.1,2.6-1.3,4.6c-2.1-1.2-4.3-2.4-6.4-3.6c-0.4-0.2-0.7-0.7-0.9-1.1
		c-1-2.5-2.7-3.8-5.5-4c-1-0.1-2-1.2-3-1.9c-0.7-0.5-1.2-1.1-1.8-1.7c-0.3,0-0.5,0-0.7,0c0.7-0.9,1.3-1.7,2-2.6
		c0.1,0.1,0.2,0.1,0.3,0.2c0-0.5,0.2-1,0-1.4c-0.8-1.9-1.7-3.8-0.4-5.8c0.1-0.1-0.1-0.3-0.2-0.6c-0.4,0.5-0.7,0.9-1.2,1.4
		c-0.2-0.6-0.3-1.1-0.6-1.8c-3,0.5-6.1,1.1-9.1,1.6c-0.4,0-0.8,0.1-1.1-0.1c-1.3-0.8-2.4-0.7-3.8,0.1c-1.1,0.6-2.6,0.6-3.7,1.1
		c-1.9,0.9-3.8,1.9-5.6,3.1c-1.1,0.6-1.8,1.9-3.2,0.6c-0.3-0.3-1.1-0.1-1.6-0.1c-1.8,0-3-0.7-2.8-2.1c0.2-1.5,1.7-1.5,2.8-1.8
		c0.4-0.1,0.9-0.1,1.4-0.1c2.7-0.1,3.8-2.2,5-4.1c0.8-1.1,2.6-2.3,0.9-4.1c-0.1-0.1,0.2-0.3,0.2-0.5c0.5-3.2,2.4-5.3,5.2-6.5
		c1.3-0.6,1.4-1.4,1.4-2.5c0-2.8,1.6-3.6,4.2-2.4c0.6,0.3,1.5,0.3,2.1,0c1.4-0.8,2.8-1.7,4.1-2.7s2.8-0.6,3.3,0.9
		c0.4,1.1,0.8,2.3,1.5,3.1c1.7,1.7,2.9,3.8,5.3,4.9s4.8,3,4.9,6.2c0,0.7-0.3,1.4-0.4,2.1c-0.1,0.6-0.2,1.3-0.3,1.9
		c0.2,0.1,0.5,0.1,0.7,0.2c0.7-1.4,1.5-2.8,2.1-4.3c0.1-0.4-0.2-1.1-0.2-1.6c-0.1-0.5-0.3-1.3,0-1.6c0.4-0.3,1.1-0.2,1.7-0.1
		c0.5,0.1,1,0.3,2,0.6c-0.6-0.9-0.9-1.5-1.3-1.9c-1.8-1.8-3.6-3.4-5.8-4.6c-0.8-0.4-1.4-1.2-2-2c-0.9-1.2-1.7-2.6-2.6-3.9
		c-0.7-1-0.4-2.8,0.5-3.5c1,0.5,1.9,0.9,2.8,1.4c0.3,0.2,0.7,0.5,0.7,0.8c0.2,2.8,2.7,3.1,4.3,4.4c1.2,1,2.6,1.6,3.8,2.5
		c0.9,0.6,1.5,1.4,1.2,2.8c-0.3,1,0.1,2.3,0.6,3.3c0.9,2.1,2.1,4,3.1,6c0.6,1.1,0.7,2.3,1.3,3.4c0.4,0.7,1.1,1.2,1.7,1.7h1.3V93
		c-0.7-1.9-0.4-2.5,1.7-2.9c1.2-2.5-1.2-2.7-2-3.2c0-1.1,0.1-1.7,0-2.2c-0.2-0.6-0.5-1.2-0.5-2c0.4,0.3,0.9,0.5,1.5,0.9
		c0.1-0.5,0.3-0.9,0.4-1.3c0.4-1,2.2-1.9,3.5-1.2c0.8,0.4,1.6,1.2,0.7,2.5c-0.8,1,0.2,3.2,1.1,3.6c-0.1,0.7-0.2,1.4-0.3,2.1
		c1.8,0.6,1.8,0.6,1.9,3.3c1.7,1.2,3.3,2.2,5,3.3c0.1-0.1,0.4-0.4,0.7-0.7c1-1.3,2-1.4,3.4-0.3c1.7,1.3,3.2,1.2,5-0.2
		c1.2-0.8,2.7-0.2,2.7,1.5c0,2.3-0.3,4.6-0.7,6.9c-0.3,2-0.9,4.1-1.4,6.1c-0.6,2.4-2.6,3.3-4.8,2.2
		C452.8,110.3,450.7,110.8,449.1,112.5z M457.1,237.9c-0.5,0.6-0.3,1.7-0.4,2.6c-0.7,0-1.6,0-3,0c0.2-2.6,0.5-5.1,0.7-7.6
		c0.1-1.7,1.7-1.8,2.7-2.4c0.1-0.1,1,0.7,1,1C458.1,233.6,458.8,235.9,457.1,237.9z M459.7,286c-0.4-2.1-1.3-4.3-1-6.2
		c0.5-3.2-0.6-6.3-0.1-9.5c0.2,0,0.3-0.1,0.5-0.1c0.4,5.6,0.8,11.2,1.2,16.9C460.1,286.8,459.8,286.4,459.7,286z M473.9,174.1
		c-0.6-1-1.2-2-2-2.9s-1.1-1.7,0.1-2.3c-0.4-1-0.8-1.8-1.3-2.8c-0.4,0.5-0.7,1-1.2,1.7c-0.4-2.1-0.7-4-1.1-5.9
		c-0.3-1.2-0.6-2.4-1.2-3.3c-1.1-1.8-1.5-3.6-1.7-5.7c-0.3-3-0.8-6-1.5-8.9c-0.4-1.3-1.5-2.5-2-3.9c-0.3-1,0.1-2.3-0.2-3.4
		c-0.8-2.7-2-5.4-2.9-8.2c-0.5-1.4-0.6-2.9-0.9-4.3c0.5-0.7,1.2-1.5,1.6-2.1c0.6,1.2,1.6,2.8,2.5,4.3c1.2,3.2,2.2,6.4,3.3,9.5
		c0.3,0.8,1,1.4,1.4,2.2c0.9,1.8,1.5,3.7,1.5,5.8c-0.1,3.2,0.3,6.2,2.8,8.7c0.8,0.9,1,2.4,1.4,3.7c0.7,2.3,1.4,4.6,2,6.7
		c-0.3,0.6-0.8,1-0.8,1.5c0.1,0.4,0.7,0.8,1,1.2c0.3,0.5,0.6,1,0.7,1.6c0.5,3.9,0.9,7.8,1.4,12.3
		C475.7,177.5,474.8,175.8,473.9,174.1z M493.8,93.5c-1.9-1-3.7-2.3-5.3-3.7c-0.9-0.7-0.1-1.7,0.3-2.6c0.8-1.7,1.2-3.5,1.7-5.1
		c-1.6-2.6-3.2-5.2-4.7-7.9c-0.3-0.6-0.8-1.4,0.2-2.1c0.2-0.2,0.1-1.3-0.2-1.7c-0.9-1.2-0.5-1.9,0.6-2.6c0.7-0.4,1.3-1,1.7-1.4
		c0.8,0.8,1.4,1.5,2,2.3c-0.1,0-0.1,0.1-0.2,0.1c0.5,0.7,1.4,1.4,1.6,2.3c0.6,2.1,2,3.6,3.6,5c0.1,0.1,0,0.4,0,0.6
		c0.4,2.6,0.9,5.1,1.3,7.7c0.4,2.5,0.6,5.1,0.8,7.6C497.2,93,495.1,94.1,493.8,93.5z M539.5,18.3c-0.6,0.6-1.3,0.9-2.2,1.2
		c1.2-1.4-2.6-2.8,0-4c0.7,0.6,1.4,1,1.8,1.6C539.4,17.4,539.6,18.2,539.5,18.3z M607.8,46.8c-1.8,1.9-2.5,2.2-3.7,1.8
		c1.9-2.2,3.7-4.3,5.3-6.3C610,43.9,609.6,44.9,607.8,46.8z"/>
	<path class="st1" d="M598.7,234.5L598.7,234.5l-0.1-0.1L598.7,234.5z"/>
	<path class="st1" d="M316.8,251c-0.4,0.1-1-0.5-1.3-1c-1.1-1.8-2-3.7-3.3-5.3c-0.8-1-2.2-2.5-3.2-2.4c-2.8,0.3-4.5-2-7-2.1
		c-0.2,0-0.5-0.3-0.5-0.5c-0.2-2.2-1.4-3.8-3.3-4.9c-1.2-0.7-2.4-1.4-4.1-2.4c-0.5-1.9-1-4.4-1.9-6.7c-0.7-1.7-1.8-3.1-2.7-4.7
		c-0.8-1.5-1.8-2.8-1.6-4.6c0.1-0.9,0-2-0.5-2.7c-1.7-2.3-3.5-4.7-5.6-6.6c-0.8-0.8-2.6-0.4-4-0.5c-0.6-0.1-1.5,0.1-1.8-0.2
		c-1-1.1-2.2-2.2-2.4-3.5c-0.5-2.9-2.5-4.9-3.8-7.3c-0.9-1.8-3.3-3.1-1.7-5.6c0.2-0.2,0.1-0.8,0-0.9c-0.5-0.3-1-0.5-1.5-0.8
		c-0.1,0.4-0.2,0.8-0.3,1.2c-0.1,0.4-0.2,0.8-0.3,1.2c-0.3-0.4-0.2-0.8-0.4-1.1c-0.3-0.5-0.7-1.2-1.1-1.2c-0.9,0-2.2,0-2.7,0.6
		c-1.2,1.4-2.4,1.8-3.7,0.6c-0.7-0.6-1.2-1-2.3-0.6c-1,0.3-2.2,0.2-2.1-1.5c0-0.5-0.4-1.1-0.8-1.5c-1.1-0.9-2.3-1.8-3.7-2.8
		c-0.1,0.9-0.2,2-0.3,3.1c-0.1,0.1-0.3,0.1-0.4,0.2c-0.3-0.7-0.6-1.3-0.8-2c-0.3-0.8-0.5-1.7-0.7-2.5c-0.7,0.4-1.4,0.8-2,1.2
		c-0.3,0.1-0.3,0.5-0.5,0.7c-1,0.9-2.1,1.7-3.1,2.7c-1.1,1.1-3.3,1.2-3.1,3.3c0.2,2.3-0.9,4.1-2,6c-0.3,0.4-0.7,0.8-0.7,0.8
		c-1.5-1.4-2.8-2.6-4.2-3.7c-0.2-0.2-1.1,0.1-1.1,0.1c0.1,1.8-1.9,1.3-2.5,2.3c-0.1,0.1-1.3-0.4-1.9-0.8c-0.3-0.2-0.2-0.8-0.5-1.1
		c-2.1-2.3-2.8-5.1-2.9-8.1c-0.1-2.3,1.3-4.6,0.1-6.9c-0.1-0.2,0-0.5,0.1-0.7c0.5-1.3,1-2.5,1.3-3.8c0.7-2.9-1.9-5.7-5.1-5.7
		c-1.7,0-3.4,0-5.1,0c-0.4,0-0.9-0.3-1-0.3c0.5-2.8,1-5.4,1.4-8s0.8-5.3,1.2-7.9c0.3-1.8,0.6-3.6,0.9-5.5c-0.8,0-1.2,0-1.5,0
		c-0.3,0.1-0.7,0.2-1,0.3c-4.3,0.6-5.6,1.3-6.1,6.5c0,0.4-0.3,0.9-0.4,1.3c-0.8,2.7-3.5,3-5.6,4c-0.4,0.2-1.2-0.3-1.7-0.6
		c-3.2-2.1-3.3-5.9-4.4-9c-0.9-2.6-0.8-5.6-0.8-8.4c0.1-5.2,0.4-10.5,0.7-15.7c0-0.4,0.1-0.8,0.4-1.1c1.9-1.9,3.9-3.8,6-5.6
		c0.6-0.6,1.3-0.8,2.3,0c1.2,1,2.6,1.6,4.1,2.2c0.5,0.2,1.2-0.4,2-0.6c0.1,0.1,0.3,0.4,0.9,1.1c0.2-2,0.4-3.5,0.6-5.1
		c1.8,0,3.6-0.1,5.4,0c0.5,0,1.1,0.5,1.3,0.9c0.4,1,1.2,1.1,1.8,0.6c1.4-1.1,2,0,2.4,0.8c0.5,0.9,0.8,2,0.9,3c0.2,1.7,0.1,3.4,0.5,5
		c0.6,2.9,1.5,5.7,2.4,8.5c0.1,0.4,0.6,0.9,1,1c0.3,0,1-0.4,1.1-0.7c0.5-1.8,1.1-3.7,1.1-5.5c0-2.2-0.6-4.4-1-6.6
		c-0.3-1.9-0.6-3.8-1.3-5.6c-0.9-2.5,0-7,1.9-8.7c0.9-0.9,1.6-2,2.3-3c0.5-0.7,0.6-1.8,1.2-2.3c1.2-1,2.6-1.9,4-2.6
		c1.6-0.9,1.6-2.2,1.7-3.8c0.1-2.2,0.2-4.4,0.8-6.5s1.9-3.9,2.7-6c1.1-3,3-4.5,6.2-4.5c1.6,0,2.2-0.5,1.7-2.2
		c-1.8,0.4-1.4-1.2-1.4-1.9c0-1.1-0.1-2.5,1.5-3.2c2.3-0.9,4.4-2.2,6.6-3.2c0.3-0.1,0.7,0.1,1.2,0.1c-0.9,1.4-0.8,3.3,0.2,3.5
		c0.9,0.1,2.6-0.4,2.7-0.9c0.4-1.6,1.9-1.5,2.8-2c2.2-1.2,4.6-2.2,7-3.3c-0.7-1.3-1.2-2.4-1.8-3.6c-0.9,0.7-1.6,1.7-2.6,2.1
		c-0.9,0.5-2.1,0.4-3.2,0.6c0-0.1,0-0.1,0-0.2c0.8-0.3,1.6-0.5,2.8-0.9c-1.9-0.5-3.2-0.9-4.6-1.3c0,0.2-0.1,0.6-0.2,1
		c-0.1,0-0.3-0.1-0.5-0.1c0.1-1.3,0.2-2.6,0.4-4.3c-0.1,0.1,0.1-0.1,0.3-0.3c1.1-1.1,0.8-2-0.6-2.2s-2.9-0.1-4.3,0.2s-2.7,0.9-4,1.3
		c-0.1-0.1-0.1-0.3-0.2-0.4c0.8-0.3,1.7-0.6,2.5-1c0.4-0.2,0.9-0.5,1-0.8c0.3-1.4,1.3-1.7,2.5-1.7c1.3,0,2.6-0.1,3.9-0.1
		c0-0.1-0.1-0.2-0.1-0.4c0.3,0.1,0.6,0.2,0.8,0.4c2.1-0.1,4.3-0.1,6.4-0.3c0.9,0,1.8-0.5,2.6-0.9c1.3-0.6,2.6-1.3,3.9-1.9
		c0.1,0.2,0.3,0.3,0.4,0.5c-1.7,3.2-3.3,6.3-5.1,9.6c1.1,0,2,0,2.9,0c1.8,0,3.8-0.5,4.9,1.6c0.1,0.2,0.9,0.2,1,0.1
		c0.9-1.1,1.6-0.6,2.4,0c0.6,0.5,1.4,0.8,2.1,1.1c0.8-1.6,0.6-3-0.4-4.4c-0.5-0.6-0.9-1.5-0.9-2.3c0-1.7-1-1.8-2.2-2
		c-1.3-0.2-2.7-0.5-4-0.8c0.9-1.5,1.6-2.7,2.2-3.7c0-0.8,0.3-1.6,0-2.1c-0.7-1.4-0.6-3.3-2.6-3.8c-0.2-0.1-0.4-0.7-0.6-1
		s-0.5-0.7-0.8-0.8c-1.4-0.5-2.8-0.9-4.1-1.5c-0.8-0.4-1.5-1.1-2.1-1.8c-1.6-1.9-3-4-4.6-6c-0.7-0.8-1.7-1.2-2.2-2.4
		c-0.6-1.4-1.4-1.2-2.3,0.1c-0.8,1.1-1.4,2-2.8,2.8c-2.2,1.2-3.4-0.3-4.7-1c-1.1-0.7-1.8-2-0.3-3.6c-2.5,0-4.5-0.7-6.4-1.8
		c-3.6-2.2-7.6-0.8-11.8-1.2c0.4,1.9,0.7,3.5,1,5.2c-0.1,0-0.5-0.1-0.6,0c-1.1,1-0.8,2.7,0.5,3.5c2.9,1.7,2.9,4.5,0.1,6.1
		c-1.2,0.8-2.6,1.3-3.9,2c0.4,1.2,0.9,2.6,1.4,4.1c0.1,0.3,0.2,0.9,0,1.1c-0.7,0.8-1.6,1.4-2.4,2.1c-0.6-0.7-1.3-1.4-1.9-2.1
		c-0.2,0.1,0,0,0.1-0.1c0.4-0.5,0.7-0.9,1.1-1.4c-0.5-0.2-1.1-0.4-1.5-0.7c-0.5-0.4-1.1-0.8-1.3-1.4c-0.3-0.8-0.2-1.8-0.2-2.8
		c-0.8-0.1-1.6-0.3-2.4-0.4c-1,0-2.1,0.3-3-0.1c-3-1.2-5.9-2.9-8.9-3.9c-1.7-0.6-3.4-2.2-5.5-1c-0.2,0.1-1.3-0.5-1.3-0.9
		c-0.2-1.6-1.3-2-2.6-2.2c-0.4-0.1-0.9-0.5-1.1-0.9c-0.7-1.4,0-3.6,1.6-4.5c2.6-1.5,5.4-2.8,8.2-4c2-0.9,4-1.5,6.3-2.4
		c-0.6,0.8-1.2,1.7-1.9,2.7c0.4,0,0.9,0.2,1.5,0.3c0.6,0.1,1.2,0.3,1.8,0.4c0.7,0.1,1.4,0.2,2,0c1.6-0.4,2.9-1.9,4.9-0.6
		c0.7,0.5,2.4,0.7,3.5-0.8c-3.9-1.2-7.7-2.4-11.3-3.5c0.8-0.6,2-1.8,3-0.4c1.5-0.2,2.7-0.2,3.8-0.6c0.9-0.3,2-0.8,2.4-1.5
		s0.1-1.8,0.1-2.4c1.2-0.5,2-0.8,2.9-1.2c0.5,0.3,1.1,0.7,1.7,1.1c-0.1,0.3-0.2,0.5-0.2,0.7c0.2,0.5,0.3,1.1,0.5,1.6
		c0.4-0.4,1-0.7,1.1-1.1c0.2-0.7,0.1-1.5,0.1-2.5c1.2,0.6,2.4,1.2,3.9,2c-0.9,0.6-1.6,1.2-2.4,1.9c3.3,1.7,6.4-0.7,9.5,0.1
		c-1.7,1-3.5,2-5.5,3.2c-1.6-1.4-3.5,0.3-6.1,1.1c1.1,0.6,1.9,1.4,2.5,1.3c3-0.6,5.8-1.1,8.8,0.4c2.8,1.4,5.5,3.4,8.9,2.7
		c0.3-0.1,0.7,0.3,1.1,0.4c1.6,0.4,3.2,0.5,4.7-0.5c-0.8-0.3-1.5-0.5-2.3-0.7c0-0.1,0.1-0.3,0.1-0.4c1.2,0.3,2.4,0.7,3.6,1
		c1.6-2.2,1.5-3-0.6-4c-0.3-0.2-0.7-0.1-1-0.2c-1.1-0.5-2.3-1.1-2.3-2.6c1.2,0.5,2.3,0.9,3.4,1.4c1.4,0.6,2.6,2.3,4.2,0.2
		c0.2-0.2,0.6-0.1,0.9-0.1c1.1-0.1,2-1.5,1.9-2.8c-0.6,0-1.3,0.2-2.3,1.3c-2.9-0.6-5.8-1.3-8.7-2c-0.6-0.2-1.2-0.5-1.8-0.8
		c0.3-0.4,0.6-0.9,1-1.5c-0.4-0.1-0.8-0.4-1.2-0.5c-2.4-0.4-4.8-0.7-7.2-1.1c-1.7-0.3-3.4-0.4-5.1-0.8c-2.4-0.5-4.8-1.5-7.2-1.7
		c-4.5-0.3-8.9-0.1-13.4-0.1c-0.7,0-1.4,0.3-2.1,0.4c0.3,0.9,0.5,1.5,0.7,2.2c-0.9-0.5-1.6-0.8-2.3-1.1c0.6-1.6-0.2-2.1-1.6-1.9
		c-1.3,0.1-2.6,0.3-3.8,0.6c-2,0.5-2.3,1.1-1.9,3.4c4.3,0.2,8.5,0.5,12.8,0.7c-0.6,0.3-1.2,0.2-1.8,0.3c-0.9,0.2-2.3-0.6-2.1,1.4
		c0.1,0.3-1.2,1-1.4,0.9c-0.9-0.8-1.3-0.4-1.6,0.5c-0.1,0.3-0.5,0.5-0.8,0.8c-0.2-0.4-0.6-0.6-0.7-1c-0.4-1.2-1-1.9-2.4-1.9
		c-1.1,0-2.2-0.3-3.3-0.5c-2.5-0.5-4.3-1.7-5.9-3.4c2.3-0.5,4.6-1.1,6.9-1.6c0-0.2-0.1-0.4-0.1-0.6c-3.2,0-6.3-0.1-9.5,0
		c-1.8,0.1-2.1,1-1.1,2.4c-0.5,0.3-1.1,0.7-1.8,1.1c0.6,2-0.8,1.9-2.3,2c-1.3,0.1-2.6,0.4-4.2,0.7c0.7,0.7,1,1.1,1.3,1.4
		c-0.1,0.2-0.1,0.4-0.2,0.6c-3.4-0.3-6.8-0.5-10.2-0.8c0-0.2,0.1-0.5,0.1-0.7c1.1,0.3,2.3,0.5,3.5,0.7c0.5,0.1,1.1,0,1.4-0.3
		c0.4-0.4,0.8-0.9,1.4-1.7c-0.5-0.3-1.1-1-1.7-0.9c-2.6,0.3-4.4-1.1-6.5-2.2c0.1-0.6,0.2-1.1,0.4-2c-1.6,0.1-3,0.5-4.4,0.4
		c-2.3-0.1-4.3,2.3-7,0.5c-1.1-0.7-3-0.1-4.6-0.1c-0.6,0-1.3,0.3-1.9,0.2c-2.8-0.4-5.6-1-8.4-1.3c-1.6-0.2-3.3,0-4.9-0.1
		c-0.5,0-1.2-0.2-1.6-0.5c-1.3-1-2.4-1-3.3,0.4c0,0-0.2,0-0.4,0c0.1-0.4,0.2-0.7,0.3-1c-0.8,0-1.4,0-2.3,0c0.3,0.4,0.5,0.6,0.5,0.6
		c-1.1,0.9-2.2,1.8-3.6,3c1.5,0.3,2.6,0.2,3.4,0.6c2.7,1.4,5.5,1,7.8-0.3c2.2-1.2,3.3,0.3,5.2,0.3c-0.7,0.5-1.1,0.7-1.5,1
		c0,0,0.1,0.4,0.3,0.5c0.9,0.5,1.7,0.9,2.6,1.3c0,0.2-0.1,0.3-0.1,0.5c-2.1-0.3-4.2-0.7-6.3-0.9c-2.1-0.2-4.2-0.2-6.3,0
		c-0.8,0.1-1.4,0.3-2.1-0.3c-0.6-0.6-1.2-0.7-2.1-0.3c-0.6,0.3-1.5,0.3-2.2,0.2c-1.7-0.2-3.5-0.9-5.2-0.8c-4.2,0.1-8.4,0.6-12.6,1
		c-1.6,0.2-3.3,0.5-4.9,0.7c-0.4,0-0.8,0-1.1-0.1c-0.9-0.2-1.8-0.5-2.7-0.6c-1.4-0.1-2.8,0-4.2-0.1c-4.3-0.3-8.5-0.7-12.8-1
		c-2-0.2-4-0.2-6,0c-1.9,0.2-3.7-1.2-5.6-0.1c-0.2,0.1-0.6,0-1-0.1c-1.1-0.1-2.2-0.5-3.3-0.5c-2.4,0.1-4.7,0.9-7,0.6
		c-4.6-0.5-8.4,2.2-12.8,2.3c-0.3,0-0.6,0.1-0.9,0.2c0.4,0.5,0.7,0.9,1.2,1.4c2.1,0.7,4.6,1.4,7,2.2c-0.9,0.4-2,0.6-2.6,0.2
		c-1.7-1.1-3.1-0.9-4.8-0.2c-0.9,0.4-1.9,0.4-2.8,0.5c-0.5,0.1-1.1,0.2-2.1,0.3c1.9,1.6,3.5,2.7,5.7,2.6s4.5-0.1,6.7,0
		c0.6,0,1.1,0.4,1.6,0.7c-0.5,0.3-1,0.6-1.6,0.7c-1.1,0.2-2.4,0.5-3.2,0c-2-1.1-3.2,0.2-4.4,1.2c-0.6,0.5-1.3,1.3-1.4,2
		s0.6,1.5,1,2.3c-0.3,0-0.9-0.2-1.4,0s-1,0.7-1.5,1c0.4,0.4,0.9,1.1,1.4,1.1c1.1-0.1,2.1-0.5,3.1-0.7c0.9,0.3,1.7,0.5,2.5,0.8
		s1.5,0.6,2.3,0.7c1.8,0.3,3.2,3.1,5.5,1.1c0.1,0,0.1,0,0.2,0c1.2,0.3,2.5,0.5,3.7,0.9c0.3,0.1,0.7,1,0.6,1.1
		c-0.8,0.7-1.7,1.5-2.7,1.9c-3.8,1.6-7.7,3.1-11.6,4.7c0.3,1.8,1.2,0.9,2,0.4c2.5-1.6,5.8,0,8-2.4c1.5,0.6,2.4-0.6,3.5-1.1
		c2.1-1,4.1-2.2,6.1-3.3c1-0.6,2.4-1.1,2.8-2c0.8-1.8,2.3-2.4,3.5-3.3c0.3,0.7,0.4,1.5,0.8,1.8c0.8,0.7,6.7-0.9,7-1.9
		c0.6-1.8,1.7-1.2,2.8-0.8c2.6,0.9,5,2.3,7.9,1.3c0.5-0.2,1.2,0.3,1.8,0.4c0.8,0.2,1.6,0.3,2.4,0.5c1.2,0.3,2.4,0.5,3.5,0.9
		c1.1,0.5,2.3,1.1,3.4,1.7c0.4,0.2,0.9,0.4,1.2,0.7c0.9,1,1.7,2.2,2.6,3.2c0.3,0.3,0.8,0.4,1.2,0.6c0.4-0.7,0.7-1.3,1-1.8
		c0.1,0.1,0.3,0.1,0.4,0.2c-0.1,0.4-0.3,0.8-0.4,1.2c0.6,0.6,1.1,1.1,1.6,1.5c-0.3,0.5-0.5,0.9-0.7,1.2c0.8,0.4,1.3,0.7,1.9,0.9
		s1.6,0.4,1.8,0.1c0.8-1.2,1.5-0.6,2.3-0.2c0.8,0.4,0.8,1,0.4,1.7c-0.1,0.2,0.2,0.6,0.3,1c0.1-0.2,0.2-0.3,0.2-0.4l0,0l0,0
		c0.6,0.9,1,2.3,1.9,2.8c1.7,1,2.9,2.2,3.6,4c-1,0.5-1.2,1-0.5,1.7c1.1,1,2.4,1.8,3.5,2.8c2,1.8,3.5,2.2,6,1.5
		c-0.4-1.5-3-0.8-2.9-3.1c1.6,0.5,2.9,0.9,3.3,2.5c0.2,0.8,0.3,1.6,0.4,2.4c-0.7-0.1-1.7,0-2.2-0.4c-1-0.8-1.5-0.3-1.7,0
		c0.5,1.7,1.2,3,1.3,4.4c0.2,2.3,0,4.7,0,7c0,0.5-0.1,0.9-0.1,1.4c-0.1,1.6-0.1,3.2-0.2,4.8c0,1.3-0.1,2.5-0.2,3.8
		c0,0.5-0.2,1,0,1.4c1.7,3.6,3.4,7.2,5,10.8c0.2,0.4,0.2,0.9,0.4,1.3c0.8,2,1.6,3.9,2.4,5.9c0.1,0.1,0.2,0.2,0.3,0.2
		c3.3,1.4,6,3.3,6.5,7.2c0,0.1,0.2,0.2,0.3,0.4c0.7,2.1,1.4,4.2,2.1,6.3c0.4,1.2,0.9,2.3,1.5,3.3c0.9,1.5,2.3,2.7,2.1,4.7
		c-0.7,0.3-1.3,0.6-2.4,1.1c1.8,2,3.3,3.8,4.9,5.4c0.9,0.8,1.1,1.7,1.2,2.8c0.1,1.2,0.4,2.6,1,3.6c1.2,2.1,3.3,3.6,3.5,6.2
		c2.5-1.8,2.6-2.2,0.9-4.3c-0.6-0.6-1.3-1.3-1.4-2c-0.6-3.9-2.5-7.4-3.8-11c-0.8-2.1-1.2-4.4-1.8-6.6c0-0.1-0.2-0.1-0.3-0.3
		c-0.3,0.2-0.5,0.3-1.1,0.9c-0.5-2-0.9-3.7-1.2-5.5c0-0.5,0.2-0.9,0.3-1.4c0.6,0.2,1.7,0.3,1.8,0.7c0.6,1.9,1,4,1.6,6
		c0.3,1,0.8,1.9,1.3,2.8c0.8,1.5,1.7,3,2.7,4.4c0.6,1,1.4,2,2.3,3.2c0.2,0.9,0.2,2.3,0.8,3.5c0.9,1.8,2.1,3.6,3.3,5.2
		c2.2,2.9,3.6,6.1,4,9.6c0.2,1.1-0.2,2.1-0.3,3.2c-0.1,0.8-0.4,1.7-0.1,2.3c2.6,4.7,6.5,8.4,10.7,11.6c2.4,1.8,5,3.4,7.4,5
		c1.4-0.8,2.6-1.6,4.2-2.6c1.4,2.3,3,4.6,4.3,7c0.8,1.5,2,2.2,3.5,2.9c1.9,1,3.9,2,5.3,3.5c1.6,1.8,2.5,4.1,3.6,6.3
		c0.3,0.7,0.6,1.5,0.5,2.1c-0.1,0.9,0.3,3.7,1,3.9c2.8,0.8,2.9,3.2,3.4,5.4c2.4,0.2,3.1,0.8,4.3,2.6c0.4,0.6,1.3,2.2,2.5,1.1
		c0.5-0.4,0.2-1.6,0.2-2.4c0-0.3-0.3-0.5-0.5-0.8c0.6-0.4,1.3-0.6,1.6-1.1s0.2-1.3,0.3-2.4c0.6,0.7,1.1,1,1.2,1.4
		c0.5,1.7,1,3.5,1.4,5.2c0.5,1.8,1,3.7,1.1,5.5c0.2,3,0.1,6,0,8.9c-0.1,1.2-0.3,2.5-0.8,3.6c-0.6,1.5-1.5,2.8-2.2,4.3
		s-1.5,3.1-1.9,4.8c-0.6,2.8-1.2,5.6-1.4,8.5c-0.1,1.5,0.4,3.2,0.7,4.8c0.1,0.7,0.7,1.3,0.9,1.7c-1.5,2.2-3.6,3.6-3.1,6.4
		c0.2,0.8,0.8,1.6,0.7,2.3c-0.2,2.2,0.9,3.8,1.8,5.5c0.4,0.8,0.9,1.6,1.1,2.4c1,3.8,1.8,7.6,2.8,11.3c0.9,3.3,2.1,6.6,3,9.9
		c0.5,1.7,1.7,3.2,0.8,5.1c-0.1,0.4,0.2,1.1,0.4,1.5c0.7,1.3,1.3,2.7,2.2,3.9c0.9,1.3,2.1,2.5,3.2,3.7c1,1.1,2.2,2.1,3.2,3.3
		c0.6,0.7,0.6,1.9,1.2,2.5c1.8,1.6,2.1,3.6,2,5.8c-0.2,3.7,0.7,7.4,0,11.2c-0.7,3.5-1.1,7.1-0.4,10.7c0,0.1-0.1,0.2-0.1,0.3
		c-0.6,4.2-1.4,8.3-2,12.5c-0.1,0.8,0.3,1.6,0.4,2.4c0.1,0.3,0.2,0.7,0.2,1c-0.2,1.1-0.6,2.1-0.6,3.2c0.1,6.6-1,13-3,19.3
		c-0.7,2.3-0.9,5-0.5,7.4c0.2,1.2-0.1,2.1-0.3,3.1c-0.3,1.3-0.8,2.6-0.9,3.9c-0.3,2.1-0.3,4.3-0.4,6.6c0.2,0,0.7,0.1,1.5,0.1
		c0.1-1.6,0.3-3.2,0.4-4.8c0.5-0.3,1-0.7,1.6-1c-0.7,3.9-1.4,7.7-2.1,11.5c-0.1-0.1-0.3-0.1-0.4-0.1c-0.2-1.4-0.5-2.7-0.7-4.1
		c-0.3,0-0.6-0.1-0.9-0.1c1,3.4-1.4,5.8-2.3,8c0.9,0.4,1.6,0.6,2.1,1c0.1,0.1-0.1,1-0.4,1.1c-2.1,1.1-2.6,2.5-1.6,4.8
		c0.2-0.2,0.5-0.4,1-0.9c-0.1,1.6-0.2,2.9-0.3,4.1c0.1,0.1,0.3,0.1,0.4,0.2c0.3-0.4,0.5-0.8,0.7-1.2c0,0,0.1,0.1,0.2,0.2
		c-0.4,0.7-0.7,1.3-1.2,2.4c0.8-0.1,1.4-0.2,2.2-0.3c0,0.7,0,1.4-0.1,2.1c1,0.4,2,1.8,1.5,2.8c-0.5,1.1,0.1,1.6,0.7,2.1
		c0.6,0.6,1.6,0.6,2.3,1.6c0.5,0.7,2.1,1.8,3.7,1.3c0.4-0.1,0.9,0.3,1.3,0.4c0.8,0.1,2.3,0.2,2.3,0.1c0.2-1.8,1.2-0.7,1.9-0.7
		c1.2,0,2.5-0.1,3.7-0.2c0.1-0.2,0.1-0.4,0.2-0.6c-4.5-1.9-5.7-6.2-7.3-10.2c0,0,0.1-0.3,0.2-0.3c1.5-0.3,2-1.2,2.8-2.5
		s1-3.4,3.2-3.7c0.3-0.1,0.9-1,0.8-1.2c-0.4-0.8-0.9-1.9-1.6-2.2c-0.9-0.4-2.2-0.2-2.2-1.7c0-1.6,0.5-3,2.2-3.4
		c1.3-0.3,1.7-1.2,1.7-2.2c0-1.7,0.7-2.7,2.2-3.4c0.8-0.4,1.2-1.6,1.9-2.6c-3.2-0.5-3.4-0.9-2.7-4.1c0.7,0.4,1.6,1.1,2.4,1.2
		c1.8,0.1,3.4-1.8,3.6-3.7c0.1-1.5,0.5-3.1,2.2-3.4c3-0.5,5.9-1.1,7.1-4.4c0.7-1.7,2.5-3.3,0.7-5.4c-0.3-0.3,0-1.5,0.3-1.7
		c1.3-0.7,2-2.6,4-2.1c0.4,0.1,1.2-0.4,1.5-0.8c0.8-1.2,1.6-2.5,2.2-3.8c1-2.4,1.8-4.9,3.7-6.9c0.9-0.9,1.2-2.6,1.7-4
		c0.6-1.4,1.1-2.9,1.7-4.3c0.2-0.5,0.7-1,0.8-1.5c0.5-2.9,1-5.8,1.1-8.7c0-2.7,1.7-4.5,3-6.4c1.2-1.6,3-2.7,4.6-4
		c0.3-0.3,0.8-0.7,1.2-0.6c2.2,0.4,3.7-0.3,4.6-2.3c0.1-0.2,0.3-0.2,0.4-0.4c0.5-1.2,1.1-2.3,1.5-3.5c0.4-1.4,0.2-3,0.9-4.1
		c2.4-3.4,1.6-7.3,2.4-10.9c0.5-2.2,0.7-4.5,1-6.8c0.1-0.4-0.1-0.9-0.2-1.3c-0.4-2.7-1-5.3,0.3-7.9c0.6-1.3,1.2-2.7,1.8-4.1
		c1.6-4.1,3.2-8.2,4.7-12.3c0.7-1.8,1.3-3.8,1.4-5.7c0.1-2.4-0.1-4.9-0.8-7.2C319.6,253.3,319.7,250.8,316.8,251z M234.4,71.8
		c0.9-0.2,1.9,0.3,2.9,0.4c0,0.2-0.1,0.3-0.1,0.5c-2.1,0.3-4.2,0.6-6.3,0.7c0-0.1-0.1-0.1-0.1-0.2C232,72.7,233.2,72,234.4,71.8z
		 M230.9,75.1c0,0.2,0.1,0.3,0.2,0.5c-1.9,1.2-3.8,2.3-5.7,3.5c-0.1-0.2-0.4-0.5-0.7-0.8C226.1,75.6,229.1,76.6,230.9,75.1z
		 M223.6,65.3c0.9-0.4,1.3,0.4,1.6,1.2c0.1,0.3,1,0.3,1.6,0.3c0.5,0,1-0.4,1.6-0.6c0.3,1.2,0.6,2.2,1,3.5c-1-0.6-1.6-0.8-2.1-1.1
		c-0.2,0.6-0.3,1.2-0.5,1.8c-0.3,1.1-0.6,2.2-1,3.4c-0.5-0.8-0.9-1.4-1.3-2.1c-0.3-0.6-0.8-1.1-0.9-1.8c-0.3-1.8-0.2-1.8-2.1-2.8
		C222.3,66.4,222.8,65.6,223.6,65.3z M219,67.7c-2.2,1.5-2,3.8-2,6.1c-0.1,1.5-0.5,2.9-0.7,4.4c-0.2,0-0.5,0-0.8,0
		c-1.1-2.2-1.3-4.4-0.5-6.9c0.2-0.6,0.5-1.1,0.5-1.7c0.2-2.8,1-3.5,4-3.2C219.3,66.9,219.3,67.5,219,67.7z M212.2,59.4
		c1-0.7,2.1-1.1,3.2-1.3c0.5-0.1,1.2,0.7,1.8,1.1c0.6,0.5,1.2,1.1,1.8,1.7c0.6,0.7,1.1,1.5,1.7,2.2c-0.7,0.3-1.4,0.9-2.2,1
		c-1.8,0.2-3.4-0.1-5-1.3c-0.6-0.5-2.4,0-3.3,0.6c-1.3,0.9-1.8-0.2-2.5-0.4C209.3,61.7,210.6,60.4,212.2,59.4z M150.1,21.2
		c-0.4,1-0.7,2.1-2.1,1c-0.1-0.2-0.6,0.1-1,0.2c-0.9,0.2-1.7,0.4-3,0.7c0.8-0.9,1.1-1.3,1.5-1.7c0.3-0.3,0.5-0.7,0.7-0.7
		c1.5,0,2.9-1.1,4.5-0.4c0.9,0.3,2,0.1,3,0.2C153.1,22.2,152.2,22.4,150.1,21.2z M158.8,30.2c-0.1-0.1-0.2-0.3-0.3-0.4
		c0.7-0.6,1.4-1.3,2.3-2.2c0.2,0.4,0.5,1,0.5,1C160.5,29.2,159.6,29.7,158.8,30.2z M164.5,18.9c-1.5,0-3-1-4.5-1.5
		c0.1-0.2,0.1-0.5,0.1-0.7c4.1,1.2,8.2,2.1,12.3,0.2c0.3,0.7,0.7,1.3,1.2,2.4C170.4,17.7,167.5,18.9,164.5,18.9z M249.9,417
		C249.9,417,249.8,417,249.9,417C249.8,417,249.8,417,249.9,417c-1.2-0.2-2.4-0.4-3.6-0.7c0-0.1,0.1-0.3,0.1-0.4c0.6,0,1.3,0,1.8,0
		c0.2-0.6,0.4-1.1,0.5-1.5h0.1l0,0c0.7,0.4,1.3,0.7,1.9,1C250.5,415.9,250.2,416.5,249.9,417z"/>
	<path class="st1" d="M128.4,46.6L128.4,46.6L128.4,46.6z"/>
	<path class="st1" d="M696.1,327.9c-0.3-1.1-1.1-2-1.8-2.9c-1.7-2.4-1.2-5.6-3.2-7.9c-1.4-1.6-2.1-3.9-2.2-6.3
		c0-0.4-0.4-0.8-0.7-1.1c-0.6-0.6-1.3-1.2-1.9-1.8c-0.5-0.6-1.1-1.2-1.6-1.8c-0.2-0.3-0.6-0.6-0.7-0.9c-0.4-2.3-0.7-4.5-1.1-6.8
		c-0.3-1.9-1.1-3.9-1-5.8c0.1-2.4-0.8-4-2.5-5.4c-0.4-0.4-0.7-0.9-0.8-1.4c-0.8-3.9-1.5-7.9-2.3-12.3c-0.8,0.9-1.6,1.3-1.7,1.9
		c-0.5,2.7-0.9,5.4-1.1,8.2c-0.3,3.4-0.3,6.8-0.4,10.2c0,1.7-1.9,3-1.1,4.9c0.1,0.2-0.5,0.8-0.7,0.8c-0.3-0.1-0.9-0.6-0.9-0.8
		c0.3-0.9-1.1-1.7-0.1-2.6c-0.3-0.2-0.7-0.5-0.7-0.5c-1.9,1.7-2.6-0.3-3.5-1.2c-1.1-1.1-1.8-2.6-2.8-3.8c-0.8-0.9-0.6-3.3,0.3-4.1
		c0.1,0.4,0.2,0.8,0.3,1.2c1.5-1.2,1.3-2.4-0.5-3.3c1.3-2.5,1.9-5-0.2-7.8c-0.2,0.7-0.2,1.4-0.3,1.4c-1.2,0-2.7,0.3-3.7-0.2
		c-2.1-1-3.9-2.6-6.4-2c-0.7,0.2-1.6,0.6-1.7,1c-0.1,0.6,0.4,1.4,0.8,2.6c-1.7,2.4-0.8,6.7-4.4,9.2c-0.5-0.7-1.1-1.4-1.6-2.1
		c-0.5-0.8-1.1-1.4-1.9-0.7c-1.2,1-2.3,2.2-3.1,3.5c-0.8,1.4-1.1,3.1-1.6,4.6c0,0.2-0.2,0.4-0.4,0.5c-0.6,0.5-1.2,1-2,1.6
		c-0.1-0.1-0.6-0.3-0.9-0.4c-0.5,1.8-0.9,3.3-1.3,4.9c-0.4,1.5-0.7,3.1-1.2,4.6c-1,3.4-4.4,4-6.9,5.6c-1.5,1-3.4,1.5-4.7,2.8
		c-0.9,1-1.3,2.6-3,2.9c-0.3,0-0.6,0.7-0.7,1.1c-0.4,2.3-0.8,4.6-1.1,6.9c-0.1,0.8,0.2,1.7,0.2,2.6c0.1,1.2,0,2.5,0,3.8
		c0,0.6-0.2,1.1-0.1,1.7c0,0.6,0.3,1.1,0.5,1.7c0.5,2.1,1.1,4.1,1.6,6.1c0.5,1.8,0.9,3.5,1.3,5.2c0.5,1.9,1.1,3.9,1.4,5.9
		c0.2,1,0.1,2-0.1,3c-0.3,1.6-1.1,3.1-1.1,4.6c0,1.8,1.6,2.7,3.1,3.5c1.3,0.7,2.6,0.7,3.7-0.4c1.8-1.8,3.7-3.2,6.5-2.7
		c1,0.1,2.2-0.1,3.2-0.4c0.6-0.1,1.3-0.6,1.5-1.1c1-2.6,3-3.6,5.6-3.9c0.6-0.1,1.2-0.5,1.8-0.7c1.9-0.7,3.3-2.8,5.7-2.2
		c1.4,0.3,2.9,0.7,4.2,1.5c2.6,1.6,4,4.1,4.7,7.1c0.2,0.7,0.6,1.4,0.9,2.1c0.7-0.5,1.4-0.9,2-1.5s1-1.3,1.5-2
		c0.2,0.1,0.4,0.2,0.6,0.3c-0.4,1.1-0.8,2.1-1.1,3.2c-0.2,0.5,0.1,1.1,0.2,1.7c0.6-0.3,1.2-0.5,1.7-0.8c0.1,0,0.1-0.3,0.2-0.4
		c0.1,0,0.2,0.1,0.3,0.1c0,0.6,0,1.2,0,1.9c-0.9,0.1-1.8,0.1-2.7,0.2c0,0.2,0,0.4,0,0.6c1.8,0.4,3.6,0.7,5.4,1
		c-0.1,3-0.1,5.6,3.2,6.8c2.5,0.9,4.7,3,6.9,0.7c1.3,0.7,2.3,1.5,3.3,1.8c0.6,0.1,1.8-0.7,1.9-1.3c0.4-1.9,1.8-2.1,3.2-2.2
		c1.8-0.1,2.1-1.1,2.4-2.5c0.6-2.9,1.1-5.9,2-8.7c1.4-4.2,3.4-8.2,4.3-12.7c0.9-4.7,1.1-9.1,0.2-13.6
		C696.8,332.3,696.7,330,696.1,327.9z"/>
	<path class="st1" d="M682.9,251.7c-0.5-3.2-3-5.1-5.1-7.1c-1.8-1.7-4.2-2.7-6.3-4.1c-1.1-0.7-2.4-1.3-3.1-2.3s-1.1-1.3-2.3-0.9
		c-2.1,0.8-2.5,2.9-3.6,4.5c-0.5,0.8-0.9,1.7-1.4,2.5c-0.2-0.2-0.3-0.3-0.5-0.3c0.1-0.5,0.3-1.1,0.1-1.4c-1.1-1.7-1.6-3.5-1.5-5.6
		c0.1-2-1.3-3.1-2.9-4c-1.3-0.8-1.8,0.5-2.6,1c-0.5,0.4-1.1,0.5-2.2,1c1,1.6,1.9,3.3,3.1,4.7c0.6,0.6,1.8,0.5,2.8,0.8
		c-0.9,0.5-1.9,1-2.8,1.5c0.8,1.8,1.5,3.6,2.3,5.4c0.7-1.4,1.5-0.9,2.4-0.1c1.3,1.2,2.9,2.1,4.3,3.3c0.8,0.7,1.6,1.5,2.3,2.4
		c0.4,0.5,0.7,1.2,0.9,1.8c0.4,1.3,1.1,2.7,0.8,3.7c-0.3,1.2-1.6,2.2-2.7,3c-0.7,0.5-1.9,1-1.1,1.7c0.9,0.8,1.5,2.6,3.3,1.8
		c1.1-0.5,2-1.1,3.1-1.7c0,0.5-0.1,0.9,0,1.1c0.9,1.6,2.1,3.2,2.9,4.9c0.4,0.9,0.9,1.2,1.6,1c0.4-0.1,0.6-0.9,0.9-1.3
		c0.3,0.3,0.6,0.6,1.1,1c0.9-2.5,1.8-4.8,2.7-7.2c2-0.2,3.4,0.5,3.7,1.8c0.4,1.5,0.8,3.2,1.7,4.5c0.8,1.1,1.4,2.8,3.5,2.7
		c0.8-0.1,1.7,0.8,2.7,1.4c0.1-0.2,0.6-0.6,0.5-0.8c-0.7-1.9-1.4-3.8-2.3-5.6c-0.3-0.6-1-0.9-1.3-1.4c-1.1-2.1-2.2-4.2-3.1-6.1
		c0.6-1.1,1.1-2.1,1.6-3.1c-0.2-0.7-1.2-1.7-2.2-2.8C683.7,252.9,683,252.3,682.9,251.7z"/>
	<path class="st1" d="M623.5,203.9c-0.5,0.9-0.8,1.9-1.2,2.9c-0.8,1.7-0.7,3.7-2.8,4.8c-0.9,0.5-1.4,2.1-1.9,3.2
		c-0.8,1.7-1.5,3.5-3.4,4.4c-0.6,0.3-1.3,1-1.6,1.6c-0.4,0.9-0.5,1.8-0.7,3c-1-0.3-1.9-0.5-3.1-0.8c-0.3,1.6-0.9,3.3-0.9,5
		c0,2.2,0.4,4.4,0.9,6.5c0.4,1.7,1.1,3.4,1.6,5.1c0.5,1.5,0.7,3.1,1.2,4.6c0.1,0.3,0.8,0.3,1.3,0.5c0.1-0.8,0.1-1.3,0.2-2
		c0.3,0.2,0.6,0.2,0.6,0.4c0.6,1.3,1.3,1.8,2.9,1.4c0.8-0.2,2,1.1,2.9,1.8c0.3,0.3,0.6,0.8,0.6,0.9c1.2,0,1.9,0,3,0
		c0.3-2,0.7-4.4,1.1-6.7c0.3-1.7,0.5-3.5,0.9-5.2c0.1-0.8,0.7-1.5,0.8-2.3c0.1-1.8,0-3.6,0-5.2c1.2-0.2,2.1-0.3,3-0.5
		c-0.5-0.9-0.9-1.5-1.1-2.1c-0.5-1.4-1.2-2.9-1.3-4.3c-0.1-2.2-1-4.5,0.8-6.6c0.5-0.6,0.3-1.7,0.4-2.8c1.5-0.7,1.6-1.8,0.3-3.5
		c-0.9-1.1-1.4-2.4-2.1-3.6c-0.3-0.4-0.8-0.9-1.2-1C624.4,203.3,623.7,203.6,623.5,203.9z"/>
	<path class="st1" d="M490.1,280.5c-0.2-1.3-1-1.5-1.8-1c-0.5,1.8-1.1,3.5-1.8,5.2c-0.1,0.3-0.4,0.6-0.3,0.8c0.4,1.9-1,3.1-1.7,4.6
		c-0.4,0.8-0.7,2-1.4,2.3c-2.1,1.1-4.3,1.9-4.5,4.7c-0.2,1.9-0.7,3.8-0.5,5.7c0.4,2.9,1.4,5.7-0.1,8.8c-0.8,1.7-0.9,3.9-0.8,5.9
		c0.2,3.4,0.6,6.8,1.1,10.2c0.2,1.4,2.5,3.3,3.3,2.8c1.1-0.7,2.4-1.6,3-2.7c0.8-1.5,1.2-3.3,1.5-5c0.7-3.8,1.2-7.5,1.8-11.3
		c0.2-1.7,0.2-3.4,0.5-5c0.4-1.6,1.1-3.2,1.3-4.8c0.3-2.8,0.3-5.5,0.5-8.3c0.2,0.1,0.6,0.4,1.3,0.8c0-1.3,0.2-2.3,0.1-3.2
		C491.2,287.5,490.6,284,490.1,280.5z"/>
	<path class="st1" d="M665.1,90.6c-1.6,1.9-2.1,4.2-2.7,6.6c-1.6,0-3.3,0-5,0c-1,0-1.8-0.1-2.2,1.3c-0.2,0.8-1.3,1.3-2,2
		c-1.3,1.3-2.5,2.6-3.6,4c-0.2,0.3,0.1,1,0.3,1.5c0.3,1.1,0.9,2.2,1,3.3c0.2,2.7,0.2,2.7,2.8,2.3c0.2-1.1,0-2.5,0.6-3.4
		c1.3-2.1,0.4-3.6-1.1-5.3c0.9,0,1.7,0,2.4,0c-0.5,3.3-0.4,3.5,1.6,3.3c0.3-0.6,0.5-1.3,1-1.6c2.4-1.6,2.5-1.6,1-4.1
		c0.8-0.1,1.5-0.2,2.4-0.3c-1.5,2.1-0.9,4,1.1,4.3c0.2-0.5,0.4-1.1,0.7-1.6c0.4-0.5,0.9-1,1.2-1.3c-0.3-0.7-0.5-1.3-0.8-2.1
		c2.9,1.7,2.9,1.7,4.3,0c0.1,0.4,0.3,0.7,0.5,1.2c0.4-1,0.6-1.5,0.7-1.6c0.9,0,1.8,0.3,2.3-0.3c0.6-0.6,1.3-1.8,1.1-2.2
		c-1.4-2.2,0.3-4.2,0.4-6.3c0.1-2.2,1.2-4.4,1.5-6.7c0.2-1.3-0.5-2.7-0.8-4c-1.9-0.1-2.7,0.8-3.2,2.6c-0.3,1,0.3,1.7,0.1,2.5
		c-0.5,1.6-1.1,3.2-1.7,4.8c-0.5-0.3-0.9-0.5-1.2-0.6c0,0.9,0.3,1.9-0.1,2.4c-0.5,0.6-1.5,0.8-2.4,1.3c0.1-0.8,0.2-1.3,0.3-1.8
		C665.4,90.7,665.3,90.7,665.1,90.6z"/>
	<path class="st1" d="M392.8,52.6C392.7,52.7,392.8,52.6,392.8,52.6L392.8,52.6z"/>
	<path class="st1" d="M378,41.9c0.1,0.1,0.3,0.4,0.6,0.8c0.5-0.2,1-0.3,1.2-0.4c0.5,0.6,0.9,1.5,1.3,1.5c2,0,2.1,1.6,2.9,2.9
		c-1,0.2-1.9,0.5-2.4,0.6c-0.3,0.8-0.4,1.6-0.8,2.2c-0.3,0.4-0.9,0.6-1.4,0.8c0.6,0.3,1.1,0.5,1.6,0.8c0.2,0.1,0.5,0.1,0.7,0.2
		c-0.8,1.4-1.6,2.7-2.4,4c0.1,0.1,0.3,0.2,0.4,0.3c0.7-0.4,1.4-1,2.2-1.1c2.6-0.3,5.2-0.4,7.8-0.8c1.1-0.2,2.1-0.7,3.1-1.1
		c0.3-1,0.8-2,1.1-3.3c0.4-2.1-1.5-1.3-2.3-1.6c-0.2-0.6-0.3-1.1-0.6-1.5c-1.2-1.5-2.4-3-3.7-4.4c-0.6-0.7-1.8-1.1-1.9-1.8
		s0.8-1.6,1.4-2.6c-1.4-0.2-2.8-0.4-4.3-0.6c0.5-0.5,0.9-0.9,1.3-1.3c0.4-0.5,0.7-1,1-1.5c0.1-0.1-0.4-0.6-0.5-0.6
		c-0.5,0.2-1.2,0.4-1.5,0.8c-0.7,1.1-1.2,1.4-1.9,0.3c-1.3,0.9-2.4,1.8-3.5,2.7c-0.1-0.1-0.2-0.3-0.3-0.4c0.3-0.2,0.6-0.4,1-0.6
		c-1.6-1.4-1.6-1.4-3.3,1.7c1.2,0.2,2.3,0.4,3.2,0.5C378,39.6,378,40.5,378,41.9z"/>
	<path class="st1" d="M378.7,42.8l-0.1-0.1C378.6,42.7,378.6,42.7,378.7,42.8L378.7,42.8z"/>
	<path class="st1" d="M738.1,380.2c-0.1,0.5-0.2,0.8-0.3,1.2c-0.5-0.6-0.8-0.9-1.1-1.3c-2,0.7-2.5,2.6-3.2,4.4c-1,1.8-2,4.1-3.6,4.9
		s-2.8,1.8-3.9,3c-1.1,1.1-1.6,2.7-2.3,4.1c0.9,0.4,1.8,0.8,2.7,1.2c2.4,1.2,6-0.4,6.6-3c0.5-2.4,1.4-4.3,4-4.9
		c0-0.1,0.1-0.2,0.2-0.3c-0.1-0.8,0-1.5,0.3-2.1c1.2-2.1,2.3-4.1,1.2-6.5C738.6,380.7,738.5,380.6,738.1,380.2z"/>
	<path class="st1" d="M628.3,241.8C628.3,241.8,628.3,241.9,628.3,241.8C628.4,241.9,628.4,241.9,628.3,241.8z"/>
	<path class="st1" d="M628.3,241.8C628.4,241.9,628.4,241.9,628.3,241.8C628.3,241.9,628.3,241.8,628.3,241.8s-0.1-0.1-0.1-0.2
		c-0.1,0-0.2,0-0.4,0.1c0.1,0.9-0.1,2.3,0.4,2.8c1.2,1.2,1,2.6,1.1,4c0.1,1.7,0.2,3.3,0.4,5c1.2,0.3,1.7-0.1,1.7-1.3
		c-0.1-2.9-0.2-5.9-0.2-8.8c0-0.4,0.3-0.8,0.5-1.2c0.2,0,0.3,0.1,0.7-0.1c0,0.6-0.1,1.3,0,1.9c0.2,0.7,0.2,1.6,0.6,2.1
		c1.4,1.8,1.6,3.8,1.3,5.9c0.7,0.5,1.5,0.9,2.2,1.3c1-1.4,0.8-5.7-0.3-7.2c-0.4-0.4-0.7-1.3-0.5-1.5c0.9-1,0.8-1.7-0.1-2.6
		c-0.5-0.5-0.8-1.2-1-1.8c-0.7-1.8,0.1-2.9,2-3c0.4,0,0.9-0.2,1.4-0.3c0-0.1,0-0.2,0-0.3c-0.6-0.1-1.1-0.1-1.6-0.2
		c-0.1-0.5-0.2-1-0.3-1.5c0.6-0.1,1.3-0.3,2.1-0.5c-2.1-1.4-4.6-0.5-5.3,1.6c-1.7-0.5-2.2-1.6-1.3-3.4c-1,0.5-3.1,4.3-2.9,5
		c0,0.2,0.3,0.3,0.4,0.5c0.1,0.2,0.3,0.6,0.2,0.8C629,239.9,628.6,240.8,628.3,241.8z"/>
	<path class="st1" d="M238,153.1c2.1,0.2,2.9-0.2,3.7-2.4c-0.6-0.5-1.1-1.2-1.8-1.4c-1.6-0.9-3.4-1.4-4.1-3.4
		c-0.3-0.9-0.9-1.9-1.6-2.3c-2.8-1.4-5.2-3.7-8.8-3.1c-3,0.5-5.1,2.6-4.5,5.4c0.2,0,0.3,0,0.4,0c0.8-0.3,1.7-1.7,2.1,0.5
		c0.2,0.9,3.4,0.9,3.8-0.1c0.7-2,1.7-1,2.7-0.4c0.4,0.3,0.8,1,1.2,1c1.7,0.2,1.7,1.8,2.5,2.7c1.1,1.1,1.5,2.1,0.3,3.5
		C235.5,153.1,236.8,152.9,238,153.1z"/>
	<path class="st1" d="M636.2,163.5c0-1.4-0.5-3-1.1-4.3c-0.3-0.8-1.4-1.3-2.3-1.7c-0.1,0-1,0.9-1.1,1.5c-0.2,1.6-0.2,3.4-0.4,5.1
		c-0.1,0.9-0.4,1.7-0.5,2.6c-0.3,2.1-0.8,4.3,0.4,6.4c0.3,0.6,0.3,1.3,0.5,1.9c-0.2,0.1-0.3,0.2-0.4,0.3c1.1,0.5,2.1,1,3.2,1.6
		c0,0.2-0.2,0.6-0.6,1.4c1-0.4,1.6-0.7,2.1-0.9c0.8,1,1.7,1.9,2.2,2.9c0.8,1.8,2.7,3.3,1.3,5.7c-0.1,0.2,0.2,0.7,0.3,1.1
		c0.2,0.6,0.5,1.2,0.7,1.8c0.1,0.6,0.1,1.2,0.1,1.8c0.9-1.8,1.3-3.7,1.7-5.5c0-0.2-0.3-0.5-0.4-0.8c-0.1-0.3-0.3-0.6-0.2-0.8
		c0.4-0.9-0.2-2.7-1-3c-1.9-0.8-3-3.3-2.2-5.3c-1.3-0.3-2.6-0.5-4.2-0.9c0-0.6,0.2-1.7,0.1-2.7c-0.6-1.6,0.1-2.9,0.6-4.3
		C635.4,166.1,636.2,164.8,636.2,163.5z"/>
	<path class="st1" d="M746,371.2c-1.4,0.7-2.9,0-3.2-1.5c-0.1-0.5-0.1-1.2-0.4-1.3c-1.8-0.9-2-2.8-2.8-4.3c-0.8-1.3-1.5-2.7-3.6-3.2
		c0.9,2,1.6,3.8,2.4,5.5c0.5,1.5,1.3,3,1.5,4.5c0.2,1.3-0.1,3-0.9,4c-1.1,1.3-1.4,1.9,0.1,2.7c1.2,0.7,1.6,1.6,1.5,2.9
		c-0.1,1,0,2,0,3.3c2.5-1.1,3-3.1,4-4.8c0.8-1.3-0.1-3.7,2.4-3.8c0.1-1-0.1-2.3,0.3-2.5c1-0.4,1.2-1,0.6-1.5
		C747.6,370.8,746.6,370.9,746,371.2z"/>
	<path class="st1" d="M642.6,191.6c-0.2,0-0.8,0-1,0c-0.6,1.6-1.1,3-1.6,4.4c-0.4,0.9-0.8,1.4-1.9,1c-0.4-0.1-1.1,0.5-1.7,0.9
		c-0.2,0.2-0.3,0.6-0.6,0.8c-1.2,0.8-2,3.3-1.4,5c0.8-1.8,2-2.7,3.9-2.8c-0.2,3.3,0.2,6.2,4.1,7.6c-0.3-1.7-0.5-3.4-0.8-4.6
		c0.8-0.3,1.8-0.5,1.8-0.7c0.2-2,0.4-4,0.3-6C643.6,195.4,643,193.6,642.6,191.6z"/>
	<path class="st1" d="M360.3,25c1.1-0.9,2.2-1.7,3.4-2.6c-2-0.8-3.8-1.6-5.6-2.3c-0.2,0-0.5,0.1-0.7,0.2c-1.3,0.3-2.6,0.7-3.9,0.9
		c-1.7,0.3-3.5,0.5-5.2,0.7c-0.3,0.1-0.8-0.2-1.1-0.5c-1.2-1.1-3.7-0.7-4.6,0.7c0.6,0.6,3.3-0.8,2,1.7c3.2,1.7,6.7,2.6,10.6,1.9
		c-0.2-0.3-0.3-0.5-0.4-0.7C356.7,25,358.6,25,360.3,25z"/>
	<path class="st1" d="M505.1,14.5c-0.5-0.4-1.1-0.6-1.7-0.8s-1.1-0.5-1.7-0.8c0-0.2,0-0.4-0.1-0.7c1.7-0.6,3.3-1.3,5-1.6
		c4.9-0.7,9.9-1.2,14.9-1.8c1.6-0.2,3.2-0.2,4.8-0.4c0.5-0.1,1.1-0.4,1.6-0.6c-0.7-0.4-1.2-0.4-1.8-0.4c-4.5,0.2-9.1,0.4-13.7,0.7
		c-2.7,0.2-5.5,0.6-8.2,1c-0.9,0.2-1.9,0.2-2.8,0.5c-1,0.3-2,1.2-3,1.3c-2.2,0.2-3.2,1.4-4,3.3C498.1,14.2,501.5,15.6,505.1,14.5z"
		/>
	<path class="st1" d="M369.9,45.8c0.5,0.8,1,1.6,1.2,2.4c0,0.2-1,0.6-1.2,1c-0.2,0.6-0.4,1.6-0.1,1.8c0.8,0.5,1.8,1,2.6,0.8
		c1.4-0.3,2.6-1.3,3.9-1.6c2.4-0.6,3.2-2.1,1.8-4.3c1-0.9,2-1.8,0.5-3.1c-0.5,0-1-0.1-1.5-0.1c-2.4-0.6-3.8-0.1-4.4,1.5
		c-1.2,0.2-2.3,0.4-3.4,0.6c-0.1,0.2-0.1,0.4-0.2,0.6C369.4,45.5,369.8,45.6,369.9,45.8z"/>
	<path class="st1" d="M679.1,70.8c-1.1-1-2.3-1.8-3.6-2.5c-0.5-0.3-1.2-0.2-1.5-0.3c-0.1,1.1-0.1,2-0.2,2.8c-0.1,1-0.3,2-0.4,3.1
		c-0.6-0.3-0.9-0.5-1.2-0.6c-0.8,1.2-1.5,2.2-2.1,3.1c0.4,1.1,0.7,2,1.1,3c0.2,0,0.3,0.1,0.5,0.1c0.4-1,0.8-2.1,1.3-3.4
		c1.3,0.2,3.1,0.6,4.3,0.8c1.1-1.1,1.7-2,2.6-2.5c0.7-0.3,1.9,0.1,1.8-1.3c-0.1-0.9-0.1-1.8-0.2-2.7c-0.1,0-0.3,0-0.3,0
		C680.6,71.1,680.1,71.8,679.1,70.8z"/>
	<path class="st1" d="M247.4,161.5c0.5-1.7,3.5-3.1,4.5-2.6c0.4,0.2,1.2,0.2,1.3,0.1c0.2-0.5,0.5-1.3,0.2-1.6
		c-1.8-1.9-3.2-4.4-6.3-4.6c-0.9-0.1-1.9-0.3-3-0.5c-0.3,0.3-0.7,0.7-1,1.1c0.6,1,1.3,1.8,1.6,2.7c0.2,0.5-0.1,1.2-0.2,1.8
		c-0.5-0.1-0.9-0.2-1.4-0.3s-1.1-0.1-1.7-0.2c0,0.8,0,1.3,0,1.5C243.3,160.3,246,158.4,247.4,161.5z"/>
	<path class="st1" d="M426.3,7.2c1-0.7,2.4-0.8,3.7-1.1c0.5-0.2,1.4-0.2,1.7,0.1c1.6,1.6,3.5,1.2,5.4,1.2c0.1-0.2,0.1-0.4,0.2-0.6
		c-1.2-0.4-2.4-0.7-3.9-1.1c3.5,0,6.6,0,9.8,0c0-0.2,0-0.3,0-0.5c-0.2-0.1-0.5-0.3-0.7-0.3c-6.2,0-12.4-0.2-18.6,0.1
		c-1.9,0.1-3.6,0.2-5.5,0c-2-0.2-4.2-0.4-6.2,0.7c2.2,0.6,4.2,1.3,6.3,1.6C421.1,7.6,423.7,9.1,426.3,7.2z"/>
	<path class="st1" d="M160.1,10c0.8,0.1,1.5,0.5,2.3,0.5c0.7,0,1.5-0.5,2.3-0.5c4.2-0.2,8.5-0.3,12.7-0.4c0.4,0,0.8-0.2,1.4-0.4
		c-0.4-0.3-0.6-0.6-0.8-0.6c-2.9,0.1-5.7-1.4-8.8-0.2c-1.7,0.7-4-0.2-6.1-0.4c-0.6-0.1-1.2-0.4-2-0.6c0.5-0.3,0.7-0.4,1-0.6
		c0-0.1-0.1-0.2-0.1-0.4c-0.6,0-1.2,0-1.4,0c-0.5,0.7-0.6,1.4-1,1.5c-0.7,0.3-1.5,0.2-2.5,0.3c0.6-0.5,1-0.7,1.4-1
		c-2-0.9-5.8-0.5-6.8,0.7c0.8,0.4,1.6,0.8,2.4,1C156.1,9.3,158.1,9.6,160.1,10z"/>
	<path class="st1" d="M686.6,380.4c-2.2,1.7-3.6,1.5-6.4-0.6c-0.2,0-0.4,0-0.6,0.1c0.2,0.8,0.3,1.7,0.5,2.6c0.3,1.3,0.8,2.6,1.3,3.8
		c0.3,0.9,0.7,2.2,1.3,2.3c0.9,0.2,2.3,0,3.1-0.6c0.7-0.4,1.1-1.6,1.3-2.5c0.2-1.2,0.1-2.5,0-3.8C687,381.3,686.8,380.9,686.6,380.4
		z"/>
	<path class="st1" d="M633.1,266.9c1.7-0.5,3.2-1.3,4.7-1.9c-0.2-0.7-0.3-1.3-0.5-2.3c-0.6,0.4-1.4,0.7-1.4,1.2
		c-0.5,1.4-1.4,0.9-2.3,0.8c-1.1-0.1-2.2,0.1-3.3,0c-0.9-0.1-2.4-0.4-2.5-0.8c-0.3-1.4-1.1-0.8-1.4-0.5c-1.1,1.2-1.9,1-2.8-0.8
		c-0.6,1.8-1.1,3-1.6,4.6c3.3-0.3,5.9-0.7,8.6-0.8C631.4,266.3,632.4,267.1,633.1,266.9z"/>
	<path class="st1" d="M185.6,12.4c1.9,0.6,3.8,1.1,5.7,1.6c0.6,0.2,1.3,0.3,1.9,0.2c1.5-0.3,2.8-0.9,4.6-1.5
		c-0.7-0.6-1.4-1.8-2.2-1.9c-3.7-0.6-7.5-1.1-11.3,1.1C184.9,12.1,185.2,12.4,185.6,12.4z"/>
	<path class="st1" d="M630.4,230c1.3-0.2,2.5-0.6,3.8-0.5c1.3,0,2.5,0.5,3.8,0.6c0.4,0,1.3-0.6,1.3-0.9c-0.2-1.3,0.9-1.7,1.5-2.4
		c0.9-1,0.8-1.3,0.3-1.7c-1.5,0.7-2.8,1.9-4.1,2c-1.5,0.1-3-0.9-4.6-1.5c-0.2,0.5-0.3,1-0.5,1.6c-0.5,0-1,0.1-1.5,0.1
		C630.4,228.3,630.4,229.2,630.4,230z"/>
	<path class="st1" d="M632.6,133c-1.2,3.9-3.9,7.3-0.8,11.2c2.3-3.1,2.9-6.5,2.4-10.2C634.1,133.6,633.1,133.3,632.6,133z"/>
	<path class="st1" d="M231.4,132.2c0.1,1.7,0.4,3.4,0.5,5.1c0.1,2.9,0.1,2.9,2.9,3.5c0.5-2.1,0.7-4.1,0-6.1c-0.2-1-0.5-2-0.7-3
		c-0.7-0.3-1.5-0.8-2.5-1.3C231.5,131,231.4,131.6,231.4,132.2z"/>
	<path class="st1" d="M635.8,193.2c0,0.4,0.6,0.8,0.9,1.2c0.4-0.3,0.9-0.5,1.1-0.9c0.4-0.8-0.1-1.8,0.9-2.7c0.7-0.6,0.3-2.5,0.3-3.8
		c0,0-0.1-0.1-0.2-0.2c-0.3,0.3-0.5,0.7-0.8,1.1c-1.3-1.5-1.5-4-3.5-4.2c-0.2,1.8-0.3,3.5-0.5,5.3c0.5-0.2,0.9-0.3,1.7-0.6
		C635.7,190,635.7,191.6,635.8,193.2z"/>
	<path class="st1" d="M638.5,272.8c0.3-0.6,0.4-1.3,0.9-1.7c1.8-1.4,2.1-4.2,4.8-4.7c0.3,0,0.7-0.8,0.7-1.3c0.1-0.4-0.7-1-0.8-1
		c-1.8,1.2-3.2,1.1-4.3-1.2c-0.2,0.7-0.5,1.4-0.2,1.7c1,1.1,0.4,2-0.4,2.6c-1.6,1.4-1.9,3.1-1.5,5
		C637.9,272.5,638.2,272.7,638.5,272.8z"/>
	<path class="st1" d="M180.5,9.6c0.6-0.1,1.2-0.2,1.7-0.3s1.2-0.5,1.3-0.4c1,1.2,1.5,0.2,2.4-0.4c-1.9-0.5-3.5-0.9-5.1-1.3
		c0-0.1,0.1-0.3,0.1-0.5c1.8,0,3.7,0,5.5,0c1.8,0.1,3.5,0.2,5.3,0.3c0-0.2,0-0.3,0-0.5c-1.7-0.9-11.8-1.4-13.8-0.6
		c0.4,0.2,0.9,0.5,1.3,0.7c-0.4,0.2-0.8,0.4-1.5,0.7C179.9,7.7,180.8,8.5,180.5,9.6z"/>
	<path class="st1" d="M690.4,256.1c1.5,0.2,2.7-0.1,3.1-1.8c0-0.3,0.3-0.6,0.5-0.9c1.3-1.7,1.3-3.5,0.8-6c-0.8,1.8-1.1,3.7-2.1,4.5
		c-1.2,0.8-3.1,0.7-4.8,1C687.9,254.3,688.9,255.9,690.4,256.1z"/>
	<path class="st1" d="M644.8,233.2L644.8,233.2c0.5-0.1,0.9-0.4,1.6-0.9c-0.5,1.2-0.7,1.8-1,2.7c1.6-0.7,2.6-1.1,1.8-2.9
		c-0.4-0.8,0.1-2,0.3-3c0.2-1.1,0.6-2.2,0.9-3.3c0.1-0.3-0.1-1-0.2-1c-1.6-0.3-1.3-1-0.6-2.1c0.2-0.4,0-1,0-1.6
		c-1.4,0.5-2.4,3.3-2,4.9c0.2,0.6,0.1,1.3,0,2C645.3,229.8,645.1,231.5,644.8,233.2z"/>
	<path class="st1" d="M590.7,5.1c-5.4,0.3-10.9-2-16.3,0.2C581.8,6.4,589.4,6.3,590.7,5.1z"/>
	<path class="st1" d="M681,9.6c-1.3-1.7-14.6-1.6-15.6-0.1c0.3,0,0.6,0.1,0.9,0.1C671.1,9.6,675.9,9.6,681,9.6z"/>
	<path class="st1" d="M195.1,9.9c0.6-1.6-0.7-2-1.7-2.1c-2.3-0.1-4.7,0-7,0c0,0.2-0.1,0.4-0.1,0.6C189.1,9.6,192,10.3,195.1,9.9z"/>
	<path class="st1" d="M647.7,246.1c1.5-2.1,2.7-1.8,3.9-0.5c0.2,0,0.3-0.1,0.4-0.2c-0.2-0.9-0.3-2.7-0.5-2.7
		c-1.6-0.2-3.2,0.1-4.8,0.2C647,243.8,647.3,244.8,647.7,246.1z"/>
	<path class="st1" d="M237.8,144.2c0-1.2,0-2.2,0-3.3c0.6-0.1,1.5-0.1,3-0.2c-1.3-1.3-2.3-2.3-3.4-3.3
		C235.7,139.8,235.8,142.8,237.8,144.2z"/>
	<path class="st1" d="M723.6,316.6c-0.1-1.2-0.5-2.5-2.2-3.1c-0.2,0-0.3-0.4-0.4-0.6c-0.4-0.7-0.7-1.5-1.1-2.3c-0.2,0-0.4,0.1-0.8,0
		c0.1,0.6-0.1,1.4,0.2,1.9c1,1.7,2.2,3.2,3.3,4.8c0.2,0.3,0.7,0.6,1,0.6s0.7-0.4,1-0.6C724.3,317.1,724.1,316.9,723.6,316.6z"/>
	<path class="st1" d="M632.4,177.1c-0.4,0.4-1.3,0.9-1.2,1.3c0.3,1.4,0.9,2.8,1.4,4.4c1.4-0.5,1.9-1.8,1.6-3
		C634,178.8,633,178,632.4,177.1z"/>
	<path class="st1" d="M84.2,35.6c-1.4,0.7-2.7,1.4-4.3,2.3c0.7,1.2,1.5,1.7,3,1C84,38.4,85,38,85,36.5c0-0.3,0.2-0.6,0.3-0.9
		C84.9,35.6,84.5,35.5,84.2,35.6z"/>
	<path class="st1" d="M235.4,130.8c0.4-0.9,0.9-1.6,0.7-1.9c-0.8-1.1-1.8-2.1-2.8-3.1c-0.1-0.1-0.6,0-0.6,0.1
		c-0.2,0.8-0.4,1.7-0.6,2.6c0.6,0.1,1.2,0.1,2.2,0.2C234.4,129,234.8,129.6,235.4,130.8z"/>
	<path class="st1" d="M171.3,6c-2.8,0.1-5.4-0.2-8,0.4C165.1,7.9,169.8,7.6,171.3,6z"/>
	<path class="st1" d="M746.6,303.4c0.7-0.8,1.6-1.5,1.5-1.7c-0.3-0.9-1-1.7-1.5-2.5c-0.5,0.8-1.2,1.6-1.5,2.5
		C745,302,745.9,302.6,746.6,303.4z"/>
	<path class="st1" d="M233.2,158.6c0.8,1,1,2.9,2.9,2.3c0.5-0.1,1-1.6,0.8-1.9C236,157.7,234.6,158.2,233.2,158.6z"/>
	<path class="st1" d="M126.5,49c0-1.2,0-2.3,0-3.9c-1,0.4-2.1,0.5-2.6,1.2C123.3,47,125,48.7,126.5,49z"/>
	<path class="st1" d="M628,268.8c1.5,1.5,2.3,3.1,4.4,2.3c0.3-1.5-0.8-2.1-1.9-2.5C630,268.3,629.1,268.7,628,268.8z"/>
	<path class="st1" d="M701.2,258.3c0.6-0.4,1.2-0.7,1.6-1c-0.5-1.1-1.2-2.6-2-4.2C700,254.6,700.8,257.9,701.2,258.3z"/>
	<path class="st1" d="M641.9,243.8c0.5,0.7,0.8,1.6,1.4,2.2c0.2,0.2,1,0.2,1.5,0c0.4-0.1,0.7-0.7,1.5-1.5c-1.6-0.5-2.9-0.9-4.2-1.3
		C642.1,243.4,642,243.6,641.9,243.8z"/>
	<path class="st1" d="M151,7.2c-2.3,0.3-4.4,0.6-6.9,0.9C146.4,9.5,150.3,9.1,151,7.2z"/>
	<path class="st1" d="M285.6,14.4c-0.7,0.2-1.5,0.3-2.2,0.4c0,0.1,0,0.3-0.2,0.3c-0.6-0.1-1.2-0.4-1.8-0.4c-0.2,0-0.5,0.3-0.7,0.6
		c-0.1,0.1,0.1,0.5,0.3,0.6C282.6,17.1,284.3,16.8,285.6,14.4z"/>
	<path class="st1" d="M747.9,298.6c1-0.6,1.8-1.1,2.5-1.5c0.3-0.9,0.5-1.9,0.7-2.9c-0.2-0.1-0.3-0.1-0.5-0.2
		C749.5,295.3,747.6,296.1,747.9,298.6z"/>
	<path class="st1" d="M659.2,258.9c0.3,0,0.5,0,0.7,0c0-2.2,0-4.3,0-6.4c-0.2,0-0.5,0-0.7,0C659.2,254.7,659.2,256.8,659.2,258.9z"
		/>
	<path class="st1" d="M629,186.9c-0.1,0.1-0.3,0.2-0.4,0.3c0,1.2,0,2.3,0,3.4c0.2,0.1,0.4,0.2,0.7,0.4c0.4-0.7,1.3-1.5,1.3-2.2
		S629.6,187.5,629,186.9z"/>
	<path class="st1" d="M627.5,192c-0.9,1.4-1.8,2.6-2.5,3.9c-0.2,0.3,0.3,0.9,0.5,1.4C625.8,195.3,628.7,194.5,627.5,192z"/>
	<path class="st1" d="M257.1,158.3c-0.6,0-1.1,0.7-1.7,1.1c0.5,0.4,0.9,0.8,1.7,1.5c0.7-0.7,1.1-1.2,1.5-1.6
		C258.1,158.9,257.6,158.2,257.1,158.3z"/>
	<path class="st1" d="M488.8,17.9c0.1,0.1,0.3,0,0.5,0c0.1-0.1,0.3-0.3,0.4-0.4c-0.1-0.6,0.7-1.7-0.8-1.8c-0.8,0.1-2.1-0.4-2,1
		C487,17.1,488.1,17.5,488.8,17.9z"/>
	<path class="st1" d="M575.8,178.1c0,1.9,0,3.8,0,6.1C577.2,182.1,577.1,178.9,575.8,178.1z"/>
	<path class="st1" d="M199.2,6.2c-1.9,0-3.9,0-5.9,0C195.3,7.6,197.3,7.2,199.2,6.2z"/>
	<path class="st1" d="M769.4,24.1c-0.1,0.2-0.3,0.3-0.5,0.3c0.4,0.5,0.6,1.2,1.1,1.4c1.1,0.5,2.2,0.7,3.3-0.6
		C771.9,24.8,770.6,24.5,769.4,24.1z"/>
	<path class="st1" d="M677.1,11.2c0-0.2,0-0.4,0-0.5c-1.8,0-3.7,0-5.5,0c0,0.1,0,0.3,0,0.5C673.4,11.2,675.3,11.2,677.1,11.2z"/>
	<path class="st1" d="M266.1,56.6c-1.2-0.6-2.3-1-3.5-1.5c-0.2,0-0.5,0-0.7,0C262.6,57.3,264.2,57.8,266.1,56.6z"/>
	<path class="st1" d="M261.9,55.1c0.2,0,0.5,0,0.7,0c-0.3-0.1-0.5-0.2-0.8-0.4C261.8,54.8,261.9,55,261.9,55.1z"/>
	<path class="st1" d="M222.7,28.7c1.4-0.6,2.5-1,3.6-1.5c-0.1-0.1-0.1-0.3-0.2-0.5c-1.1,0-2.2,0-3.6,0
		C222.5,27.4,222.6,27.9,222.7,28.7z"/>
	<path class="st1" d="M750.9,13.8c1.3-0.1,2.5-0.2,3.7-0.4c-0.7-1-3.1-1.7-3.8-1c-0.3,0.2-0.4,0.6-0.4,0.9
		C750.4,13.4,750.7,13.8,750.9,13.8z"/>
	<path class="st1" d="M236.3,131.7c-0.6,1.2-1,2.1-1.5,3c1.1,0,2.1,0,3.7-0.1C237.6,133.5,237.1,132.8,236.3,131.7z"/>
	<path class="st1" d="M497.2,180.5c-0.2,0.2-0.3,0.3-0.4,0.5c0.4,0.5,0.8,1.6,1.1,1.6c0.7-0.1,1.4-0.7,2.1-1.1
		c-0.1-0.2-0.1-0.5-0.2-0.7C498.9,180.7,498.1,180.6,497.2,180.5z"/>
	<path class="st1" d="M605.5,242.6c-0.1,0.3,0.6,0.8,0.9,1.2c0.3-0.3,0.7-0.7,0.8-1.1c0.1-0.7,0-1.3,0-2c-0.2-0.1-0.4-0.2-0.6-0.2
		C606.2,241.2,605.7,241.8,605.5,242.6z"/>
	<path class="st1" d="M58.1,44.2c-1.2,0.8-2.3,1.6-3.5,2.4C56.8,47.2,58.2,46.1,58.1,44.2z"/>
	<path class="st1" d="M710.4,264.1c-0.6-1-1.4-1.9-2.1-2.8c-0.3,0.2-0.5,0.4-0.7,0.6c0.7,1,1.3,2.1,2,3.1c0.1,0.1,0.5,0.1,0.6,0
		C710.3,264.7,710.5,264.3,710.4,264.1z"/>
	<path class="st1" d="M598.9,233.8C598.8,233.7,598.9,233.8,598.9,233.8L598.9,233.8z"/>
	<path class="st1" d="M599.7,231.1c-0.3,0.9-0.5,1.8-0.8,2.7c0.6-0.4,1.5-0.6,2-1c0.2-0.2-0.1-1.1-0.3-1.7
		C600.6,231,599.7,231,599.7,231.1z"/>
	<path class="st1" d="M585.1,224.5c-0.1,0.5-0.4,1-0.3,1.5c0.1,0.5,0.4,1,0.7,1.4c0.2,0.3,0.4,0.5,0.6,0.8c0.1-0.3,0.5-0.8,0.4-1.1
		c-0.2-0.8-0.6-1.6-0.9-2.4C585.4,224.7,585.3,224.6,585.1,224.5z"/>
	<path class="st1" d="M506.4,4.4c-1.8-0.1-3.6-0.3-5.4-0.4c-0.1,0.2-0.1,0.3-0.1,0.5c1.8,0.3,3.5,0.5,5.3,0.8
		C506.2,5.1,506.3,4.8,506.4,4.4z"/>
	<path class="st1" d="M706.1,261c-0.6-1.4-1.1-2.4-1.5-3.5C703.4,258.8,703.7,259.7,706.1,261z"/>
	<path class="st1" d="M510.6,15.8c0-0.2,0-0.4,0-0.7c-1,0-2.1,0-3.1,0c0,0.2,0,0.5,0,0.7C508.5,15.8,509.6,15.8,510.6,15.8z"/>
	<path class="st1" d="M246.7,144.6c-1.9,1.7-1.8,2.5,0,3.1C246.7,146.7,246.7,145.8,246.7,144.6z"/>
	<path class="st1" d="M229.8,27.8c-0.3,0.3-0.1,1-0.1,1.6c0.1,0.1,0.3,0.1,0.5,0.2c0.6-0.6,1.1-1.2,1.6-1.8
		c-0.2-0.2-0.3-0.4-0.5-0.6C230.8,27.4,230.1,27.4,229.8,27.8z"/>
	<path class="st1" d="M713,271.2c0,0.1-0.1,0.3-0.2,0.4c0.4,0.9,0.9,1.7,1.3,2.6c0.2,0,0.3,0,0.5,0c0-0.6,0.3-1.3,0.1-1.7
		C714.3,271.9,713.6,271.6,713,271.2z"/>
	<path class="st1" d="M725.5,293c0-0.6,0.3-1.5,0-1.7c-0.4-0.3-1.2-0.2-1.8-0.3c0,0.2,0,0.4,0,0.7c0.4,0.4,0.9,0.9,1.3,1.4
		C725.2,293,725.3,293,725.5,293z"/>
	<path class="st1" d="M720.3,33.8c-0.6,0-1.3-0.2-1.7,0.1c-0.4,0.2-0.4,1-0.5,1.6c0.2,0.1,0.3,0.2,0.5,0.3c0.6-0.4,1.2-0.9,1.8-1.4
		C720.4,34.2,720.4,34,720.3,33.8z"/>
	<path class="st1" d="M639.6,239.7c0.9-0.9,1.4-1.5,2-2.2C639.7,236.8,639.3,237.1,639.6,239.7z"/>
	<path class="st1" d="M710.4,268.4c-0.1,0.1-0.2,0.3-0.3,0.5c0.4,0.6,0.9,1.2,1.4,1.8c0.2-0.1,0.4-0.1,0.5-0.1c0-0.5,0.3-1.2,0-1.5
		C711.7,268.7,711,268.6,710.4,268.4z"/>
	<path class="st1" d="M687.3,68.3c-0.2-0.2-0.3-0.4-0.5-0.6c-0.7,0.5-1.4,0.9-2.6,1.6c0.9,0.2,1.5,0.6,1.8,0.4
		C686.6,69.4,686.9,68.8,687.3,68.3z"/>
	<path class="st1" d="M407.9,79.4c-0.7,0.8-1.7,1.5-1.7,2C406.2,80.9,407.2,80.3,407.9,79.4z"/>
	<path class="st1" d="M406.2,81.4c0.2,1.9,0.8,3.7,1.4,5.8C407,85,406.4,83.2,406.2,81.4L406.2,81.4z"/>
	<path class="st1" d="M416.8,92c1.1,0.8,2.4,1.2,3,2.4C419.3,93.1,417.9,92.7,416.8,92z"/>
	<path class="st1" d="M421.2,89c-2.2,0.1-4.1,0.3-6,0.4v0.1C417.1,89.4,419,89.3,421.2,89L421.2,89z"/>
	<path class="st1" d="M407.6,87.2c0.9-1.6,2.1-2.5,1.9-4.6C409.6,84.7,408.4,85.6,407.6,87.2z"/>
	<path class="st1" d="M420.3,94.3c-0.2,0-0.3,0.1-0.5,0.1C419.9,94.3,420.1,94.3,420.3,94.3z"/>
	<path class="st1" d="M454.3,31.9c0.2-0.1,0.4-0.2,0.6-0.3c0.1-0.1,0.2-0.1,0.2-0.2c0.1-0.2,0.1-0.7,0-0.7c-0.5-0.2-0.9-0.5-1.3-0.8
		c-0.8-0.5-1.7-0.9-3.1,0.1c1.1,0.7,2,1.4,3.1,1.9C453.9,32,454.1,32,454.3,31.9z"/>
	<path class="st1" d="M454.3,31.9c-0.2,0.1-0.4,0.1-0.5,0c-1.1-0.5-2-1.2-3.1-1.9c1.1,0.7,2.1,1.5,3,2C453.8,32,454,32,454.3,31.9z"
		/>
	<path class="st1" d="M453.8,29.9c-0.8-0.5-1.7-0.9-3.1,0.1C452,29,452.9,29.4,453.8,29.9z"/>
	<path class="st1" d="M455.1,31.5L455.1,31.5c0,0-0.1,0.1-0.2,0.1C455,31.6,455,31.5,455.1,31.5z"/>
	<path class="st1" d="M462.5,30c0-1-0.2-1.4-0.6-1.6c-0.5-0.2-1.1-0.1-1.7-0.1c-0.2,0-0.4-0.1-0.6-0.1c0,0.2-0.1,0.6,0,0.6
		C460.5,29.2,461.5,29.6,462.5,30z"/>
	<path class="st1" d="M462.5,30c-1-0.4-2-0.8-2.9-1.2C460.5,29.2,461.4,29.6,462.5,30z"/>
	<path class="st1" d="M462.5,30c0-1-0.2-1.4-0.6-1.6C462.3,28.6,462.5,29,462.5,30z"/>
	<path class="st1" d="M248.8,414.4c-0.1,0.4-0.3,0.9-0.5,1.5h-0.1c-0.5,0-1.2,0-1.8,0c0,0.1-0.1,0.2,0,0.4c1.2,0.2,2.3,0.5,3.4,0.7
		c0.3-0.5,0.6-1.1,0.8-1.6C250.1,415.1,249.5,414.8,248.8,414.4z"/>
	<path class="st1" d="M248.8,414.4c0.7,0.4,1.3,0.7,1.8,1c-0.2,0.5-0.5,1.1-0.8,1.6h0.1c0.3-0.5,0.6-1.1,0.8-1.6
		C250.1,415.1,249.5,414.8,248.8,414.4L248.8,414.4z"/>
	<path class="st1" d="M408.9,78.3c0.1,0.9,0.3,1.7,0.4,2.6C409.1,80.1,408.9,79.2,408.9,78.3z"/>
	<path class="st1" d="M406.2,81.4L406.2,81.4L406.2,81.4z"/>
	<path class="st1" d="M409.3,80.9c0.1,0.6,0.2,1.1,0.2,1.7C409.5,82,409.4,81.5,409.3,80.9z"/>
	<path class="st1" d="M409.3,80.9c-0.2-0.8-0.3-1.7-0.4-2.6s0-1.8,0.3-2.8c-1.1,0.9-1.1,0.9-1.3,3.9c-0.7,0.9-1.7,1.5-1.7,2l0,0
		c0.2,1.8,0.8,3.6,1.4,5.8c0.8-1.6,2-2.5,1.9-4.6C409.5,82,409.4,81.5,409.3,80.9z"/>
	<path class="st1" d="M415.2,89.5L415.2,89.5c0.1,1.3,0.8,1.9,1.6,2.5C416,91.4,415.4,90.8,415.2,89.5z"/>
	<path class="st1" d="M421.2,89.1c-0.3,2-0.5,3.5-0.7,5.1c-0.1,0-0.1,0-0.2,0.1c0.1,0,0.1,0,0.2,0C420.7,92.6,420.9,91,421.2,89.1
		L421.2,89.1z"/>
	<path class="st1" d="M421.2,89.1c-2.2,0.2-4.1,0.3-6,0.4c0.2,1.3,0.8,1.9,1.6,2.5c1.1,0.7,2.5,1.1,3,2.4c0.1-0.1,0.3-0.1,0.5-0.1
		c0.1,0,0.1,0,0.2-0.1C420.7,92.6,420.9,91.1,421.2,89.1z"/>
	<path class="st1" d="M458.8,98.8c-2.4-1.3-3.8-0.5-3.7,2.3C455,98.3,456.4,97.6,458.8,98.8z"/>
	<path class="st1" d="M455.1,101.1c1.4-0.8,2.4-1.5,3.7-2.3C457.5,99.6,456.4,100.3,455.1,101.1z"/>
	<path class="st1" d="M455.1,101.1c1.3-0.8,2.4-1.5,3.7-2.3C456.4,97.6,455,98.3,455.1,101.1z"/>
</g>
<ellipse transform="matrix(0.7071 -0.7071 0.7071 0.7071 80.4267 285.1275)" class="st2" cx="384.4" cy="45.5" rx="8.9" ry="15.6"/>
<text transform="matrix(1 0 0 1 289.3275 61.9237)" class="st3 st4">United Kingdom</text>
<polygon points="447.5,105.7 449.8,110.3 454.8,111 451.2,114.6 452,119.6 447.5,117.2 443,119.6 443.8,114.6 440.2,111 
	445.2,110.3 "/>
<text transform="matrix(1 0 0 1 459.4512 116.946)" class="st3 st4">Egypt</text>
<text transform="matrix(1 0 0 1 731.4886 15.7236)" class="st3 st5">Gall-Peters</text>
</svg>
