<?xml version="1.0" encoding="utf-8"?>
<!-- Generator: Adobe Illustrator 24.1.3, SVG Export Plug-In . SVG Version: 6.00 Build 0)  -->
<svg version="1.1" id="Layer_2_1_" xmlns="http://www.w3.org/2000/svg" xmlns:xlink="http://www.w3.org/1999/xlink" x="0px" y="0px"
	 viewBox="0 0 792 422.7" style="enable-background:new 0 0 792 422.7;" xml:space="preserve">
<style type="text/css">
	.st0{fill:#608161;}
	.st1{fill:none;stroke:#000000;stroke-width:2;stroke-miterlimit:9.9997;}
	.st2{font-family:'HalyardMicroMedium';}
	.st3{font-size:10px;}
	.st4{font-size:8px;}
</style>
<g>
	<path class="st0" d="M496,420.1c0.2-1.4-0.5-1.8-1.7-1.8c-2.5,0-5.1,0.1-7.6,0c-1.5-0.1-2.9-0.6-4.3-1c-0.5-0.1-1-0.1-1.4-0.1
		c-2.7,0.1-5.5,0.2-8.2,0.4c-1.7,0.1-3.3,0.1-5,0.4c-0.6,0.1-1.1,0.8-1.6,1.2c-0.7-2.5-0.7-2.5,2.3-2.7c0.8-0.1,1.8,0,2.4-0.4
		c1.4-0.9,2.7,0.5,4,0c-0.2-0.5-0.4-1-0.6-1.5c0.1-0.1,0.2-0.1,0.3-0.2c0.3,0.2,0.5,0.4,0.8,0.7c0.6-0.5,1.2-1,2-1.6
		c-0.5-0.4-1.5-0.8-0.4-1.7c-0.4,0.3-0.9,0.7-1.4,1.1c-0.5-0.3-1-0.6-1.7-1.1c2.4-1.6,5.9-0.4,7.3-3.5c-0.5-0.3-1.2-0.7-1.9-1.1
		c0.3-0.4,0.5-0.7,0.6-0.7c2.4,0.2,4.1-1.8,6.5-2c2.5-0.2,4.9-0.9,7.4-1c5.1-0.2,9.7-1.7,14.3-3.6c1.5-0.6,3.2-0.6,4.9-0.8
		c2-0.2,3.8-0.5,4.6-2.7c0-0.1,0.1-0.2,0.2-0.3c2.8-1.5,3.4-4.6,5.2-6.9c0.7-0.9,1.4-1.3,2.7-0.5c1.1,0.7,2.6,1.2,4,1.2
		c2.8,0,4.8,1.5,6.7,3.1c0.9,0.8,2.3,1.3,2.9,2.3c1.1,1.7,2.8,2.6,4.1,4.1c0.8,1,0.9,2.6,1.4,4.2c-2.6,0.4-5.1-0.4-6.8,1.8
		c0.8,0.2,1.6,0.5,2.4,0.7c-0.3,0.3-0.6,0.5-1.1,1c2.9,0.3,5.4,2,8.3-0.1c0.4,1.1,0.9,2.1,1.5,3.6c4.2,2.1,9.2,2.2,14.3,2.3
		c4.7,0.1,9.4,0.4,14.1,0.7c1.3,0.1,2.6,0.3,4,0.5c0.4,1.2-0.5,1.2-1.4,1.3c-3.7,0.2-7.4,0.3-11,0.5c3.6,1,7.3,0.5,11-0.1
		c1.1-0.2,2.2,0.1,3.2-0.1c1.2-0.2,2.4-0.7,3.6-1.1c0.6-0.2,1.3-0.3,1.9-0.3c1.7-0.1,3.3,0.1,4.9-1c0.9-0.7,2.5-0.4,3.9-0.6
		c-0.4-0.1-0.8-0.2-1.1-0.4c0-0.1-0.1-0.3-0.1-0.4c0.7-0.2,1.3-0.5,2-0.5c7,0,14,0,21,0c0.8,0,1.7,0.4,2.5,0.7
		c0.9,0.3,1.8,0.7,2.9,1.1c-0.3-0.9-0.4-1.3-0.6-1.9c2.3,0.1,4.5,0.2,6.6,0.3c0,0.3,0,0.5,0.1,0.8c-0.6,0.2-1.2,0.4-1.8,0.6
		c0.5,0.2,1,0.4,1.5,0.6c0,0.1,0,0.2,0,0.4c-1.7,0-3.4,0-5,0c-2,0-4.1,0.1-6.1,0c-1-0.1-2-0.7-3-0.9c-0.9-0.2-1.8-0.1-2.7-0.2
		c-1.2,0-2.4,0-3.6,0.4c2,0,4,0,6,0c0,0.2,0,0.5,0,0.7c-2.2,0.2-4.4,0.3-6.6,0.5c3.4,0.8,6.8,0.1,10.2,0.3c3.4,0.2,6.8,0.9,10.2,1.8
		c-1.1,0.2-2.2,0.5-3.4,0.6c-1.6,0.1-3.1-0.1-4.7,0.1c-1.3,0.1-2.7,0.3-3.9,0.8c-0.4,0.2-0.4,1.3-0.6,2c-0.1,0-0.2,0-0.4,0
		c-0.2-0.8-0.3-1.6-0.6-2.6c-1.4,0.1-2.8,0.4-4.2,0.4c-7.7,0.2-15.5,0.3-23.2,0.3c-1.4,0-1.8,0.6-1.7,1.8c-0.1,0-0.2,0-0.4,0
		c-0.2-0.6-0.4-1.2-0.6-1.8c-5.6,0-11.2,0.1-16.8,0c-2.1-0.1-4.3-0.7-6.4-1c-0.5-0.1-1-0.3-1.5-0.2c-1.4,0.3-2.8,0.8-4.3,1.2
		c0,0.5,0,1.1,0,1.8c-0.1,0-0.2,0-0.4,0c-0.2-0.7-0.4-1.3-0.6-2.1c-0.3,0-0.6-0.1-1-0.1c-8.9,0.1-17.7,0.3-26.6,0.3
		c-1.4,0-1.6,0.8-1.5,1.8c-0.2,0-0.5,0-0.7,0c0-0.8,0.2-1.8-1.1-1.8c-2.6-0.1-5.1-0.3-7.7-0.3c-3.8,0-7.5,0.3-11.3,0.3
		c-3,0.1-6.1,0-9.2,0c0,0.7,0,1.3,0,1.8C496.5,420.1,496.3,420.1,496,420.1z"/>
	<path class="st0" d="M526.8,420.1c-0.1-1.1,0-1.8,1.5-1.8c8.9-0.1,17.7-0.2,26.6-0.3c0.4,0,0.7,0,1,0.1c0.2,0.8,0.4,1.4,0.6,2.1
		C546.5,420.1,536.7,420.1,526.8,420.1z"/>
	<path class="st0" d="M586.8,420.1c-0.2-1.3,0.2-1.8,1.7-1.8c7.7-0.1,15.5-0.2,23.2-0.3c1.4,0,2.8-0.3,4.2-0.4
		c0.2,1,0.4,1.8,0.6,2.6C606.6,420.1,596.7,420.1,586.8,420.1z"/>
	<path class="st0" d="M556.8,420.1c0-0.7,0-1.3,0-1.8c1.5-0.5,2.9-0.9,4.3-1.2c0.5-0.1,1,0.1,1.5,0.2c2.1,0.3,4.3,1,6.4,1
		c5.6,0.1,11.2,0,16.8,0c0.2,0.6,0.4,1.2,0.6,1.8C576.5,420.1,566.7,420.1,556.8,420.1z"/>
	<path class="st0" d="M496.8,420.1c0-0.5,0-1.1,0-1.8c3.1,0,6.2,0,9.2,0c3.8-0.1,7.5-0.3,11.3-0.3c2.6,0,5.1,0.2,7.7,0.3
		c1.3,0.1,1.1,1,1.1,1.8C516.3,420.1,506.5,420.1,496.8,420.1z"/>
	<path class="st0" d="M316,420.1c-0.1-0.5-0.4-1-0.3-1.5c0.1-1.4-0.5-2-2.2-1.6c2.2-1.6,2.6-1.6,5.4-0.2c-3.1-0.3-2.5,1.7-2.5,3.3
		C316.2,420.1,316.1,420.1,316,420.1z"/>
	<path class="st0" d="M256,420.1c-0.3-1.1-0.7-2.2-1.1-3.4c0.2,0,0.9-0.1,1.4,0.1c0.2,0.1,0,1,0,1.5c0,0.6,0,1.2,0,1.8
		C256.2,420.1,256.1,420.1,256,420.1z"/>
	<path class="st0" d="M388.8,383.2c-0.4,0.7-0.7,1.4-1.2,2.3c1.5,0.3,2.9,1.1,4.1-0.6c0.1-0.1,0.6-0.2,0.8-0.1
		c0.2,0.1,0.2,0.5,0.1,0.8s-0.3,0.6-0.6,0.7c-1.5,0.4-2.5,1.7-4.2,1.7c-2.8,0.1-5.5,0.6-8.3,0.9c-0.5,0.1-1,0-1.7,0.3
		c0.7,0.3,1.4,0.8,2,0.8c2.5-0.2,5.1-0.1,7.3-1.1c2.6-1.2,4.4,0.1,6.5,0.6c0.3,0.1,0.8,1.1,0.7,1.2c-1.2,1.3-0.5,2.6,0.1,3.8
		c0,0.1,0,0.2,0,0c-2.8,1.3-5.4,2.5-7.9,3.8c0.1,0.2,0.2,0.4,0.3,0.7c2.6,0,5.2,0.6,7.5-1.9c1.4-1.5,3.8-2.2,5.6-3.3
		c0.8-0.5,1.5-1.2,2.5-2.1c-1.4-1-2.5-1.9-3.7-2.6c-0.9-0.5-0.8-1-0.1-1.5c1-0.6,2-1.1,3.4-1.8c0.3-0.8,0.7-2.2,1.2-3.5
		c0.2-0.4,0.8-0.7,1.3-1c1.3-0.7,2.6-1.3,3.8-2.1c0.9-0.6,1.7-1.3,2.6-0.2c0.8-0.6,1.6-1.2,2.4-1.8c1.6,1.9,1.5,2.3-0.5,3.4
		c-0.8,0.5-1.4,1-0.5,2.1c1,1.3,1.7,2.9,2.7,4.6c1.4-0.7,2.9-1.7,4.5-2.2c1.1-0.4,2.3-0.1,3.5-0.1c0.4,0,0.8,0.4,1.3,0.6
		c1.9,0.4,2.2,1.2,1,3.1c2,0.5,1.4,2.1,1.3,3.3c-0.2,1.4-1.2,1.9-2.6,1.9c-0.7,0-1.5,0.4-2.1,0.7c-2.2,1.2-5,1.1-7,3.1
		c-0.8,0.8-2,1.2-2.9,2.2c-1.2,1.3-3.3,1.8-5,2.6c0,0.6,0.1,1.1,0.2,1.7c-2.1,0.4-4.2,0.8-6.3,1.2c-0.6,0.1-1.3,0.1-1.7,0.4
		c-0.9,0.7-1.6,0.9-2.4-0.1c-0.2-0.2-0.7-0.2-1.1-0.1c-1.4,0.3-2.7,0.7-4.1,0.9c-3.7,0.3-7.5,0.7-11.2,0.7c-2.1,0-4.2-1-6.3-1.4
		c-2.4-0.4-4.9-0.6-7.3-1.1c-3-0.5-6-1.1-8.9-1.7c-1.1-0.2-2.2-0.2-3.3-0.5c-0.3-0.1-0.5-0.6-0.8-1c0.3-0.3,0.7-0.6,1-0.8
		c4.4-1.4,8.8-0.4,13.2-0.1c0.2,0,0.4-0.1,0.6-0.4c-1.5-0.2-2.6-0.6-2.3-2.4c0-0.2-0.2-0.4-0.3-0.6c-0.7-0.7-3.8-0.9-4.9-0.3
		c0.4,0,0.8,0,1.1,0.1c0.3,0.1,0.6,0.4,0.8,0.6c-0.3,0.1-0.6,0.4-0.8,0.4c-0.7-0.1-1.4-0.2-2.1-0.5c-1.1-0.5-2.5,0-3.3,0.9
		c-0.7,0.7-1.9,1-2.9,1.5c-0.7,0.3-1.4,0.5-2.5,0.8c-0.8-0.7-2.1-1.5-3.7,0c0.3,0.3,0.6,0.5,0.7,0.8c0.2,0.5,0.6,1.1,0.4,1.4
		c-0.1,0.3-0.9,0.6-1.3,0.6c-1.7,0-3.5,0.6-4.9-1.1c-0.6-0.7-1.2-0.6-2-0.2c-1,0.5-2.1,0.6-3.1,0.9c-0.1,0.1-0.3,0.3-0.4,0.4
		c-2.2,0.1-4.3,0.3-6.5,0.6c-2.7,0.3-5.8,1.5-8.6-0.3c-0.6-0.4-1.6-1-2.2,0.4c-0.1,0.3-1.3,0.3-1.9,0.1c-0.9-0.3-1.6-0.4-2.2,0.5
		c-0.2,0.3-0.9,0.5-1.4,0.5c-4.5,0.1-8.9,0.2-13.1-1.7c-0.5-0.2-1.2,0.1-2.2,0.1c1.8,1,3.2,1.7,5.2,2.7c-2.2,1-3.9,1.7-5.6,2.5
		c-0.7,0.3-1.4,1-2.1,1c-2-0.2-4-0.4-5.8-1.1c-1.7-0.7-2.7-0.8-3.9,0.7c-0.2,0.3-1,0.4-1.3,0.3c-3-1.5-6.1-0.7-9.2-0.7
		c-0.4,0-0.8,0.9-1.5,1.7c-2.3,0-5.1-0.1-7.8,0c-0.8,0-1.5,0.4-2.3,0.7c-0.3,0.1-0.5,0.3-0.8,0.3c-4.4,0.4-8.8,0.7-13.2,1.1
		c-1.8,0.2-3.6,0.3-5.3,0.8c-1.2,0.3-1.8,0.3-2-0.9c-4.1,0.4-8.1,0.8-12.2,1.2c0,0.1,0,0.3,0,0.4c1.5,0,3.1,0,4.6,0
		c0,0.2,0,0.5,0,0.7c-3.2,0.2-6.4,0.3-9.8,0.5c-0.4-1.2-1.8-1-3-1.4c-3.9-1.5-7.9-0.7-11.9-1c-0.7,0-1.4-0.3-2-0.6
		c-0.2-0.1-0.3-0.7-0.3-1.1c0.1-0.4,0.5-0.8,1-1.5c-5.9,1.8-11.4-0.9-16.8,0c-5.5,0.9-10.9,0.1-16.5-0.6c0.1-0.3,0.1-0.7,0.3-0.9
		c0.8-0.8,0.3-1.3-0.5-1.4c-1.1-0.1-2.4-0.3-3.4,0.2c-1.8,0.9-3.6,0.9-5.5,0.4c-0.9-0.2-1.9,0.4-2.8,0.4c-7.3,0.3-14.6,0.5-21.9,0.7
		c-4,0.1-8-0.8-11.9-1.4c-3-0.4-6.1-0.3-9.1-0.4c-2-0.1-4,0.1-5.9-1.3c-0.9-0.7-2.5-0.5-3.8-0.5c-4.1,0.1-8.1,0.4-12.2,0.5
		c-0.5,0-1.1-0.1-1.6-0.3c-1-0.4-2-0.9-3.1-1.4c-0.2,1-0.3,1.6-0.3,1.8c-1.3-0.3-2.2-0.7-3.1-0.7c-3.6-0.1-7.1,0-10.7-0.1
		c-1.2,0-2.3-0.3-3.5-0.5c-0.2,0-0.4-0.2-0.5-0.2c-2,1.3-3.7-0.6-5.7-0.5c-1.3,0.1-2.7-0.6-4.1-1c-1.3-0.5-2.4-1.1-4.1-0.8
		c-1.9,0.3-3.9-0.3-5.9-0.8c-0.4-0.1-0.7-1-0.8-1.2c1.7-1,2.9-2,4.3-2.6c0.8-0.4,1.9-0.4,2.7-0.2c2,0.5,3.9,1.3,5.9,1.8
		c1.7,0.4,3.4,0.6,4.6,0.8c1.6-1.3,2.9-2.4,4.4-3.7c-0.4-0.6-1-1.4-1.9-2.6c6.8-0.6,13.2-1.9,18.8-5.4c1.3,0.5,2.6,1.3,4,1.3
		s2.7-0.8,4.3-1.4c1.1,1.3,2.8,0.1,4.1-0.3c1.5-0.4,2.6-1.9,4.2-3.2c-1.1-0.1-1.9-0.1-2.4-0.2c-0.1-1.6-0.2-3.1-0.3-4.9
		c0.6,0.4,1,0.6,1.6,1c0.3-0.7,0.5-1.4,0.9-2.1c0.3-0.5,0.5-1.2,1-1.4c1-0.6,2.2-1,3.3-1.5c-0.2-0.2-0.3-0.3-0.5-0.5
		c0.1-0.5,0.1-1.1,0.4-1.4c0.8-0.6,1.7-1.1,2.6-1.6c0.2-0.1,0.3-0.2,0.4-0.4c1.1-2.9,4-3.9,6-5.9c0.1-0.1,0.3,0.1,0.7,0.2
		c-0.5,0.6-0.9,1-1.4,1.5c-1.1,1.1-1.1,2.1-0.9,3.9c0.4,3.2,2.4,6.4,1,9.7c-0.3,0.8-1,1.6-1.7,2.1c-1.6,1.1-3.4,1.9-5.1,2.8
		c-0.3,0.2-0.7,0.4-0.8,0.6c-1.1,2.4-3.8,2.1-5.6,3.3c-1.3,0.9-3.1,1.1-3.3,3.2c0.3,0,0.8,0.1,0.8,0c1-2.5,4-1.8,5.6-3.4
		c0.2-0.2,1,0.1,1.3,0.3c2.2,2.8,4.6,2.9,7.5,0.5c1.1-0.9,2.5-1.3,3.4-1.8c0.1-0.9,0-1.8,0.2-1.8c0.8-0.2,1.6-0.2,2.5-0.1
		c2.3-1.5,3.7-1.3,4.7,0.5c0.7,0.1,1.3,0.1,1.8,0.2c0.6,0.1,1.2,0.3,1.7,0.2c1.9-0.2,3.8-0.5,5.7-0.7c2.4-0.2,5,0.1,7.3-0.5
		c1.6-0.4,3.6-0.7,4.6-2.6c0.3-0.5,1.1-0.7,1.7-1.1c2.6-1.7,5.1-3.4,7.9-5.2c-0.8-0.2-1.5-0.3-2.2-0.5c-0.8-2-1.6-2.2-3.6-1.2
		c-0.8,0.4-2.1,0.4-2.7,0c-1.6-1-3-2-5-1.3c-1.2,0.4-1.4-0.6-1.6-1.6c-0.5-2.4-1.2-4.8-1.6-7.3c-0.1-0.7,0.2-2,0.7-2.2
		c2.3-1.3,2.7-3.6,1-5.7c-0.5-0.6-0.6-1.4-0.9-2c1.4,0,2.5,0,3.9,0c-0.2,1.6-0.5,3.4-0.6,5.3c0,0.9,0.9,1.7,0.1,2.7
		c-0.4,0.6-0.5,1.4-0.5,2.2c0,0.9,0.1,1.8,0.4,2.6c0.1,0.4,0.7,0.8,1.2,0.9c0.3,0.1,0.9-0.3,1-0.7c0.3-0.7,0.6-1.5,0.5-2.2
		c-0.5-3.6,1.7-6,3.5-8.6c1.2-1.9,2.3-3.9,3.4-5.8c0.1-0.2,0.2-0.6,0.3-0.6c2-0.2,2.3-1.9,3.2-3.3c1.3-2,4-2.7,6.5-2
		c0.3,0.1,0.8,0,1-0.2c1.5-2,4-3.2,4.2-6.1c0.1-0.9,1.3-2,2.2-2.5c2-1.1,2.4-2.1,0.9-3.8c-3-3.2-3-7.1-2.5-11.1
		c0.3-2.4,2.7-2.5,4.2-3.6c1-0.7,1.6-0.5,2.3,0.3c0.8,0.9,1.3,1.8,0.6,3c-0.3,0.5-0.4,1.1-0.8,1.5c-1.4,1.7,0.1,3,0.6,4.4
		c0.3,0.9,1.5,1.5,1.9,2.4c0.4,0.8,0.4,1.8,0.2,2.7c-0.3,1.4,0.2,2.1,1.6,2.2c1.6,0.1,2.9-0.3,4-1.5c0.6-0.6,1.5-0.8,2.4-1.3
		c-0.3,1.9-0.4,3.3-0.6,4.8c0.1,0.1,0.3,0.1,0.4,0.2c0.9-1,2.3-1.1,3.1-2.6c0.6-1.1,0.2-1.5-0.1-2.2c-0.3-0.6-0.6-1.2-0.7-1.5
		c-1.1-0.4-2.1-0.8-3.1-1.2c-0.4-0.2-0.9-0.5-1.3-0.4c-1.1,0-1.5-0.6-1.4-1.4c0.1-0.6,0.5-1.5,1-1.6c1.4-0.4,2.4-0.9,2.9-2.4
		c0.3-0.8,1.4-1.4,2-2.2c0.2-0.4,0.1-1.4-0.2-1.7c-0.9-0.9-2-1.6-2.9-2.4c-0.4-0.4-0.9-1-0.9-1.4c0.3-2.7-1-5.1-1.4-7.6
		c-0.3-1.8-0.2-3.9,0.2-5.7c1-4.2,2.3-8.4,4.7-12.1c0.2-0.4,0-1,0.1-1.4c0.4-1.2,0.7-2.5,1.4-3.5c1-1.6,2.3-3,3.3-4.6
		c1-1.5,2.2-2.7,3.9-3.4c0.8-0.3,1.5-1,2.2-1.4c1.8-1.1,3.5-2.3,5.4-3.1c2.3-1,3.1-2.7,2-5.1c-0.8-1.9,1-6.1,3.2-7.2
		c1.4,1,2.4,2.4,2,4.2c-0.2,1-1.2,1.8-1.6,2.8c-0.4,0.9-0.7,2-0.8,3c0,0.5,0.4,1.4,0.8,1.5c0.7,0.2,1.5,0.6,2.4-0.3
		c2.4-2.3,3.6-5.2,4.3-8.3c0.2-0.6-0.3-1.5-0.7-2.2c-1.5-3.1-3.2-6.2-4.7-9.3c-0.4-0.7-0.5-1.5-0.7-2.3c-0.6-2.8-1.2-5.6-1.7-8.4
		c0-0.1-0.1-0.3-0.1-0.3c1.5-2.9,0.4-6.8,3.1-9.3c1.1-1.1,1.9-2.2,2.5-3.8c0.8-1.9,2.5-3.4,3.8-5c0.1-0.1,0.3-0.1,0.7-0.2
		c0,1.2,0,2.3,0,3.4c0.1,1.3,0.3,2.2,1.4,3.3c1,1,2.5,2.5,2.3,4.6c-0.1,0.8,0.7,1.7,1.2,2.5c0.1,0.3,0.5,0.5,0.5,0.7
		c-0.1,1.4,0.5,1.8,1.9,1.9c0.5,0,0.9,1.2,1.3,1.7c0.4-2.4,0.7-5.2,1.2-7.9c0.2-1.2,0.6-2.4,0.7-3.6c0-0.7-0.5-1.4-0.9-2.5
		c1.2-1.7-0.9-3.4-1.2-5.4c0-0.3-0.4-0.6-0.3-0.8c0.7-2.8-1.7-4.1-2.9-6.1s-2.7-3.8-2.6-6.4c0.1-1.3-0.1-2.7,0-4
		c0.3-2.4-1-4.3-1.5-6.4c-0.1-0.6-0.2-1.2-0.3-1.7c-0.2-1-0.5-1.9-0.7-2.9c-0.1-0.4-0.3-1.1-0.1-1.2c0.4-0.2,0.9-0.2,1.7-0.3
		c-0.2-1.7-0.3-3.6-0.5-5.5l0.1,0.1c-0.4-0.3-0.7-0.6-1.1-0.9c-0.9-0.6-1.7-1.2-0.5-2.3c0.1-0.1,0-0.6,0-0.9c-1.7,1.1-2,0.9-2.5-0.8
		c-0.3-1-1.1-1.9-1.4-3c-0.2-0.7,0.1-1.6,0.3-2.4c0.3-1.2,1-2.4,1.1-3.7c0.2-2.1,0.1-4.3,0.1-6.2c-1.9-0.9-4.3-1.2-5.1-2.6
		c-0.8-1.3-2.1-1.1-2.6-2.2c-1.2,2.1-2.1,2.6-5.6,0.5c-0.9-0.5-1.5-1-2,0.6c-0.9-0.9-1.7-1.6,0.2-2.2c0.5-0.2,0.9-0.7,1.3-1
		c-1.6-0.8-3.1-1.4-4.4-2.3c-0.8-0.6-0.8-1.4,0.3-2c0.6-0.3,1.1-0.6,1.2-0.7c1.8,0.5,3.4,1,4.9,1.4c0.5,0.1,1,0,1.4,0.2
		c2,0.9,3.9,1.6,6.1,1.9c1.4,0.2,2.7,1.8,4,2.8c0.9,0.7,2.1,1.4,1.5,2.7c-1.3,2.5,0.1,3,2.1,3.4c0.5,0.1,1,0.5,1.3,0.9
		c1.9,3.2,4.2,6.1,5.4,9.7c0.6,1.9,0.8,4,1.4,5.9c0.6,2,1.2,4.2,2.3,5.9c0.9,1.4,1.4,2.7,1.3,4.3c-0.1,1.7,0.3,3.1,1.6,4.3
		c0.8,0.8,1.1,2.1,1.6,3.1c1.2,2.3,2.5,4.6,3.4,7c0.4,1.1,0.2,2.5,0.3,4.3c-1.1-1-1.8-1.6-2.5-2.3c-0.1,0.2-0.1,0.4-0.2,0.6
		c-0.8-0.2-1.7-0.4-2.6-0.6c-0.8-4.1-3.4-7.2-6-10.2c-0.2,0.1-0.5,0.2-0.7,0.3c0.7,2.6,1.5,5.1,2.1,7.7c0.2,1-0.1,2.2,0.1,3.2
		c0.4,2.1,0.8,4.1,1.5,6.1c0.8,2.4,2,4.6,2.9,7c0.2,0.4,0.2,1.1,0,1.5c-1.4,3.5-1,6.9-0.2,10.4c0.3,1.2-0.2,2.5-0.2,3.7
		c0,0.9,0,1.9,0.1,2.8c0.1,0.9,0.4,1.7,0.5,2.6c0.3,2.5,0.5,5.1,0.8,7.6c0.1,0.8,0.5,1.5,0.8,2.6c1.1-1.3,1.9-2.5,2.9-3.6
		c0.3-0.3,1.2-0.6,1.5-0.4c0.8,0.5,1.9,0.8,1.7,2.2c-0.3,2.2-0.3,4.4-0.4,6.6c0,1-0.5,2.2,1.1,2.5c0.1,0,0.3,0.4,0.3,0.6
		c-0.4,2.7,1.5,4.6,2.5,6.8c0.6,1.3,0.9,2.7,1.5,4.4c2.8-1.1,5.4-2.2,7.5-3c1.4-1.7,2.7-3,3.7-4.5c1-1.4,1.9-2.9,2.8-4.3
		c0.9-1.5,1.9-2.9,2.7-4.4c0.6-1.1,0.8-2.3,1.4-3.3c0.8-1.2,1.6-2.6,2.8-3.3c2.4-1.5,1.9-3.7,1.8-5.7c-0.1-1.1-0.6-2.3-0.9-3.4
		c-0.1-0.2-0.2-0.6-0.1-0.7c1.6-1.4,0.8-3.4,1.1-5.1c0.5-2.5,0.2-5.1-0.5-7.5c-0.8-2.7-1.9-5.3-2.6-8.1c-0.6-2.5-0.7-4.6,0.2-6.9
		c0.5-1.2,1.4-1.1,2.2-0.9c0.4,0.1,0.8,0.8,1,1.3c1.2,2.8,0.7,5.9,0.7,8.8c0,0.9-0.3,1.7-0.4,2.6c0,0.4,0.2,0.8,0.3,1.3
		c0.5-0.6,0.8-1.2,1.2-1.3c1.4-0.3,1.3-1.4,1.5-2.4c0.1-0.7,0.7-1.4,1-2.1c0.6,0.4,1.4,0.8,1.9,1.3c0.4,0.4,0.5,1,0.7,1.6
		c0.4,2.1,0.6,4.2,1.1,6.2c0.5,1.9,1.2,3.7,1.8,5.6c0.3,1,0.6,2,0.7,3.1c0.1,4.1,1.3,7.9,2.5,11.7c0.3,0.9,0.3,2,0.5,3
		c0.6,3.8,1.2,7.7,1.7,11.5c0.1,0.5-0.1,1,0.1,1.4c0.3,0.7,0.9,1.3,1.2,2c0.6,1.5,2,1.7,3.2,2.2c0.5,0.2,0.8,1.1,1.1,1.7
		c0.9,2,1.7,4,2.6,5.9c0.4,0.9,1.3,1.6,1.7,2.5c0.8,1.6,1.4,3.3,2,5c0.1,0.3,0.3,0.6,0.5,0.8c2.3-0.2,4.6-0.3,6.8-0.5
		c0.4,0,0.8-0.3,1.3-0.4c0.6-0.1,1.2-0.4,1.7-0.3c2.3,0.6,4.5,1.5,6.7,2.1c2.4,0.7,2.4,2.9,2.9,4.7c3.4-2.8,5.7-1,8.2,1.4
		c0.3,0.3,0.5,0.8,0.8,0.9c2.5,1.1,2.4,3.6,3.2,5.6c0.3,0.8,0.6,2.2,1.2,2.3c1.1,0.2,2.2-0.3,2.5-1.7c0.1-0.4,0.5-0.7,0.6-0.9
		c-0.7-1.5-1.4-2.9-1.9-4.4c-0.9-2.4-2.6-4.1-4.3-5.9c-0.9-0.9-1.1-2.5-1.7-3.9c0.5-0.4,1-0.7,1.6-1.1c-0.3-0.7-0.6-1.4-0.9-1.9
		c-0.7,0.3-1.3,0.9-2,0.9c-2.8,0-3.6,2.3-4.8,4.1c-0.4,0.6-0.8,1.1-1.6,2c-0.3-1.1-0.5-1.7-0.5-2.3c0-2.9-1.2-4.8-3.6-6.4
		c-1-0.6-1.5-1.8-2.2-2.8c-0.4-0.6-0.9-1.3-1-2c-0.1-0.6,0.1-1.3,0.3-1.9c0.5-1.6,1-3.1,1.5-4.7c0.1-0.3,0.1-0.9,0.3-1
		c1.7-0.8,1.6-2.4,1.8-3.8c0.4-2.6,2.2-4.1,4-5.6c0.4-0.4,0.6-1.1,0.7-1.7c0.2-1.2,0.6-1.9,2.1-2.4c2-0.6,4.1-1.4,4.5-4.1
		c0.1-0.7,0.7-1.5,1.3-2c2.4-1.9,4.9-3.8,7.4-5.6c0.7-0.5,1.6-0.8,2.3-1.3c1.3-0.9,2.4-1.9,3.7-2.9c0.3-0.2,0.6-0.6,0.9-0.6
		c1.1,0,2.3,0.1,2.1-1.6c-0.1-0.9,1.3-1.6,0.1-2.8c-0.9-0.9-1.2-2.5-1.8-3.9c-1.7,1-3.5,2.1-5.4,2.9c-1.1,0.5-2.4,0.4-3.6,0.7
		c-1,0.3-1.9,0.9-2.8,1.4c-0.6,0.3-1.2,0.5-1.9,0.7c-0.2-0.6-0.5-1.2-0.5-1.8c0.1-5.1,1-10.1,3-14.8c0.7-1.7,0.8-3.5,1.3-5.3
		s0.9-3.6,1.5-5.3c0.6-1.8,1.3-3.7,2.1-5.4c1.2-2.3,2.6-4.6,3.9-6.8c1.6-2.7,3.2-5.3,4.7-8c1-1.8,1.8-3.7,2.6-5.6
		c1.3-2.9,3.1-5.7,3.7-8.7c0.5-2.2,0.9-4.3,1.9-6.4c0.1-0.1,0.1-0.4,0-0.5c-0.5-2.2-1-4.4-1.5-6.7c-0.1-0.5,0-1,0-1.6
		c0.1-0.5,0.2-1.1,0.3-1.6c0-0.5,0-0.9,0-1.4c-0.1-0.9-0.3-1.9-0.4-2.8c0-0.2-0.2-0.3-0.2-0.5c0.6-4-2.5-7.2-2-11.4
		c0.6-3.9-0.1-8,0.2-11.9c0.2-2.3,1.3-4.5,2-6.7c0.1-0.4,0.6-0.7,0.9-0.9c2.3-1.6,3.9-3.7,5-6.3c0.7-1.8,2-3.3,3-5
		c0.3-0.5,0.5-1.1,0.4-1.6c-0.3-2.1-0.9-4.1-1.2-6.2c-0.2-1.5-0.3-3.1,0-4.6c0.3-1.4,0.6-1.3-0.8-2.4c2.1-2.4,4.2-4.8,6.3-7.2
		c-0.8-1.4-0.9-2.7-0.2-4.1c0.3-0.7,0.4-1.5,0.6-2.2c0.4-1.4,0.6-2.9,1.1-4.3c0.8-2,1.7-4.1,2.8-5.9c2.1-3.4,4.2-6.8,6.7-10
		c0.7-1,2.4-1.2,3.6-1.8s2.2-1.3,3.6-0.3c0.6,0.4,2-0.3,2.9-0.6s1.8-0.7,2.8-1.1c0.6-0.2,1.1-0.5,1.7-0.6c0.3-0.1,0.7-0.1,1,0
		c0.9,0.2,2.6,2.7,2.7,3.7c0,0.5,0.3,1,0.4,1.5c0.1,0.7,0.1,1.5,0.1,2.2c0,1-0.3,2.1-0.1,3.1c0.6,2.3,1.3,4.5,2.1,6.7
		c0.4,1.3,0.7,2.8,1.5,3.8c2.1,2.8,2.5,6,2.8,9.3c0.5,4.8,0.8,9.7,1.5,14.5c0.3,1.9,1.2,3.8,1.8,5.7c1,3.3,2.5,6.5,3,9.9
		c0.4,2.9,0.7,6-0.4,9c-0.6,1.9-0.5,4-0.9,5.9c-0.5,2-1.5,3.8-1.9,5.8c-0.5,2.3-1.8,4.5-0.4,7.1c0.9,1.6,0.9,3.6,1.2,5.5
		c0,0.2,0.1,0.4,0,0.5c-1.7,2.4-0.2,4.8,0.1,7.2c0.3,2.4,1.4,4.8,1.5,7.2c0.3,4.6,3.5,7.9,4.9,12c0.5,1.6,0.9,3.3,1.5,4.9
		c0.6,1.5,0.5,2.7-0.5,4.1c-0.6,0.8-0.6,2.3-0.5,3.4c0.4,3.3-1.2,6.5-0.7,9.8c0.3,1.8,1.1,3.6,2,5.3c0.2,0.4,1.9,0.4,2.7,0.1
		c2.5-1,3.8-0.2,4.3,2.4c0.3,1.9,1.1,3.7,1.9,5.5c0.2,0.4,1.6,0.6,2.2,0.3c2.3-0.7,4.3-1.8,6-3.6c1.4-1.5,3.1-2.7,5.4-2.3
		c1.2,0.2,2.4,0.8,3.6,0.6c1.6-0.3,3.3-0.8,4.7-1.6c1.9-1.2,2.9-1.1,4.2,0.7c1.8,2.5,3.7,4.9,5.5,7.3c1,1.3,2.3,2.4,2.9,3.8
		c0.7,1.4,0.9,3.1,1,4.7c0.2,2.5,1.1,4.3,3.1,5.9c1.5,1.2,2.7,3.1,3.3,4.9c0.7,2,0.8,4.3,0.6,6.4c-0.2,1.8,0.1,3.3,0.7,4.9
		c0.2,0.4,0.2,1.1,0.1,1.5c-0.5,2.5-1.2,5-1.7,7.5c-0.3,1.7-0.6,3.4-0.7,5.1c-0.1,2.4,0.3,4.6,1.7,6.6c0.1,0.1,0.1,0.4,0.1,0.5
		c-0.6,3.9,0,7.8-1.5,11.8c-1.1,3.1-3.4,6-3,9.7c0.1,0.7-1.1,1.6-1.6,2.5c-0.4,0.7-1.1,1.5-1.1,2.3c0,2-1.2,2.9-2.7,3.8
		c-2.3,1.5-3.9,3.7-4.3,6.6c-0.3,2.5-0.5,5.1-1.2,7.5c-0.5,1.6-1.3,3.2-3.1,4.2c-1.9,1.1-2.7,3.2-3.3,5.3c-0.4,1.5-0.8,3.1,0.2,4.6
		c0.7,1,1.1,2.2,2.8,1.2c0.5-0.3,2-0.1,2.1,0.1c0.2,1.1,0.2,2.2,0.1,3.3c0,0.2-0.2,0.3-0.4,0.5c1.8,0.7,2.2,1.8,1.4,3.6
		c-0.5,1.3-1.3,2.6-1.4,4c-0.1,1.6,0.4,3.2,0.6,4.8c0.1,0.9,0.6,2,0.3,2.7c-0.4,0.7-1.5,1.1-2.3,1.6c-0.2,0.1-0.5,0.1-0.7,0.1
		c-2.3-0.2-4.7-0.5-7-0.7c-1.7-0.2-3.4-0.3-5.4-0.5c0,2.5-0.2,4.8,0.1,7c0.3,2.5,3.1,4.6,5.8,4.8c0.4,0.8,0.9,1.5,1.3,2.3
		c-1.7,2.2-3.7,1.8-5.9,0.3c-0.1,0.7-0.1,1.2-0.1,1.6c-0.2,1.4-1,1.7-2.2,0.9c-0.3-0.2-0.8-0.5-1-0.3c-1.1,0.6-2.2,1.2-3.1,2.1
		c-0.4,0.4-0.1,1.4-0.2,2.1l0.1-0.1c-2.8,0.5-5.1,1.8-6.6,4.3c-0.8,1.5-2.1,2.1-3.8,2.2c-0.8,0-1.6,0.2-2.3,0.5
		c-1.5,0.7-1.9,2-1.2,3.5c1,1.9,0.4,3.2-1.6,3.9c-1.2,0.5-2.2,1.8-3.7,0.4c0.3-1.1,0.6-2.3,0.9-3.6c-0.7-0.7-1.6-1.6-0.3-2.8
		c-1.9-1.4-3.6-0.4-5.2,0.4c-1.1-0.6-2.2-1.2-2.9-1.6c-3.2,0.7-5.6,3.4-8.9,1.1c-0.9-0.6-3.8,1.8-3.9,3 M390.1,314.3
		c-2.6-2-5.3-3.5-8.6-4.2c-0.9-0.2-1.7-0.9-2.5-1.2c-0.4-0.2-1.2-0.2-1.4,0c-1.6,1.7-3.7,2.2-5.8,1.1c-2.2-1.1-4.2-0.2-4.8,2.2
		c-0.5,2-1.1,4.1-1.4,6.1c-0.4,2.3-0.7,4.6-0.7,6.9c0,1.7,1.5,2.3,2.7,1.5c1.8-1.4,3.3-1.5,5-0.2c1.4,1.1,2.4,1,3.4-0.3
		c0.3-0.3,0.6-0.6,0.7-0.7c1.7,1.1,3.3,2.1,5,3.3c0.1,2.7,0.1,2.7,1.9,3.3c-0.1,0.7-0.2,1.4-0.3,2.1c0.9,0.4,1.9,2.6,1.1,3.6
		c-0.9,1.3-0.1,2.1,0.7,2.5c1.3,0.7,3.1-0.2,3.5-1.2c0.1-0.4,0.3-0.8,0.4-1.3c0.6,0.4,1.1,0.6,1.5,0.9c0-0.8-0.3-1.4-0.5-2
		c-0.1-0.5,0-1.1,0-2.2c-0.8-0.5-3.2-0.7-2-3.2c2.1-0.4,2.4-1,1.7-2.9 M390.9,327.5c0.6,0.5,1.3,1,1.7,1.7c0.6,1.1,0.7,2.3,1.3,3.4
		c1,2,2.2,3.9,3.1,6c0.5,1,0.9,2.3,0.6,3.3c-0.3,1.4,0.3,2.2,1.2,2.8c1.2,0.9,2.6,1.5,3.8,2.5c1.6,1.3,4.1,1.6,4.3,4.4
		c0,0.3,0.4,0.6,0.7,0.8c0.9,0.5,1.8,0.9,2.8,1.4c0.9-0.7,1.2-2.5,0.5-3.5c-0.9-1.3-1.7-2.7-2.6-3.9c-0.6-0.8-1.2-1.6-2-2
		c-2.2-1.2-4-2.8-5.8-4.6c-0.4-0.4-0.7-1-1.3-1.9c1,0.3,1.5,0.5,2,0.6c0.6,0.1,1.3,0.2,1.7-0.1c0.3-0.3,0.1-1.1,0-1.6
		c0-0.5-0.3-1.2-0.2-1.6c0.6-1.5,1.4-2.9,2.1-4.3c0.2,0.1,0.5,0.1,0.7,0.2c-0.1,0.6-0.2,1.3-0.3,1.9c-0.1,0.7-0.4,1.4-0.4,2.1
		c0.1,3.2,2.5,5.1,4.9,6.2s3.6,3.2,5.3,4.9c0.7,0.8,1.1,2,1.5,3.1c0.5,1.5,2,1.9,3.3,0.9s2.7-1.9,4.1-2.7c0.6-0.3,1.5-0.3,2.1,0
		c2.6,1.2,4.2,0.4,4.2-2.4c0-1.1,0.1-1.9,1.4-2.5c2.8-1.2,4.7-3.3,5.2-6.5c0-0.2,0.3-0.4,0.2-0.5c-1.7-1.8,0.1-3,0.9-4.1
		c1.2-1.9,2.3-4,5-4.1c0.5,0,1,0,1.4-0.1c1.1-0.3,2.6-0.3,2.8-1.8c0.2-1.4-1-2.1-2.8-2.1c-0.5,0-1.3,0.2-1.6-0.1
		c-1.4-1.3-2.1,0-3.2,0.6c-1.8,1.2-3.7,2.2-5.6,3.1c-1.1,0.5-2.6,0.5-3.7,1.1c-1.4,0.8-2.5,0.9-3.8,0.1c-0.3-0.2-0.7-0.1-1.1-0.1
		c-3,0.5-6.1,1.1-9.1,1.6c-0.3-0.7-0.4-1.2-0.6-1.8c-0.5,0.5-0.8,0.9-1.2,1.4c-0.1-0.3-0.3-0.5-0.2-0.6c1.3-2,0.4-3.9-0.4-5.8
		c-0.2-0.4,0-0.9,0-1.4c0.1,0.1,0.2,0.1,0.3,0.2c0.7-0.9,1.3-1.7,2-2.6c-0.2,0-0.4,0-0.7,0c-0.6-0.6-1.1-1.2-1.8-1.7
		c-1-0.7-2-1.8-3-1.9c-2.8-0.2-4.5-1.5-5.5-4c-0.2-0.4-0.5-0.9-0.9-1.1c-2.1-1.2-4.3-2.4-6.4-3.6c-1.4,2-1.5,2-1.3,4.6 M379.5,342.2
		c-1.5-0.2-3-0.2-4.3-0.6c-0.9-0.2-1.5-0.1-2.1,0.6c-1.7,1.8-5.4,2.3-7.5,1.1c-2.9-1.7-6-2.3-9.4-2c-2,0.2-3.4,1.4-2.8,3.1
		c0.4,1.1,0.6,2.3,2,3c1.9,1,3.3,2.7,5.1,3.8c1.6,0.9,3.3,1.9,5.3,1c1.1-0.5,2.1-1,3.2-1.4c0.6,1.1,1.2,2.1,1.9,3.3
		c-0.1,0.2-0.4,0.7-0.8,1.3c1,0.3,1.9,0.4,2.6,1c1,0.9,1.7,0.5,2.2-0.3c0.7-1.1,1.1-2.4,1.7-3.8c0.1-0.1,0.8-0.1,1.1-0.4
		c1.1-1.8,2.4-3.6,2.9-5.6C380.8,345,379.9,343.5,379.5,342.2z M367.1,299.3c0.4-0.6,1.1-1.4,1.6-2.1c-0.3-1.4-0.4-2.9-0.9-4.3
		c-0.9-2.8-2.1-5.5-2.9-8.2c-0.3-1.1,0.1-2.4-0.2-3.4c-0.5-1.4-1.6-2.6-2-3.9c-0.7-2.9-1.2-5.9-1.5-8.9c-0.2-2.1-0.6-3.9-1.7-5.7
		c-0.6-0.9-0.9-2.1-1.2-3.3c-0.4-1.9-0.7-3.8-1.1-5.9c-0.5,0.7-0.8,1.2-1.2,1.7c-0.5-1-0.9-1.8-1.3-2.8c1.2-0.6,0.9-1.4,0.1-2.3
		c-0.8-0.9-1.4-1.9-2-2.9c-0.9-1.7-1.8-3.4-2.9-5.5c0.5,4.5,0.9,8.4,1.4,12.3c0.1,0.6,0.4,1.1,0.7,1.6c0.3,0.4,0.9,0.8,1,1.2
		c0,0.5-0.5,0.9-0.8,1.5c0.6,2.1,1.3,4.4,2,6.7c0.4,1.3,0.6,2.8,1.4,3.7c2.5,2.5,2.9,5.5,2.8,8.7c0,2.1,0.6,4,1.5,5.8
		c0.4,0.8,1.1,1.4,1.4,2.2c1.1,3.1,2.1,6.3,3.3,9.5C365.5,296.5,366.5,298.1,367.1,299.3z M338.5,355c0.4-0.4,1-1,1.7-1.4
		c1.1-0.7,1.5-1.4,0.6-2.6c-0.3-0.4-0.4-1.5-0.2-1.7c1-0.7,0.5-1.5,0.2-2.1c-1.5-2.7-3.1-5.3-4.7-7.9c0.5-1.6,0.9-3.4,1.7-5.1
		c0.4-0.9,1.2-1.9,0.3-2.6c-1.6-1.4-3.4-2.7-5.3-3.7c-1.3-0.6-3.4,0.5-3.4,1.5c0.2,2.5,0.4,5.1,0.8,7.6c0.4,2.6,0.9,5.1,1.3,7.7
		c0,0.2-0.1,0.5,0,0.6c1.6,1.4,3,2.9,3.6,5c0.2,0.9,1.1,1.6,1.6,2.3c-0.1,0-0.1,0.1-0.2,0.1C337.1,353.5,337.8,354.2,338.5,355z
		 M369.9,180.9c-0.1,0.9,0.1,2-0.4,2.6c-1.7,2-1,4.3-1,6.4c0,0.3,0.9,1.1,1,1c1-0.6,2.6-0.7,2.7-2.4c0.2-2.5,0.5-5,0.7-7.6
		C371.6,180.9,370.6,180.9,369.9,180.9z M377.9,174.6c-0.5-3.5,0.7-6.8-0.8-9.9c-1.3-2.8-1.1-6.1-2.9-8.7
		C375.4,162,376.6,168.1,377.9,174.6z M367.5,151.2c0.2,0,0.3-0.1,0.5-0.1c0.5-3.2-0.6-6.3-0.1-9.5c0.3-1.9-0.6-4.1-1-6.2
		c-0.1-0.4-0.4-0.8-0.6-1.1C366.8,140,367.1,145.6,367.5,151.2z M360.7,356c1.9,1.3,3.8,1.1,4.6-0.5c0.5-1,0.3-1.4-0.8-1.6
		C362.5,353.5,361.1,353.8,360.7,356z M222.5,372.9c-1.2-0.4-1.9-0.1-3.7,1.8s-2.2,2.9-1.6,4.5C218.9,377.2,220.7,375,222.5,372.9z
		 M289.3,405.9c2.6-1.2-1.2-2.6,0-4c-0.9,0.3-1.6,0.6-2.2,1.2c-0.1,0.1,0.1,0.9,0.4,1.2C288,404.9,288.6,405.4,289.3,405.9z
		 M375.9,391.4c-1.1-0.7-2-1.4-3.1-1.9c-0.3-0.2-1,0.2-1.4,0.5c-0.1,0.1-0.1,0.7,0,0.8C372.8,391.2,373.9,393,375.9,391.4z
		 M364.1,391.4c0,2.3,1.3,1.7,2.3,1.7c0.2,0,0.4,0.1,0.6,0.1c0-0.2,0.1-0.6,0-0.6C366.1,392.2,365.2,391.8,364.1,391.4z"/>
	<path class="st0" d="M560.2,402c-0.1-1.3,0.8-2.7,1.9-2.8c0.3,0,0.7,0.1,0.9-0.1c1.6-2.1,2.8-0.4,4.2,0.2c1.1,0.5,2.2,0.9,3.4,1.4
		c0-1.5-1.2-2.1-2.3-2.6c-0.3-0.1-0.7,0-1-0.2c-2.1-1-2.2-1.8-0.6-4c1.2,0.3,2.4,0.7,3.6,1c0-0.1,0.1-0.3,0.1-0.4
		c-0.8-0.2-1.5-0.4-2.3-0.7c1.5-1,3.1-0.9,4.7-0.5c0.4,0.1,0.8,0.5,1.1,0.4c3.4-0.7,6.1,1.3,8.9,2.7c3,1.5,5.8,1,8.8,0.4
		c0.6-0.1,1.4,0.7,2.5,1.3c-2.6,0.8-4.5,2.5-6.1,1.1c-2,1.2-3.8,2.2-5.5,3.2c3.1,0.8,6.2-1.6,9.5,0.1c-0.8,0.7-1.5,1.3-2.4,1.9
		c1.5,0.8,2.7,1.4,3.9,2c0-1-0.1-1.8,0.1-2.5c0.1-0.4,0.7-0.7,1.1-1.1c0.2,0.5,0.3,1.1,0.5,1.6c0,0.2-0.1,0.4-0.2,0.7
		c0.6,0.4,1.2,0.8,1.7,1.1c0.9-0.4,1.7-0.7,2.9-1.2c0-0.6-0.3-1.7,0.1-2.4c0.4-0.7,1.5-1.2,2.4-1.5c1.1-0.4,2.3-0.4,3.8-0.6
		c1,1.4,2.2,0.2,3-0.4c-3.6-1.1-7.4-2.3-11.3-3.5c1.1-1.5,2.8-1.3,3.5-0.8c2,1.3,3.3-0.2,4.9-0.6c0.6-0.2,1.3-0.1,2,0
		c0.6,0.1,1.2,0.3,1.8,0.4s1.1,0.3,1.5,0.3c-0.7,1-1.3,1.9-1.9,2.7c2.3-0.9,4.3-1.5,6.3-2.4c2.8-1.2,5.6-2.5,8.2-4
		c1.6-0.9,2.3-3.1,1.6-4.5c-0.2-0.4-0.7-0.8-1.1-0.9c-1.3-0.2-2.4-0.6-2.6-2.2c0-0.4-1.1-1-1.3-0.9c-2.1,1.2-3.8-0.4-5.5-1
		c-3-1-5.9-2.7-8.9-3.9c-0.9-0.4-2-0.1-3-0.1c-0.8-0.1-1.6-0.3-2.4-0.4c0-1,0.1-2-0.2-2.8c-0.2-0.6-0.8-1-1.3-1.4
		c-0.4-0.3-1-0.5-1.5-0.7c0.4-0.5,0.7-0.9,1.1-1.4c0.1-0.1,0.3-0.2,0.1-0.1c-0.6-0.7-1.3-1.4-1.9-2.1c-0.8,0.7-1.7,1.3-2.4,2.1
		c-0.2,0.2-0.1,0.8,0,1.1c0.5,1.5,1,2.9,1.4,4.1c-1.3,0.7-2.7,1.2-3.9,2c-2.8,1.6-2.8,4.4,0.1,6.1c1.3,0.8,1.6,2.5,0.5,3.5
		c-0.1,0.1-0.5,0-0.6,0c0.3,1.7,0.6,3.3,1,5.2c-4.2-0.4-8.2,1-11.8-1.2c-1.9-1.1-3.9-1.8-6.4-1.8c1.5-1.6,0.8-2.9-0.3-3.6
		c-1.3-0.7-2.5-2.2-4.7-1c-1.4,0.8-2,1.7-2.8,2.8c-0.9,1.3-1.7,1.5-2.3,0.1c-0.5-1.2-1.5-1.6-2.2-2.4c-1.6-2-3-4.1-4.6-6
		c-0.6-0.7-1.3-1.4-2.1-1.8c-1.3-0.6-2.7-1-4.1-1.5c-0.3-0.1-0.6-0.5-0.8-0.8s-0.4-0.9-0.6-1c-2-0.5-1.9-2.4-2.6-3.8
		c-0.3-0.5,0-1.3,0-2.1c0.6-1,1.3-2.2,2.2-3.7c-1.3-0.3-2.7-0.6-4-0.8c-1.2-0.2-2.2-0.3-2.2-2c0-0.8-0.4-1.7-0.9-2.3
		c-1-1.4-1.2-2.8-0.4-4.4c0.7,0.3,1.5,0.6,2.1,1.1c0.8,0.6,1.5,1.1,2.4,0c0.1-0.1,0.9-0.1,1,0.1c1.1,2.1,3.1,1.6,4.9,1.6
		c0.9,0,1.8,0,2.9,0c-1.8,3.3-3.4,6.4-5.1,9.6c0.1,0.2,0.3,0.3,0.4,0.5c1.3-0.6,2.6-1.3,3.9-1.9c0.8-0.4,1.7-0.9,2.6-0.9
		c3.6-0.2,7.3-0.3,11-0.4c1.2,0,2.2-0.3,2.5-1.7c0.1-0.3,0.6-0.6,1-0.8c0.8-0.4,1.7-0.7,2.5-1c-0.1-0.1-0.1-0.3-0.2-0.4
		c-1.3,0.4-2.6,1-4,1.3s-2.9,0.4-4.3,0.2c-1.4-0.2-1.7-1.1-0.6-2.2c0.2-0.2,0.4-0.4,0.3-0.3c0.2-1.7,0.3-3,0.4-4.3
		c-0.2,0-0.4-0.1-0.5-0.1c-0.1,0.4-0.2,0.8-0.2,1c-1.4-0.4-2.7-0.8-4.6-1.3c1.2-0.4,2-0.6,2.8-0.9c0-0.1,0-0.1,0-0.2
		c-1.1,0.2-2.3,0.1-3.2,0.6c-1,0.4-1.7,1.4-2.6,2.1c-0.6-1.2-1.1-2.3-1.8-3.6c2.4-1.1,4.8-2.1,7-3.3c0.9-0.5,2.4-0.4,2.8-2
		c0.1-0.5,1.8-1,2.7-0.9c1,0.2,1.1,2.1,0.2,3.5c0.5,0,0.9,0.2,1.2,0.1c2.2-1,4.3-2.3,6.6-3.2c1.6-0.7,1.5-2.1,1.5-3.2
		c0-0.7,0.4-2.3-1.4-1.9c-0.5-1.7,0.1-2.2,1.7-2.2c3.2,0,5.1-1.5,6.2-4.5c0.8-2.1,2.1-3.9,2.7-6c0.6-2.1,0.7-4.3,0.8-6.5
		c0.1-1.6,0.1-2.9,1.7-3.8c1.4-0.7,2.8-1.6,4-2.6c0.6-0.5,0.7-1.6,1.2-2.3c0.7-1,1.4-2.1,2.3-3c1.9-1.7,2.8-6.2,1.9-8.7
		c-0.7-1.8-1-3.7-1.3-5.6c-0.4-2.2-1-4.4-1-6.6c0-1.8,0.6-3.7,1.1-5.5c0.1-0.3,0.8-0.7,1.1-0.7c0.4,0.1,0.9,0.6,1,1
		c0.9,2.8,1.8,5.6,2.4,8.5c0.4,1.6,0.3,3.3,0.5,5c0.1,1,0.4,2.1,0.9,3c0.4,0.8,1,1.9,2.4,0.8c0.6-0.5,1.4-0.4,1.8,0.6
		c0.2,0.4,0.8,0.9,1.3,0.9c1.8,0.1,3.6,0,5.4,0c0.2-1.6,0.4-3.1,0.6-5.1c0.6,0.7,0.8,1,0.9,1.1c0.8-0.2,1.5-0.8,2-0.6
		c1.5,0.6,2.9,1.2,4.1,2.2c1,0.8,1.7,0.6,2.3,0c2.1-1.8,4.1-3.7,6-5.6c0.3-0.3,0.4-0.7,0.4-1.1c0.3-5.2,0.6-10.5,0.7-15.7
		c0-2.8,0.1-5.8-0.8-8.4c-1.1-3.1-1.2-6.9-4.4-9c-0.5-0.3-1.3-0.8-1.7-0.6c-2.1,1-4.8,1.3-5.6,4c-0.1,0.4-0.4,0.9-0.4,1.3
		c-0.5,5.2-1.8,5.9-6.1,6.5c-0.3,0.1-0.7,0.2-1,0.3c-0.3,0-0.7,0-1.5,0c0.3-1.9,0.6-3.7,0.9-5.5c0.4-2.6,0.8-5.3,1.2-7.9
		s0.9-5.2,1.4-8c-0.1,0-0.6-0.3-1-0.3c-1.7,0-3.4,0-5.1,0c-3.2,0-5.8-2.8-5.1-5.7c0.3-1.3,0.8-2.5,1.3-3.8c0.1-0.2,0.2-0.5,0.1-0.7
		c-1.2-2.3,0.2-4.6,0.1-6.9c-0.1-3-0.8-5.8-2.9-8.1c-0.3-0.3-0.2-0.9-0.5-1.1c-0.6-0.4-1.8-0.9-1.9-0.8c-0.6,1-2.6,0.5-2.5,2.3
		c0,0-0.9,0.3-1.1,0.1c-1.4-1.1-2.7-2.3-4.2-3.7c0,0-0.4,0.4-0.7,0.8c-1.1,1.9-2.2,3.7-2,6c0.2,2.1-2,2.2-3.1,3.3
		c-1,1-2.1,1.8-3.1,2.7c-0.2,0.2-0.2,0.6-0.5,0.7c-0.6,0.4-1.3,0.8-2,1.2c-0.2-0.8-0.4-1.7-0.7-2.5c-0.2-0.7-0.5-1.3-0.8-2
		c-0.1,0.1-0.3,0.1-0.4,0.2c-0.1,1.1-0.2,2.2-0.3,3.1c-1.4-1-2.6-1.9-3.7-2.8c-0.4-0.4-0.8-1-0.8-1.5c0.1-1.7-1.1-1.8-2.1-1.5
		c-1.1,0.4-1.6,0-2.3-0.6c-1.3-1.2-2.5-0.8-3.7,0.6c-0.5,0.6-1.8,0.6-2.7,0.6c-0.4,0-0.8-0.7-1.1-1.2c-0.2-0.3-0.1-0.7-0.4-1.1
		c-0.1,0.4-0.2,0.8-0.3,1.2s-0.2,0.8-0.3,1.2c-0.5-0.3-1-0.5-1.5-0.8c-0.1-0.1-0.2-0.7,0-0.9c1.6-2.5-0.8-3.8-1.7-5.6
		c-1.3-2.4-3.3-4.4-3.8-7.3c-0.2-1.3-1.4-2.4-2.4-3.5c-0.3-0.3-1.2-0.1-1.8-0.2c-1.4-0.1-3.2,0.3-4-0.5c-2.1-1.9-3.9-4.3-5.6-6.6
		c-0.5-0.7-0.6-1.8-0.5-2.7c0.2-1.8-0.8-3.1-1.6-4.6c-0.9-1.6-2-3-2.7-4.7c-0.9-2.3-1.4-4.8-1.9-6.7c-1.7-1-2.9-1.7-4.1-2.4
		c-1.9-1.1-3.1-2.7-3.3-4.9c0-0.2-0.3-0.5-0.5-0.5c-2.5-0.1-4.2-2.4-7-2.1c-1,0.1-2.4-1.4-3.2-2.4c-1.3-1.6-2.2-3.5-3.3-5.3
		c-0.3-0.5-0.9-1.1-1.3-1c-2.9,0.2-2.8-2.3-3.3-3.8c-0.7-2.3-0.9-4.8-0.8-7.2c0.1-1.9,0.7-3.9,1.4-5.7c1.5-4.1,3.1-8.2,4.7-12.3
		c0.6-1.4,1.2-2.8,1.8-4.1c1.3-2.6,0.7-5.2,0.3-7.9c-0.1-0.4-0.3-0.9-0.2-1.3c0.3-2.3,0.5-4.6,1-6.8c0.8-3.6,0-7.5,2.4-10.9
		c0.7-1.1,0.5-2.7,0.9-4.1c0.4-1.2,1-2.3,1.5-3.5c0.1-0.2,0.3-0.2,0.4-0.4c0.9-2,2.4-2.7,4.6-2.3c0.4,0.1,0.9-0.3,1.2-0.6
		c1.6-1.3,3.4-2.4,4.6-4c1.3-1.9,3-3.7,3-6.4c0.1-2.9,0.6-5.8,1.1-8.7c0.1-0.5,0.6-1,0.8-1.5c0.6-1.4,1.1-2.9,1.7-4.3
		c0.5-1.4,0.8-3.1,1.7-4c1.9-2,2.7-4.5,3.7-6.9c0.6-1.3,1.4-2.6,2.2-3.8c0.3-0.4,1.1-0.9,1.5-0.8c2,0.5,2.7-1.4,4-2.1
		c0.3-0.2,0.6-1.4,0.3-1.7c-1.8-2.1,0-3.7,0.7-5.4c1.2-3.3,4.1-3.9,7.1-4.4c1.7-0.3,2.1-1.9,2.2-3.4c0.2-1.9,1.8-3.8,3.6-3.7
		c0.8,0.1,1.7,0.8,2.4,1.2c0.7-3.2,0.5-3.6-2.7-4.1c0.7-1,1.1-2.2,1.9-2.6c1.5-0.7,2.2-1.7,2.2-3.4c0-1,0.4-1.9,1.7-2.2
		c1.7-0.4,2.2-1.8,2.2-3.4c0-1.5-1.3-1.3-2.2-1.7c-0.7-0.3-1.2-1.4-1.6-2.2c-0.1-0.2,0.5-1.1,0.8-1.2c2.2-0.3,2.4-2.4,3.2-3.7
		s1.3-2.2,2.8-2.5c0.1,0,0.2-0.3,0.2-0.3c-1.6-4-2.8-8.3-7.3-10.2c0.1-0.2,0.1-0.4,0.2-0.6c1.2-0.1,2.5-0.2,3.7-0.2
		c0.7,0,1.7,1.1,1.9-0.7c0-0.1,1.5,0,2.3,0.1c0.4,0.1,0.9,0.5,1.3,0.4c1.6-0.5,3.2,0.6,3.7,1.3c0.7,1,1.7,1,2.3,1.6
		c0.6,0.5,1.2,1,0.7,2.1c-0.5,1,0.5,2.4,1.5,2.8c-0.1,0.7-0.1,1.4-0.1,2.1c0.8-0.1,1.4-0.2,2.2-0.3c-0.5,1.1-0.8,1.7-1.2,2.4
		c0.1,0.1,0.2,0.2,0.2,0.2c0.2-0.4,0.4-0.8,0.7-1.2c0.1,0.1,0.3,0.1,0.4,0.2c-0.1,1.2-0.2,2.5-0.3,4.1c0.5-0.5,0.8-0.7,1-0.9
		c1,2.3,0.5,3.7-1.6,4.8c-0.3,0.1-0.5,1-0.4,1.1c0.5,0.4,1.2,0.6,2.1,1c-0.9,2.2-3.3,4.6-2.3,8c-0.3,0-0.6-0.1-0.9-0.1
		c-0.2-1.4-0.5-2.7-0.7-4.1c-0.1,0-0.3,0-0.4-0.1c-0.7,3.8-1.4,7.6-2.1,11.5c0.6-0.3,1.1-0.7,1.6-1c0.1-1.6,0.3-3.2,0.4-4.8
		c0.8,0,1.3,0.1,1.5,0.1c-0.1,2.3-0.1,4.5-0.4,6.6c-0.1,1.3-0.6,2.6-0.9,3.9c-0.2,1-0.5,1.9-0.3,3.1c0.4,2.4,0.2,5.1-0.5,7.4
		c-2,6.3-3.1,12.7-3,19.3c0,1.1-0.4,2.1-0.6,3.2c0,0.3,0.1,0.7,0.2,1c0.1,0.8,0.5,1.6,0.4,2.4c-0.6,4.2-1.4,8.3-2,12.5
		c0,0.1-0.1,0.2-0.1,0.3c0.7,3.6,0.3,7.2-0.4,10.7c-0.7,3.8,0.2,7.5,0,11.2c-0.1,2.2,0.2,4.2,2,5.8c0.6,0.6,0.6,1.8,1.2,2.5
		c1,1.2,2.2,2.2,3.2,3.3c1.1,1.2,2.3,2.4,3.2,3.7c0.9,1.2,1.5,2.6,2.2,3.9c0.2,0.4,0.5,1.1,0.4,1.5c-0.9,1.9,0.3,3.4,0.8,5.1
		c0.9,3.3,2.1,6.6,3,9.9c1,3.7,1.8,7.5,2.8,11.3c0.2,0.8,0.7,1.6,1.1,2.4c0.9,1.7,2,3.3,1.8,5.5c-0.1,0.7,0.5,1.5,0.7,2.3
		c0.5,2.8-1.6,4.2-3.1,6.4c0.2,0.4,0.8,1,0.9,1.7c0.3,1.6,0.8,3.3,0.7,4.8c-0.2,2.9-0.8,5.7-1.4,8.5c-0.4,1.7-1.2,3.3-1.9,4.8
		s-1.6,2.8-2.2,4.3c-0.5,1.1-0.7,2.4-0.8,3.6c-0.1,2.9-0.2,5.9,0,8.9c0.1,1.8,0.6,3.7,1.1,5.5c0.4,1.7,0.9,3.5,1.4,5.2
		c0.1,0.4,0.6,0.7,1.2,1.4c0.1-1.1,0-1.9,0.3-2.4s1-0.7,1.6-1.1c-0.2-0.3-0.5-0.5-0.5-0.8c0-0.8-0.3-2,0.2-2.4
		c1.2-1.1,2.1,0.5,2.5,1.1c1.2,1.8,1.9,2.4,4.3,2.6c0.5,2.2,0.6,4.6,3.4,5.4c0.7,0.2,1.1,3,1,3.9c-0.1,0.6,0.2,1.4,0.5,2.1
		c1.1,2.2,2,4.5,3.6,6.3c1.4,1.5,3.4,2.5,5.3,3.5c1.5,0.7,2.7,1.4,3.5,2.9c1.3,2.4,2.9,4.7,4.3,7c1.6-1,2.8-1.8,4.2-2.6
		c2.4,1.6,5,3.2,7.4,5c4.2,3.2,8.1,6.9,10.7,11.6c0.3,0.6,0,1.5-0.1,2.3c-0.1,1.1-0.5,2.1-0.3,3.2c0.4,3.5,1.8,6.7,4,9.6
		c1.2,1.6,2.4,3.4,3.3,5.2c0.6,1.2,0.6,2.6,0.8,3.5c0.9,1.2,1.7,2.2,2.3,3.2c1,1.4,1.9,2.9,2.7,4.4c0.5,0.9,1,1.8,1.3,2.8
		c0.6,2,1,4.1,1.6,6c0.1,0.4,1.2,0.5,1.8,0.7c0.1-0.5,0.3-0.9,0.3-1.4c-0.3-1.8-0.7-3.5-1.2-5.5c-0.6,0.6-0.8,0.7-1.1,0.9
		c-0.1-0.2-0.3-0.2-0.3-0.3c-0.6-2.2-1-4.5-1.8-6.6c-1.3-3.6-3.2-7.1-3.8-11c-0.1-0.7-0.8-1.4-1.4-2c-1.7-2.1-1.6-2.5,0.9-4.3
		c0.2,2.6,2.3,4.1,3.5,6.2c0.6,1,0.9,2.4,1,3.6c0.1,1.1,0.3,2,1.2,2.8c1.6,1.6,3.1,3.4,4.9,5.4c-1.1,0.5-1.7,0.8-2.4,1.1
		c-0.2,2,1.2,3.2,2.1,4.7c0.6,1,1.1,2.1,1.5,3.3c0.7,2.1,1.4,4.2,2.1,6.3c0.1,0.2,0.3,0.3,0.3,0.4c0.5,3.9,3.2,5.8,6.5,7.2
		c0.1,0,0.2,0.1,0.3,0.2c0.8,2,1.6,3.9,2.4,5.9c0.2,0.4,0.2,0.9,0.4,1.3c1.6,3.6,3.3,7.2,5,10.8c0.2,0.4,0,0.9,0,1.4
		c-0.1,1.3-0.2,2.5-0.2,3.8c-0.1,1.6-0.1,3.2-0.2,4.8c0,0.5-0.1,0.9-0.1,1.4c0,2.3-0.2,4.7,0,7c0.1,1.4,0.8,2.7,1.3,4.4
		c-0.2,0.3-0.7,0.8-1.7,0c-0.5-0.4-1.5-0.3-2.2-0.4c0.1,0.8,0.2,1.6,0.4,2.4c0.4,1.6,1.7,2,3.3,2.5c0.1-2.3-2.5-1.6-2.9-3.1
		c2.5-0.7,4-0.3,6,1.5c1.1,1,2.4,1.8,3.5,2.8c0.7,0.7,0.5,1.2-0.5,1.7c0.7,1.8,1.9,3,3.6,4c0.9,0.5,1.3,1.9,1.9,2.8
		c-0.1,0.1,0-0.1,0.2-0.4c0.1,0.4,0.4,0.8,0.3,1c-0.4,0.7-0.4,1.3,0.4,1.7c0.8,0.4,1.5,1,2.3-0.2c0.2-0.3,1.2-0.1,1.8,0.1
		s1.1,0.5,1.9,0.9c-0.2,0.3-0.4,0.7-0.7,1.2c0.5,0.4,1,0.9,1.6,1.5c-0.1,0.4-0.3,0.8-0.4,1.2c0.1,0.1,0.3,0.1,0.4,0.2
		c0.3-0.5,0.6-1.1,1-1.8c0.4,0.2,0.9,0.3,1.2,0.6c0.9,1,1.7,2.2,2.6,3.2c0.3,0.3,0.8,0.5,1.2,0.7c1.1,0.6,2.3,1.2,3.4,1.7
		c1.1,0.4,2.3,0.6,3.5,0.9c0.8,0.2,1.6,0.3,2.4,0.5c0.6,0.1,1.3,0.6,1.8,0.4c2.9-1,5.3,0.4,7.9,1.3c1.1,0.4,2.2,1,2.8-0.8
		c0.3-1,6.2-2.6,7-1.9c0.4,0.3,0.5,1.1,0.8,1.8c1.2-0.9,2.7-1.5,3.5-3.3c0.4-0.9,1.8-1.4,2.8-2c2-1.1,4-2.3,6.1-3.3
		c1.1-0.5,2-1.7,3.5-1.1c2.2-2.4,5.5-0.8,8-2.4c0.8-0.5,1.7-1.4,2,0.4c-3.9,1.6-7.8,3.1-11.6,4.7c-1,0.4-1.9,1.2-2.7,1.9
		c-0.1,0.1,0.3,1,0.6,1.1c1.2,0.4,2.5,0.6,3.7,0.9c0.1,0,0.1,0,0.2,0c2.3-2,3.7,0.8,5.5,1.1c0.8,0.1,1.5,0.4,2.3,0.7
		c0.8,0.3,1.6,0.5,2.5,0.8c1-0.2,2-0.6,3.1-0.7c0.5,0,1,0.7,1.4,1.1c-0.5,0.3-1,0.8-1.5,1s-1.1,0-1.4,0c0.4,0.8,1.1,1.6,1,2.3
		c-0.1,0.7-0.8,1.5-1.4,2c-1.2,1-2.4,2.3-4.4,1.2c-0.8-0.5-2.1-0.2-3.2,0c-0.6,0.1-1.1,0.4-1.6,0.7c0.5,0.3,1,0.7,1.6,0.7
		c2.2,0.1,4.5,0.1,6.7,0s3.8,1,5.7,2.6c-1,0.1-1.6,0.2-2.1,0.3c-0.9,0.1-1.9,0.1-2.8,0.5c-1.7,0.7-3.1,0.9-4.8-0.2
		c-0.6-0.4-1.7-0.2-2.6,0.2c2.4,0.8,4.9,1.5,7,2.2c0.5,0.5,0.8,0.9,1.2,1.4c-0.3,0.1-0.6,0.2-0.9,0.2c-4.4,0.1-8.2,2.8-12.8,2.3
		c-2.3-0.3-4.6,0.5-7,0.6c-1.1,0-2.2-0.4-3.3-0.5c-0.4-0.1-0.8-0.2-1-0.1c-1.9,1.1-3.7-0.3-5.6-0.1c-2,0.2-4,0.2-6,0
		c-4.3-0.3-8.5-0.7-12.8-1c-1.4-0.1-2.8,0-4.2-0.1c-0.9-0.1-1.8-0.4-2.7-0.6c-0.3-0.1-0.7-0.1-1.1-0.1c-1.6,0.2-3.3,0.5-4.9,0.7
		c-4.2,0.4-8.4,0.9-12.6,1c-1.7,0.1-3.5-0.6-5.2-0.8c-0.7-0.1-1.6-0.1-2.2,0.2c-0.9,0.4-1.5,0.3-2.1-0.3c-0.7-0.6-1.3-0.4-2.1-0.3
		c-2.1,0.2-4.2,0.2-6.3,0s-4.2-0.6-6.3-0.9c0,0.2-0.1,0.3-0.1,0.5c0.9,0.4,1.7,0.8,2.6,1.3c0.2,0.1,0.3,0.5,0.3,0.5
		c-0.4,0.3-0.8,0.5-1.5,1c1.9,0,3,1.5,5.2,0.3c2.3-1.3,5.1-1.7,7.8-0.3c0.8,0.4,1.9,0.3,3.4,0.6c-1.4,1.2-2.5,2.1-3.6,3
		c0,0,0.2,0.2,0.5,0.6c-0.9,0-1.5,0-2.3,0c0.1-0.3,0.2-0.6,0.3-1c-0.2,0-0.4,0-0.4,0c-0.9,1.4-2,1.4-3.3,0.4
		c-0.4-0.3-1.1-0.5-1.6-0.5c-1.6-0.1-3.3,0.1-4.9-0.1c-2.8-0.3-5.6-0.9-8.4-1.3c-0.6-0.1-1.3,0.2-1.9,0.2c-1.6,0-3.5,0.6-4.6-0.1
		c-2.7-1.8-4.7,0.6-7,0.5c-1.4-0.1-2.8,0.3-4.4,0.4c0.2-0.9,0.3-1.4,0.4-2c-2.1-1.1-3.9-2.5-6.5-2.2c-0.6,0.1-1.2-0.6-1.7-0.9
		c0.6-0.8,1-1.3,1.4-1.7c0.3-0.3,0.9-0.4,1.4-0.3c1.2,0.2,2.4,0.4,3.5,0.7c0-0.2,0.1-0.5,0.1-0.7c-3.4-0.3-6.8-0.5-10.2-0.8
		c-0.1,0.2-0.1,0.4-0.2,0.6c0.3,0.3,0.6,0.7,1.3,1.4c-1.6,0.3-2.9,0.6-4.2,0.7c-1.5,0.1-2.9,0-2.3,2c-0.7,0.4-1.3,0.8-1.8,1.1
		c1,1.4,0.7,2.3-1.1,2.4c-3.2,0.1-6.3,0-9.5,0c0-0.2-0.1-0.4-0.1-0.6c2.3-0.5,4.6-1.1,6.9-1.6c-1.6-1.7-3.4-2.9-5.9-3.4
		c-1.1-0.2-2.2-0.5-3.3-0.5c-1.4,0-2-0.7-2.4-1.9c-0.1-0.4-0.5-0.6-0.7-1c-0.3,0.3-0.7,0.5-0.8,0.8c-0.3,0.9-0.7,1.3-1.6,0.5
		c-0.2-0.1-1.5,0.6-1.4,0.9c0.2,2-1.2,1.2-2.1,1.4c-0.6,0.1-1.2,0-1.8,0.3c4.3,0.2,8.5,0.5,12.8,0.7c0.4,2.3,0.1,2.9-1.9,3.4
		c-1.2,0.3-2.5,0.5-3.8,0.6c-1.4,0.2-2.2-0.3-1.6-1.9c-0.7-0.3-1.4-0.6-2.3-1.1c0.2,0.7,0.4,1.3,0.7,2.2c-0.7,0.1-1.4,0.4-2.1,0.4
		c-4.5,0-8.9,0.2-13.4-0.1c-2.4-0.2-4.8-1.2-7.2-1.7c-1.7-0.4-3.4-0.5-5.1-0.8c-2.4-0.4-4.8-0.7-7.2-1.1c-0.4-0.1-0.8-0.4-1.2-0.5
		c0.4-0.6,0.7-1.1,1-1.5c-0.6-0.3-1.2-0.6-1.8-0.8c-2.9-0.7-5.8-1.4-8.7-2C561.5,401.7,560.9,401.9,560.2,402z M618.9,358.4
		c-0.7-0.2-1.2-1.3-2.5-0.4c-0.9,0.6-2.7,1.1-3.3,0.6c-1.6-1.2-3.2-1.5-5-1.3c-0.8,0.1-1.5,0.7-2.2,1c0.6,0.7,1.1,1.5,1.7,2.2
		c0.6,0.6,1.2,1.2,1.8,1.7c0.6,0.4,1.3,1.2,1.8,1.1c1.1-0.2,2.2-0.6,3.2-1.3C616,361,617.3,359.7,618.9,358.4z M600.8,347.6
		c-0.4,1.2-0.7,2.3-1,3.4c-0.2,0.6-0.3,1.2-0.5,1.8c-0.5-0.3-1.1-0.5-2.1-1.1c0.4,1.3,0.7,2.3,1,3.5c0.6-0.2,1.1-0.6,1.6-0.6
		c0.6,0,1.5,0,1.6,0.3c0.3,0.8,0.7,1.6,1.6,1.2c0.8-0.3,1.3-1.1,2.1-1.8c-1.9-1-1.8-1-2.1-2.8c-0.1-0.7-0.6-1.2-0.9-1.8
		C601.8,349,601.4,348.4,600.8,347.6z M611.1,343.2c-0.3,0-0.6,0-0.8,0c-0.2,1.5-0.6,2.9-0.7,4.4c0,2.3,0.2,4.6-2,6.1
		c-0.3,0.2-0.3,0.8-0.5,1.3c3,0.3,3.8-0.4,4-3.2c0-0.6,0.3-1.1,0.5-1.7C612.5,347.7,612.2,345.4,611.1,343.2z M676.6,400.2
		c-2.1-1.2-3-1-3.6,0.7c1,0.1,2.1-0.1,3,0.2c1.6,0.7,3-0.4,4.5-0.4c0.2,0,0.4-0.4,0.7-0.7c0.4-0.4,0.7-0.8,1.5-1.7
		c-1.3,0.3-2.1,0.5-3,0.7c-0.4,0.1-0.9,0.4-1,0.2C677.2,398.1,677,399.2,676.6,400.2z M666.5,404.7c0-0.2,0-0.5,0.1-0.7
		c-1.5-0.5-3-1.5-4.5-1.5c-3,0-5.9,1.2-9.1-0.4c0.5,1.1,0.9,1.7,1.2,2.4C658.4,402.6,662.4,403.5,666.5,404.7z M595.6,345.8
		c0.1,0.2,0.2,0.3,0.2,0.5c1.8-1.5,4.8-0.5,6.2-3.2c-0.3-0.3-0.6-0.6-0.7-0.8C599.3,343.5,597.4,344.6,595.6,345.8z M580.3,5.5
		c0-0.1,0.1-0.3,0.1-0.4c-1.2-0.3-2.4-0.5-3.5-0.7C576.5,5,576.2,5.6,576,6c0.5,0.3,1.2,0.6,1.9,1c0.1-0.4,0.3-0.9,0.5-1.5
		C579,5.5,579.6,5.5,580.3,5.5z M589.4,348.7c0,0.2-0.1,0.3-0.1,0.5c1,0.1,2,0.6,2.9,0.4c1.2-0.2,2.4-0.9,3.6-1.4
		c0-0.1-0.1-0.1-0.1-0.2C593.6,348.1,591.5,348.4,589.4,348.7z M665.8,393.9c0.9-0.9,1.6-1.6,2.3-2.2c-0.1-0.1-0.2-0.3-0.3-0.4
		c-0.8,0.5-1.7,1-2.5,1.6C665.3,392.8,665.7,393.4,665.8,393.9z"/>
	<path class="st0" d="M146.8,47.8c2.2-2.3,4.4-0.2,6.9,0.7c3.3,1.2,3.3,3.8,3.2,6.8c1.8,0.3,3.6,0.6,5.4,1c0,0.2,0,0.4,0,0.6
		c-0.9,0.1-1.8,0.1-2.7,0.2c0,0.7,0,1.3,0,1.9c0.1,0,0.2,0.1,0.3,0.1c0.1-0.1,0.1-0.4,0.2-0.4c0.5-0.3,1.1-0.5,1.7-0.8
		c0.1,0.6,0.4,1.2,0.2,1.7c-0.3,1.1-0.7,2.1-1.1,3.2c0.2,0.1,0.4,0.2,0.6,0.3c0.5-0.7,0.9-1.4,1.5-2s1.3-1,2-1.5
		c0.3,0.7,0.7,1.4,0.9,2.1c0.7,3,2.1,5.5,4.7,7.1c1.3,0.8,2.8,1.2,4.2,1.5c2.4,0.6,3.8-1.5,5.7-2.2c0.6-0.2,1.2-0.6,1.8-0.7
		c2.6-0.3,4.6-1.3,5.6-3.9c0.2-0.5,0.9-1,1.5-1.1c1-0.3,2.2-0.5,3.2-0.4c2.8,0.5,4.7-0.9,6.5-2.7c1.1-1.1,2.4-1.1,3.7-0.4
		c1.5,0.8,3.1,1.7,3.1,3.5c0,1.5-0.8,3-1.1,4.6c-0.2,1-0.3,2-0.1,3c0.3,2,0.9,4,1.4,5.9c0.4,1.7,0.8,3.4,1.3,5.2
		c0.5,2,1.1,4,1.6,6.1c0.2,0.6,0.5,1.1,0.5,1.7c0.1,0.6-0.1,1.1-0.1,1.7c0,1.3-0.1,2.6,0,3.8c0,0.9,0.3,1.8,0.2,2.6
		c-0.3,2.3-0.7,4.6-1.1,6.9c-0.1,0.4-0.4,1.1-0.7,1.1c-1.7,0.3-2.1,1.9-3,2.9c-1.3,1.3-3.2,1.8-4.7,2.8c-2.5,1.6-5.9,2.2-6.9,5.6
		c-0.5,1.5-0.8,3.1-1.2,4.6c-0.4,1.6-0.8,3.1-1.3,4.9c-0.3-0.1-0.8-0.3-0.9-0.4c-0.8,0.6-1.4,1.1-2,1.6c-0.2,0.1-0.4,0.3-0.4,0.5
		c-0.5,1.5-0.8,3.2-1.6,4.6c-0.8,1.3-1.9,2.5-3.1,3.5c-0.8,0.7-1.4,0.1-1.9-0.7c-0.5-0.7-1.1-1.4-1.6-2.1c-3.6,2.5-2.7,6.8-4.4,9.2
		c0.4,1.2,0.9,2,0.8,2.6c-0.1,0.4-1,0.8-1.7,1c-2.5,0.6-4.3-1-6.4-2c-1-0.5-2.5-0.2-3.7-0.2c-0.1,0-0.1,0.7-0.3,1.4
		c-2.1-2.8-1.5-5.3-0.2-7.8c-1.8-0.9-2-2.1-0.5-3.3c0.1,0.4,0.2,0.8,0.3,1.2c0.9-0.8,1.1-3.2,0.3-4.1c-1-1.2-1.7-2.7-2.8-3.8
		c-0.9-0.9-1.6-2.9-3.5-1.2c0,0-0.4-0.3-0.7-0.5c1-0.9-0.4-1.7-0.1-2.6c0-0.2-0.6-0.7-0.9-0.8c-0.2,0-0.8,0.6-0.7,0.8
		c0.8,1.9-1.1,3.2-1.1,4.9c-0.1,3.4-0.1,6.8-0.4,10.2c-0.2,2.8-0.6,5.5-1.1,8.2c-0.1,0.6-0.9,1-1.7,1.9c-0.8-4.4-1.5-8.4-2.3-12.3
		c-0.1-0.5-0.4-1-0.8-1.4c-1.7-1.4-2.6-3-2.5-5.4c0.1-1.9-0.7-3.9-1-5.8c-0.4-2.3-0.7-4.5-1.1-6.8c-0.1-0.3-0.5-0.6-0.7-0.9
		c-0.5-0.6-1.1-1.2-1.6-1.8c-0.6-0.6-1.3-1.2-1.9-1.8c-0.3-0.3-0.7-0.7-0.7-1.1c-0.1-2.4-0.8-4.7-2.2-6.3c-2-2.3-1.5-5.5-3.2-7.9
		c-0.7-0.9-1.5-1.8-1.8-2.9c-0.6-2.1-0.7-4.4-1.1-6.5c-0.9-4.5-0.7-8.9,0.2-13.6c0.9-4.5,2.9-8.5,4.3-12.7c0.9-2.8,1.4-5.8,2-8.7
		c0.3-1.4,0.6-2.4,2.4-2.5c1.4-0.1,2.8-0.3,3.2-2.2c0.1-0.6,1.3-1.4,1.9-1.3C144.4,46.3,145.4,47.1,146.8,47.8z"/>
	<path class="st0" d="M165.6,177.2c-0.5,0.8-0.9,1.7-1.4,2.5c-1.1,1.6-1.5,3.7-3.6,4.5c-1.2,0.4-1.6,0.1-2.3-0.9s-2-1.6-3.1-2.3
		c-2.1-1.4-4.5-2.4-6.3-4.1c-2.1-2-4.6-3.9-5.1-7.1c-0.1-0.6-0.8-1.2-1.3-1.7c-1-1.1-2-2.1-2.2-2.8c0.5-1,1-2,1.6-3.1
		c-0.9-1.9-2-4-3.1-6.1c-0.3-0.5-1-0.8-1.3-1.4c-0.9-1.8-1.6-3.7-2.3-5.6c-0.1-0.2,0.4-0.6,0.5-0.8c1,0.6,1.9,1.5,2.7,1.4
		c2.1-0.1,2.7,1.6,3.5,2.7c0.9,1.3,1.3,3,1.7,4.5c0.3,1.3,1.7,2,3.7,1.8c0.9-2.4,1.8-4.7,2.7-7.2c0.5,0.4,0.8,0.7,1.1,1
		c0.3-0.4,0.5-1.2,0.9-1.3c0.7-0.2,1.2,0.1,1.6,1c0.8,1.7,2,3.3,2.9,4.9c0.1,0.2,0,0.6,0,1.1c1.1-0.6,2-1.2,3.1-1.7
		c1.8-0.8,2.4,1,3.3,1.8c0.8,0.7-0.4,1.2-1.1,1.7c-1.1,0.8-2.4,1.8-2.7,3c-0.3,1,0.4,2.4,0.8,3.7c0.2,0.6,0.5,1.3,0.9,1.8
		c0.7,0.9,1.5,1.7,2.3,2.4c1.4,1.2,3,2.1,4.3,3.3c0.9,0.8,1.7,1.3,2.4-0.1c0.8,1.8,1.5,3.6,2.3,5.4c-0.9,0.5-1.9,1-2.8,1.5
		c1,0.3,2.2,0.2,2.8,0.8c1.2,1.4,2.1,3.1,3.1,4.7c-1.1,0.5-1.7,0.6-2.2,1c-0.8,0.5-1.3,1.8-2.6,1c-1.6-0.9-3-2-2.9-4
		c0.1-2.1-0.4-3.9-1.5-5.6c-0.2-0.3,0-0.9,0.1-1.4C165.8,177.5,165.7,177.3,165.6,177.2z"/>
	<path class="st0" d="M213.6,178.7c0.1-0.7,0.1-1.2,0.2-2c0.5,0.2,1.2,0.2,1.3,0.5c0.5,1.5,0.7,3.1,1.2,4.6c0.5,1.7,1.2,3.4,1.6,5.1
		c0.5,2.1,0.9,4.3,0.9,6.5c0,1.7-0.6,3.4-0.9,5c-1.2-0.3-2.1-0.5-3.1-0.8c-0.2,1.2-0.3,2.1-0.7,3c-0.3,0.6-1,1.3-1.6,1.6
		c-1.9,0.9-2.6,2.7-3.4,4.4c-0.5,1.1-1,2.7-1.9,3.2c-2.1,1.1-2,3.1-2.8,4.8c-0.4,1-0.7,2-1.2,2.9c-0.2,0.3-0.9,0.6-1.2,0.5
		c-0.4-0.1-0.9-0.6-1.2-1c-0.7-1.2-1.2-2.5-2.1-3.6c-1.3-1.7-1.2-2.8,0.3-3.5c0.1-1.1-0.1-2.2,0.4-2.8c1.8-2.1,0.9-4.4,0.8-6.6
		c-0.1-1.4-0.8-2.9-1.3-4.3c-0.2-0.6-0.6-1.2-1.1-2.1c0.9-0.2,1.8-0.3,3-0.5c0-1.6-0.1-3.4,0-5.2c0.1-0.8,0.7-1.5,0.8-2.3
		c0.4-1.7,0.6-3.5,0.9-5.2c0.4-2.3,0.8-4.7,1.1-6.7c1.1,0,1.8,0,3,0c0,0.1,0.3,0.6,0.6,0.9c0.9,0.7,2.1,2,2.9,1.8
		c1.6-0.4,2.3,0.1,2.9,1.4C213,178.5,213.2,178.6,213.6,178.7z"/>
	<path class="st0" d="M336.5,128c0.2-2.8,0.2-5.5,0.5-8.3c0.2-1.6,0.9-3.2,1.3-4.8c0.3-1.6,0.3-3.3,0.5-5c0.6-3.8,1.1-7.5,1.8-11.3
		c0.3-1.7,0.7-3.5,1.5-5c0.6-1.1,1.9-2,3-2.7c0.8-0.5,3.1,1.4,3.3,2.8c0.5,3.4,0.9,6.8,1.1,10.2c0.1,2,0,4.2-0.8,5.9
		c-1.5,3.1-0.5,5.9-0.1,8.8c0.2,1.9-0.3,3.8-0.5,5.7c-0.2,2.8-2.4,3.6-4.5,4.7c-0.7,0.3-1,1.5-1.4,2.3c-0.7,1.5-2.1,2.7-1.7,4.6
		c0.1,0.2-0.2,0.5-0.3,0.8c-0.7,1.7-1.3,3.4-1.8,5.2c-0.8,0.5-1.6,0.3-1.8-1c-0.5-3.5-1.1-7-1.5-10.5c-0.1-0.9,0.1-1.9,0.1-3.2
		C335.9,127.7,336.2,127.9,336.5,128z"/>
	<path class="st0" d="M157.4,322.3c0.1-0.1,0.3-0.6,0.7-1.6c0.2,0.5,0.4,0.8,0.5,1.2c1.4-1.7,1.4-1.7,4.3,0
		c-0.3-0.8-0.5-1.4-0.8-2.1c0.3-0.3,0.8-0.8,1.2-1.3c0.3-0.5,0.5-1.1,0.7-1.6c2,0.3,2.6,2.2,1.1,4.3c0.9-0.1,1.6-0.2,2.4-0.3
		c-1.5-2.5-1.4-2.5,1-4.1c0.5-0.3,0.7-1,1-1.6c2-0.2,2.1,0,1.6,3.3c0.7,0,1.5,0,2.4,0c-1.5-1.7-2.4-3.2-1.1-5.3
		c0.6-0.9,0.4-2.3,0.6-3.4c2.6-0.4,2.6-0.4,2.8,2.3c0.1,1.1,0.7,2.2,1,3.3c0.2,0.5,0.5,1.2,0.3,1.5c-1.1,1.4-2.3,2.7-3.6,4
		c-0.7,0.7-1.8,1.2-2,2c-0.4,1.4-1.2,1.3-2.2,1.3c-1.7,0-3.4,0-5,0c-0.6,2.4-1.1,4.7-2.7,6.6c-0.2-0.1-0.3-0.1-0.5-0.2
		c0.1-0.5,0.2-1,0.3-1.8c-0.9,0.5-1.9,0.7-2.4,1.3c-0.4,0.5-0.1,1.5-0.1,2.4c-0.3-0.1-0.7-0.3-1.2-0.6c-0.6,1.6-1.2,3.2-1.7,4.8
		c-0.2,0.8,0.4,1.5,0.1,2.5c-0.5,1.8-1.3,2.7-3.2,2.6c-0.3-1.3-1-2.7-0.8-4c0.3-2.3,1.4-4.5,1.5-6.7c0.1-2.1,1.8-4.1,0.4-6.3
		c-0.2-0.4,0.5-1.6,1.1-2.2C155.6,322,156.5,322.3,157.4,322.3z"/>
	<path class="st0" d="M433.9,368.8c1-0.4,2-0.9,3.1-1.1c2.6-0.4,5.2-0.5,7.8-0.8c0.8-0.1,1.5-0.7,2.2-1.1c0.1,0.1,0.3,0.2,0.4,0.3
		c-0.8,1.3-1.6,2.6-2.4,4c0.2,0.1,0.5,0.1,0.7,0.2c0.5,0.3,1,0.5,1.6,0.8c-0.5,0.2-1.1,0.4-1.4,0.8c-0.4,0.6-0.5,1.4-0.8,2.2
		c-0.5,0.1-1.4,0.4-2.4,0.6c0.8,1.3,0.9,2.9,2.9,2.9c0.4,0,0.8,0.9,1.3,1.5c0.2-0.1,0.7-0.2,1.2-0.4l-0.1-0.1
		c0.3,0.4,0.6,0.8,0.7,0.9c0,1.4,0,2.3,0,3.5c0.9,0.1,2,0.3,3.2,0.5c-1.7,3.1-1.7,3.1-3.3,1.7c0.4-0.2,0.7-0.4,1-0.6
		c-0.1-0.1-0.2-0.3-0.3-0.4c-1.1,0.9-2.2,1.8-3.5,2.7c-0.7-1.1-1.2-0.8-1.9,0.3c-0.3,0.4-1,0.6-1.5,0.8c-0.1,0-0.6-0.5-0.5-0.6
		c0.3-0.5,0.6-1,1-1.5c0.4-0.4,0.8-0.8,1.3-1.3c-1.5-0.2-2.9-0.4-4.3-0.6c0.6-1,1.5-1.9,1.4-2.6s-1.3-1.1-1.9-1.8
		c-1.3-1.4-2.5-2.9-3.7-4.4c-0.3-0.4-0.4-0.9-0.6-1.5c-0.8-0.3-2.7,0.5-2.3-1.6C433,370.8,433.5,369.8,433.9,368.8L433.9,368.8z"/>
	<path class="st0" d="M89.9,41.4c-0.3-0.4-0.6-0.7-1.1-1.3c-0.1,0.4-0.2,0.7-0.3,1.2c-0.4-0.4-0.5-0.5-0.6-0.7
		c-1.1-2.4,0-4.4,1.2-6.5c0.3-0.6,0.4-1.3,0.3-2.1c0.1-0.1,0.2-0.2,0.2-0.3c2.6-0.6,3.5-2.5,4-4.9c0.6-2.6,4.2-4.2,6.6-3
		c0.9,0.4,1.8,0.8,2.7,1.2c-0.7,1.4-1.2,3-2.3,4.1c-1.1,1.2-2.3,2.2-3.9,3s-2.6,3.1-3.6,4.9C92.4,38.7,91.9,40.6,89.9,41.4z"/>
	<path class="st0" d="M194.9,179.2c0.2-0.4,0.5-0.8,0.5-1.2c0-2.9-0.1-5.9-0.2-8.8c0-1.2,0.5-1.6,1.7-1.3c0.2,1.7,0.3,3.3,0.4,5
		c0.1,1.4-0.1,2.8,1.1,4c0.5,0.5,0.3,1.9,0.4,2.8c-0.2,0.1-0.3,0.1-0.4,0.1c-0.1-0.2-0.2-0.3-0.1-0.3c-0.3,1-0.7,2-1,3
		c-0.1,0.2,0.1,0.6,0.2,0.8c0.1,0.2,0.4,0.3,0.4,0.5c0.2,0.7-1.9,4.5-2.9,5c0.9-1.8,0.4-2.9-1.3-3.4c-0.7,2.1-3.2,3-5.3,1.6
		c0.8-0.2,1.5-0.4,2.1-0.5c-0.1-0.5-0.2-1-0.3-1.5c-0.5-0.1-1-0.1-1.6-0.2c0-0.1,0-0.2,0-0.3c0.5-0.1,1-0.3,1.4-0.3
		c1.9-0.1,2.7-1.2,2-3c-0.2-0.6-0.5-1.3-1-1.8c-0.9-0.9-1-1.6-0.1-2.6c0.2-0.2-0.1-1.1-0.5-1.5c-1.1-1.5-1.3-5.8-0.3-7.2
		c0.7,0.4,1.5,0.8,2.2,1.3c-0.3,2.1-0.1,4.1,1.3,5.9c0.4,0.5,0.4,1.4,0.6,2.1c0.1,0.6,0,1.3,0,1.9
		C194.7,179.2,194.8,179.2,194.9,179.2z"/>
	<path class="st0" d="M585,270.7c0.8-2.2,1.6-2.6,3.7-2.4c1.2,0.2,2.5,0,4.1,0c-1.2,1.4-0.8,2.4,0.3,3.5c0.8,0.9,0.8,2.5,2.5,2.7
		c0.4,0,0.8,0.7,1.2,1c1,0.6,2,1.6,2.7-0.4c0.4-1,3.6-1,3.8-0.1c0.4,2.2,1.3,0.8,2.1,0.5c0.1,0,0.2,0,0.4,0c0.6,2.8-1.5,4.9-4.5,5.4
		c-3.6,0.6-6-1.7-8.8-3.1c-0.7-0.4-1.3-1.4-1.6-2.3c-0.7-2-2.5-2.5-4.1-3.4C586,271.9,585.5,271.2,585,270.7z"/>
	<path class="st0" d="M192.4,247c-1.6-0.4-2.9-0.6-4.2-0.9c0.8-2-0.3-4.5-2.2-5.3c-0.8-0.3-1.4-2.1-1-3c0.1-0.2-0.1-0.5-0.2-0.8
		c-0.1-0.3-0.4-0.6-0.4-0.8c0.4-1.8,0.8-3.7,1.7-5.5c0,0.6,0,1.2,0.1,1.8c0.2,0.6,0.5,1.2,0.7,1.8c0.1,0.4,0.4,0.9,0.3,1.1
		c-1.4,2.4,0.5,3.9,1.3,5.7c0.5,1,1.4,1.9,2.2,2.9c0.5-0.2,1.1-0.5,2.1-0.9c-0.4,0.8-0.6,1.2-0.6,1.4c1.1,0.6,2.1,1.1,3.2,1.6
		c-0.1,0.1-0.2,0.2-0.4,0.3c0.2,0.6,0.2,1.3,0.5,1.9c1.2,2.1,0.7,4.3,0.4,6.4c-0.1,0.9-0.4,1.7-0.5,2.6c-0.2,1.7-0.2,3.5-0.4,5.1
		c-0.1,0.6-1,1.5-1.1,1.5c-0.9-0.4-2-0.9-2.3-1.7c-0.6-1.3-1.1-2.9-1.1-4.3c0-1.3,0.8-2.6,1.2-3.9c0.5-1.4,1.2-2.7,0.6-4.3
		C192.1,248.7,192.4,247.6,192.4,247z"/>
	<path class="st0" d="M90.7,60.6c-2.1-0.5-2.8-1.9-3.6-3.2c-0.8-1.5-1-3.4-2.8-4.3C84,53,84,52.3,83.9,51.8
		c-0.3-1.5-1.8-2.2-3.2-1.5c-0.6,0.3-1.6,0.4-1.9,0c-0.6-0.5-0.4-1.1,0.6-1.5c0.4-0.2,0.2-1.5,0.3-2.5c2.5-0.1,1.6-2.5,2.4-3.8
		c1-1.7,1.5-3.7,4-4.8c0,1.3,0.1,2.3,0,3.3c-0.1,1.3,0.3,2.2,1.5,2.9c1.5,0.8,1.2,1.4,0.1,2.7c-0.8,1-1.1,2.7-0.9,4
		c0.2,1.5,1,3,1.5,4.5C89,56.7,89.8,58.5,90.7,60.6z"/>
	<path class="st0" d="M184.3,212.9c3.9,1.4,4.3,4.3,4.1,7.6c1.9-0.1,3.1-1,3.9-2.8c0.6,1.7-0.2,4.2-1.4,5c-0.3,0.2-0.4,0.6-0.6,0.8
		c-0.6,0.4-1.3,1-1.7,0.9c-1.1-0.4-1.5,0.1-1.9,1c-0.5,1.4-1,2.8-1.6,4.4c-0.2,0-0.8,0-1,0c-0.4-2-1-3.8-1.1-5.6c-0.1-2,0.1-4,0.3-6
		c0-0.2,1-0.4,1.8-0.7C184.8,216.3,184.5,214.6,184.3,212.9z"/>
	<path class="st0" d="M471.8,396.4c-0.1-0.2-0.2-0.4-0.4-0.7c3.9-0.7,7.4,0.2,10.6,1.9c-1.3,2.5,1.4,1.1,2,1.7
		c-0.9,1.4-3.4,1.8-4.6,0.7c-0.3-0.3-0.8-0.6-1.1-0.5c-1.7,0.2-3.5,0.4-5.2,0.7c-1.3,0.2-2.6,0.6-3.9,0.9c-0.2,0.1-0.5,0.2-0.7,0.2
		c-1.8-0.7-3.6-1.5-5.6-2.3c1.2-0.9,2.3-1.7,3.4-2.6C468.1,396.4,469.9,396.4,471.8,396.4z"/>
	<path class="st0" d="M325,408.5c-0.6-0.3-1.1-0.6-1.7-0.8c-0.6-0.2-1.2-0.4-1.7-0.8c3.6-1.1,7,0.3,10.7,0.3c-0.8,1.9-1.8,3.1-4,3.3
		c-1,0.1-2,1-3,1.3c-0.9,0.3-1.9,0.3-2.8,0.5c-2.7,0.4-5.5,0.8-8.2,1c-4.6,0.3-9.2,0.5-13.7,0.7c-0.6,0-1.1,0-1.8-0.4
		c0.5-0.2,1.1-0.5,1.6-0.6c1.6-0.2,3.2-0.2,4.8-0.4c5-0.6,10-1.1,14.9-1.8c1.7-0.3,3.3-1,5-1.6C325,408.9,325,408.7,325,408.5z"/>
	<path class="st0" d="M448.1,378.6c-1.5-1.3-0.5-2.2,0.5-3.1c-1.4-2.2-0.6-3.7,1.8-4.3c1.3-0.3,2.5-1.3,3.9-1.6
		c0.8-0.2,1.8,0.3,2.6,0.8c0.3,0.2,0.1,1.2-0.1,1.8c-0.2,0.4-1.2,0.8-1.2,1c0.2,0.8,0.7,1.6,1.2,2.4c0.1,0.2,0.5,0.3,0.8,0.4
		c-0.1,0.2-0.1,0.4-0.2,0.6c-1.1,0.2-2.2,0.4-3.4,0.6c-0.6,1.6-2,2.1-4.4,1.5C449.1,378.7,448.5,378.7,448.1,378.6
		C448,378.6,448.1,378.6,448.1,378.6z"/>
	<path class="st0" d="M145.2,351c-0.1-0.9-0.1-1.8-0.2-2.7c-0.1-1.4,1.1-1,1.8-1.3c0.9-0.5,1.5-1.4,2.6-2.5c1.2,0.2,3,0.6,4.3,0.8
		c0.5-1.3,0.9-2.4,1.3-3.4c0.2,0,0.3,0.1,0.5,0.1c0.4,1,0.7,1.9,1.1,3c-0.6,0.9-1.3,1.9-2.1,3.1c-0.3-0.1-0.6-0.3-1.2-0.6
		c-0.1,1.1-0.3,2.1-0.4,3.1c-0.1,0.8-0.1,1.7-0.2,2.8c-0.3-0.1-1,0-1.5-0.3c-1.3-0.7-2.5-1.5-3.6-2.5c-1-1-1.5-0.3-2.1,0.4
		C145.5,351.1,145.3,351,145.2,351z"/>
	<path class="st0" d="M579.2,259.9c1.4,3.1,4.1,1.2,6,2.6c0,0.2,0,0.7,0,1.5c-0.6-0.1-1.2-0.1-1.7-0.2s-0.9-0.2-1.4-0.3
		c-0.1,0.6-0.4,1.3-0.2,1.8c0.3,0.9,1,1.7,1.6,2.7c-0.3,0.4-0.7,0.8-1,1.1c-1.1-0.2-2.1-0.4-3-0.5c-3.1-0.2-4.5-2.7-6.3-4.6
		c-0.3-0.3,0-1.1,0.2-1.6c0.1-0.1,0.9-0.1,1.3,0.1C575.8,263,578.7,261.6,579.2,259.9z"/>
	<path class="st0" d="M383.5,415.8c3.2,0,6.3,0,9.8,0c-1.5-0.4-2.7-0.7-3.9-1.1c0.1-0.2,0.1-0.4,0.2-0.6c1.9,0,3.8-0.4,5.4,1.2
		c0.3,0.3,1.2,0.3,1.7,0.1c1.3-0.3,2.7-0.4,3.7-1.1c2.6-1.9,5.2-0.4,7.8-0.1c2.1,0.3,4.1,1,6.3,1.6c-2,1.1-4.2,0.9-6.2,0.7
		c-1.9-0.2-3.6-0.1-5.5,0c-6.2,0.3-12.4,0.1-18.6,0.1c-0.2,0-0.5-0.2-0.7-0.3C383.4,416,383.5,415.9,383.5,415.8z"/>
	<path class="st0" d="M664.5,414.6c0.3-0.2,0.5-0.3,1-0.6c-0.8-0.2-1.4-0.5-2-0.6c-2.1-0.2-4.4-1.1-6.1-0.4
		c-3.1,1.2-5.9-0.3-8.8-0.2c-0.2,0-0.4-0.3-0.8-0.6c0.6-0.2,1-0.4,1.4-0.4c4.2-0.1,8.5-0.2,12.7-0.4c0.8,0,1.6-0.5,2.3-0.5
		c0.8,0,1.5,0.4,2.3,0.5c2,0.4,4,0.7,6,1.1c0.8,0.2,1.6,0.6,2.4,1c-1,1.2-4.8,1.6-6.8,0.7c0.4-0.3,0.8-0.5,1.4-1
		c-1,0.1-1.8,0-2.5,0.3c-0.4,0.1-0.5,0.8-1,1.5c-0.2,0-0.8,0-1.4,0C664.6,414.9,664.6,414.8,664.5,414.6z"/>
	<path class="st0" d="M146.4,41.6c-2.8-2.1-4.2-2.3-6.4-0.6c-0.2-0.5-0.4-0.9-0.5-1.3c-0.1-1.3-0.2-2.6,0-3.8
		c0.2-0.9,0.6-2.1,1.3-2.5c0.8-0.6,2.2-0.8,3.1-0.6c0.6,0.1,1,1.4,1.3,2.3c0.5,1.2,1,2.5,1.3,3.8c0.2,0.9,0.3,1.8,0.5,2.6
		C146.9,41.6,146.7,41.6,146.4,41.6z"/>
	<path class="st0" d="M189.4,158.8c-0.2-1-0.3-1.6-0.5-2.3c1.5-0.6,3-1.4,4.7-1.9c0.7-0.2,1.7,0.6,2.5,0.5c2.7-0.1,5.3-0.5,8.6-0.8
		c-0.5,1.6-1,2.8-1.6,4.6c-0.9-1.8-1.7-2-2.8-0.8c-0.3,0.3-1.1,0.9-1.4-0.5c-0.1-0.4-1.6-0.7-2.5-0.8c-1.1-0.1-2.2,0.1-3.3,0
		c-0.9-0.1-1.8-0.6-2.3,0.8C190.7,158.1,190,158.3,189.4,158.8z"/>
	<path class="st0" d="M642.3,409.5c-3.8,2.2-7.6,1.7-11.3,1.1c-0.8-0.1-1.5-1.3-2.2-1.9c1.8-0.6,3.1-1.2,4.6-1.5
		c0.6-0.1,1.3,0,1.9,0.2c1.9,0.5,3.8,1,5.7,1.6C641.4,409,641.8,409.3,642.3,409.5z"/>
	<path class="st0" d="M196.2,191.4c0,0.8,0,1.7,0,2.7c-0.5,0-1,0.1-1.5,0.1c-0.2,0.6-0.3,1.1-0.5,1.6c-1.6-0.6-3.1-1.6-4.6-1.5
		c-1.3,0.1-2.6,1.3-4.1,2c-0.5-0.4-0.6-0.7,0.3-1.7c0.6-0.7,1.7-1.1,1.5-2.4c0-0.3,0.9-0.9,1.3-0.9c1.3,0.1,2.5,0.6,3.8,0.6
		C193.7,192,194.9,191.6,196.2,191.4z"/>
	<path class="st0" d="M194.9,277.2c3.1,3.9,0.4,7.3-0.8,11.2c-0.5-0.3-1.5-0.6-1.6-1C191.9,283.7,192.6,280.3,194.9,277.2z"/>
	<path class="st0" d="M591.9,286.8c-0.7-2-0.5-4,0-6.1c2.8,0.6,2.8,0.6,2.9,3.5c0.1,1.7,0.4,3.4,0.5,5.1c0,0.6-0.1,1.2-0.2,1.8
		c-1-0.5-1.8-1-2.5-1.3C592.3,288.7,592.1,287.7,591.9,286.8L591.9,286.8z"/>
	<path class="st0" d="M190.9,233.1c0.8-0.3,1.2-0.4,1.7-0.6c-0.2,1.8-0.3,3.5-0.5,5.3c-2-0.2-2.2-2.7-3.5-4.2
		c-0.3,0.4-0.5,0.8-0.8,1.1c-0.1-0.1-0.2-0.2-0.2-0.2c0-1.3-0.4-3.2,0.3-3.8c1-0.9,0.5-1.9,0.9-2.7c0.2-0.4,0.7-0.6,1.1-0.9
		c0.3,0.4,0.9,0.8,0.9,1.2C191,229.8,190.9,231.4,190.9,233.1z"/>
	<path class="st0" d="M189,149.2c0.4,1.9,0.1,3.6-1.5,5c-0.8,0.6-1.4,1.5-0.4,2.6c0.3,0.3,0,1-0.2,1.7c-1.1-2.3-2.5-2.4-4.3-1.2
		c-0.1,0-0.9-0.6-0.8-1c0-0.5,0.4-1.3,0.7-1.3c2.7-0.5,3-3.3,4.8-4.7c0.5-0.4,0.6-1.1,0.9-1.7C188.5,148.7,188.7,148.9,189,149.2z"
		/>
	<path class="st0" d="M649,414.1c-0.7,0.3-1.1,0.5-1.5,0.7c0.4,0.2,0.9,0.5,1.3,0.7c-2,0.8-12.1,0.3-13.8-0.6c0-0.2,0-0.3,0-0.5
		c1.8,0.1,3.5,0.2,5.3,0.3c1.8,0,3.7,0,5.5,0c0-0.2,0.1-0.4,0.1-0.5c-1.6-0.4-3.2-0.8-5.1-1.3c0.9-0.6,1.4-1.6,2.4-0.4
		c0.1,0.1,0.8-0.3,1.3-0.4s1.1-0.2,1.7-0.3C645.9,412.9,646.8,413.7,649,414.1z"/>
	<path class="st0" d="M138.7,168.5c-1.7,0.3-3.6,0.2-4.8,1c-1,0.8-1.3,2.7-2.1,4.5c-0.5-2.5-0.5-4.3,0.8-6c0.2-0.3,0.5-0.6,0.5-0.9
		c0.4-1.7,1.6-2,3.1-1.8C137.7,165.6,138.7,167.1,138.7,168.5z"/>
	<path class="st0" d="M180.3,189.1c0.7-0.5,1.1-0.8,1.5-1l0.1,0.1c-0.3,1.7-0.5,3.4-0.8,5.2c-0.1,0.7-0.2,1.4,0,2
		c0.4,1.6-0.6,4.4-2,4.9c0-0.6-0.2-1.2,0-1.6c0.7-1.1,1-1.8-0.6-2.1c-0.1,0-0.3-0.7-0.2-1c0.3-1.1,0.7-2.2,0.9-3.3
		c0.2-1,0.7-2.2,0.3-3c-0.8-1.8,0.2-2.2,1.8-2.9C181,187.4,180.7,188,180.3,189.1z"/>
	<path class="st0" d="M252.3,416.1c-5.4,2.2-10.9-0.1-16.3,0.2C237.3,415.1,244.8,415.1,252.3,416.1z"/>
	<path class="st0" d="M145.6,411.8c5.1,0,9.9,0,14.7,0c0.3,0,0.6,0.1,0.9,0.1C160.2,413.5,147,413.5,145.6,411.8z"/>
	<path class="st0" d="M631.6,411.5c3.1-0.4,6,0.3,8.8,1.5c0,0.2-0.1,0.4-0.1,0.6c-2.3,0-4.7,0.1-7,0
		C632.2,413.5,631,413.1,631.6,411.5z"/>
	<path class="st0" d="M175.1,175.8c1.2,1.3,2.4,1.6,3.9-0.5c0.4,1.3,0.7,2.3,1,3.2c-1.6,0.1-3.2,0.4-4.8,0.2c-0.2,0-0.3-1.8-0.5-2.7
		C174.7,175.9,174.9,175.9,175.1,175.8z"/>
	<path class="st0" d="M589.3,284c-1.1-1-2.1-2-3.4-3.3c1.5-0.1,2.4-0.1,3-0.2c0-1.1,0-2.1,0-3.3C590.9,278.6,591,281.6,589.3,284z"
		/>
	<path class="st0" d="M106.7,110.8c-0.4-0.8-0.7-1.6-1.1-2.3c-0.1-0.2-0.2-0.6-0.4-0.6c-1.7-0.6-2.1-1.9-2.2-3.1
		c-0.5-0.3-0.7-0.5-1-0.7c0.3-0.2,0.7-0.6,1-0.6s0.8,0.3,1,0.6c1.1,1.6,2.3,3.1,3.3,4.8c0.3,0.5,0.1,1.3,0.2,1.9
		C107.2,110.7,106.9,110.8,106.7,110.8z"/>
	<path class="st0" d="M194,238.7c0.5,1.6,1.1,3,1.4,4.4c0.1,0.4-0.8,0.9-1.2,1.3c-0.6-0.9-1.6-1.7-1.8-2.7
		C192.2,240.4,192.7,239.1,194,238.7z"/>
	<path class="st0" d="M746.7,383.5c-1.6,0.9-2.9,1.6-4.3,2.3c-0.3,0.1-0.7,0-1.1,0c0.1-0.3,0.3-0.6,0.3-0.9c0-1.5,1-1.9,2.1-2.4
		C745.3,381.8,746,382.4,746.7,383.5z"/>
	<path class="st0" d="M592.4,292.7c1,0.1,1.6,0.1,2.2,0.2c-0.2,0.9-0.4,1.8-0.6,2.6c0,0.1-0.5,0.2-0.6,0.1c-1-1-2-2-2.8-3.1
		c-0.2-0.3,0.3-1,0.7-1.9C591.8,291.8,592.2,292.5,592.4,292.7z"/>
	<path class="st0" d="M663.4,415c-2.6,0.6-5.2,0.3-8,0.4C656.9,413.8,661.6,413.5,663.4,415z"/>
	<path class="st0" d="M80.1,118c0.7,0.8,1.6,1.4,1.5,1.7c-0.3,0.9-1,1.7-1.5,2.5c-0.5-0.8-1.2-1.6-1.5-2.5
		C78.5,119.5,79.3,118.8,80.1,118z"/>
	<path class="st0" d="M593.5,262.9c-1.4,0.4-2.8,0.9-3.7-0.4c-0.2-0.3,0.3-1.8,0.8-1.9C592.5,259.9,592.6,261.8,593.5,262.9z"/>
	<path class="st0" d="M700.1,376.3c0-1.6,0-2.7,0-3.9c1.5,0.3,3.2,2,2.6,2.7C702.3,375.8,701.1,375.9,700.1,376.3z"/>
	<path class="st0" d="M194.2,150.3c2.1-0.8,2.9,0.8,4.4,2.3c-1.1,0.1-2,0.5-2.5,0.2C195,152.4,193.9,151.8,194.2,150.3z"/>
	<path class="st0" d="M125.8,168.4c-0.8-1.6-1.5-3.1-2-4.2c0.4-0.3,1-0.6,1.6-1C125.9,163.5,126.6,166.9,125.8,168.4z"/>
	<path class="st0" d="M184.5,178.2c-1.3-0.4-2.6-0.8-4.2-1.3c0.8-0.8,1.1-1.4,1.5-1.5c0.5-0.2,1.3-0.2,1.5,0
		c0.6,0.6,0.9,1.5,1.4,2.2C184.6,177.8,184.6,178,184.5,178.2z"/>
	<path class="st0" d="M682.5,413.3c-2.5,0.3-4.6,0.6-6.9,0.9C676.3,412.4,680.2,411.9,682.5,413.3z"/>
	<path class="st0" d="M543.2,406.6c-0.7,0.1-1.5,0.2-2.2,0.4c1.3-2.4,3-2.7,4.6-1.5c0.2,0.1,0.4,0.5,0.3,0.6
		c-0.2,0.3-0.5,0.6-0.7,0.6c-0.6,0-1.2-0.3-1.8-0.4C543.3,406.4,543.2,406.5,543.2,406.6z"/>
	<path class="st0" d="M76.2,124.3c0.7-0.4,1.5-0.9,2.5-1.5c0.3,2.5-1.6,3.3-2.7,4.6c-0.2-0.1-0.3-0.1-0.5-0.2
		C75.8,126.2,76,125.3,76.2,124.3z"/>
	<path class="st0" d="M167.4,162.5c0,2.1,0,4.2,0,6.4c-0.2,0-0.5,0-0.7,0c0-2.1,0-4.2,0-6.4C166.9,162.5,167.2,162.5,167.4,162.5z"
		/>
	<path class="st0" d="M198.1,230.8c0,1.1,0,2.2,0,3.4c-0.1,0.1-0.3,0.2-0.4,0.3c-0.6-0.6-1.6-1.2-1.6-1.9s0.9-1.5,1.3-2.2
		C197.6,230.6,197.9,230.7,198.1,230.8z"/>
	<path class="st0" d="M199.2,229.4c-1.2-2.5,1.7-3.3,2-5.3c0.2,0.5,0.7,1.1,0.5,1.4C201,226.8,200.1,228,199.2,229.4z"/>
	<path class="st0" d="M569.5,260.5c0.8,0.7,1.2,1.1,1.7,1.5c-0.6,0.4-1.1,1.1-1.7,1.1c-0.5,0.1-1-0.6-1.5-1
		C568.4,261.7,568.9,261.3,569.5,260.5z"/>
	<path class="st0" d="M337,403.9c0.1-0.1,0.3-0.3,0.4-0.4c0.2,0,0.4-0.1,0.5,0c0.7,0.4,1.8,0.8,1.9,1.2c0.1,1.4-1.2,0.9-2,1
		C336.3,405.7,337,404.6,337,403.9z"/>
	<path class="st0" d="M250.8,237.2c0,2.3,0,4.2,0,6.1C249.5,242.5,249.4,239.3,250.8,237.2z"/>
	<path class="st0" d="M633.3,415.3c-2,0-4,0-5.9,0C629.4,414.2,631.3,413.9,633.3,415.3z"/>
	<path class="st0" d="M57.2,397.3c-1.2-0.4-2.5-0.7-3.9-1.1c1.1-1.3,2.2-1.1,3.3-0.6c0.5,0.2,0.7,0.9,1.1,1.4
		C57.5,397,57.4,397.2,57.2,397.3z"/>
	<path class="st0" d="M149.5,410.3c1.8,0,3.7,0,5.5,0c0,0.2,0,0.4,0,0.5c-1.8,0-3.7,0-5.5,0C149.5,410.6,149.5,410.4,149.5,410.3z"
		/>
	<path class="st0" d="M564.8,366.7c-1.6-0.7-2.8-1.2-4.3-1.9C562.6,363.5,564.2,364.2,564.8,366.7z"/>
	<path class="st0" d="M604.2,394.7c-1.4,0-2.5,0-3.6,0c-0.1-0.2-0.1-0.4-0.2-0.5c1.1-0.5,2.2-0.9,3.6-1.5
		C604.1,393.6,604.1,394.1,604.2,394.7z"/>
	<path class="st0" d="M72,408c1.2-0.2,2.4-0.3,3.7-0.4c0.2,0,0.5,0.4,0.5,0.5c0,0.3-0.1,0.7-0.4,0.9C75.2,409.7,72.7,409,72,408z"/>
	<path class="st0" d="M591.8,286.7c-0.5,0.9-0.9,1.8-1.5,3c-0.8-1.1-1.3-1.8-2.2-2.9C589.7,286.8,590.8,286.8,591.8,286.7
		C591.9,286.8,591.8,286.7,591.8,286.7z"/>
	<path class="st0" d="M329.5,240.9c-0.9-0.1-1.7-0.2-2.6-0.3c-0.1-0.2-0.1-0.5-0.2-0.7c0.7-0.4,1.4-1,2.1-1.1c0.3,0,0.7,1.1,1.1,1.6
		C329.8,240.6,329.6,240.8,329.5,240.9z"/>
	<path class="st0" d="M219.5,180.7c0-0.7-0.1-1.3,0-2c0.1-0.4,0.5-0.8,0.8-1.1c0.3,0.4,1,0.9,0.9,1.2c-0.2,0.8-0.7,1.4-1.1,2.1
		C219.9,180.9,219.7,180.8,219.5,180.7z"/>
	<path class="st0" d="M772,374.8c-1.2,0.8-2.3,1.6-3.5,2.4C768.4,375.3,769.8,374.2,772,374.8z"/>
	<path class="st0" d="M118.4,160.1c-0.7-0.9-1.5-1.8-2.1-2.8c-0.1-0.2,0.1-0.6,0.2-0.9c0.1-0.1,0.5-0.1,0.6,0c0.7,1,1.3,2.1,2,3.1
		C118.8,159.7,118.6,159.9,118.4,160.1z"/>
	<path class="st0" d="M227.8,187.7c-0.3,0.9-0.5,1.8-0.8,2.7c0,0.1-0.9,0.1-0.9,0c-0.2-0.6-0.5-1.5-0.3-1.7
		C226.3,188.2,227.1,188,227.8,187.7L227.8,187.7z"/>
	<path class="st0" d="M241.1,196.7c-0.3-0.8-0.7-1.6-0.9-2.4c-0.1-0.3,0.3-0.8,0.4-1.1c0.2,0.3,0.4,0.5,0.6,0.8
		c0.3,0.4,0.6,0.9,0.7,1.4c0.1,0.5-0.2,1-0.3,1.5C241.4,196.8,241.2,196.7,241.1,196.7z"/>
	<path class="st0" d="M320.5,416.1c1.8,0.3,3.5,0.5,5.3,0.8c0,0.2,0,0.3-0.1,0.5c-1.8-0.1-3.6-0.3-5.4-0.4
		C320.4,416.6,320.4,416.4,320.5,416.1z"/>
	<path class="st0" d="M120.6,160.4c2.4,1.3,2.7,2.2,1.5,3.5C121.6,162.8,121.2,161.8,120.6,160.4z"/>
	<path class="st0" d="M316.1,405.6c1,0,2.1,0,3.1,0c0,0.2,0,0.5,0,0.7c-1,0-2.1,0-3.1,0C316.1,406.1,316.1,405.8,316.1,405.6z"/>
	<path class="st0" d="M580,273.7c1.8,0.6,1.9,1.4,0,3.1C580,275.6,580,274.7,580,273.7z"/>
	<path class="st0" d="M594.9,393.6c0.5-0.6,1-1.2,1.6-1.8c0.2,0.1,0.4,0.1,0.5,0.2c0,0.6,0.2,1.3-0.1,1.6c-0.3,0.4-1,0.4-1.5,0.6
		C595.2,394,595,393.8,594.9,393.6z"/>
	<path class="st0" d="M112.5,147.3c0.4,0.9,0.9,1.7,1.3,2.6c-0.1,0.1-0.2,0.3-0.2,0.4c-0.6-0.4-1.3-0.7-1.7-1.3
		c-0.2-0.4,0.1-1.1,0.1-1.7C112.2,147.2,112.4,147.2,112.5,147.3z"/>
	<path class="st0" d="M103,130.4c-0.6-0.1-1.4,0-1.8-0.3c-0.3-0.2,0-1.1,0-1.7c0.2,0,0.3,0,0.5-0.1c0.4,0.5,0.9,1,1.3,1.4
		C103,130,103,130.2,103,130.4z"/>
	<path class="st0" d="M106.2,387.1c0.6-0.5,1.2-1,1.8-1.4c0.2,0.1,0.3,0.2,0.5,0.3c-0.1,0.6-0.1,1.4-0.5,1.6
		c-0.4,0.3-1.1,0.1-1.7,0.1C106.3,387.4,106.3,387.2,106.2,387.1z"/>
	<path class="st0" d="M187.1,181.7c0.3,2.6-0.1,2.9-2,2.2C185.7,183.2,186.2,182.7,187.1,181.7z"/>
	<path class="st0" d="M115.1,150.8c0.5,0.6,1,1.2,1.4,1.8c-0.1,0.2-0.2,0.4-0.3,0.5c-0.6-0.2-1.3-0.3-1.6-0.7c-0.3-0.3,0-1,0-1.5
		C114.8,150.9,115,150.8,115.1,150.8z"/>
	<path class="st0" d="M139.4,353.2c0.4-0.5,0.7-1.1,1.3-1.4c0.3-0.2,0.9,0.2,1.8,0.4c-1.2,0.7-1.9,1.1-2.6,1.6
		C139.7,353.5,139.5,353.3,139.4,353.2z"/>
	<path class="st0" d="M418.7,342c0.7-0.8,1.7-1.5,1.7-2c-0.2-1.9-0.8-3.7-1.4-5.8c-0.9,1.6-2.1,2.5-1.9,4.6c0.1,2.3,1.2,4.4,0.3,7.1
		C418.5,345,418.5,345,418.7,342z M406.9,327.1c-0.2,0.1-0.5,0.1-0.7,0.2c-0.2,1.6-0.4,3.2-0.7,5.2c2.2-0.1,4.1-0.3,6-0.4
		C411.1,328.9,407.8,329.2,406.9,327.1z M371.5,320.3c-1.3,0.8-2.4,1.5-3.7,2.3C370.3,323.9,371.6,323.1,371.5,320.3z"/>
	<path class="st0" d="M375.9,391.4c-2.1,1.6-3.1-0.2-4.4-0.7c-0.1,0-0.1-0.7,0-0.8c0.4-0.2,1.1-0.6,1.4-0.5
		C373.9,390,374.8,390.7,375.9,391.4z"/>
	<path class="st0" d="M364.1,391.4c1.1,0.4,2,0.8,2.9,1.2c0.1,0,0,0.4,0,0.6c-0.2,0-0.4-0.1-0.6-0.1
		C365.4,393.1,364.1,393.7,364.1,391.4z"/>
	<path class="st0" d="M580.3,5.5c-0.6,0-1.3,0-1.9,0c-0.2,0.6-0.4,1.1-0.5,1.5c-0.7-0.4-1.3-0.7-1.9-1c0.2-0.5,0.5-1.1,0.8-1.6
		c1.1,0.2,2.3,0.5,3.5,0.7C580.3,5.3,580.3,5.4,580.3,5.5z"/>
	<path class="st0" d="M418.7,342c-0.2,3-0.2,3-1.3,3.9c0.9-2.7-0.2-4.8-0.3-7.1c-0.1-2.1,1.1-3,1.9-4.6c0.6,2.2,1.2,4,1.4,5.8
		C420.4,340.5,419.5,341.2,418.7,342z"/>
	<path class="st0" d="M406.9,327.1c0.9,2.2,4.2,1.8,4.6,4.9c-1.9,0.1-3.8,0.2-6,0.4c0.3-1.9,0.5-3.5,0.7-5.2
		C406.4,327.2,406.7,327.1,406.9,327.1z"/>
	<path class="st0" d="M371.5,320.3c0.1,2.8-1.3,3.6-3.7,2.3C369.1,321.8,370.2,321.1,371.5,320.3z"/>
</g>
<ellipse transform="matrix(0.7071 -0.7071 0.7071 0.7071 -135.8227 420.6181)" class="st1" cx="439.8" cy="374.3" rx="8.9" ry="15.6"/>
<text transform="matrix(1 0 0 1 457.5999 385.0224)" class="st2 st3">United Kingdom</text>
<polygon points="264.6,263.6 266.9,268.2 271.9,268.9 268.3,272.5 269.1,277.5 264.6,275.1 260.1,277.5 260.9,272.5 257.3,268.9 
	262.3,268.2 "/>
<text transform="matrix(1 0 0 1 276.5395 274.846)" class="st2 st3">India</text>
<text transform="matrix(1 0 0 1 304.2819 323.146)" class="st2 st3">Afghanistan</text>
<circle cx="296.1" cy="320.2" r="2.8"/>
<text transform="matrix(1 0 0 1 7.7346 415.1428)" class="st2 st3">Gall-Peters Reversed</text>
<text transform="matrix(1 0 0 1 688.0065 15.8823)" class="st2 st4">Gall-Peters Reversed</text>
</svg>
