<?xml version="1.0" encoding="utf-8"?>
<!-- Generator: Adobe Illustrator 24.1.3, SVG Export Plug-In . SVG Version: 6.00 Build 0)  -->
<svg version="1.1" id="Layer_2_1_" xmlns="http://www.w3.org/2000/svg" xmlns:xlink="http://www.w3.org/1999/xlink" x="0px" y="0px"
	 viewBox="0 0 792 422.7" style="enable-background:new 0 0 792 422.7;" xml:space="preserve">
<style type="text/css">
	.st0{fill:#608161;}
	.st1{font-family:'HalyardMicroMedium';}
	.st2{font-size:8px;}
	.st3{font-size:10px;}
	.st4{fill:none;stroke:#000000;stroke-width:2;stroke-miterlimit:9.9997;}
	.st5{fill:none;stroke:#000000;stroke-width:2;stroke-miterlimit:10.0006;}
</style>
<g>
	<path class="st0" d="M413.7,393.3c-0.4-0.1-0.8-0.1-1.1,0c-1.5,0.1-2.8-0.2-3.3-1.9c-0.1-0.2-0.3-0.6-0.4-0.6
		c-1.8,0.2-1.8-1-1.9-2.2c-0.1-1.3-1.1-1.6-2.1-1.9c-0.2-0.1-0.5,0.1-0.7,0.2c-0.2,0.2-0.3,0.5-0.2,0.7c0.5,1,1.2,2,1.7,3
		c0.7,1.5,0.4,2.6-1.1,3.5c-0.4,0.3-0.9,0.5-1.4,0.7c0,0.5,0,1,0,1.5c0.5,0.2,0.9,0.4,1.4,0.7c0.2,0.1,0.2,0.4,0.3,0.6
		c0,0.1-0.1,0.2-0.2,0.3c-1.4,0.2-2.8,0.5-3.9-0.7c-0.5,0-1,0-1.5-0.1c-0.3,0.2-0.5,0.5-0.8,0.7c-0.6,1-1.8,1.3-2.4,2.4
		c-0.6,1-1.8,1.4-3,1.4c-1,0.3-1.9,0.6-2.9,1c-1.6,0.6-3,1.4-4.1,2.7c-0.6,0.7-0.5,1.3,0.5,1.7c0.4,0.1,0.7,0.2,1.1,0.2
		c1.4,0.7,3,0.9,4.6,0.6c0.9-1.1,2.3-1.6,3-2.8c0.2-0.4,0.7-0.8,1.1-0.9c2.1-0.4,3.5-1.9,5.2-3c1.3-0.8,5-1.6,6.8-1.3
		c0.1,0,0.2,0.2,0.2,0.3l0,0c0.1-0.2,0.4-0.4,0.4-0.6c0.4-1.9,1.4-3.2,3.5-3.6c0.6-0.1,1.1-0.7,1.5-1.1c0.2-0.2,0.2-0.7,0.2-1
		C414.3,393.6,413.9,393.4,413.7,393.3z"/>
	<path class="st0" d="M407,410.2c0.3,0,0.5,0,0.8,0C407.5,409.7,407.3,409.7,407,410.2z"/>
	<path class="st0" d="M541.3,6.9c0,0-0.2-0.1-0.3-0.1c0,0.1-0.1,0.2-0.1,0.3c0,0,0.2,0.1,0.3,0.1C541.2,7.1,541.3,7,541.3,6.9z"/>
	<path class="st0" d="M345.2,130.6L345.2,130.6L345.2,130.6L345.2,130.6z"/>
	<path class="st0" d="M434.9,99.6c-0.2,0.1-0.4,0.3-0.6,0.5c-1,1.3-0.9,0.9-2.3,0.2c-1.6-0.7-2.3-2.5-3.8-3.1
		c-1.7-0.7-2.7-1.9-3.4-3.5c-0.3-0.7-0.8-1.3-1.3-1.9c-3.1-3.9-6-8-9.2-11.9c-2-2.5-4.5-4.1-6.8-6.1c-0.4-0.3-1.1,0-1.2,0.5
		c-0.1,0.8-0.2,1.5,0,2.3c0.2,0.6,0.3,1.2,0.4,1.9c0,0.2-0.1,0.5-0.3,0.6c-0.2,0.1-0.6,0.1-0.7-0.1c-0.4-0.4-0.6-0.8-0.9-1.2
		c-0.8-0.9-1.1-1.6,0-2.6c0.6-0.5,0-1.2-0.4-1.7c-0.5-0.6-1.1-1.1-2-0.6c-1.1,0.7-1.9,0.4-2.8-0.4c-0.4-0.4-0.8-0.6-1.1-1
		c-0.9-1.1-2-1.4-3.4-1c-1.3,0.3-2.5-0.6-2.8-1.9c-0.1-0.5-0.1-1,0-1.5c0.6-3.2-1-5.4-3.3-7.3c-1-0.9-2.1-1.2-3.5-0.8
		c-2.6,0.8-2.6,0.7-3.8-2c-0.2-0.5-0.4-0.9-0.7-1.4c-0.8-1.4-1.4-2.7-1.2-4.4c0.2-1.3-0.6-2.3-1.6-2.9c-2.7-1.7-5.3-3.7-8.6-4
		c-0.7,0.5-0.4,1.6-1.1,1.9c-1.8,1-1.9,2.5-1.9,4.2c-0.1,1.7-0.3,1.8-2,2.3c-0.5,0.1-1,0.4-1.5,0.3c-1.4-0.1-2.3,0.6-3.2,1.6
		c-1,1-0.7-0.9-1.6-0.8c-0.7,1.4-1.5,2.9-2.3,4.4c-0.2,0.4-0.5,1-1.1,0.7c-0.2-0.1-0.4-0.7-0.4-1c0.2-1.1,0.5-2.3,0.8-3.4
		c0.4-1.6,1-3.2,1.3-4.8s-1.1-2.6-2.6-2.1c-1.1,0.4-2.2,0.6-3.3,1.1c-0.7,0.3-1.7,0.8-1.4,1.6c0.8,2.1-0.9,2.1-2,2.5
		c-1.2,0.5-2.7,0.8-3.6-0.2c-1.5-1.6-3-1.1-4.6-0.5c-0.8,0.3-1.5,1.1-2.5,1c-1,0-2,0-3.1,0c-0.9,0-1.3,0.4-1.8,1.2
		c-1.1,1.8-2.8,2.8-5.5,3c2.1-2.5,4.3-3.9,6.3-5.7c1-1.6,1.1-1.6,1.9,0c0.6-0.2,1.3-0.4,1.9-0.7c0-0.4,0.1-0.9-0.1-1.1
		c-0.9-0.8-1.1-1.5,0-2.4c1-0.8,1.6-2.1,1.6-3.4c0-0.5,0-1.2-0.3-1.4c-0.9-0.9-1.9-1.7-2.9-2.4c-0.8-0.5-1.7,0.2-2.6,0.4
		c-0.8,0.3-1.8,0.2-2.5,0.8c-0.4,0.4-0.7,0.1-0.8-0.3c-0.2-0.9-1.2-1.1-1.4-2.2c-0.2-1.3-1.6-1.6-2.7-0.8c-1.3,1.1-2.7,2.1-3.1,3.8
		c-0.3,1.2-1.1,1.5-2.1,2c-1.2,0.6-2,2-3.7,0.9c-0.3-0.2-1,0.1-1.4,0.3c-1.7,0.8-3.3,1.9-5.1,2.5c-1.7,0.6-3.3,1.5-4.9,2.1
		c-1.8,0.7-2.8,1.6-2.9,3.6c-0.1,1.5-0.7,1.8-2.4,1.5c-1.3-0.2-2.6-0.3-3.8-0.2c-0.7,0-1.4,0.2-1.7,0.8c-0.9,1.7-2.7,3.4-0.7,5.5
		c0.1,0.1,0.1,0.3,0.1,0.4c-0.1,0.2-0.1,0.5-0.3,0.6c-0.2,0.1-0.6,0.1-0.7,0c-0.8-1-1.2-2.2-2.3-3c-0.9-0.7-0.8-0.8-2,0.2
		c-0.6,0.6-1,0.5-1.3-0.3c-0.1-0.3-0.1-0.8-0.2-1.1c0.6-1.2,0.6-1.2,0.1-2.5c0,1-0.1,1.7-0.1,2.5c-0.5,0.3-1,0.5-1.5,0.8
		c-1.8,1-3,2.3-3.2,4.4c-0.1,0.8-0.4,1.4-1.1,1.9c-0.9,0.6-1.3,1.6-1.6,2.6c-0.4,1.4-0.5,1.5,0.9,2c1.1,0.4,1.8,1,2.3,1.9
		c0.3,0.6,0.2,1.3-0.3,1.8c-0.1,0.1-0.6,0.2-0.6,0.1c-0.1-0.2-0.1-0.5-0.2-0.7c-0.1-0.8-0.2-1.5-1.2-1.7s-1.8,0.1-2.3,0.9
		c-0.1,0.1-0.2,0.2-0.2,0.3c-0.6,2.6-2.9,3.3-4.9,4.4c-1.3,0.6-2.2,0.3-3.2-0.3c-0.8-0.5-1.3-1.2-0.9-1.4c0.6-0.2,0.8,0.4,1.2,0.6
		c0.3,0.1,0.8,0.3,1.1,0.1c2-0.8,3.9-1.9,5.3-3.7c0.2-0.3,0.5-0.7,0.5-1c-0.1-2.8,2-4.6,3.1-6.9c0.3-0.7,1-1.3,1.1-2
		c0.1-1.9,1.4-2.9,2.8-3.8c1.5-1.5,0.1-3.4,0.5-5.1c0.1-0.3-0.7-0.4-1-0.2c-1.2,0.9-2.5,1.8-3.7,2.8c-1.2,1.1-2.3,2.4-4,2.9
		c-0.6,0.2-1.1,0.7-1.2,1.4c-0.3,1.4-1.6,2-2.2,3.1c-0.7,1.3,0.4,2.8-0.2,4.1c-0.1,0.2-0.3,0.4-0.5,0.4c-0.3,0.1-0.5,0-0.6-0.3
		c-0.4-1.9-1-3.8-2.2-5.3c-1.1-1.5-2.1-2.9-2.7-4.6c-0.1-0.2-0.5-0.5-0.5-0.4c-0.3,0.2-0.8,0.4-0.8,0.7c-0.2,1.1-0.2,2.3-0.4,3.4
		c-0.1,1-0.8,1.2-1.6,0.7c-1.2-0.8-4-1.7-5.9-1.9c-0.8-0.1-0.6-0.5-0.4-1c0.5-1.4,0.4-1.5-0.6-1.5c-3.2,0-6.4-0.6-9.6,0.4
		c-0.5,0.2-1-0.1-1.1-0.7c-0.1-0.6,0.1-1,0.6-1.2c0.2-0.1,0.5-0.1,0.7-0.2c1.7-0.7,1.9-1.4,0.8-2.9c-0.3-0.4-0.7-0.8-1.1-1.2
		c-1,2-3.1,2.7-4.3,4.4c-0.3,0.4-1,0.3-1.3-0.1c-0.6-0.8-1.5-0.8-2.4-0.9c-2.4-0.1-2.4-0.2-5,1.2c-0.4-0.8-0.8-1.6-1.2-2.3
		c-0.3-0.6-1.2-0.5-1.6,0.1c-0.2,0.3-0.3,0.7-0.3,1.1c0,0.3-0.2,0.5-0.5,0.5c-0.2,0-0.5-0.3-0.5-0.4c-0.4-1.5,0-2.9,1.3-3.8
		c1.1-0.8,1.9-1.8,2.9-2.8c0.7,1.5,1.3,2.9,1.9,4.1c0.7,1.3,1.8,1.7,3.3,1.5c1.7-0.2,3.1-1.2,3.4-2.8c0.4-2.4,1.1-5.1-0.9-7.3
		c-0.6-0.7-1.1-1.3-0.7-2.4c0.5-1.1-0.6-1.2-1.3-1.5c0.2-0.2,0.3-0.4,0.5-0.6c0.4-0.3,1-0.5,1.2-0.9c0.4-0.7,0-1.6-0.3-2.2
		c-0.5-0.8-1.2-1.7-2-2.2c-4.4-2.6-9.2-4-14.2-5.1c-0.2,0-0.6,0-0.6,0.1c-0.7,1.6-2.1,1.1-3.3,1.1c-1.5,0-3.1,0-4.6-0.1
		c-1.8-0.1-3.6,0.4-5.2-0.8c-0.2-0.2-0.7-0.1-1.1-0.1c-1.4,0.3-2.8,0-4.1-0.4c-2.8-0.9-5.7-1.3-8.7-1l0,0c-0.5,1-1.6,1.1-2.5,1.5
		s-1.9,0.7-2.8,1.2c-0.6,0.3-0.7,1.4-0.3,2c0.5,0.6,1.1,1,1.8,1.3c0.8,0.3,1.7,0.5,2.4,1.1c0.5,0.4,0.2,0.9,0.1,1.4
		c-0.8-0.1-1.5,0.2-2.1,0.7c-1.4,1.1-2.9,2.1-4.3,3.1c-0.4,0.7-1,0.9-1.7,1c0.1,0.4,0.2,0.9,0.4,1c1.4,0.6,2.9,1.1,4.1,2.1
		c0.5,0.5,1.2,0.4,1.8,0.1c0.7-0.3,1.4-0.7,2.1-0.9c1.3-0.4,2.6-1.1,4.1-0.3c0.4,0.2,1,0.1,1.5,0.1c1.2,0.1,2.4-0.1,2.9-1.4
		c0.8-1.8,2.4-2.3,4-2.5s3.4-0.3,5,0.3c1.8,0.7,3.5,0.6,5.2,0c1.6-0.6,3.3-0.6,4.4,1.1c1-0.7,2-1.4,3.1-2.1c-1,0.6-2,1.4-3.1,2.1
		c-0.5,1.9-0.6,2-1.7,1.9c-1.7-0.1-3.3-0.1-5-0.3c-3-0.5-5.5,0.7-7.9,2.2c-1.7,1.1-1.8,3.3-0.1,4.4c1.5,1,3,1.9,4.6,2.8
		c0,0.1,0,0.3,0,0.4c-0.4,1.6-0.4,1.7-1.6,1.3c-0.7-0.3-1.4-0.6-2.1-0.9c-1.2-2.1-2.7-3.7-5.5-3.2l0,0c-0.3-0.2-0.5-0.6-0.8-0.6
		c-0.3-0.1-0.8,0-0.9,0.2c-0.2,0.5,0.3,0.5,0.6,0.5s0.7,0,1.1,0c-0.1,1-0.2,1.9-1.3,2.5c-1.6,0.8-2,0.6-2-1.3c0-0.8-0.4-1.1-1.1-1.2
		c-1.3-0.1-2.5-0.1-3.7,0.6c-0.7,0.4-1.3,0.7-2,1.1l0,0c-1.2-0.1-2.3-1-3.6-0.9c-0.2-0.3-0.7-0.6-0.6-0.8c0.3-1.2-0.1-1.9-1.1-2.4
		c-1.3-0.7-2.5-1.6-3.8-2.4c-0.1-0.9,1-2-0.2-2.8c-0.2,0-0.4-0.1-0.6-0.2c-0.2-0.1-0.5,0-0.7,0h0.1l0,0c-0.1-1.1-0.4-2.3,0.7-3.2
		c-0.1-0.6-0.3-1.2-0.9-1.4c-1.1,0.1-2.3,0.7-3.2-0.6c-1.7-3-4.1-4.6-7.7-3.9c-0.5,0.1-1-0.1-1.5-0.1l-0.3-0.1
		c-0.4-0.5-0.8-0.9-1.3-1.4c0.8-0.4,1.6-0.8,2.5-0.4c0.6,0.3,1.4,0.3,1.7-0.3c1-2,3.2-2.3,4.8-3.6c0.3,0.5,0.6,1,0.9,1.4
		c0.3,0.6,0.5,1.2,0.8,1.7c0,0,0.2,0,0.4,0c0.1,0,0.2-0.2,0.2-0.2c-0.1-0.9-0.3-1.7-0.4-2.6c-0.1-1.8,0.7-3,2.3-2.7
		c2.1,0.3,3.2-1.1,4.7-1.9c1.2-0.6,0.7-1.4,0-2.1c-1.4-0.1-2.8-0.4-4.1-0.2c-1.8,0.3-3.8-0.1-5.3,1.6c-0.2,0.3-0.9,0.1-1.4,0.2
		c0.3-0.7,0.9-1.4,0.8-2.3c-0.2,0-0.5-0.1-0.7-0.1c0.2,0,0.5,0.1,0.7,0.1c0-0.5,0-1,0-1.6c-1-0.2-2.2,0.2-2.9-0.7
		c-0.8-1-1.9-1-2.8-0.6c-1.4,0.7-2.7,0.5-4.1-0.1c-0.5-0.2-0.9-0.4-1.4-0.5c-0.6-0.1-0.9,0.3-0.9,0.9c-0.1,1.4,0.9,2.6,0.9,4.4
		c0.4-1.2,1-2.1,1.8-0.8c0.8,1.3,1.8,1.3,3,1.2c1.1-0.1,2.3-0.4,3.4-0.6c0.1-0.4,0.1-0.7,0.2-1.1c0,0.4-0.1,0.7-0.2,1.1
		c0.6,0.8,1.5,0.7,2.3,0.7c-0.7,2.5-1.2,2.8-3.2,1.5c-0.6-0.4-1.1-0.7-1.7-0.5c-0.6,0.2-1.2,0.6-1.8,0.2c-1.1-0.6-1.6-0.3-1.9,0.9
		c-0.1,0.5-0.5,0.4-0.9,0.3c-0.7-0.3-1.4-0.5-2.2-0.8c-0.2-0.1-0.5,0-0.7,0.1c-0.4,0.3-0.2,0.7,0,1c1.9,1.9,3.1,4.3,4.7,6.4
		c-1.7,0.3-3.2-0.3-4.2-1.5c-0.8-0.9-1.1-2.1-2.7-1.7c-0.2,0.1-0.6-0.4-0.8-0.7c-0.3-0.5-0.5-1.2-0.8-1.7c-0.6-0.8-1.8-0.7-2.3,0
		c-0.2,0.3-0.4,0.7-0.5,1c-1.1,2.2-2.7,3.6-5.2,3.8c-0.8,0.1-1.5,0.4-2.2,0.5c-1.3,0.2-2.6,0.2-3.7-0.7c-0.4-2-1.2-4-1.3-6
		c-0.1-2.4-1.3-3.1-3.4-3.2c-0.4,0.6-1,0.7-1.6,0.8l0,0c-1.6-0.4-3,1.1-4.4,0.5c-3-1.1-5.6,0-8.3,0.9c-1.1,0.4-1.2,0.6-0.4,2.3
		c0,0.7-0.2,1.2-0.9,1.6c-1.2,0.8-1.2,0.8-0.5,2.3c0.5,0.4,1.1,0.8,1.3,1.3c0.9,2.8,3.2,3.7,5.8,4.2c0.5,0.1,0.9,0.4,1.4,0.6
		c2.6-0.8,5.2-1.2,7.6,0.4c1,0.7,2.1,1.4,3.1,2.1c0.3,0,0.5,0.1,0.8,0.1c0.2,0,0.5-0.1,0.7-0.2c0.9,0,1.7,0,2.6,0
		c0.9,0,1.3,0.6,1.2,1.5c0.1,0.2,0.3,0.4,0.3,0.7c0.2,2.1,1.7,3.2,3.4,4.1c0.4,0.3,0.8,0.6,1.2,0.9c1.2,0.9,1.6,2,0.5,2.8
		c-2,1.4-2.5,3.7-3.8,5.6c0.1,2.3-0.4,4.5-1.4,6.6c-0.8,1.7-2,2.6-3.9,2.4c-0.1,0.1-0.2,0.3-0.4,0.4c1,1.4,2.6,0.5,3.9,1
		c0.6,0.3,0.9-0.7,1.3-1.2c0.2-0.2,0.7-0.4,1-0.4c0.6,0.1,1,0.6,0.8,1.1c-0.5,1.8,0.8,1.5,1.7,1.5c-0.2-2.6,0.5-5.2,0.8-7.8
		c0.1-1.1,0.7-1.9,1.5-2.5c0.7-0.5,1.4-1,1.5-2.1c0-0.7,0.3-1.3,1-1.4c0.7-0.1,1.4-0.8,2.1-0.4c0.3,0.2,0.5,0.5,0.8,0.8
		c-1.3,0.7-0.3,1.7-0.3,2.6l0,0c-0.9,1.1-2.3,1.9-2.1,3.7c-0.9,0.8-0.8,1.7-0.1,2.6c-0.2,0.4-0.3,0.9-0.5,1.3
		c-0.7,2.9-0.7,2.9-3.2,3.2c-0.5,0.1-1,0-1.5,0c-1,3-2.1,6-4.5,8.2c-1,1-0.9,2.1-0.8,3.2c0.1,0.6,0.7,0.9,1.1,0.6
		c1.3-0.9,2.3-1.3,3.7,0c0.8,0.7,2.1,0.1,2.5-1c0.2-0.5,0.1-1,0.3-1.5c0.4-1,0.6-2.2,1.6-2.8c0.5,0.4,0.2,0.7,0.2,1.1
		c-0.1,1.2,0.1,1.6,1.1,1.3c1.8-0.6,2.2,0.9,3,1.7c0.4,0.4,0.1,1-0.3,1.4c-0.4,0.4-0.8,0.7-1.2,1l0,0c-0.7,0.3-1.2,0.8-1.3,1.7
		c-0.1,1.2-0.9,0.9-1.6,0.6l0,0c0-0.1-0.1-0.2-0.1-0.3c0,0-0.1,0-0.2,0c0.1,0.1,0.2,0.2,0.3,0.3c0.1,1.4-0.7,2.4-1.4,3.4
		c-0.4,0.6-0.8,1.5-0.2,2.1c1.1,1.2,0.1,2.4,0.3,3.6c0.7,0.3,1.4,0.7,2.1,0.8c1.1,0.2,1.6,0.7,1.6,1.7c0,0.4,0.1,0.8,0,1.1
		c-0.1,1.7,0.8,2.9,2.3,3.1c2,0.3,2.8,1.8,3.9,3c-0.6,0.4-1.3,0.5-1.6,1.1c-0.8,0.2-1.2,0.7-1.6,1.4c0.1,1.4-0.1,2.6-1.4,3.4
		c-0.2,0.3-0.3,0.6-0.5,0.9c0.2-0.3,0.3-0.6,0.5-0.9l0,0c1.3-0.8,1.5-2,1.4-3.4c-1.7,1-3.7,1.1-5.5,1.7c-0.2,0-0.5,0-0.7-0.1
		c-1.2,0.6-2.4,1.3-3.8,1.4l0,0c-2.1-0.8-3.8-1.8-4.1-4.4c-0.2-1.5-1.5-2.7-3.1-3c-1.3-0.3-1.9-1.1-2.4-2.2c-1.1-2.3-1.4-4.9-3-7
		c-1.7,0.3-3.1,1.1-4.5,2.1c1.4-0.9,2.8-1.8,4.5-2.1c0.3-0.8-0.1-1.5-0.3-2.2c-0.3-0.9-0.7-1.9-0.4-3c0.6-1.9-0.5-3.1-2.1-4.1
		c-1.4-0.9-2.8-1.2-4.2,0.1c-0.3,0.3-0.9,0.5-1.4,0.6c-1.5,0.3-2.7-0.5-2.5-2c0.3-1.9-0.1-3.5-0.9-5.2c-0.4-0.9-0.3-1.7,0.3-2.5
		c1.4-1.9,1.1-3.9,0.1-5.8c-0.5-0.9-0.8-1.9-0.8-2.9c0.2-1,1.3-1.6,1-2.8c-0.2-0.9,0.5-1.1,1.2-0.8c1.6,0.7,3,0.7,4.1-0.8
		c0.6-0.7,1.3-0.7,2.1-0.6c0.4,0,0.7-0.2,0.8-0.7c0.2-1.3,0.4-2.6-1-3.4c-0.8-0.5-1.2-1.3-1.5-2.1c-0.2-0.7-0.5-1.5-1-2
		c-1-1-1.6-2.2-1.9-3.6c-0.2-1-0.9-1.9-2.2-1.8v-0.1l0,0c-0.3-1.9-1.2-3.5-2.9-4.5c-0.8-0.5-1.2-1.3-1.8-1.8
		c-0.8-0.6-1.7-1.1-2.5-1.7c-0.9,0.4-1.7,0.9-2.7,1.1c0.9-0.2,1.8-0.7,2.7-1.1c-0.2-1-0.4-1.9-0.7-2.9c-0.3-0.9-0.1-1.7,0.8-2.2
		c-0.2-0.3-0.4-0.5-0.6-0.8c-0.4-0.6-1.1-0.7-1.7-0.8c-0.5,0.1-1,0.2-1.4,0.3c-0.8-0.1-1.5-0.2-2.3-0.4c-0.9-1.2-2-2.4-3.5-2.9
		c-3-1.1-6-2.2-9.3-0.8c-0.3,0.1-0.8,0.1-1.1,0.1c-1.2-0.4-2.4-0.8-3.6-1.2c-1.1-1.2-2.5-2-3.4-3.4c-0.2-0.2-0.3-0.5-0.5-0.5
		c-1.7-0.4-3.4-0.7-5-1.8c-0.9-0.6-2.2-0.6-3.3-0.8c-0.7-0.1-1.6,0-2.3-0.3c-2.6-1.3-5.3-1.8-8.1-2.4c-1.3-0.3-2.8-0.2-4-1.1
		c-0.7,0-1.4,0-2.1,0c-0.1,0.5-0.2,1-0.4,1.5c0.2,0,0.4,0,0.6,0c-0.2,0-0.4,0-0.6,0c-0.8,0.5-1.6,0.8-2.5,0.7
		c-1.4-0.1-2.7,0.1-4.1,0.5c-1.8,0.6-3.8,0.4-5.6,0.1c-0.9-0.1-1.7-0.3-2.6-0.4l0,0l0,0l0,0l0,0c-0.2,0-0.4,0.1-0.6,0.1
		c-0.5-0.1-0.9-0.2-1.4-0.4c-1.6,0.5-3-0.4-4.4-0.7s-2.5-0.2-3.4,0.8c0.2,0.1,0.6,0.1,0.8,0.2c-0.2-0.1-0.6-0.1-0.8-0.2
		c-0.3,0.1-0.5,0.1-0.8,0.2c-1.4,0-2.8-0.1-4.1-0.1c-0.8,0-1.5,0.1-2,0.8c-0.1,0.2-0.1,0.3-0.2,0.5c-1.9,0.9-3,2.9-5.1,3.4
		c0,0.2-0.1,0.5-0.2,0.7c-1.2,0.1-2.2,0.4-2.9,1.4c-0.6,0.9-1.6,1.2-2.3,1.8c-2.8,0.2-5.4,1.2-8.1,1.9c0,0.8,0.3,2-0.1,2.2
		c-1.4,1.1-0.2,2.3-0.5,3.5l0,0c-0.7,1.3-1.3,2.8-2.2,3.9c-1.7,2-2.5,3.9-1.7,6.5c0.4,1.2-0.2,2.6,0.8,3.7c0.2,0.3,0.4,0.6,0.6,0.9
		c0.4,1,1.4,1.5,2.2,2c2.7,1.7,4.4,4.2,6,6.7c0.8,1.2,1.3,2.4,2,3.7c0.3,0.6,0.7,1,1.4,1.2c0.7,2.6,2.4,4.6,4.5,6.2
		c0.8,0.6,1.6,1.2,2.5,1.6c1.3,0.8,2.4,1.7,3.3,3c0.2,0.2,0.5,0.4,0.7,0.5c0.5,0,1,0.1,1.5,0.1c0-1.4,0.4-2.5,1.3-3.5
		c-0.9,1-1.3,2-1.3,3.5c0.5,0.4,1,0.8,1.5,1.2c0.3,0.4,0.8,0.9,0.7,1.3c-0.2,1.4,0.6,1.4,1.6,1.5c0.7,1,1.5,2.1,2.2,3.1
		c1.4,2.1,1.1,4.1-0.4,6c-0.2,0.3-0.6,0.5-0.8,0.8c-1,1.3-1.1,2.6,0,3.8c1.7,1.6,3.5,3.1,5.2,4.7l0,0c-0.7,0.7-0.7,1.6-0.7,2.5
		c0.1,2.2-1,3.6-3,4.4c-1,0.4-2,0.9-3.2,0.7c-1.4,0.6-2.6,1.7-4.1,2c-0.2,0-0.3,0.3-0.5,0.5c-0.5,0.1-1,0.1-1.5,0.2
		c-0.7-0.2-1.2-0.1-1.4,0.6c-0.8,1.7-2,3.5-1.5,5.4c0.6,2.1,0.1,4,0,6c-0.2,1.1-0.3,2.2-0.5,3.3c-0.4,1-0.9,2-1.3,3.1
		c0.5,0,1-0.1,1.5-0.1c1.6-0.3,2.8,0.7,4,1.4c-1.2-0.7-2.4-1.7-4-1.4c-0.5,0-1,0.1-1.5,0.1c-0.2,0.4-0.4,0.7-0.6,1.1
		c1.9,0.4,3.1,1.4,4.1,2.8c-1-1.3-2.3-2.4-4.1-2.8c-0.5,1-0.7,2.2-0.8,3.3c-0.2,1.7-0.3,3.5-2.4,4.4c-0.4,0.2-0.7,1-0.8,1.6
		c-0.3,0.8-0.4,1.7-0.6,2.6c-0.3,1.2-1.2,1.9-2.1,2.6c-0.7,0.5-1.4,0.4-2.2,0.2c-1.2-0.4-2.3-0.1-3.3,0.5c-2.3,1.6-4.8,2.9-5.8,5.8
		c-0.2,0.5-0.6,0.9-0.6,1.4c0.1,4.2,0.2,8.5,0.4,12.7c0,0.6,0.4,1.4,0,1.9c-1.4,1.8-1.3,3.8-1.3,5.9h-0.1c-0.6,0.3-1,0.9-1.1,1.5
		c-0.3,2.6-0.8,5.3,0.6,7.8c0,1,0,2,0,3.1c-0.1,1.5-0.2,3-0.4,4.6c-0.2,1.4,0,2.8-0.9,4.2c-0.8,1.2-0.1,2.9,0.4,4.4
		c0.4,1.3,1.4,1.7,2.4,2.3c2.3,1.5,4.9,2.8,6.4,5.4c0.5,0.8,1.3,1.2,2.1,1.6c0.7,0.4,1.3,0.9,1.7,1.5c1.5,0.3,3,0.7,4.5,1
		c0.3,0.2,0.6,0.4,0.9,0.6c0.5,0,1,0,1.5,0c0.3,0,0.5-0.1,0.8-0.1c0.2,0,0.5,0,0.7,0.1c1.4,0.2,2.7-0.5,4-0.4c1.2,0,2.4,0.6,3.6,0.3
		c0.6-0.5,1.2-1,1.8-1.5c1.8-1.7,1.9-1.8,3.5-0.8c0.7,0.4,1.3,0.9,1.9,1.3c1,0.6,1.9,0.5,2.9-0.1c0.9-0.6,1.5-1.4,1.9-2.4
		c0.3-1,0.7-1.9,1.1-2.9c0.3-0.9,0.9-1.3,1.8-1.1c1.7,0.4,3.4,1,5.2,1.5c0.6,0.2,0.5,0.8,0.7,1.2c1.2,1.6,1.8,3.8,4.2,4.2
		c0.1,0.2,0.1,0.5,0.2,0.7s0.3,0.4,0.5,0.4c0.1,0,0.4-0.3,0.4-0.4c0-0.2-0.2-0.4-0.4-0.5c-0.2-0.1-0.5-0.2-0.7-0.2
		c0-1.5-1.8-2.1-2-3.7c0.4-0.1,0.8-0.2,1.2-0.1c0.7,0.2,1.4,0.6,2.1,0.9c1.5,0.9,3-0.1,4.5-0.2c1.1-0.1,1.6-1,2.3-1.8
		c1.3-1.7,2.9-3.3,4.4-4.8c0.5-0.5,0.9-0.9,0.9-1.6c-2.2-0.6-4.1-1.6-5.7-3c1.6,1.3,3.5,2.4,5.7,3c0.7-1.1,0-2.6,1.2-3.5l0.1,0.1
		c0.1-1.8,0.1-1.9,1.6-2.4c0.2-1.3,1.9-2,1.6-3.6c-0.1-0.6,0.5-1.1,1.1-1.4c0.7-0.4,1.4-0.7,2-1c0-1-0.2-2-0.2-3c0,1,0.2,2,0.2,3
		c1,0,2,0,3,0h0.1c0.4-0.6,1-0.6,1.6-0.6c0.6-0.3,1.1-0.6,1.8-0.4c1.3,0.5,2.7,0.3,4.1,0.3c0.3-1.6,0.6-3.2,1.9-4.1
		c-1.3,0.9-1.6,2.5-1.9,4.1c1.3,0,2.6-0.1,3.8,0c2.3,0.2,4.6-0.1,6.8,0.6c2.2,0.6,4.4,1.1,6.6,1.6c0.8,0.3,1.6,0.3,2.4,0
		c0.5,0,1,0,1.4,0c1.1,0.2,2.1,0.2,3.2-0.1c0.4-0.1,0.9-0.2,1.3-0.3c0.7,0.6,1.5,1.3,2.5,1.3c-0.1-0.5-0.9-1.2,0.4-1.3
		c0.6,0,1.3,0.4,1.8,0.2c0.4-0.1-0.5-1.1,0.5-1.3c1.7-0.4,3.4-1,5.2-1.4c2.4-0.6,4.6-1.5,6.6-2.9c2.8-2,2.7-2.4-0.3-3.9
		c-0.7-0.3-1.4-0.6-2.1-1c-2.2-1.4-4.1-3.3-6.7-4.3c-0.6-0.2-1-1.1-1.5-1.7c-0.2,0-0.5-0.1-0.7-0.1c-1.5,0.1-2.3-0.6-2.6-2
		c-0.1-0.6-0.3-1.2-0.4-1.8l0.2-0.1h0.2c0.1-0.5,0.1-1,0.2-1.4c-0.2,0-0.4,0-0.5-0.1c0.1-0.6,0.2-1.3,1-1.4c1-0.2,1.4-0.9,1.5-1.8
		c0.1-0.2,0.3-0.4,0.3-0.7c0.1-3.4,0.8-6.7-0.2-10.1c-0.5-1.5,0.1-2.7,1.8-3.1c-0.2-1.6,1.1-2.8,1.1-4.3l0,0
		c0.1-0.6,0.5-1.2,0.4-1.8c-0.2-2.1,0.7-3.6,2.2-4.9c0.5-0.4,0.9-0.8,1.4-1.3c1.2-1.3,2.1-2.8,2.1-4.7c0-0.8,0.1-1.5,0.2-2.3
		c1.5-1.6,2.7-3.3,3.3-5.4c0.4-1.3,1.1-2.6,1.7-3.8c0.5-0.9,0.9-1.9,1.6-2.5c0.8-0.7,1.8,0.7,2.9,0.2c0.1,1,0.2,2-0.3,3
		c-1.2,2.7-1.4,5.7-3.2,8.1c-0.5,0.6-0.4,1.5-0.3,2.2c0.2,2.3-0.7,4.3-2.3,5.9c-1.8,1.7-2.7,3.7-2.3,6.2c0.1,1-0.1,2-0.6,3
		c-0.5,1.3-1,2.6-1.5,3.9c0.3,2.3-0.3,4.3-2,5.8s-3,3.4-4.3,5.3c-1.5,2.2-1.4,2.8,0.9,4.6c0.2,0.2,0.3,0.4,0.5,0.5
		c1,0.1,2.1,0.1,2.9,0.8c1.7,1.4,3.8,2.1,5.6,3.1c2.9,1.6,6.1,2.4,9.1,3.8c0.8,0.4,1.7,0.4,2.6-0.2c1-0.7,2-0.1,2.9,0.3
		c0.4,0.3,0.8,0.7,1.2,0.9c1.9,0.8,3.3,3,5.8,1.7c0.2-0.1,0.7,0.2,1,0.5c1.4,1.2,3.3-0.5,4.7,0.7c0.1,0.1,0.5,0,0.7,0
		c0.2-0.1,0.5-0.2,0.7-0.3c0.7-0.4,1.3-0.9,1.9-1.2c0.9-0.5,1.2,0.9,2,0.7c0.5-0.1,0.9-0.4,1.4-0.7c0.6-0.6,1.4-0.5,2.2-0.6
		c1.9-0.3,2-0.5,2.3-2.4c0.1-0.5,0.1-1,0.2-1.5c-0.1-0.7-0.2-1.4-0.3-2.1c-2-1.5-2.5-3.5-1.7-5.8l0,0c0.6-0.6,1.3-1.3,1.9-1.9
		c0.3-0.4,0.1-0.7-0.2-1c-0.4,0-0.8,0.1-1.2,0.1c-1.9,0-3.9,0.3-5.7-0.1c-1.3-0.3-2.3-1.6-3.4-2.4c-0.3-0.2-0.7-0.4-1-0.6
		c0-0.9-0.1-1.8,0.9-2.3c0.4-0.3,0.8-0.6,1.2-1c0.9-0.9,1-1.1,0.1-2.2c-0.8-1-1.3-1.9-0.4-3c0.5-0.7,0.3-1.4,0.2-2.2
		c-0.6-2.5,0.7-4.6,1.8-6.8c0.1-0.2,0.7-0.3,1-0.4c0.4,0.1,0.8,0.1,1.3,0.2c1.9,1.7,2.1,3.8,1.2,6c-0.7,1.7-0.9,3.1,0.2,4.7
		c0.3,0.5,0.1,1.3,0.2,1.9c0.8,3.2,2.2,5.7,5.7,6.6c1.2,0.3,1.2,0.4,0.5,2.3c-0.3,2,0.5,3.5,1.8,4.9c1.1,1.2,2.4,2.3,2.9,4
		c0.5,0.4,1,0.9,1.6,1.3c0.2,0.3,0.5,0.6,0.7,0.8c2.4,1.8,4.9,3.6,7.4,5.4c0.8,0.6,1.1,1.3,1.1,2.3c0,0.8-0.3,1.5-0.5,2.2
		c-0.3,1,0.2,1.7,0.7,2.4c0,0.5-0.2,1-0.1,1.5c0.2,1,0.6,2-0.6,2.7c-0.8,3.7-0.8,6.6,3.2,7.2c0.3,0,0.5,0.1,0.8,0.1
		c0.9,0.3,1.1,1.1,0.5,1.7c-1.1,1.2-2.5,2.2-3.1,3.8c-1.5,3.9-4.1,7.5-4.3,11.9c0,0.1-0.1,0.3-0.1,0.4c-1.6,3-2.1,6.3-2.7,9.6
		c-0.3,1.5-1,2.9-1.5,4.4c-0.3,1-0.7,2-0.8,3c-0.3,2.6,0.8,3.4,3.4,2.6c0.9-0.3,1.7-0.1,2.6,0c1.1,0.1,1.3-1.7,2.4-1.5
		c1.8,0.4,2.5-0.7,3.2-2c0.3-0.5,0.7-1.2,1.2-1.5c2.5-1.4,3.8-3.7,4.9-6.2c0.2-0.3,0.4-0.7,0.6-1c0.6-0.7,1.2-1,2.3-0.8
		c1.7,0.3,3.4,0.6,5-0.7c0.5-0.4,1.5-0.4,2.2-0.6c1.5-0.4,3-0.7,4.4-1.3c1.3-0.6,2.6-1,4.1-0.9s3-0.3,3.8-1.5
		c1.2-1.6,2.4-1.6,3.9-0.8c0.7,0.3,1.4,0.6,2.1,0.8c0.5,0.4,1.1,0.6,1.7,0.7c2.7,0.4,2.7,0.4,2.3,3.3c0,0.2,0,0.5,0,0.8
		c0.2,1.4-1.1,3,0.4,4.3c0.1,0.1,0,0.5-0.1,0.7c-0.3,1.4-0.6,2.7-0.4,4.2c0.1,0.8-0.3,1.5-0.8,2.1s-1,1.2-1.4,1.9
		c-0.4,0.6-0.5,1.2,0,1.8s1.1,1.1,2,0.7c0.8-0.3,1.7-0.7,2.5-0.9c0.4-0.1,0.8,0.3,0.8,0.7c0,0.8,0,1.6-0.3,2.3
		c-0.9,2.1-1.2,4.5-2.2,6.5c-1,2.1-1.4,4.3-2.2,6.4c-0.2,0.6-0.6,1.1-0.9,1.7c0.4,0,0.8,0.1,1.2,0.1c1.2-1.1,2.4-2.2,3.1-3.7l0,0
		c0.7-0.9,1.3-1.9,2-2.8c0.3-0.4,0.7-0.8,1.2-0.6c0.4,0.2,0.4,0.6,0.2,1c-0.3,0.6-0.2,1.1,0.4,1.6c0.5,0.5,0.8,1.3,1.2,1.9
		c-0.1,1.1-0.2,2.2-0.2,3.3c0,1.3,0,2.8,1.7,3.3c0.2,0.8,0.2,1.6-0.7,2.1c-0.2,0.4-0.3,0.7-0.5,1.1c-0.2,0.5-0.4,1,0,1.4
		c0.3,0.3,0.7,0,1-0.2c2.4-1.2,4.6-2.7,7-3.8c3-1.3,5.1-3.7,6-7c0.3-1.1,0.7-2.2,1.2-3.3c0.4-0.9,0.5-1.6,0.2-2.6
		c-0.6-2.2-1.1-4.4-1.5-6.7c-0.2-1.1-0.4-2.3-0.2-3.4c0.2-1.9,1.7-2.9,3.5-2.6c1,0.2,1.9,0.6,2.9,0.9c0,1.3-1.3,1.6-1.6,2.6
		c-0.3,0.8-0.2,1.5,0.5,2.1c0.6,0.5,1.2,0.4,1.8,0c1.5-1.2,3.3-2.2,3-4.8c-0.2-1.8,0.6-2.3,2.6-1.9c1.1,0.2,1.7-0.1,2-1.2
		c0.6-0.1,1.4,1,1.8-0.3c0.2-0.6,0.7-0.6,1.2-0.6c1.8,0,3.6-0.4,5.5,0.6c0.5-2.2,2.1-3.2,3.7-4.2c2.2-1.3,4.1-2.9,5.2-5.4
		c0.4-0.9,1.1-1.7,1.9-2.4c2-1.8,3.7-3.8,5.2-6c0.1-0.2,0.4-0.3,0.6-0.5c-0.1-0.1-0.1-0.2-0.2-0.3c-2.2-1.6-2.2-1.6,0.4-2.8
		c-0.1-1,1.1-1.8,0.4-2.9c-0.8-1.3-0.6-2.6-0.3-4c0.2-1,0.1-2-0.4-3c-0.4-0.8-0.1-1.4,0.5-2c1.3-1.4,2.9-2.4,4.4-3.5
		c0.3-0.5,0.8-0.6,1.3-0.7c0.4-0.1,0.7-0.4,0.7-0.8c0-0.2-0.2-0.5-0.4-0.6c-1.3-0.6-2.6-1.1-3.8,0.3c-0.1,0.1-0.5,0.1-0.8,0.1
		c-0.2-1.1,0.3-2.5-1.1-3.3c-0.5-0.3-0.3-1.5,0.3-1.6c2.8-0.6,4.6-2.6,6.7-4.2c0.1-0.1,0.2-0.2,0.3-0.2c0.2,0,0.5,0,0.6,0.1
		c0.1,0.2,0.2,0.5,0.2,0.7c0,1-1.4,1.5-1.1,2.8c1.7,0.1,3.1-1.2,4.8-0.9c0.2-0.2,0.5-0.4,0.6-0.6c-0.2,0.2-0.4,0.4-0.6,0.6
		c2.1,2,0.6,3.7-0.6,5.4c1.1,0.6,1.9,1.1,2.8,1.6c0.2,1.7,0.2,1.7-1.2,2.2l0,0c0.5,2.6-1,4.7-1.8,7l0.1,0.1c2.2,0.1,4.2-0.8,6.3-1
		c0.3-0.5,0.8-0.8,1.5-0.8c0.4-3.1,0.5-6.2,0-9.3c-1.5-2.5-1.4-2.5,0.9-4.4c1.2-1,2.4-1.9,3.8-2.5c0-0.6,0.3-1.1,0.7-1.6
		c0.6-0.7,1.1-1.5,1.7-2.3c0.4-0.1,0.7-0.3,0.8-0.7c0.4-0.1,0.7-0.4,0.8-0.8c0.6,0,1.2-0.1,1.8,0.3c1.5,1,2.9,0.6,4.2-0.4
		c0.4-0.1,0.7-0.3,0.9-0.7c0.6-0.3,0.9-0.8,0.8-1.5h0.3l0.3-0.2c5.1-3.4,8.3-8.6,12.4-13c0.6-0.7,0.7-1.9,1.2-2.8
		c0.5-0.9,0.3-2.3,1.8-2.8c0.7-0.2,0-0.6-0.2-0.8c-0.3-0.5-0.4-1-0.2-1.4c0.5-1.1,0.8-2.5,1.9-3.3c1,1.4,1.2,1.7,1,2.3
		c-0.9,2.3-0.4,4.9-1.6,7.1c-0.3,0.5-0.4,1.2-0.4,1.8c0,2.2-0.7,4.3-1.3,6.3c-0.1,0.5-0.3,0.9,0.1,1.4c0.9,0.1,1.6-1.6,2.7-0.4
		c0.3,0.4,0.7,0,0.6-0.4c-0.1-0.9-0.2-1.8-0.5-2.6c-0.3-1-0.4-2-0.2-3c0.2-1.3,0.5-2.6,1.8-3.2c1-0.5,1.7,0.8,2.7,1
		c0-0.4,0.1-0.8,0-1.2c-0.7-3.6-1-9.2-0.2-12.6c0.4-1.7-0.6-3.2,0-4.9c0-0.1-0.2-0.2-0.3-0.3c-0.1,0-0.3,0-0.4,0
		c-0.4,1.6-2.2,2.4-2.3,4.2c0,0.6-0.3,1.3-1.1,1.8c0-0.6-0.1-1,0-1.3c0.6-1.2,0.5-2.2-0.4-3.2c-0.3-0.4-0.4-0.9-0.7-1.4
		c-0.6-1.2-1.3-1.5-2.5-1.1c-0.7,0.2-1,1.2-1.9,0.8c-0.6-1.2-0.7-2.7-2.4-3.2c-0.7-0.2-0.6-0.8,0.3-1.3c0.3-0.2,0.7-0.2,1.1-0.3
		c0-0.7,0.3-1.2,0.7-1.7c4-4,7.9-8,11.9-12c1.1-1.1,2.4-1.6,3.8-1.3c1.9,0.4,3.8,0.1,5.7,0.8c1.1,0.4,2.3,0.5,3.2-0.6
		c0.3-0.3,0.7-0.3,1-0.1c0.8,0.5,1.5,0.9,2.3,1.4c0.3,0.2,0.4,0.6,0.1,1c-0.8,0.8-0.5,1.5,0.5,1.5c1.8,0.1,3.6,0.1,5.4,0
		c0.6,0,1-0.5,0.7-1c-0.9-1.5-0.3-2.7,0.8-3.7c1.4-1.2,2.3-2.7,3.3-4.3c0.9-1.5,2.5-1.3,3.8-1.2c1.3,0.1,1,1.5,1,2.5
		c0,0.4,0.1,0.8,0.2,1.1c0.1,0.4,0.2,0.8,0.7,0.8c0.3,0,0.8-0.1,1-0.4c0.6-0.7,1.1-1.4,1.6-2.1c0.7-1,1.7-1.1,2.7-0.9
		c0.2,1.3,0.4,2.6-1.3,3.2c-0.8,0.3-1.2,1-1.5,1.7c-0.6,1.3-1.6,2.3-2.6,3.4c-0.6,0.7-1.3,1.2-1.6,2.1c-0.7,2.1-2.2,3.5-4.1,4.3
		c-0.6,0.3-1.2,0.6-1.3,1.3c-0.2,1.2-0.9,2.1-1.6,3.1c-0.9,1.3-1.4,2.8-1.5,4.3c-0.4,5.5,0,11,0.6,16.5c0.1,0.6,0.7,0.9,1.1,0.5
		c1.4-1.1,2.7-2.4,3.3-4.2c0.2-0.7,0.2-1.8,1-2c1.7-0.4,1.6-1.7,1.8-3c0.2-1.4,0.9-2.2,2.6-2.3c1.4,0,1.8-0.6,1.4-2
		c-0.3-1.2-0.6-2.6,0.5-3.2c2.1-1.1,2.9-2.3,1.7-4.5c-0.2-0.4-0.1-1.1,0.1-1.5c0.5-1.1,0.5-1.9-0.6-2.6c-0.5-0.3-0.6-0.9-0.4-1.4
		c0.5-1.4,0.7-3,2.3-3.8c-0.1-0.9-0.3-1.9,0.4-2.6c0.6-0.7,1.4,0.1,2.2,0c0.4-0.1,0.7-0.4,1-0.5c0.3-0.2,0.8-0.4,0.9,0.1
		c0.4,1.7,1,0.8,1.8,0.2c2-1.5,2.7-1.4,4.5,0.5c0.3,0.3,0.5,0.6,1.1,0.5c2.1-2.6,4.5-5,7.9-6.2c1.6-0.6,3-1.3,4.6-0.1
		c0.5,0.4,1-0.1,1.1-0.7s0.1-1.4-0.1-1.9c-1-2.2-1.2-4.8-3.7-6.7c2.6-0.3,4.1-1.2,4.1-3.7c0.6,0.6,1.1,1.3,1.7,1.6
		c1.6,0.6,2.4,1.8,3.1,3.2c0.7,1.3,1.9,2.4,2.9,3.5c0.2,0.2,0.7,0.2,1.1,0.2c0.2,0,0.4-0.4,0.4-0.5c-0.8-2.3,1-3.1,2.3-4.2
		c0.4-0.3,0.9-0.4,1.3-0.7c0.9-0.6,1.4-1.5,1.4-2.6c0-0.1-0.1-0.3-0.2-0.3C435.2,99.6,435,99.6,434.9,99.6z M229.1,33.9
		c-0.2-0.3-0.3-0.3-0.4-0.1C228.8,33.6,228.9,33.6,229.1,33.9z M197.2,38.7c-0.2,0.5-0.6,0.7-1.1,0.5c-0.5-0.1-1-0.3-1-0.9
		c0-0.2,0.5-0.4,0.7-0.5c0.4,0.1,0.8,0.2,1.1,0.3C197.1,38.2,197.2,38.6,197.2,38.7z M159.8,58c-0.1,0.8-0.2,1.6-0.8,2.2
		C159.6,59.7,159.7,58.9,159.8,58c0.3-0.4,0.8-0.7,1-1.1C160.6,57.4,160.1,57.7,159.8,58z M163.6,47.2c-0.4-0.3-0.8-0.5-1.2-0.8
		C162.8,46.7,163.2,46.9,163.6,47.2L163.6,47.2z M19.1,31.1c0,0,0-0.1-0.1-0.1L19.1,31.1L19.1,31.1z M28.4,49
		c-0.1,0.1-0.3,0.1-0.5,0.2C28,49.1,28.2,49,28.4,49c0.1,0,0.2,0.1,0.2,0.2C28.5,49.1,28.4,49,28.4,49z M36.3,48.3
		c0.4,0.3,0.4,0.7,0.5,1.2c0,0,0,0-0.1,0C36.7,49,36.6,48.5,36.3,48.3z M36.7,49.6C36.7,49.6,36.7,49.5,36.7,49.6
		c0.4,0.1,0.8,0.3,1,0.6C37.4,49.9,37.1,49.7,36.7,49.6z M37.4,38L37.4,38c0.2-0.2,0.5-0.5,0.7-0.7C37.9,37.5,37.7,37.8,37.4,38z
		 M38.6,22.5c0.9,0,1.7,0,2.6,0c0-1.2-0.1-2.4-0.5-3.4c0.4,1,0.5,2.2,0.5,3.4c0.1,0.3,0.1,0.5,0.2,0.8l0,0c-0.1-0.3-0.1-0.5-0.2-0.8
		C40.4,22.5,39.5,22.5,38.6,22.5z M41.3,27.1c-0.7,0.7-0.8,1.4-0.6,2.1C40.5,28.4,40.6,27.7,41.3,27.1c0.2-0.5-0.1-1-0.2-1.5
		C41.2,26,41.5,26.6,41.3,27.1z M43,54.1c-0.4,0.5-0.9,0.7-1.5,0.8C42.1,54.7,42.6,54.5,43,54.1c0.1-0.2,0.2-0.4,0.2-0.6
		C43.1,53.7,43,53.9,43,54.1z M41.3,24.6L41.3,24.6c1.1,0.7,2.1,1.2,3.3,0.5C43.4,25.8,42.4,25.3,41.3,24.6z M17.9,147L17.9,147
		c0.1-0.1,0.2-0.1,0.3-0.2C18.1,146.9,18,147,17.9,147z M22.7,153.2L22.7,153.2L22.7,153.2L22.7,153.2z M19.7,150
		C19.7,150,19.6,150.1,19.7,150L19.7,150L19.7,150z M22.1,194.7c0.5,0,1,0,1.5,0l0,0C23.1,194.7,22.6,194.7,22.1,194.7z M21.2,176.8
		c-0.6,0.8-1.2,1.6-1.8,2.4C20,178.5,20.6,177.6,21.2,176.8c1-1.8,2.1-3.5,3.1-5.3C23.4,173.4,22.3,175.1,21.2,176.8z M25.2,196.6
		c0-0.1,0-0.3,0-0.4l0,0C25.2,196.4,25.2,196.5,25.2,196.6z M25.2,196.2L25.2,196.2L25.2,196.2c0.1,0,0.2,0,0.3,0
		C25.4,196.2,25.3,196.2,25.2,196.2z M29.6,167.8c0.7-1,1.4-1.9,1.7-3.1c-0.1-0.2-0.2-0.4-0.2-0.6l0,0l0,0l0,0
		c0,0.2,0.1,0.4,0.2,0.6C31,165.8,30.3,166.8,29.6,167.8z M31.4,163.8L31.4,163.8L31.4,163.8L31.4,163.8z M47,150.1L47,150.1
		l-0.1-0.1L47,150.1z M46.2,150.9L46.2,150.9l-0.1-0.1C46.1,150.8,46.2,150.9,46.2,150.9z M45.5,156.6l-0.1,0.1
		C45.4,156.7,45.5,156.6,45.5,156.6z M40,158.5c0.9-0.1,1.5,0.4,2,0.9C41.5,158.9,40.9,158.5,40,158.5L40,158.5L40,158.5z
		 M38.3,129.8L38.3,129.8c0.2,0.6,0.4,1.2,0.6,1.9C38.8,131,38.6,130.4,38.3,129.8L38.3,129.8z M38.3,172.3c0.7,0.4,1.3,0.8,1.5,1.6
		C39.6,173.1,39,172.6,38.3,172.3z M39.9,174.3L39.9,174.3c1.9,2.5,4.4,3.5,7.3,3.6C44.3,177.7,41.8,176.7,39.9,174.3z M47.6,149.1
		L47.6,149.1L47.6,149.1L47.6,149.1z M49.9,179.3L49.9,179.3L49.9,179.3L49.9,179.3z M48.3,106c0.5-0.1,1.1-0.2,1.6-0.3l0,0
		C49.4,105.9,48.9,105.9,48.3,106z M49.2,62.3c1-0.7,2.1-1.4,3.2-2.2l0,0C51.3,60.9,50.2,61.6,49.2,62.3z M52.4,109.8
		c0.2,0,0.4,0,0.6-0.1l0,0C52.8,109.7,52.6,109.8,52.4,109.8z M53,187.8L53,187.8c0.1,0.1,0.3,0.2,0.4,0.4
		C53.3,188,53.1,187.9,53,187.8z M59.1,115.8L59.1,115.8c0.1-0.1,0.1-0.3,0.2-0.4C59.2,115.5,59.2,115.7,59.1,115.8z M70,63.4
		L70,63.4L70,63.4L70,63.4z M65.5,57.8L65.5,57.8C65.4,57.9,65.5,57.8,65.5,57.8c0.1-0.4,0-0.8-0.1-1.2C65.5,57,65.5,57.4,65.5,57.8
		z M66,57.9c-0.2,0-0.4,0-0.6,0.1l0,0C65.6,57.9,65.8,57.9,66,57.9z M67.6,68.9c0.4,0.8,1,1.4,1.4,2.2C68.6,70.3,68,69.7,67.6,68.9
		c-1.8-0.4-3.6-0.3-5.4-0.2C64,68.6,65.8,68.5,67.6,68.9z M60.3,66.2c0.1,0.1,0.2,0.2,0.3,0.4C60.5,66.4,60.5,66.3,60.3,66.2z
		 M64.7,55.8L64.7,55.8c-2.1,1.1-2.8,3.3-4,5.1C61.9,59,62.6,56.8,64.7,55.8z M66.6,182.4c-1.5,1.3-3.5,2.1-3.5,4.5
		c-0.9,0-1.6-0.3-1.2-1.4c0.7-1.8,1.5-3.5,3.1-4.7c1.3-1,1.9-2.3,2.6-3.7l0,0c0.9,0.4,0.8,1.2,0.5,1.9
		C67.7,180.2,67.2,181.3,66.6,182.4c0.7,1.1,1.5,2,2.3,3C68.2,184.4,67.3,183.5,66.6,182.4z M66.9,176.1c0.2,0.1,0.3,0.2,0.4,0.3
		C67.2,176.3,67.1,176.2,66.9,176.1L66.9,176.1z M69.2,159.1L69.2,159.1c-0.6,0.8-1.2,1.7-1.9,2.4c-0.7,0.8-1.1,1.6-1.1,2.7
		c0,1.6-0.9,2.9-1.5,4.3c0.7,2.5,1.4,5,2.1,7.6c-0.7-2.5-1.4-5-2.2-7.6c-0.8-0.3-0.9-0.9-0.7-1.6c-1-0.8-2-1.6-3-2.4
		c1,0.8,2,1.6,3,2.4c0.8-0.8,0.6-1.9,0.7-2.9c0.3-3,2-5.2,4-7.2c0.4-0.4,1.2-0.5,1.7-0.7C70.3,157.3,69.2,157.9,69.2,159.1z
		 M82,59.2c-0.2,0.9,0.7,1.8,1.2,2.7c0.3,0.6,0.7,1.2,1.2,1.6c-0.5-0.4-0.9-1-1.2-1.6C82.7,61,81.8,60.1,82,59.2z M83.9,137.2
		c0-0.4,0-0.8-0.1-1.1c-0.2-0.2-0.5-0.3-0.7-0.5c0.2,0.2,0.5,0.3,0.7,0.5C83.9,136.5,83.9,136.9,83.9,137.2z M81.5,91.2
		C81.5,91.2,81.6,91.3,81.5,91.2c0,1.1-0.1,2.1-0.2,3.1C81.4,93.3,81.5,92.3,81.5,91.2L81.5,91.2c-0.2,0-0.3,0-0.5,0.1
		C81.2,91.3,81.4,91.2,81.5,91.2z M80.1,96.5L80.1,96.5L80,96.7L80.1,96.5z M85.6,171.3c-0.6-3-1.3-6-1.9-9c-0.5,0-1,0.2-1.5,0.1
		c-1.1-0.2-1.4,1.3-2.2,1c-1.3-0.4-1.7-1.8-2.6-2.7c-0.5-0.5-0.4-1.2,0.1-1.6c0.8-0.6,1.7-1.1,2.1-2.1c1.1-0.1,2.2-0.7,3.4-0.1
		c2,1,2.8,2.5,2.3,4.7c0.2,0.2,0.6,0.5,0.8,0.5c-0.2,0-0.6-0.3-0.8-0.5c-0.7-0.1-1.2,0.2-1.6,0.7C84.4,165.3,85,168.3,85.6,171.3z
		 M89.4,118.3c-0.1-0.8-0.4-1.4-0.9-1.8C89,116.9,89.3,117.5,89.4,118.3L89.4,118.3z M91.6,34.1c0-0.3,0-0.6,0-0.9l0,0
		C91.7,33.5,91.7,33.8,91.6,34.1z M94.1,153.1c0.2,1.7-0.6,2.9-1.6,4.1C93.4,156,94.3,154.8,94.1,153.1c1.1,0,1.9,0.5,2.5,1.2
		C96,153.6,95.2,153.2,94.1,153.1z M97.7,27c-0.4,0-0.8-0.1-1.2-0.1C96.9,26.9,97.3,26.9,97.7,27c0.4-0.4,0.9-0.6,1.3-0.6
		C98.6,26.4,98.1,26.6,97.7,27z M104.8,51.8c0.2,0,0.3-0.1,0.5-0.1C105.1,51.7,105,51.7,104.8,51.8L104.8,51.8z M104.8,51.8
		L104.8,51.8c0,0.5,0,1-0.1,1.5C104.7,52.8,104.8,52.3,104.8,51.8z M100.9,173.8c0-0.1,0-0.3,0-0.4
		C100.8,173.5,100.8,173.6,100.9,173.8L100.9,173.8z M101.6,27.2c0-0.6,0.1-1.1,0.1-1.7C101.7,26.1,101.6,26.6,101.6,27.2
		L101.6,27.2z M101.7,27.1L101.7,27.1c0.5,0,0.8,0,1.1,0C102.5,27.1,102.1,27.1,101.7,27.1L101.7,27.1z M102.4,172.2
		C102.4,172.2,102.4,172.3,102.4,172.2L102.4,172.2c-0.1-0.6,0-1,0.3-1.2C102.4,171.3,102.2,171.6,102.4,172.2z M101.8,84.9
		c1.1-1.6,2.7-2.7,4.1-3.8l0,0C104.4,82.2,102.8,83.3,101.8,84.9z M119.1,34.2c-0.5,0.4-1,0.8-1.1,1.5l0,0
		C118.2,35,118.7,34.6,119.1,34.2z M115,61.7c1.3-0.8,2.7-1.5,4.3-1.5c0.6-0.6,1.2-1.4,1.9-1.9c-0.7,0.5-1.3,1.2-1.9,1.9
		C117.7,60.2,116.3,60.9,115,61.7z M121.1,165.3c-0.2-0.5-0.2-1-0.1-1.4C120.9,164.3,120.9,164.7,121.1,165.3
		c0.6,0.1,1.1,0.3,1.5,0.7C122.2,165.5,121.7,165.4,121.1,165.3z M117.9,103.6c1.2-1.3,2.6-2.5,4.1-3.6
		C120.6,101.1,119.2,102.2,117.9,103.6c2.6,3.6,5.1,7.2,7.8,10.7C123.1,110.8,120.5,107.2,117.9,103.6z M162.6,111.9L162.6,111.9
		l0.1,0.2C162.7,112,162.6,111.9,162.6,111.9z M162.8,112L162.8,112c0.5,0.1,1.1,0.3,1.7,0.4C163.9,112.3,163.3,112.2,162.8,112z
		 M165.7,47.3c-0.2,0-0.4,0-0.6-0.1C165.3,47.3,165.5,47.3,165.7,47.3z M165.9,81.7c-0.1,0-0.2,0-0.4,0c-0.9-0.3-1.4-1-1.7-1.9
		c0-0.1,0.3-0.5,0.4-0.4c0.9,0.1,1.9,1.3,1.9,2.1C166.1,81.5,166,81.6,165.9,81.7z M203.9,56c-0.9,0.8-1.7,1.6-2.4,2.7
		c0.7,0.4,1.2,1,1.5,1.7c-0.3-0.7-0.8-1.3-1.5-1.7C202.2,57.7,203,56.8,203.9,56z M181.8,41.7c-0.6,0-1.1-0.3-1.5-0.7
		C180.7,41.4,181.2,41.7,181.8,41.7z M179.9,45.8l0.2,0.1L179.9,45.8c0.2,1-0.6,1.3-1.3,1.6C179.3,47,180.1,46.8,179.9,45.8z
		 M178.5,60.3c0.6-0.1,1.2-0.5,1.7-0.5C179.7,59.8,179.1,60.2,178.5,60.3c-0.3,0-0.7,0-1,0C177.9,60.3,178.2,60.3,178.5,60.3z
		 M172,53.4c-0.3,0.2-0.6,0.5-0.9,0.7l0,0C171.4,53.8,171.7,53.6,172,53.4z M169.6,36.2c0,0,0.1,0.1,0.2,0.1L169.6,36.2L169.6,36.2z
		 M184.4,108.9c-0.6,0.1-1.3,0.1-1.9,0.4C183.1,108.9,183.7,109,184.4,108.9C184.4,108.8,184.4,108.9,184.4,108.9z M185.8,95.8
		c0,0.6,0,1.3,0.1,1.9c0.1,1.7-0.8,2.6-2.4,3c0.2,0.4,0.2,1,0.5,1.3c0.9,1,1.2,2.1,1.2,3.3l0,0c0-1.2-0.3-2.4-1.2-3.3
		c-0.3-0.3-0.4-0.9-0.5-1.3c-1.2-0.2-2.5-0.3-2.9-1.8c-2.2-1.9-3.3-4.6-4-7.3c-0.8-3.1-2.6-5.3-5.6-6.3c-1.4-0.5-2.3-1.6-3-2.8
		c-0.8-1.3-0.9-2.6-0.5-4.1l0,0c1.2-1.6,3-1.4,4.7-1.6l0,0c1.4-0.4,2.9-0.3,4.4-0.2c1.2,0,2.3,0,3.5,0c1.5,0.1,1.5,0.1,1.8,1.8
		c0.1,0.4,0.1,0.8,0.2,1.1c0.2,0.1,0.3,0.3,0.4,0.4c-0.1-0.2-0.3-0.3-0.4-0.4c-0.7,0.9-1.8,1.7-1.5,3.1c-0.8,0.6-0.9,1.2,0.1,1.7
		c0.5,0.2,0.9,0.4,1.4,0.6c0.6,0.1,1-0.2,1.3-0.6c-0.3,0.4-0.7,0.7-1.3,0.6c0.4,0.3,0.8,0.6,1.2,0.9c1.2,0.8,2.1,1.8,2,3.4
		c0,0.3,0.3,0.7,0.5,1c0.2,1.3,0.3,2.6-0.1,3.9C185.7,94.7,185.8,95.2,185.8,95.8z M184.5,83.5c1.3-0.1,2.4,0,3.5,0.9
		c0.8,0.6,1.7,1,2.6,1.4c0.5,0,1.1,0,1.6,0.1c0.4,0.1,0.8,0.1,1.1,0.3c-0.3-0.1-0.8-0.2-1.1-0.3c0,0.4,0,0.7,0.1,1.1
		c-0.1-0.3-0.1-0.7-0.1-1.1c-0.5,0-1.1,0-1.6-0.1c-0.3,0.5-0.6,1-0.9,1.4l0,0l0,0C186.1,87.5,185.3,86.8,184.5,83.5z M190.7,108.1
		c-0.3,0.4-0.5,0.6-0.8,0.7C190.2,108.7,190.5,108.5,190.7,108.1L190.7,108.1z M204.1,141.3c0.1-0.8,0.1-1.5-0.4-2.2
		C204.2,139.8,204.2,140.6,204.1,141.3z M204.2,122.9L204.2,122.9c1.4-1.7,2.7-3.4,4.2-5C207,119.6,205.6,121.3,204.2,122.9z
		 M208.7,108.7c-0.6,0.8-1.7,1.6-2.2,1.1c-1.7-1.6-3.3-0.7-5-0.4c-0.6,1.8-1.6,3.5-0.5,5.5c0.2,0.4,0,0.7-0.2,1
		c-0.3,0.4-0.9,0.7-0.6,1.2c0.2,0.4,0.8,0.6,1.2,0.8c0.2,0.1,0.4,0.3,0.6,0.4c-0.1,0.4-0.1,0.8-0.3,1.1c-0.5,0.7,0.1,2-1.1,2.2
		c-0.9,0.1-1.1-0.9-1.7-1.4c-0.5-0.4-1.6-0.2-1.6,0.3c0.3,3.3-1.9,5.3-3.5,7.7l0,0c-2.8-0.2-4.8-1.5-5.7-4.2
		c-0.3-0.9-0.3-1.8-0.8-2.6c-0.7-1.3-0.2-2.2,0.5-3.2l0,0c0.3-0.1,0.4-0.3,0.5-0.5l0.3-0.2l0,0c1.9,0,3.2-1.7,5-1.7
		c0.1-1.6,0.2-3,0.3-4.4c0.5-1.9,0.6-4,2.4-5.5c0.9-0.7,0.3-2.5,2.2-2.8c1.2-0.2,2.2,0,3.3,0.3c0.6,0.1,1.3,0.1,1.9,0.1l0,0
		c2.2,0.1,3.8,1.1,5,3C209,107.4,209.2,108,208.7,108.7z M216.6,53.5c0.2,0,0.5,0.2,0.6,0.4c0.5,1-0.2,2.7-1.3,3.2
		c-0.1,0-0.2,0-0.3,0c-0.6,0-1.1-0.2-1.3-0.7C213.9,55.2,215.4,53.4,216.6,53.5z M213,130.6L213,130.6L213,130.6c0,0.2,0,0.5,0,0.7
		C213,131.1,213,130.9,213,130.6z M215.1,145.3c-0.6-0.4-1.2-0.6-1.8-0.7C214,144.6,214.6,144.9,215.1,145.3
		c0.2,0.8,0.6,1.4,1.1,1.9C215.7,146.6,215.3,146,215.1,145.3z M218,120.1c-0.3,0.7-0.8,1.3-1.2,2c0.2,0.2,0.4,0.5,0.5,0.7
		c-0.1-0.2-0.4-0.5-0.5-0.7c-0.6,0.2-1.2,0.6-1.9,0.4c-0.1,0.1-0.2,0.3-0.4,0.4c0.1-0.1,0.2-0.3,0.4-0.4c-0.1-0.6-0.2-1.3-0.3-1.9
		c-0.3-0.1-0.6,0.1-0.9,0c0.3,0.1,0.6-0.1,0.9,0c0.6-0.1,1.5-0.1,1.2-1c-0.2-0.5-0.9,0-1.3,0.1c-0.4,0.1-0.7,0.2-1.1,0.4
		c0.3-0.9,0.9-1.7,1.6-2.4c-0.2-0.2-0.4-0.4-0.6-0.5c0.2,0.1,0.4,0.3,0.6,0.5c0.5-0.1,1-0.2,1.5-0.1
		C218.1,117.7,218.7,118.6,218,120.1z M220.8,56.5c0.5-1.3,1.2-2,2-2.2C222,54.5,221.3,55.2,220.8,56.5L220.8,56.5
		c-0.3,0.1-0.6,0-0.9,0.1C220.2,56.6,220.5,56.6,220.8,56.5z M220.2,59.2c0.2-0.9,0.4-1.7,0.6-2.6l0,0c2,0,2,0.1,1.8,1.9
		c-0.2,0.3-0.4,0.6-0.6,0.9l0,0c-0.2,0.1-0.4,0.3-0.6,0.4C220.5,60.1,220.1,59.9,220.2,59.2z M222.2,59.5c0,0.7-0.3,1.3-1,1.5
		C221.9,60.8,222.2,60.2,222.2,59.5L222.2,59.5c0.4-0.1,0.7-0.3,0.8-0.7C222.9,59.1,222.6,59.4,222.2,59.5z M227,145.2L227,145.2
		c-0.5-0.1-1-0.2-1.5-0.2C226.1,145,226.6,145.1,227,145.2z M227.4,147.7c0.8,0.6,1.5,1.2,2.6,1.4c0,1.1-0.2,2.1,0,3.1
		c-0.2-1,0-2.1,0-3.1C228.9,149,228.1,148.4,227.4,147.7z M229.5,158.5c0.1,0.2,0.1,0.5,0,0.8C229.6,159,229.6,158.8,229.5,158.5z
		 M229.3,162.2L229.3,162.2c0-0.8,0-1.6,0-2.4l0,0C229.3,160.6,229.3,161.4,229.3,162.2L229.3,162.2c0.4,0.3,0.9,0.5,1.2,0.9
		C230.2,162.8,229.7,162.5,229.3,162.2z M229.4,139.9c-0.7,1.1-0.9,1.5-0.7,2.1C228.5,141.4,228.7,141,229.4,139.9
		c0.5,0,1.1,0,1.6,0C230.5,139.9,230,139.9,229.4,139.9z M239.9,213.2c-0.8,0-1.5,0.3-2.2,0.6C238.4,213.4,239.1,213.2,239.9,213.2
		L239.9,213.2C240,213.2,239.9,213.2,239.9,213.2z M239.9,135.5C239.9,135.5,239.8,135.5,239.9,135.5c-0.1,0-0.1-0.1-0.3-0.2
		c-0.1-0.1-0.1-0.5,0-0.6c0.6-1,1.6-1.2,2.5-1.4c0.8-0.2,1.4,0.2,1.9,1.1C242.6,134.5,241.1,134.4,239.9,135.5z M240.4,149.8
		c1.4,0.1,2.9,0.4,4.2-0.2C243.3,150.2,241.8,149.9,240.4,149.8z M250.9,207.9L250.9,207.9c-0.5,0-1,0.2-1.2,0.5
		C250,208,250.4,207.9,250.9,207.9z M250.1,221.1c-0.1,0.4-0.2,0.7-0.2,1.1C250,221.9,250.1,221.5,250.1,221.1
		c0.2-0.5,0.5-0.9,0.9-1.2C250.6,220.2,250.3,220.6,250.1,221.1z M252.5,207.3c0,0.6-0.5,1.1-0.5,1.6
		C252,208.4,252.5,207.8,252.5,207.3c-0.3-0.1-0.5-0.1-0.8-0.2l0,0l0,0C251.9,207.2,252.2,207.2,252.5,207.3
		c0.2-0.1,0.4-0.2,0.7-0.3C252.9,207.1,252.7,207.2,252.5,207.3z M253.6,200.7c0.1-0.2,0.2-0.4,0.3-0.6l0,0
		C253.9,200.3,253.7,200.5,253.6,200.7z M254,217.2L254,217.2c0.1-0.4,0.1-0.8,0.3-1.1C254.1,216.3,254.1,216.8,254,217.2z
		 M254.7,205.4c0.3-0.1,0.4-0.3,0.6-0.5C255.1,205.1,255,205.3,254.7,205.4z M266.9,224.3c-0.2,0.7-1,1.3-1.7,1.2
		c-0.9-0.2-1.8-0.4-2.6-0.6c-0.4-0.1-0.5-0.6-0.3-0.9c0.7-0.8,1.5-1.4,2.6-1.4c0.3,0,0.5,0.1,0.8,0.1
		C266.5,222.8,267.1,223.6,266.9,224.3z M276.9,137L276.9,137L276.9,137L276.9,137z M285.3,62.2c-0.1-0.2-0.3-0.4-0.3-0.6
		c0-0.2,0.2-0.5,0.3-0.7c0.1,0.2,0.3,0.4,0.3,0.7C285.6,61.8,285.4,62,285.3,62.2z M287.2,136L287.2,136c0.1-0.5,0.2-1,0.5-1.2
		C287.4,135.1,287.3,135.5,287.2,136z M288.9,158.1c0.2-0.1,0.2-0.3,0.2-0.5c-0.1-0.1-0.2-0.3-0.3-0.5c0.1,0.1,0.2,0.3,0.3,0.5
		C289.2,157.8,289.1,158,288.9,158.1z M289.5,136.8L289.5,136.8c0.3,0,0.6,0.1,0.9,0.2C290.1,136.8,289.8,136.8,289.5,136.8z
		 M301,133.1c-0.3,0.1-0.5,0.3-0.6,0.7l0,0C300.5,133.4,300.8,133.2,301,133.1z M306.3,129.5c0,0.1-0.1,0.2-0.1,0.3
		c-0.2,0.1-0.4,0.3-0.4,0.5c0,0.6,0,1.2,0,1.8c0-0.6,0-1.2,0-1.8c-0.9,0.9-1.3,2.1-1.5,3.3l0,0c-0.7,0.3-1,0.8-0.8,1.5l0,0
		c-0.3,0.3-0.5,0.5-0.8,0.8l0,0c-0.2,0.3-0.4,0.5-0.6,0.6c0.3-0.1,0.5-0.3,0.6-0.6c-0.7-0.2-1.3,0-1.5,0.8l0,0
		c0,0.3-0.1,0.5-0.1,0.7c0.1-0.2,0.1-0.4,0.1-0.7c-1.3,0.1-2.3,0.5-3.1,1.5l0,0c-0.3,0.3-0.5,0.5-0.8,0.8l0,0
		c-0.3,0.6-0.6,1.1-0.9,1.4c0.3-0.3,0.6-0.8,0.9-1.4c-1.2,0.7-2.4,0.9-3.8,0.8l0,0l0,0l0,0c0.4-0.8,1-1.3,2-1.5
		c0.9-0.2,1.5-0.7,1.9-1.5l0,0l0,0c0.7-0.3,1.4-0.7,1.5-1.5l0,0c0-0.5,0.1-0.9,0.4-1.2c-0.3,0.3-0.4,0.6-0.4,1.2
		c1-0.1,1.5-0.5,1.5-1.5c0.7,0.1,1.2-0.1,1.5-0.8l0,0c1-0.5,1.6-1.2,1.5-2.3l0,0c1-0.4,1.5-1.2,1.5-2.3l0,0c0-0.4,0.1-0.8,0.2-1.1
		c-0.1,0.3-0.2,0.7-0.2,1.1C306.6,127.9,306.6,127.9,306.3,129.5z M306.8,145.8L306.8,145.8c0.1-0.1,0.1-0.2,0.2-0.2
		C307,145.6,306.9,145.7,306.8,145.8z M307.3,145.3L307.3,145.3c-0.2-0.1-0.3-0.2-0.5-0.3C306.9,145.1,307.1,145.2,307.3,145.3
		c0.3,0,0.5,0,0.8,0C307.8,145.3,307.5,145.3,307.3,145.3z M325,170.8c-0.5,0-1,0-1.5,0.2C324,170.8,324.5,170.8,325,170.8
		c0.3,0,0.5,0,0.8,0C325.6,170.7,325.3,170.7,325,170.8z M326.4,168.3L326.4,168.3c1.5,0.3,2.8,1,4.1,1.7
		C329.2,169.3,327.9,168.7,326.4,168.3z M332,162.9L332,162.9c0,0.2,0,0.4,0,0.6C332,163.3,332,163.1,332,162.9z M397.1,107.2
		c-0.8,1-0.5,2.5-1.7,3.3c0-0.9,0-1.8,0.1-2.6c0-0.3,0.3-0.7,0.5-0.9c0.1-0.2,0.5-0.2,0.7-0.2C397.1,106.7,397.3,107,397.1,107.2z"
		/>
	<path class="st0" d="M395.4,120.5L395.4,120.5C395.4,120.6,395.4,120.6,395.4,120.5L395.4,120.5z"/>
	<path class="st0" d="M585.6,79.6L585.6,79.6L585.6,79.6z"/>
	<path class="st0" d="M357.5,361.6c0.3-0.1,0.4-0.2,0.2-0.3C357.7,361.3,357.6,361.5,357.5,361.6c-2.4-0.8-3.8-2.9-5.8-4.3
		c-0.2-0.1-0.3-0.5-0.3-0.7c0-1.5-0.8-2.3-2.2-2.8c-0.3-0.1-0.8-0.4-0.9-0.6c-0.3-1.6-1.9-2.5-2.3-3.9c-0.2-0.8-0.8-1.2-1.5-1.6
		c-1-0.5-1.9-1.2-3-1.7c-1.9-0.9-2.7-2.3-2.5-4.3c0-0.6,0.4-1.4-0.2-1.8c-1.5-1-1.6-2.6-1.9-4c-0.5-1.9-1.2-3.3-3.4-3.7
		c-0.7-0.1-1.3-0.6-1.2-1.3c0.4-2.9-1.5-5.1-1.9-7.8c-0.1-0.4-0.3-0.7-0.8-0.7c-0.4,0-0.7,0.2-0.9,0.5c-1.4,2.9-2,6-2.2,9.2
		c-0.2,2.6-0.7,5.1-2,7.3c-0.6,1.1-1.3,1.5-2.5,1.3c-0.6-0.1-1.4-0.3-1.7-0.7c-1.6-1.8-3.8-2.5-5.9-3.5c-1.3-0.6-2.4-1.5-3.4-2.5
		c-0.6-0.6-0.9-1.3-0.5-2.1c0.8-1.5,0.5-3.6,2.7-4.3c0.2-0.1,0.2-0.4,0.4-0.7c0.6-1,0.4-1.7-0.9-1.8c-3.2-0.3-6.3-0.8-9.2-2.3
		c-0.5-0.4-0.9-1.2-1.4-1.2c-2.1-0.1-4.3,0-6.4,0.1c-0.5,0-0.8,0.6-0.9,1.1c-0.1,0.8,0.5,0.7,1,0.8c1.3,0.2,2.5,0,3.5-0.9
		c0.6-0.5,1.2-0.1,1.7,0.2c0.7,0.3,0.8,0.9,0.6,1.6c-0.8,0-1.5,0.1-2.3,0c-2.2-0.1-3.7,0.8-4.6,2.7c-0.5,0.9-1,1.8-1.7,2.5
		c-0.9,0.9,0.1,2.4-1.1,3c-2-0.2-3.5-1-4.8-2.4c-0.5-0.6-1.2-1.2-2-1.1c-2,0.3-3.9,1.2-5.4,2.4c-1,0.9-1.7,2.2-2.9,3
		c-0.2,0.2-0.4,0.7-0.4,1c0.2,1.2-0.4,1.7-1.5,1.6c-0.9-0.1-1.1,0.4-1.1,1.1c0,0.5,0.4,1.2-0.3,1.6c-1.1-0.2-0.8-1.6-1.8-1.8
		c-2.6,2.1-2.6,2.1-3.1,4.8c-0.1,0.4-0.1,0.8-0.3,1.1c-2,3.1-4.1,6-8.1,6.5c-2.5,0.3-4.6,1.4-6.8,2.5c-0.7,0.4-1.4,0.8-2.1,0.7
		c-1.9-0.2-3.2,0.7-4.4,1.9c-0.7,0.7-1.6,1.3-2.5,1.8c-1.3,0.7-2.5,1.4-3.4,2.5c-0.5,0.7-1.2,0.9-2,0.4c-0.4-0.2-0.7,0.1-0.9,0.4
		c-0.5,0.7-1.2,1.6-1,2.4c0.6,2.1-0.4,3.7-1.3,5.4c-0.4,0.7-0.4,1.5,0.1,2.2c0.9,1.4,1.7,2.9,3,4c0.2,0.1,0.3,0.5,0.2,0.7
		c-0.2,0.4-0.6,0.3-1,0.3c-0.6-0.1-1.2-0.3-1.9-0.4l0,0c-0.2-0.1-0.3-0.2-0.5-0.3c0.1,0.1,0.2,0.3,0.3,0.4c0.1,0.4,0.5,0.9,0.3,1.1
		c-0.8,0.8-1,1.5,0.3,1.9c1.8,0.6,3.1,1.6,3.7,3.6c0.2,0.7,0.9,1.2,1.5,1.8c0.9,1,1.9,1.8,2.6,2.9c1.3,2.1,2.9,3.9,5.2,5.1
		c1.7,0.9,1.9,2.7,2.5,4.2c0.5,1.1-0.6,1.6-1.1,2.3c-0.3,0.5,0.2,1.5,0.8,1.5c1.7,0,3.4-0.3,5-0.1c4.3,0.5,7.7-1.4,10.7-4.1
		c0.9-0.8,1.8-1.4,2.9-1.7c2.1-0.5,4.2-1,6.4-1.6c1.7-0.4,3.6-0.6,4.2-2.8c0.1-0.4,0.7-0.8,1.1-1c2-1.3,3.9-2.8,6.5-3.1
		c1.7-0.2,3.3-1.3,4.9-2.2c2.6-1.3,5.4-1.9,8.2-1.8c1.5,0.1,3,0.4,4.6,0.3c1.3,0,2.4,0.3,3.5,1.2c1.5,1.3,3.3,2.5,4.4,4.3
		c0.4,0.6,1.2,0.5,1.5-0.2c0.6-1.5,1.5-2.7,3.2-3c0-0.1,0-0.2,0.1-0.3c0.1-0.3,0.1-0.8,0.5-0.5c0.3,0.2,0.2,0.6-0.1,0.9
		c-0.1,0.1-0.2,0.1-0.3,0.2c0,1,0.1,2-0.3,2.9c-0.1,0.2,0.1,0.6,0.2,0.6c0.3,0,0.8,0,1-0.1c0.3-0.2,0.4-0.6,0.6-0.9s0.2-0.8,0.7-0.7
		c0.6,0.1,0.7,0.6,0.7,1.1c0,0.2,0,0.5,0,0.7c0,0.3,0,0.5,0,0.8c0.7,0,1.5-0.1,2.2-0.1c0.9,0.5,1.5,1.4,2,2.3
		c0.5,1.2,1.5,1.7,2.7,1.8c0.6,0.1,1.2,0.3,1.9,0.4c2.6,0.2,5.3,1.1,7.9-0.3c0.8-0.5,1.8-0.3,2.6,0.1c1.1,0.5,2,0.3,2.9-0.4
		c1.3-0.9,2.6-1.6,4.2-1.6c0.8,0,1.7-0.5,2.5-0.9c0.5-0.2,0.7-0.7,0.7-1.3c0.2-3.1,1.6-6.8,3.6-9c1.3-1.4,2.1-2.8,2.5-4.7
		c0.3-1.5,0.7-3,1.1-4.5c0.2-0.6,0.3-1.3-0.1-1.9C357.3,366.4,357.5,364,357.5,361.6z M317.4,373.3c-0.3,0.3-0.7,0.5-1,0.3
		c-0.8-0.7-1.3-1.5-1.2-2.6c0.1-0.4,0.3-0.7,0.8-0.7c1-0.1,1.3,0.6,1.6,1.3C317.9,372.2,318,372.8,317.4,373.3z"/>
	<path class="st0" d="M780,123.2c0.2-0.9,0.3-1.7,0-2.6c-0.3-0.8-0.4-1.8-0.4-2.6c0-1.3-0.2-2.5-1.3-3.5c-1-0.9-1.2-2.3-1.6-3.4
		c-0.3-0.6-0.3-1.3,0.1-1.8c1.4-1.7,1.4-3.6,1.4-5.6c-0.1-2.3,0.4-4.6,1.3-6.7c0.9-2.1,1.3-4.4,1.8-6.7c0.2-0.8,0.3-1.5-0.2-2.2
		c-0.3-0.5-0.6-1.1-0.7-1.8c-0.3-1.8-1.4-3-3-3.7c-5.8-2.6-5-2.7-8.6,1.6c-1.1,1.4-2.5,2.2-4,2.9c-0.8,0.4-1.7,0.7-2.5,0.9
		c-2.7,0.5-5,1.9-7.5,3c-1.5,0.7-2.6,1.6-3.2,3.1c-1,2.4-2.9,3.9-4.8,5.4c-1.2,1-2.5,1.7-3.1,3.3c-0.3,0.8-1.1,1.6-2.1,1.6
		c-3-0.1-5,1.9-7.2,3.4c-1.7,1.1-4,2-4.5,4.5c-0.1,0.5-0.6,0.3-0.9,0.4c-2.1,1.2-4.6,1.8-5.7,4.5c-0.4-1.1-0.6-2-0.9-2.8
		c-0.4-0.7-1-1.2-1.9-0.7c-0.6,0.3-1.3,1-1.7,0.6c-1.3-1.1-3-0.3-4.2-1.2c-1.3-0.9-2.1-0.4-3.1,0.4c1.6,1.1,2,2.9,2.5,4.5
		c-0.5-1.7-0.9-3.4-2.5-4.5c-2.6,0.8-5.4,1.3-7.1,3.9c-1.1,0.3-1.6,1.1-2.2,2c-1.1,1.9-2.2,3.7-3.2,5.5c-0.5,0.1-0.9,0.3-1.4,0.4
		c-0.8,0-1.7-0.2-2.2,0.7c-0.3,0.1-0.7,0.2-1,0.2c-1.3-0.3-2.6-0.5-3.8,0.5c0.3,0,0.6,0,1,0.1c-0.3,0-0.7-0.1-1-0.1
		c-0.5,0.2-1.1,0.5-1.6,0.7c-1.2,0.5-1.9,2.3-3.6,1.1c-0.6-0.4-1.2,0.2-1.8,0.5c-1,0.5-2,1.5-3,1.5c-1.1,0-1.6,0.2-2.1,1.1
		c-0.6,1.1-1.2,2.2-1.1,3.6c0.2,1.3-0.6,2.3-1.7,2.8c-1.6,0.8-2.7,1.9-3.2,3.6c-0.2,0.6-0.7,1.4-1.3,1.2c-2.2-0.6-3.4,1.6-5.3,1.8
		c-0.6,0.1-0.9,0.6-0.4,1.1c1.3,1,0.3,2.1,0.2,3.2c-0.1,1.2-1.1,1.3-2,1.1c0.1-0.6,0.3-1.2,0.3-1.9c0-0.3-0.5-0.6-0.8-0.7
		c-0.4-0.2-0.7,0.2-0.9,0.5s-0.3,0.7-0.3,1.1c0.1,2.3-0.3,4.5-1.4,6.6c-0.9,1.7-1.2,3.5,0.2,5.4c1,1.4,1.2,3.3,1,5.1
		c0,0.3-0.5,0.5-0.7,0.8l0,0c-2-0.3-3.5,0.7-4.6,2.2c0.3,0.4,0.6,1,1.1,0.8c1.5-0.5,2.9-0.4,4.2,0.6c0.2,0.1,0.6-0.2,1-0.3
		c0.3,0.2,0.5,0.4,0.8,0.6c0.6,0.1,1.4,0,1.9,0.3c1.8,1.2,3.6,2.4,5.3,3.8c1,0.8,1.6,2,1.2,3.4c-0.3,1-0.2,1.7,0.4,2.5
		c0.5,0.6,0.8,1.2,1.3,1.9c0.3,1.3-1.5,1.9-1.1,3c0.3,1,1.1,2,1.6,3c0.2,0.4,0.3,0.9,0.5,1.4c0.7,1.7,1.9,2.6,3.8,2.3
		c0.3,0,0.6,0.1,0.8,0.1c0.1,0.2,0.2,0.4,0.2,0.6c-0.1,0.9-0.2,1.8-0.2,2.7c0,0.5,0.2,1.2,0.6,1.3c1.7,0.8,3.1,2.9,5.4,1.3
		c0.9-0.6,2-0.4,3-0.4c1.8,0,3.6,0.5,5.3,0.5c1.6,0,2.4,2.7,4.2,1.1c1.8,0,3.6,0,5.4,0.1c0.2,0,0.6,0.1,0.7,0.3c1.5,1.6,3,0.8,4.5,0
		c1.1-0.6,2.4-1.1,3.4-1.9c2.5-2.1,5.5-3.3,8.6-4.1c1.8,0.9,3.5,2,4.4,3.6c1.7,2.9,3.9,5.3,5.8,8.1c0.4,0.6,0.8,1.3,1,2.1
		c1.2,2.9,2.8,5.4,5,7.6c0.5,0.5,1.4,1.3,1.3,1.8c-0.3,1.6,0.7,2.3,1.5,3.4c0.7,0.9,0.8,2.4,1,3.7c0.2,1.1,0.5,1.9,1.3,2.7
		c2.4,2.5,4.6,5.1,6.9,7.7c0.3,0.3,0.5,0.6,0.8,0.8c0.7,0.7,1.1,0.4,1.7-1c-1-0.4-1.7-1.1-2.1-2.1c0-0.1,0-0.2,0-0.4
		c0.1-0.3,0.4-0.3,0.6-0.1c0.8,0.7,1.6,1.4,1.4,2.6c1.2,0.4,1.9,1.2,2.2,2.4c-1.6,1.2,0.2,1.8,0.4,2.7c0.1,0.4,0.1,0.7,0.1,1.1
		c0.1,0.6,0.3,1.2,0.4,1.9c0.2,0.9,0.7,1,1.3,0.3s1.1-0.3,1.6,0.2c0.3,0.4,0.8,0.7,0.5,1.3c-0.3,0.7,0.1,1.1,0.5,1.7
		c1.5,1.9,3.5,2.4,5.6,2.3c1.6-0.1,2.8,0.3,3.8,1.4c0.5,0.6,1.2,1,1.9,1.2c0.4,0.1,0.9,0.3,1.1,0.2c1.6-1.2,3.7-0.9,5.4-1.7
		c1.9-0.9,3.3-1.9,3.2-4.2c0.4-0.7,0.6-1.4,0.4-2.2c-1.6,0.2-3.1,1-4.7,0.7c-0.8-0.8-1.8-1.4-3-1.5c-1,0.8-2,1.6-3,2.3l0,0
		c-0.1,0.2-0.2,0.4-0.3,0.5c0.1-0.2,0.2-0.4,0.3-0.5l0,0c1-0.8,2-1.6,3-2.3l0,0c-0.1-0.4-0.3-0.6-0.7-0.6c-1-0.5-2.4-0.9-2.3-2.2
		c0.2-2.5-1.2-4.7-0.8-7.2c0.3-1.9-0.3-2.2-2.5-1.8c-0.3,0.1-0.5,0.1-0.7,0.2c-1.3,0.1-2.3-0.8-2.1-2.1c0.1-0.6,0.3-1.3,0.6-1.8
		c0.5-0.9,0.5-1.8,0-2.6c-0.9-1.7-1.2-3.3-0.3-5.1c0.1-0.1-0.1-0.5-0.3-0.7c-0.3-0.3-0.6-0.4-1,0c-0.3,0.3-0.5,0.6-0.9,0.7
		c-0.9,0.3-1.5-0.2-2-0.9s0-1.2,0.5-1.5c0.8-0.5,1.5-1,2.1-1.7c0.6-0.8,0.9-1.5,0.1-2.4c-0.5-0.6-0.7-1.4-1.1-2
		c-0.4-0.7-0.3-1.2,0.2-1.7c0.6-0.5,1.1-1,1.7-1.6c0.2-1.1,1-1.8,1.6-2.6c1-1.3,1.6-2.6,1.7-4.2c0-0.8,0-1.5,0.1-2.3
		c0-0.3-0.1-0.5-0.1-0.8c-1.6-2.3-3.9-2.5-6.4-2.3c0.8-1.1,2-1.6,3.2-2c1.3-0.4,1.8-1.9,3.1-2.1c0.9-1.1,1.7-2.2,1.7-3.7
		s0.4-3,0.6-4.5l-0.2-0.1c0.1-1.5,0.2-3.1,0.2-4.6c-1-1-0.6-2.1-0.1-3.2c0.1,1,0.1,2.1,0.2,3.1c1.1-1.1,0.3-2.8,1.2-4
		s0.6-2.7,0.2-3.9c-0.3-0.9-0.5-1.6-0.1-2.5c0.5-1.4,0.7-2.8-0.3-4c-1.4-1.8-1.6-3.6-0.5-5.6c0.4-0.6,0.4-1.5,0.6-2.2
		c0.6-2,1.5-3.8,2.8-5.4c0.3-1.3,0.8-2.5,2.1-3.2v-0.1c-0.3-1.7,1.1-2.7,2.1-3.5c2.8-2.3,3.1-5.4,3.4-8.6c0.1-1.1-0.2-2.3,0.7-3.3
		c0-2.2,0.9-4.5-0.5-6.7C779.6,124.3,779.9,123.6,780,123.2z M669.5,152.3c-0.2,0.6-0.6,0.7-1.6,0.7c-0.1,0-0.6-0.1-0.9-0.5
		c-0.3-0.3-0.6-1-0.5-1.4c0.1-0.5,0.8-0.5,1.3-0.4c0.4,0.1,0.8,0.2,1.1,0.4C669.3,151.4,669.7,151.7,669.5,152.3z M696.1,169.2
		L696.1,169.2L696.1,169.2c0.1-1.2-0.2-2-0.8-2.7C696,167.2,696.3,168,696.1,169.2L696.1,169.2z M696.8,169.5
		c0.4,0.2,0.7,0.4,0.9,0.6C697.5,169.9,697.2,169.7,696.8,169.5z M700.5,135.4L700.5,135.4l0.1-0.1
		C700.5,135.4,700.5,135.4,700.5,135.4z M700.8,129.1c0-0.8-0.2-1.5-0.4-2.2C700.6,127.6,700.7,128.3,700.8,129.1L700.8,129.1z
		 M708.5,129.9c-0.5,1.8-1.1,3.6-1.6,5.3C707.5,133.4,708,131.6,708.5,129.9c-1.6,0-3.2,0.1-4.8,0.1c-0.5,0.3-1,0.7-1.5,1
		c0.5-0.4,1-0.7,1.5-1C705.4,129.9,706.9,129.9,708.5,129.9c0.5-0.3,0.9-0.5,1-1.1C709.4,129.3,709,129.6,708.5,129.9z M711.5,180.6
		c-0.4,0.5-0.8,1-1.2,1.5C710.6,181.6,711.1,181.1,711.5,180.6c1-0.9,1.4-2.1,1.7-3.3C712.9,178.6,712.4,179.7,711.5,180.6z
		 M731.4,193.1c-0.4,0.2-0.8,0.6-1.2,0.6C730.6,193.7,731,193.3,731.4,193.1c-0.2-1.8,0.2-3.2,1.1-4.4
		C731.6,189.9,731.2,191.3,731.4,193.1z M743.3,169.9c-0.4-0.6-0.6-1.2-0.7-1.8C742.7,168.7,742.9,169.3,743.3,169.9
		c0.2,0.1,0.4,0.3,0.6,0.4C743.7,170.1,743.5,170,743.3,169.9z M756.4,172.1c0-0.2,0-0.4,0-0.6c0.2,0,0.3,0,0.5,0
		c-0.2,0-0.3,0-0.5,0C756.4,171.8,756.4,171.9,756.4,172.1z M756.5,184.6c0-0.9,0-1.8,0.1-2.7C756.5,182.8,756.4,183.7,756.5,184.6
		c1,0.1,2,0,2.8-0.3C758.4,184.6,757.5,184.7,756.5,184.6z"/>
	<path class="st0" d="M497.5,36.3C497.5,36.3,497.4,36.3,497.5,36.3C497.4,36.3,497.4,36.3,497.5,36.3
		C497.4,36.4,497.5,36.4,497.5,36.3C497.5,36.4,497.5,36.4,497.5,36.3z"/>
	<path class="st0" d="M498,36.8c0.7,1.4,1.8,1.9,3.4,1.9c1.4,0,1.8,0.6,1.6,1.9c-0.2,1.4-0.2,2.8-0.1,4.2c1.6,0.1,3.2,0.1,4.7,1.2
		c1.2,0.9,3,0.5,4.5,0.2c1.1-0.2,1.5-1.3,1.9-2.3c0.8-1.6,2.1-2.2,3.8-2.2c4.1,0,8.2-0.4,12.1,1.5c0.6,0.3,1.2,0.5,1.8,0.7
		c0.5,0.1,1,0,1.4-0.5c0.5-0.7,1-0.6,1.6-0.2c0.9,0.7,1.8,1.4,2.8,2c1.1,0.6,2.1,0.1,2.6-1.2c0.1-0.4,0.2-0.7,0.3-1.2
		c1.1,0.4,2.4,0.3,2.7,1.8c0.3,1.2,1.3,1.9,2.4,2.3c1.3,0.5,2.7,0.8,4.1,0.9c2.5,0.2,5.1,0.3,7.7,0.3c2.5,0,5-0.8,7.6-0.7
		c0.8,0,1.9-0.3,2.3-1.1c0.8-1.5,1.9-2.3,3.5-2.7c0.9-0.3,0.8-1.6-0.1-2.1c-1.7-0.8-3.4-1.9-5.3-2.1c-0.7-0.1-1.2-0.3-1.7-0.8
		c-1.3-1.5-3-2.4-4.9-2.8c-1.4-0.3-2.2-1-2.4-2.5c-0.2-2.2-1.4-3.8-3.7-4.5c-0.2-0.1-0.5-0.2-0.7-0.3c-0.9-0.3-1.5-0.9-1.7-1.9
		c-0.3-2.9-2.3-4.4-4.6-5.7c-0.7-0.4-1.4-0.6-1.9,0.4c-0.3,0.6-0.8,1-1.5,1c-0.1,0-0.3,0-0.4-0.1c-0.4-0.1-0.4-0.3-0.1-0.5
		c0.2-0.1,0.4-0.3,0.6-0.4c0.4-0.3,0.7-0.7,0.5-1.3c-0.3-0.6-0.8-0.5-1.3-0.5s-1,0.2-1.5,0.3c-2.7,0.5-5.2,0.5-7.9-0.5
		c-2.2-0.8-4.6-1.4-7.1-0.8c-0.4,0.1-0.8,0.1-1.1,0c-2.4-1.1-4.8-0.2-7.1,0.4c-0.9,0.2-1.7,0.5-2.6,0.3c-3.6-0.8-7.3-1.1-10.8-2.6
		c-1.2-0.5-1.8,0-1.7,1.5c0,1.6-0.8,2.3-2.3,1.9c-0.4-0.1-0.8-0.3-1.1-0.2c-1.7,0.8-4,1-4.7,3c-0.5,1.6,0.5,3.4,1.5,4.6
		c1,1.3,1.3,2.4,1.1,3.8c-0.2,1.3,0,2.5,1.3,3.4c0.5,0.3,0.4,1.2,0.3,1.8C497.7,36.5,497.9,36.6,498,36.8z M521.1,18.9
		c0-0.1,0.4-0.2,0.6-0.1c0.2,0.1,0.2,0.4,0.3,0.6c-0.2,0.1-0.3,0.3-0.5,0.3C521.2,19.5,521,19.3,521.1,18.9z"/>
	<path class="st0" d="M458.8,136L458.8,136L458.8,136L458.8,136L458.8,136L458.8,136L458.8,136L458.8,136L458.8,136z"/>
	<path class="st0" d="M250.1,312.9L250.1,312.9L250.1,312.9L250.1,312.9z"/>
	<path class="st0" d="M240.9,292.2c0.6,1,1.9,0.5,2.9,0.7c0.1,0,0.3,0,0.4,0.1c1,1.6,2.6,1.1,4.1,1.4c1.4,0.2,3.1,0.3,3.6,2.3
		c0.1,0.5,0.7,0.8,1.2,0.6c1.1-0.4,2.3,0,3.3-0.3c1.2-0.3,0.5-2.1,1.3-3c0.6-0.8,1-1.8,1.2-2.8c0.1-0.8,0.7-1.4,1.4-1.8
		c1.8-0.9,3-2.2,3.5-4.3c0.2-1,1-1.6,2.3-1.7s1.7-0.9,1-1.8c-1.3-1.4-0.4-2.9-0.5-4.4c-0.6-0.9-0.8-1.8,0.1-2.8
		c0.4-0.4,0.5-1.1,0.8-1.7c0.6-0.2,1.7,0.3,1.8-0.7c0.2-1.4,1.2-0.8,1.9-0.9c0.5-0.3,0.8-0.8,0.5-1.3c-1.1-1.4-2.7-2.4-3.1-4.3
		c-0.1-0.6-1.3-0.8-2-0.5c-1.2,0.4-1.5,1.7-2.4,2.4c-1,0.9-2.8,0-3.6,1c-1.2,1.7-3.4,1.8-4.5,3.4c-1.4,2-3.4,2.5-5.7,2.5
		c-0.2,0.2-0.4,0.4-0.6,0.6c-0.4,0.7-0.8,1.5-1.3,2.2s-1,0.6-1.5,0c-0.3-0.3-0.6-0.8-1-1.1c-0.3-0.2-0.7,0.1-0.9,0.4
		c-2.9,2.2-3.6,5.2-3.4,8.5c0.1,1.2,0.1,2.2-0.2,3.4C240.9,289.7,240.1,291,240.9,292.2z"/>
	<path class="st0" d="M497.4,64.2c-0.1-0.2-0.2-0.3-0.3-0.5c0.2,0.1,0.3,0.2,0.5,0.3c1.2,0.2,2.4,0.3,3.6,0c0.1-1.1,0.8-1.5,1.7-1.9
		c2.5-1.1,4.9-2.3,6.7-4.4c1.5-1.8,0.9-2.6-1-3.4c-1-0.4-2.1-0.2-2.9,0.6c-0.6,0.6-1.1,1.4-1.6,2.1c-0.6,0.8-1.4,1.1-2.4,0.9
		c-0.3-0.1-0.7-0.3-0.9-0.6c-0.3-0.3-0.1-0.8,0.2-1c1.4-1.1,2.6-2.5,4.2-3.3c1.1-0.6,1-2.2-0.2-2.7c-1.5-0.7-2.1-1.8-2.3-3.2
		c-0.1-0.7,0-1.5,0-2.3c-1.6,0.2-2.5-1-3.4-2c-0.7-0.8,0.6-2.2-0.6-3.1c-0.9-0.7-1.5-1.7-1.4-3c0-0.1,0-0.2,0-0.4
		c-0.8-0.4-1.8-0.6-2.1-1.5c-0.4-1.8-1.7-1.7-3-1.6c-2.2,0.1-3.7,1.5-5.4,2.7c-1.1,0.8-0.9,2-1.2,3.1c-0.3,1.1-0.5,2.2-0.9,3.3
		c-0.2,0.8,0.1,1.2,0.7,1.6c0.4,0.3,0.8,0.6,1.2,0.9c0.4,0,0.8-0.1,1.1,0c2.3,0.4,3.7-0.4,4.2-2.7c0.1-0.2,0.2-0.4,0.4-0.6
		c0.1-0.1,0.3-0.1,0.4-0.1c0.2,0.1,0.4,0.3,0.4,0.5c0.1,1.4-0.6,2.4-1.5,3.4c-0.5,0.6-0.1,1.2,0.1,1.8c1.6-0.1,3.2,0.3,4.7,1.1
		c-0.6,0.7-1.4,1.4-2.2,0.4c-0.7-0.9-1.9-0.7-2.5-1.6c-1.8-0.2-3.4-0.8-5.1-1.4c-0.8-0.3-1.5-0.1-2,0.7c0.3,0.7,0.6,1.4,0.8,2.1
		c0.3,1.1,1,1.9,2,2.1c1.6,0.3,2.6,1.3,3.9,2.1c0.8,0.5,1.7,0.6,2.6,0.4c0.1-0.7,0.1-1.8,0.9-2c1.2-0.2,2.4-1.1,3.6-0.1
		c0.4,0.3,0.8,0.6,1.2,0.9c-0.6,0.7-1.2,0.2-1.8,0.2c-0.7,0-0.7,0.5-0.8,1c1.3,2,0.7,3.7-1.2,3.9c-0.9,0.1-1.8,0-2.6,0
		c-0.1,0.5-0.3,1-0.2,1.4c0.2,0.4,0.7,0.7,1.2,0.8c0.6,0.1,1.3,0.1,1.9-0.1c1.3-0.4,2.2,0.2,3,1.3c-1.1,0.6-2.2,1.2-3.3,1.8
		c-0.7-0.6-1.3-1.2-2-1.7s-2.2-0.4-2.5,0.2c-0.5,0.9-0.9,1.8-2,2c0,0.7,0.1,1.4,0.1,2.1c1.8,0.1,3.7,0.3,5.4,0.9
		C497,65.7,497,65.7,497.4,64.2z M494.6,45.5c-0.1-0.1-0.2-0.2-0.3-0.4c0.2,0,0.4-0.1,0.7-0.1c0.1,0,0.2,0.1,0.3,0.2
		C495,45.3,494.9,45.4,494.6,45.5z"/>
	<path class="st0" d="M502.8,44.9C502.9,44.9,502.9,44.9,502.8,44.9C502.9,44.9,502.9,44.8,502.8,44.9
		C502.9,44.8,502.9,44.8,502.8,44.9C502.8,44.8,502.8,44.9,502.8,44.9z"/>
	<path class="st0" d="M489.7,64.9L489.7,64.9L489.7,64.9L489.7,64.9z"/>
	<path class="st0" d="M73.1,227.9L73.1,227.9L73.1,227.9z"/>
	<path class="st0" d="M89.6,212.9c-0.9,0.3-1.7,0.6-2.6,0.2c-0.6-0.3-1.2-0.2-1.8,0c-2.1,0.8-4-0.2-5.9-1.1c-0.8-0.4-1.5-1-2.3-1.4
		c-2-1.2-4.5-0.7-5.5,1.4c-1.3,2.8-3.2,4.2-6.3,3.7c-0.8-0.1-1.5,0.4-1.9,1.1c-0.5,0.9-0.9,1.8-1.4,2.8c-0.9,1.9-0.5,3.8,0.5,5.5
		c0.4,0.8,1.2,1.3,1.8,2c1.1,1.3,2.3,1.8,4.1,1c1.5-0.7,3.2-1,4.8-0.2c0-0.7,0.2-1.3,0.8-1.6c1.4-0.7,2.7-1.6,4.2-1.9
		c2.3-0.5,4.3-1.7,6.3-2.9c0.8-0.5,1.4-1.1,2.3-0.2c0.3,0.2,0.7,0,1-0.3c1.6-2,3.2-4,3.7-6.7C91.6,213,91.1,212.4,89.6,212.9z"/>
	<path class="st0" d="M306.4,292c-0.5-0.2-0.9-0.5-1.3-0.8c-1,0-2.1,0-3.1-0.1l0,0c-1.1,1.2-2.5,0.7-3.8,0.9
		c0.1,0.8,0.4,1.6,1.1,1.9c1.2,0.4,1.9,1.1,2.6,2.1c0.4,0.5,1.2,0.7,1.8,1c-0.5,0.6-1.6-0.1-1.8,1c0.4,0.8,1.5,1,1.7,2
		c0.1,0.5,0.3,1,0.6,1.3c0.6,0.5,1.2-0.1,1.7-0.4c0.7-0.4,1.3,0.1,1.8,0.4c1.7,1.2,3.5,2.1,5.6,2.5c0.9,0.2,1.6,0.7,2.5,1.1
		c1.8,0.7,2.9,2,3.6,3.8c0.6,1.6,0.7,1.7-0.6,2.9c-0.6,0.5-1.1,1.1-1.4,1.8c-0.3,0.6,0.1,1.4,0.8,1.5c0.6,0.1,1.4,0.3,1.9,0
		c2.4-1.1,3.9-0.2,5.1,1.8c0.2,0.3,0.6,0.5,0.9,0.7c1.3,0.1,2.5,0.3,3.8,0.4c1.7,0.2,1.8,0.2,2.8-2c0.2-0.4,0.4-0.6,0.7-0.8
		c2.9-1.4,5.6-0.8,7.3,1.9c1.6,2.7,3.5,5,7,5.2c0.6,0,1.1,0.6,1.7,0.9c1.6,0.8,1.9,0.7,3.3-0.7c0.4-0.4,0.8-0.6,0.6-1.2
		c-0.3-0.8-0.7-1.4-1.6-1.5c-0.6,0-0.3,0.4-0.2,0.7c0.1,0.2,0.3,0.5,0.3,0.6c-0.2,0.3-0.7,0.4-1,0.1c-0.9-0.8-1.7-2.1-2.7-2.6
		c-1.7-0.7-2.3-1.9-2.7-3.4c-0.8-0.2-1.2-0.8-1.5-1.5c-0.6-0.6-1-1.4,0.2-1.5c1.3-0.1,1.7-0.7,1.7-1.8c0-0.2,0.2-0.4,0.4-0.6
		c-1.8,0.3-3.1-0.8-4.6-1.4c-1.1-0.4-1.8-0.9-1.4-2.2c0.1-0.5-0.1-0.7-0.5-0.9c-1-0.3-1.7-1.2-2.5-1.7c-3.2-2-6.6-3.7-10.3-4.8
		c-2.4-1.2-5.1-1.8-7.3-3.4c-0.7-0.5-1.6-0.6-2.2-0.1c-1.2,1-2.2,0.6-3.3-0.1c-0.2-0.2-0.9-0.1-1.1,0.1c-0.4,0.4,0.3,0.5,0.4,0.8
		c0.5,1.4-0.7,3.3-2.1,3.3c-0.2,0-0.6-0.1-0.7-0.2c-1-1.4-2.7-2.4-2.3-4.6C308.3,293.4,307.6,292.5,306.4,292z"/>
	<path class="st0" d="M124.1,182.3L124.1,182.3L124.1,182.3L124.1,182.3z"/>
	<path class="st0" d="M345.9,309.8L345.9,309.8L345.9,309.8L345.9,309.8z"/>
	<path class="st0" d="M340.5,182.8c-0.8,3-2.9,5-5.7,6.3c-0.6,0.3-0.9,0-1-0.7c0-0.2-0.4-0.5-0.4-0.5c-0.9,0.6-2.4,0.4-2.6,1.9
		c-0.3,2-1.5,2.3-3.2,2.2c-1,0-2,0.4-3,0.3c-0.7-0.1-1.3,0.1-1.8,0.5c-1.4,1.1-2.8,2.2-4.2,3.3c2.1,0.6,4-0.2,6-0.7
		c0.7-0.2,1.4-0.5,2.2-0.7c0.7-0.1,1.3,0.4,1.1,1.1c-0.3,0.9-0.4,1.7-0.2,2.6c0.8,0.1,1.4-0.4,1.9-0.9c0.6-0.6,1.2-1.4,2-1.6
		c0.9-0.2,1.9,0.1,2.9,0.2c1.6-1.3,3.4-1.2,5.3-0.9c0.8-0.8,1.8-1.3,1.5-2.8c-0.3-1.7,1.2-3.1,1.1-4.8c0-0.4,0.5-0.5,0.9-0.6
		c0.3-0.1,0.8,0.1,1-0.4c0.5-2.1,1.7-4,1-6.3c-0.6-1.9-0.8-3.9-1.2-5.9c1.5-0.3,2.8,0.1,3.9,1c0.7,0.5,1.4,0.7,1.9-0.2
		c0.8-1.5,2.3-1.5,3.7-1.6c0.3-0.2,0.6-0.4,0.9-0.6l0.1-0.1c-0.3-1-0.6-1.9-0.8-2.9c-2-0.2-3.3-1.3-4.1-3.1
		c-0.2-0.5-0.5-0.9-0.8-1.3c-0.1-0.2-0.5-0.2-0.7-0.2s-0.5,0.3-0.5,0.4c0,2.2-1,4-2.2,6c-0.4-0.4-0.7-0.6-1-0.9
		c-0.2-0.3-0.4-0.7-0.9-0.6c-0.4,0.2-0.5,0.6-0.3,1c0.5,1.2-0.2,1.6-1.2,1.8c-0.2,0-0.4,0.2-0.8,0.5c1.2,0.7,0.7,2.1,1.4,3.1
		c0.2,0.3,1.1,0.4,0.5,1C341.3,179.1,341,180.9,340.5,182.8z"/>
	<path class="st0" d="M266.5,303.6c0.8-0.2,1.2-0.9,1.8-1.3c0.8-0.6,1.5-0.6,2.4,0.1c1.7,1.3,3.6,2.5,5.7,0.5
		c0.4-0.3,1.2-0.1,1.9-0.2c0.4-0.1,0.8-0.2,0.7-0.7c0-0.2-0.4-0.4-0.6-0.4c-1.7,0-2.5-0.8-2.6-2.6c0-0.7-0.7-1.3-1-2
		c-0.5-1-1-2.1-1.4-3.2c-0.3-0.8,0.1-1.6,1-1.7c1-0.1,2-0.1,3-0.2s1-1,1.1-1.7c0-0.7-0.3-1.5-1-1.3c-2.1,0.5-4.4-0.3-6.3,1.1
		c-0.5,0.4-1,0.1-1.2-0.5s-0.5-1.2-0.5-1.8c-0.1-0.8,0.5-1.4,1.2-1.9c0.5-0.4,0.9-0.2,1.4,0.2c1.2,0.8,2.5,0.5,3.7,0.4
		c0.9-0.1,1.6-0.1,2.5,0.4c2.2,1.1,3.3,0.8,4.9-1.1c0.4-0.5,0.9-0.9,1.2-1.5c0.1-0.2,0.2-0.5,0.1-0.7c-0.2-0.4-0.7-0.5-1-0.3
		c-2.2,1.6-4.6,1.5-7,0.9c-1-0.2-1.9-0.7-2.8-1.2c-0.5-0.2-0.9-0.3-1.4,0c-0.9,0.5-2,0.8-2.6,1.5c-0.9,1.1-2.1,0.8-3.3,1.1
		c1.7,1.2,2,1.6,1.3,2.5c-1.4,2-2,4.4-3.7,6.3c-0.8,0.9-1,2.2-0.1,3.2c1.2,1.3,1.1,2.7,0.5,4.3C263.8,303.1,264.9,304,266.5,303.6z
		 M268.9,295.7c0-0.1,0.4-0.3,0.6-0.3c0.2,0.1,0.3,0,0.3,0s0,0.1,0,0.2c-0.1,1.4,0.4,2.7,0.9,3.9c0,0.1,0,0.2,0,0.4
		c-0.1,0.6-0.6,0.8-1.1,0.8c-0.6,0-1.5,0-1.4-0.9C268.3,298.4,268.6,297,268.9,295.7z"/>
	<path class="st0" d="M232.6,247.8c0,1.2-0.7,2.1-1.2,3.2c-0.3,0.7-0.4,1.4-0.2,2.2c1,3,0.6,6-0.5,8.9c-0.7,0.5-0.6,1.3-0.5,2
		c-0.1,0.1-0.2,0.2-0.2,0.4c-0.6,0-1.2-0.1-1.8,0c-0.2,0-0.5,0.2-0.5,0.4c0,0.2,0.2,0.5,0.4,0.6c0.6,0.2,1.2,0.3,1.8,0.5
		c0.4,2.2-0.5,4.3-0.5,6.5c-1-0.8-2.6-1.3-1.9-3.3c0.2-0.5-0.2-1.2-0.5-1.8c-0.6-1.2-0.9-2.5-0.7-3.7c0.4-2.3-0.3-3.6-2.5-4.2
		c-0.4-0.1-0.6-0.8-1-1.1c-0.7-0.6-1.5-0.4-1.7,0.5c-0.1,0.6-0.3,1.3-0.2,1.9c0.2,2.9,0.9,5.8,0.8,8.7c0,0.2,0.1,0.5,0.2,0.7
		c0.7,1.2,0.5,2.4,0.1,3.7c-0.5,1.6-0.5,3.2-0.4,4.9c0.2,2,0,4.1-0.3,6.1c-0.6,3.9-0.9,7.6,1.2,11.2c0.4,0.6,0.5,1.4,0.7,2.2
		c0.2,0.9,0.5,1.3,1.4,1.6c2,0.7,1.9,0.8,0.6,2.5c-0.2,0.2-0.4,0.4-0.5,0.5c0.2,1.1,1.5,1.6,1.3,3c-0.1,1,1.4,0.9,1.8,1.7
		c0.8,0.9,1.8,0.9,2.8,0.8c1.3-0.1,2.6-0.2,3.7,0.5c0.3,0.2,0.7,0.3,0.5,0.8c-0.1,0.2-0.4,0.3-0.6,0.3c-0.5,0.2-1.2-0.3-1.5,0.5
		c3.5-0.1,6.8,1.2,10.3,1c0.2,0,0.6,0,0.7,0.1c2,1.4,4.3,1,6.5,1.3c0-0.5,0.1-1.3-0.1-1.4c-1.7-0.9-2.6-3.2-4.9-3.1
		c-0.4,0-1,0.2-1.1-0.5c0.9-0.6,2.1,0,2.9-0.8c0.2-0.2,0.4-0.4,0.3-0.6c0-0.2-0.3-0.4-0.5-0.5c-0.1-0.1-0.2-0.2-0.3-0.1
		c-2.5,0.3-4.8-0.5-6.9-1.7c-0.5-0.3-1-0.1-1.5-0.1c-1.4,0.2-5-0.3-5.5-0.8c-0.8-0.6-1.6-1.3-2.3-2.1c-0.8-0.8-2.3-0.2-3-1.5
		c0.9-1.8,1.7-3.6,2.8-5.4c0.7-1.2,1.1-2.5,2.4-3.2c0.6-0.3,0.8-0.9,0.8-1.6c0-0.8,0-1.5,0-2.3c-0.1-1-0.4-1.3-1.5-1.2
		c-0.5,0.1-0.9,0.4-1.4,0c-0.3-1,0.4-2,0.4-3c-0.4-0.2-1.2-0.2-0.8-0.8c0.3-0.5,0.8-0.1,1.1,0.3c1-0.6,1.9-0.6,2.9-0.1
		c0.8,0.3,2,0.8,2.5,0.5c1-0.7,2-1,3-1.5c0.5-0.2,0.3-0.9,0-1.3c-0.3-0.7-0.6-0.7-1-0.1c-0.5,0.9-1.3,1.2-2.3,0.8
		c-0.8-0.3-1.7-0.5-2.5-0.7c0.8-2.2,0.8-2.2,0.1-4.4c-0.6,0.1-1.1,0.3-1.4,0.9c0.1,0.8,0.4,1.7-0.6,2.2c-0.2,0.1-0.3,0.2-0.5,0.3
		c0.1-0.2,0.2-0.3,0.3-0.5c0-1.6-1.6-2.4-1.8-4c-0.1-0.8-0.5-1.6-0.5-2.5c0.7,0.3,1.2,0.8,1.5,1.6c0.3,1.1,0.7,2.1,1.6,2.9
		c0.3-0.6,0.7-0.9,1.4-0.9c0.4-1.1,0.4-2.3,0.3-3.4c-0.1-1.6,0.3-3.2,1.3-4.3c1.3-1.4,1.3-2.9,1.1-4.5s-0.4-3.3-1-4.8
		c-0.9-1.9-0.9-3.6-0.4-5.5c0.1-0.3,0.3-0.6,0.4-0.9c0.1-0.7,0.2-1.4,0.3-2.2c-0.7-0.8-1-1.6-0.4-2.6c0.2-0.4,0.3-0.9,0.5-1.3
		c-0.4,0-0.8-0.1-1.2-0.1C233.6,246.5,232.5,246.5,232.6,247.8z"/>
	<path class="st0" d="M260.2,50.9c0,2.6,0.7,3.7,2.7,4.6c0.8,0.3,1.5-0.1,1.5-1c-0.2-3.1,1.3-5.1,4.1-6.3c0.8-0.3,1.7-0.6,2.5-1
		c3.2-1.6,6.5-2.8,10.1-3.2c1.4-0.2,2.8-0.4,4.2-0.8c0.7-0.2,1.5-0.5,2.1-0.9s0.8-1,0.4-1.7c-0.3-0.5-0.8-0.8-1.3-0.6
		c-2.3,1.2-4.7,1-7.2,0.9c-0.8,0-1.6-0.1-2.3,0.2c-1.6,0.5-3.5,0.2-4.7,1.4c-1.5,1.5-3.5,2.3-5.2,3.2c-1.8,0.9-3.2,2.5-5.3,3
		C260.3,49.1,260.2,49.4,260.2,50.9z"/>
	<path class="st0" d="M620.3,157.4c0.1,0.4-0.1,1.2,0.7,1.1c0.3,0,0.7-0.4,0.7-0.7c0.5-2.6,1.9-4.3,4.2-5.5c0.8-0.4,1.4-1,2.1-1.6
		c0.9-0.8,1.9-1.5,2.8-2.3c1-0.9,1.8-0.4,2.6,0.1v-0.1c0.1-0.4,0.4-0.6,0.8-0.6c0.5-0.2,0.8-0.8,1.6-0.2c1.4,1,1.5,1,2-0.4
		c0.4-1.1,0.9-2,1.8-2.8c0.9-0.8,1.2-1.9,1.5-3c0.9-0.6,1.8-1.5,3-1.7c0.9-0.2,1.1,0.6,1.5,1c0.6,0.5,0.2,0.8-0.2,1.2
		c-0.4,0.3-0.8,0.7-1,1.2c-0.1,0.3-0.1,0.8,0.1,1c0.4,0.6,1,0.3,1.3-0.1c1.5-1.5,3-3.1,4.4-4.7c0.3-0.2,0.5-0.5,0.8-0.7
		c-0.1-0.2-0.4-0.4-0.4-0.6c0.4-1.8,0.4-3.7,2-5.1c0.6-0.5,0.9-1.2,0.7-2c-0.8-0.1-1.5,0.4-2.1,0.6c-0.6,0.9-1.6,1.4-2.6,1.4
		c-1.3,0.1-2,1-2.8,1.7c-0.1,0.3-0.2,0.5-0.2,0.8l0,0c-0.6,0.6-1.1,1.4-1.9,1.9c-1.2,0.8-2.2,1.7-2.6,3.2c-0.6,0.2-1.3,0.2-1.8,0.5
		c-1.6,1-3.4,1.8-5.2,2.3c-1.4,0.4-3,1.1-4,2.1c-1.5,1.5-3.3,2.4-5.2,3.3c-0.2,0.2-0.4,0.4-0.6,0.6c-0.5,0.7-1.7,0.6-1.9,1.1
		C621.4,152.6,619.8,154.7,620.3,157.4z"/>
	<path class="st0" d="M314,32.7c1.5,1,4.4,2,6.3,2.3c0.6,0.1,0.8,0.5,0.9,1.1c0.2,1.9,0.2,1.9,1.9,1c0.8-0.4,1.7-0.7,2.4-1.1
		c0.6-0.3,1.1-0.6,1.6-1.1c0.3-0.2,0.3-0.7,0.5-0.9c0-0.2,0-0.4-0.1-0.4c-1.3-1-2.3-2.4-4.3-2.1c-0.6,0.1-1.1,0.1-1.4-0.4
		c-0.8-1.6-3.2-1.9-3.3-4.2c-0.1-1.4-1.9-1.6-3-0.5c-1.1,1-1.6,2.3-2.2,3.6C312.4,31.6,312.5,31.7,314,32.7z"/>
	<path class="st0" d="M279.5,267.7c1.9-2,1.9-2,3.6-2c1.3,0,1.3,0,1.2,1.5c-0.3,2.5,0,3.1,1.9,4c0.7,0.4,1.3,0.1,1.5-0.5
		s0.2-1.2,0.4-1.9c0.1-0.3,0.3-0.4,0.5-0.2c0.2,0.1,0.2,0.5,0.3,0.7c0.1,0.1,0.2,0.2,0.3,0.3c1.3-1.3,2.2-2.7,1.9-4.6
		c-0.1-0.7,0-1.5,0-2.3c0-0.5-0.1-1.1-0.1-1.6c-0.1-0.2-0.2-0.5-0.3-0.7c-0.4,0-0.8,0-1.2,0c-0.6,0.4-0.7,1.4-1.5,1.5
		c-0.2,0.1-0.4,0.1-0.6,0.1c-0.5,0.7-1.1,0.8-1.9,0.8c-0.9,0-1.7,0.1-2.6,0.1l-3.6,4.6C279.2,267.5,279.4,267.7,279.5,267.7z"/>
	<path class="st0" d="M479.3,70.5c1.3,0.7,2.7,1.6,4.3,1.2c0.6-0.2,1-0.2,1.5,0.5c0.8,1.3,1.9,1.4,2.7,0.2c1-1.5,2.4-2.6,3.4-4
		c0.4-0.6,1.2-0.6,1.3-1c0.2-1.2-1.1-0.6-1.6-1.1c-0.4-0.5-0.8-0.9-1.2-1.4c-0.9,0.4-1.8,1-2.7-0.1c-0.2-0.3-0.5-0.6-0.8-0.8
		c-0.5-0.4-0.9-0.1-1.1,0.5c-0.2,0.7,0.3,1.5-0.3,2.2c-0.8,0.4-1.5-0.1-2.2-0.2c-1.2-0.1-2,0.2-2.3,1.4c-0.2,0.7-0.8,0.9-1.5,0.9
		C478.9,69.4,478.7,70.2,479.3,70.5z M487.1,67.6l-0.2,0.2l-0.1-0.2H487.1z"/>
	<path class="st0" d="M478.9,68.8L478.9,68.8L478.9,68.8L478.9,68.8L478.9,68.8L478.9,68.8L478.9,68.8z"/>
	<path class="st0" d="M489.7,64.9L489.7,64.9L489.7,64.9L489.7,64.9z"/>
	<path class="st0" d="M367.2,31.9c0.5,0.3,1,0.4,1.3,1.1c0.5,1.1,1.2,1.2,2.1,0.5c1.5-1.2,2.7-2.8,4.8-3c0.3,0,0.6-0.7,1-1.1
		c1-1.2,1-2.8,2.1-3.9l0,0l0,0l0,0l0,0l0,0c-0.2-0.6-0.4-1.3-0.7-1.7c-1.2-1.6-2.2-1.6-3.7-0.1c-0.3,0.3-0.5,0.8-0.7,0.8
		c-2.5,0.3-3.1,2.3-3.9,4.2c-0.4,0.9-0.9,1.4-1.9,1.6C366.5,30.5,366.4,31.5,367.2,31.9z"/>
	<path class="st0" d="M251.9,21.6c1.6-0.2,3.2-0.8,5.4-0.5c-0.4,0.4-0.6,0.5-0.8,0.7c-0.8,0.8-0.7,1.6,0.3,1.9
		c1.1,0.3,1.7-0.2,2.1-1.1c0.4-0.8,0.8-1.6,1.6-2.1c1.1-0.7,1.5,0.6,2.3,0.8c0.4,0.1,0.7,0.2,1.1,0.3c1.4,0.2,3-0.5,2.9-1.2
		c-0.1-1.3-1.2-1.6-2.1-2.1c-0.4-0.3-1-0.4-1.5-0.4c-1.1-0.1-2.1-0.5-2.8-1.1c-1.3-1.1-2.4-0.9-3.9-0.5c-0.9,0.3-1.6,0.5-2,1.5
		c-0.3,0.8-1,1.1-1.7,1.4c-0.6,0.3-1.2,0.5-1.5,1.1c-0.2,0.3-0.2,0.7-0.1,1.1C251.2,21.4,251.7,21.6,251.9,21.6z"/>
	<path class="st0" d="M197.1,230.6c0.4-0.9,0-1.8-0.4-2.6c-0.3-0.5-0.9-0.6-1.2-0.2c-0.5,0.6-1,1.2-1.5,1.8c-0.6,0.7-1.3,0.7-2,0.2
		c-0.3-0.2-0.6-0.5-1-0.6c-0.2-0.1-0.5,0-0.6,0.2c-0.1,0.1-0.1,0.5,0.1,0.7c1.5,1.3,1.3,2.5,0.2,4c-0.7,1-1,2.3-1.7,3.7
		c1.8-0.2,3.3,1,5,0.4c1.5-0.5,2.1-1.8,2.9-2.9c0.1-0.1,0.2-0.1,0.4-0.1c0.7,0,0.9-0.5,0.5-0.9C196.6,233.1,196.6,231.9,197.1,230.6
		z"/>
	<path class="st0" d="M556.3,20.1c-0.4,0.4-0.2,0.7,0.2,0.9c0.9,0.5,1.6,1,2.8,0.7c2.5-0.6,4.6-1.8,6.8-3.8
		c-1.4-1.3-2.6-2.5-3.8-3.6c-1.5-1.4-3.2-1.5-5-0.8c-1.9,0.8-2,1.2-1.1,3.1C556.8,17.8,557.6,18.9,556.3,20.1z"/>
	<path class="st0" d="M284.5,235.1c-0.4,0.8-0.8,1.6-1.1,2.4c-0.3,0.7-0.4,1.6-0.9,2.1c-2.2,1.7-2.2,3.8-1.4,6.1
		c0.4,0.1,0.6,0.4,0.7,0.8c0.6,0.3,1.1,0.6,1.7,0.9c0.9-0.7,0.7-1.8,0.7-2.7c0-0.8,0-1.5,0.8-1.9l0,0c0.1-0.4,0.3-0.7,0.7-0.8
		c2.8-1.2,2.1-4,2.7-6.4c-0.6-0.3-1.3-0.6-2-1C285.6,234.1,284.9,234.4,284.5,235.1z"/>
	<path class="st0" d="M281,245.7L281,245.7L281,245.7L281,245.7z"/>
	<path class="st0" d="M250.1,312.9L250.1,312.9L250.1,312.9L250.1,312.9z"/>
	<path class="st0" d="M250.9,314.9c0.4,0.2,1,0.8,1.3,0.1c0.4-1,0.9-1.5,2-0.9s2.2,0.3,3.4,0c2-0.6,4.1-0.8,6-0.3
		c2.3,0.6,4.5,0.7,6.8,0.6c0.2-0.5,0.4-1,0.6-1.4c-2.8-0.1-5.4-1.5-8.2-0.7c-0.1,0-0.3,0-0.4,0c-2.4-1.1-4.8-1.3-7.4-0.7
		c-0.1,0-0.3,0-0.4,0c-1.8-0.6-3.2,0.3-4.4,1.4C250.4,313.6,250.1,314.5,250.9,314.9z"/>
	<path class="st0" d="M347.4,394.7c-0.3-0.1-0.5,0.1-0.4,0.5c0.1,0.5,0.1,0.9-0.5,1.2c-1.9,0.9-3.7,0.7-5.6,0.2
		c-0.2,0-0.5,0.1-0.7,0.3c-0.1,0.2-0.2,0.6-0.1,0.7c0.9,1.2,1.7,2.5,2.8,3.6c1.1,1.2,2.2,1,3.8,0.2c1.4-0.7,1.6-1.8,1.6-3.7
		c-0.1-0.4-0.2-1.4-0.4-2.4C347.8,395,347.6,394.8,347.4,394.7z"/>
	<path class="st0" d="M493.6,57.2L493.6,57.2L493.6,57.2L493.6,57.2L493.6,57.2L493.6,57.2L493.6,57.2z"/>
	<path class="st0" d="M493.4,55c-0.9-0.2-1.6-0.7-2.4-1.1c-0.7-0.4-1.7-0.8-2.1-0.3c-1,1.1-2.1,0.4-3.1,0.5c-1.1,0-2.4-1.4-3.2-0.2
		c-1,1.6,1.6,1.5,1.9,2.8c0.3,1.4,1.9,0.3,2.6,0.9c0.8,0.7,1.4,1,2.1-0.1s1.8-1.3,3-0.7c0.4,0.2,0.9,0.3,1.4,0.5
		c0.1-0.2,0.1-0.5,0.2-0.7C494.1,55.9,494.3,55.2,493.4,55z"/>
	<path class="st0" d="M284.6,314.9c0.1,0.1,0.2,0.2,0.2,0.2c0.2,0,0.4-0.2,0.5-0.2c-0.1-0.1-0.2-0.2-0.2-0.2
		C284.9,314.7,284.7,314.8,284.6,314.9z"/>
	<path class="st0" d="M352,311.5c1.4-1.4,1.9,0.4,3.2,0.9c-0.9-1.9,0.4-2.8,1.3-4c0.1-0.1,0.2-0.2,0.3-0.2c0-0.7,0-1.5,0-2.2
		c-0.7,0.1-1.6-0.4-1.9,0.8c-0.3,1.1-1.4,1.4-2.2,2c-0.8,0.6-1.5-0.9-2-0.5c-1.2,0.8-2.4,0.4-3.7,0.3c-0.8,0-1,0.7-1.1,1.3
		c1.5-0.1,2.4,1.4,3.8,1.6C350.5,311.5,351.4,312.1,352,311.5z"/>
	<path class="st0" d="M345.9,309.8C345.9,309.8,346,309.8,345.9,309.8C346,309.8,346,309.8,345.9,309.8
		C346,309.8,345.9,309.8,345.9,309.8z"/>
	<path class="st0" d="M291.8,216.7c-1.4,0.8-2.8,1.7-4.2,2.6c-0.2,0.1-0.2,0.5-0.2,0.7c-0.1,0.6-0.1,1.3-0.2,1.8
		c0.1,0.9-0.3,2,0.7,2.5c0.9,0.4,1.3-0.7,1.9-0.9c0.5-0.2,1-0.2,1.5-0.4c0.8-0.2,0.8-0.2,0.3-1.5c-0.1-0.4-0.1-0.7,0-1.1
		c0.4-1,0.7-1.9,1-2.9C292.8,217.3,292.1,216.5,291.8,216.7z"/>
	<path class="st0" d="M293.8,282.2c-0.3-0.7-0.8-0.2-1.2,0c-1.8,0.7-2.4,2.1-2.4,4c0,0.9-0.5,1.4-1.4,1.4c-1.3,0-2.5,0-4,0
		c0.8,0.6,1.5,0.4,2.1,0.4s1.3,0,1.9,0c0.7,0,1.2,0.3,1,1.2c-0.1,0.4-0.2,0.8-0.1,1.1c0.2,0.8,0.9,0.8,1.5,0.8c0.7,0,0.8-0.4,0.7-1
		c-0.1-0.4,0-0.8-0.1-1.1c0.3-0.8,0.9-0.8,1.6-0.8c0-0.5,0-1-0.1-1.6c0.2-0.3,0.5-0.5,0.7-0.8c0-0.7-0.2-1.2-0.8-1.6
		c-0.5-0.3-0.5-0.8-0.1-1.3C293.5,282.7,294,282.6,293.8,282.2z"/>
	<path class="st0" d="M657.6,174.6c-0.5-0.4-0.4-0.8-0.4-1.2c-0.2-1.2-0.3-2.6-2.1-2.5c-0.3,1-0.6,1.9-0.8,2.9
		c-0.3,1.1-1.2,1.6-2.2,1.8c-0.3,0.6-0.9,0.6-1.4,0.7l0,0c-1.4,0.3-2.7,1.3-4.1,0c-0.5,0-1,0-1.5,0c-0.3-0.3-0.5-0.5-0.8-0.8
		c-1.4-0.8-1.9-2.2-2.4-3.6c-0.8-0.2-1.3-0.6-1.7-1.4c-0.3-0.7-0.9-1.2-1.7-1.4c-0.7-0.6-1.5-1.2-2.2-1.8c-1,0.7-1.9,1.3-2.8,1.9
		c-2.2,2.5-4.3,5-6.5,7.5c-0.3,0.4-0.8,0.6-1.2,0.9c-0.2-1.7-0.8-3.2-2.3-4.2c-0.4-0.3-0.6-0.8-0.9-1.2c0.1-0.9,0.1-1.8-0.7-2.4
		c-0.8,1-1.6,2-2.3,3c0.7-1,1.6-2,2.3-3c-0.5-0.6-0.9-1.1-1.5-1.7c-0.9-0.8-0.8-1.7-0.3-2.7c-0.3-0.3-0.6-0.5-0.9-0.8
		c-0.7-0.8-1.3-1-2.3-0.3c-2,1.3-2.9,3.5-4.1,5.4c-0.2,0.3-0.1,1,0.1,1.4c0.2,0.6,0.8,1,1.1,1.6c1.1,2.1,1.9,4.1-0.4,6
		c-0.3,0.2-0.4,0.7-0.6,1c-2.1,3.1-2.5,3.4-5.8,4.5c-0.5,0.1-1,0.3-1.5,0.2c-4-0.8-8.8-2-11.7-5.7c-0.5-0.7-1.2-1.3-1.8-1.9
		c-0.2-0.2-0.3-0.4-0.5-0.6l0,0c0-0.7-0.2-1.3-0.7-1.8c0-0.2,0-0.3-0.1-0.4c-0.3-0.4-0.6-0.9-1-1.2c-2.8-2.2-3.2-3.6-2.1-6.9
		c0.2-0.6,0.5-1.2,0.5-1.8c-0.3-3.6,3-4.8,4.8-6.9c2.5,0,3.3-2.5,5.4-3.3c-3.1-1.6-3.1-1.9-1-4.1c0.8-0.8,1.6-1.7,2.4-2.5
		c0.5-0.4,0.9-1,1.5-1.1c1.6-0.3,2.9-0.9,3.2-2.7c0.1-0.3,0.5-0.8,0.8-0.8c1.7,0.1,3.3-1,5,0.6c2.2,2,6.5,2.8,9.7,2.3
		c0.1,0,0.2-0.2,0.3-0.2c0-0.6,0-1.1,0-1.7l0,0c-0.4-0.1-0.7-0.4-0.6-0.9c-0.4-0.6-0.3-1.7-1.2-1.8c-1.2-0.2-1.9-1.1-3.1-1.4
		c-2.3-0.6-4.6-1.5-6.8-2.4c-1.7-0.7-2.7-2.2-2.9-3.8c-0.3-2.4-0.2-4.8-0.8-7.2c0.8-1.4,0-3,0.3-4.5c0.4-1.9-0.2-3.8-2-4.9
		c-1.9,0.2-3.4-0.6-4.9-1.8c0.4-0.4,1.1-0.7,1.2-1.2c0.1-0.3-0.3-1.2-0.6-1.3c-1.2-0.4-1.6-1-1-2.1c0.1-0.2-0.2-0.5-0.2-0.7
		c0-1.5-2.3-2.3-1.4-4.1c0.6-1.3,0.6-2.7,0.3-4.1c-0.2-1.3,1.2-1.9,0.9-3.2c-0.2,0-0.4,0-0.6-0.1c-1.5,0.7-1.9,0.8-2.6,0
		c-1.3-1.7-1.9-3.5-0.7-5.6c0-1,0.1-1.9,0.1-2.9c0.2-1.2-0.2-2.6,1.1-3.5c0.7,0.8,0.3,1.9,1.2,2.5c0.6,0.4,1.1,0.7,1.8,0.3
		c0.5-0.3,0.7-0.7,0.7-1.3c0-0.5-0.1-1-0.3-1.5c-0.2-0.6-0.4-1.2-0.2-1.9c0.7-2.1,0.5-4.3,0.2-6.4c-0.2-1.7-0.4-1.9-2.1-2
		c-1.1-0.1-1.5,0.4-1.1,1.3c0.4,0.8,0.8,1.6,1.1,2.4c0.1,0.5-0.1,1-0.8,0.5c-0.5-0.3-1-0.4-1.3,0.1c-0.5,0.8-1.3,1.2-2,1.7
		c-1.1,0.8-1.9,0.5-2.8-0.1c-0.5-0.3-1-0.8-1.4-1.3c-0.6-0.8-1.5-0.9-2.4-1.1c0,0.3,0.1,0.6-0.1,0.7c-1.3,1.7-1.7,3.7-1.6,5.8
		c0,0.4-0.1,0.7-0.3,1.8c-0.5-2.4-0.9-4.1-1.3-5.8c-0.2-0.9,0.4-1.7,0.8-2.5c0.1-1.7,1.4-2.6,2.3-3.9c0.3-0.4,0.6-0.9,0.9-1.3
		c1.1-1.4,1.5-2.9,0.4-4.6c-0.5-0.8-0.7-1.7-0.4-2.6c0.1-0.5,0.8-0.8,1.2-0.5c1.1,0.9,2,2,2.9,3.1c0.8,1,1.3,2.2,2.5,2.9
		c1.1,0.7,1.6,0.7,2.2-0.3c0.6-1.1,1.2-2.3,1.8-3.4c0.2-0.5,0.5-1,1.1-0.9c1.5,0.1,1.5-0.5,1-1.6c-0.3-0.7-0.3-1.2,0.7-1.1
		c0.3,0,0.8-0.1,1.1-0.2c0.7-0.3,0.7-1.1,0.2-1.6c-0.8-0.8-1.7-1.1-2.8-1.1c-0.9,0.1-1.8,0.4-2.6,0.2c-1.1-0.2-1.6,0.2-2.2,1
		c-1.5,1.9-2.8,2-4.7,0.7c-2.1-1.5-4.6-2.5-7.2-1.8c-2.1,0.5-4.3,0.9-5.9,2.5c-1.1,1.1-2.6,1.1-3.8,1.7c-0.7,0.3-1.4,0.1-2.2-0.2
		c-3.4-1.5-7-0.9-10.5-0.7c-0.4,0-0.5,0.6-0.4,1c0.2,0.4,0.6,0.9,1,1.1c1.2,0.8,1.3,2.1,1.6,3.4c0.1,0.3-0.3,0.8-0.5,0.9
		c-1.7,0.3-3.4,1.3-5.1,0c-0.4-0.3-0.9-0.4-1.4-0.7c-0.7-0.4-1.4-0.4-2.1,0.1c-0.4,0.3-0.9,0.8-1.3,0.7c-2.9-0.5-4.8,1-6.5,3.1
		c-0.2,0.3-0.7,0.4-1,0.6c-1.3,1-1.2,1.8,0.1,2.6c2.2,1.3,4.7,2.2,6.1,4.4c0.9,1.4,1.8,2,3.5,1.6c0.2-0.1,0.5,0,0.8,0
		c2.7,0,5.5,2.1,5.5,5.8c0,0.9-0.7,1.7,0,2.7c1.9,0.3,3.4,1.9,5.4,2.6c1,0.3,1.1,1.3,1,2.3c-0.1,0.5-0.2,1.1-0.7,1.2
		c-1,0.2-2.1,0.2-3.1,0.2c-0.5,0-0.2-0.5-0.1-0.9c0.2-0.7-0.2-1.1-0.7-0.9c-1.7,0.9-2.9-0.2-4.2-1c-1.5-0.9-1.6-1-2.6,0
		c-2.1,2.3-4.9,3.2-7.9,3.5c-1.9,0.2-3.6,0.7-4.8,2.1c-0.8,0.9-1.4,0.7-2.3,0.3c-1.1-0.5-2.1-1.8-3.5-1.2c-1.2,0.5-2,0-2.7-0.8
		c-2.2-2.9-3.2-6.1-2.9-9.7c0.1-0.8,0.2-1.5-0.4-2.1c-0.5-0.7-0.4-1.6-0.2-2.2c0.6-1.3,0.4-2.5,0.4-3.8c0-0.2,0.2-0.5,0.4-0.5
		s0.5,0.1,0.7,0.3c0.2,0.3,0.4,0.6,0.5,1c0.3,1,0.8,1.2,1.7,0.8c0.2-0.1,0.5-0.1,0.7,0c1,0.2,1.4-0.3,1.4-1.3c0-0.5,0-1-0.2-1.5
		c-0.2-0.7-0.1-1.2,0.7-1.4c0.5-0.1,0.9-0.4,1.3-0.7c0.4-0.3,0.6-0.8,0.4-1.4c-0.2-0.6-0.6-0.6-1.2-0.6c-1.2,0.2-2.5,0.3-3.8,0.4
		c-1.2,0.1-3.2-1-3.2-2.2c-0.1-2.8-1.1-4.6-3.9-5.3c-0.4-1.9-2-2.4-3.6-2.7c0.2-1,0.7-1.3,1.4-1.5c0.8-0.3,0.2-1.5,1.2-1.6
		c0.4,0.7,0.8,1.3,1.3,2c0.2-0.1,0.3-0.2,0.3-0.3c0.8-1.6,1.1-1.7,2.1-0.9c0.9,0.8,1.6,1.7,2.5,2.4c0.9,0.8,2.1,0.4,2.3-0.8
		c0.1-0.6,0.1-1.3,0.2-1.9c0.1-0.5,0.4-1,1-1c0.5-0.1,0.9,0.2,1.3,0.6c0.7,0.9,0.7,2.2,1.6,3c1.5,1.3,1.5,1.4,0.4,2.8
		c-0.2,0.3-0.6,0.5-0.8,0.8c-0.5,0.8-0.3,2,0.4,2.4c0.7,0.5,1.9,0.3,2.4-0.4c0.5-0.6,0.8-1.3,1.2-2s0.9-1.2,1.8-1.2
		c0.9-0.1,1.9-0.7,2.6-0.4c2.5,1,4.1-0.9,5.9-1.8c0.7-0.3,1.2-0.9,1.8-1.4c0.9-0.7,0.8-1-0.3-1.5c-0.4-0.2-1.2,0-1-0.7
		c0.1-0.4,0.8-0.6,1.2-0.9c-2.2-1.8-4.5-3-7.4-1.8c-0.8,0.4-1.8,0.2-2.6-0.2c-0.3-0.1-0.4-0.6-0.7-0.9c0.2-0.1,0.4-0.3,0.6-0.4
		c0.2-0.1,0.5-0.1,0.8-0.1c3.8-0.3,3.9-0.6,1.9-3.6c-0.1-0.1-0.2-0.2-0.2-0.3c-0.5-0.6-0.9-1.3-1.5-1.7c-0.8-0.5-1.3,0.5-2,0.7
		c-2,0.5-3.9,1-5.7,2c-0.2,0.1-0.5,0.1-0.7,0.2c-0.6,0.2-0.9,0-1.3-0.5c-1.1-1.6-2.8-2.2-4.6-1.8c-1.7,0.3-3.3,1.4-5.2,1.3
		c-0.2,0-0.4,0.3-0.5,0.5c-0.3,1.1-1.1,1-1.8,0.7c-1.7-0.7-3.6-0.4-5.3-1.1c-1.1-0.5-2.3,0-3.2,0.8c-0.6,0.5-1.2,1-1.7,1.6
		c-0.8,1.2-1.8,2-3.3,2.2c-1.1,0.2-1.6,1.4-1.2,2.4c0.8,2.2,2,4.2,3.9,5.6c1.5,1.1,3.1,2.1,5.3,1.3c2-0.7,4,0.3,5.2,2.2
		c0.5,0.8,0.4,1.4,0,2.1c0.6,0.4,1.2,0.8,1.8,1.2c0.1,0.1,0.1,0.5,0,0.6s-0.4,0.2-0.6,0.2c-1-0.2-1.4-1-1.3-1.9
		c-1.1-0.3-2.4-1.5-3.2-0.6c-1.3,1.4-2.8,1-3.7,0.3c-1.9-1.3-4-2.2-5.9-3.4c-1.3-0.8-2.4-1.9-1.9-3.7c0.3-1.1-0.4-2-0.7-2.9
		c-0.5-1.4-1-1.5-2.3-0.8c-0.6,0.3-1.1,0.7-1.6,1.1c-0.3,1.4,0.4,2.5,1.2,3.5c0.2,0.3,0.4,0.7,0.5,1c0.1,0.2,0,0.6-0.1,0.6
		c-0.3,0.1-0.8,0.2-1,0c-0.5-0.4-0.8-1-1.2-1.4c-1.3-1.4-1.5-1.4-3.3,0.2c0.5,6.1-0.7,5.1,5.1,6.4c0.2,0.1,0.5,0.2,0.7,0.3
		c1,0.3,1.5,0.1,1.7-0.9c0.2-0.7,0.3-1.4,0.4-2.2c0.9,0.6,0.5,1.7,1.1,2.4c0.6,0.8,1.3,1.6,1.9,2.4c1,0,2,0.1,3,0.1
		c1.2,0,2.2,0.7,3.1,1.4c1.1,0.8,0.8,2.4-0.5,3.1c-0.5,0.2-1.3,0.1-1.3-0.3c0.3-1.6-0.9-1.8-1.9-2.3c-0.4-0.1-0.7-0.3-1-0.5
		c-0.4,0.1-0.9,0.1-1.1,0.3c-0.7,0.8-0.2,1.7-0.2,2.6c0.1,0.6,0.6,0.7,1.1,0.9c0.5,0.2,0.9,0.5,1.2,0.8c0.3,0.4,0.6,0.9,0.2,1.4
		c-1.6,2.5-3.6,3.1-6.6,1.8c-0.3-0.1-0.4-0.4-0.1-0.6c0.9-0.4,1.8-0.8,2.7-1.3c-0.1-0.3-0.1-0.6-0.3-0.7c-0.4-0.5-1-0.8-1.4-1.3
		c-0.8-0.9,0.8-1,0.6-1.8c-0.2-0.5-0.4-1-1-0.9c-1.6,0.4-3-0.2-4.5-0.6c-1.3-2.1-4.1-3.2-4.7-5.9c-0.2-0.8-0.7-1.4-1.6-1.4
		c-1,0-1.2,0.7-1.3,1.5c-0.1,0.5-0.5,1-0.4,1.4c0.3,1.3-0.5,1.3-1.3,1.7c-1.8,0.9-3.4,0.8-5.1-0.1c-0.7-0.3-1.4-0.7-2.1-1
		c-2.3-1-4.8-0.5-7.1-0.9c-0.4-0.1-0.9,0.4-1.4,0.6c-0.5,0.3-0.8,0.7-0.4,1.2c0.6,0.9,1,1.7,0.7,2.8c-0.3,1.2-0.5,2.6-0.2,3.7
		c0.3,1.3,2.1,1.3,3,2.3c0.2,0.2,0.4,0.3,0.6,0.5c0.7,0.6,1.4,0.6,2.1,0s1.3-1.2,2.1-1.7c0.8-0.5,1.8-0.1,2.3,1
		c0.4,0.8,0.9,1.2,1.7,1.3c0.6,0.1,1.3,0,2.6,0c-2,1.6-1.6,2.7-0.1,3.6c0.1,0.1,0.2,0.5,0.2,0.7c-0.1,0.2-0.4,0.4-0.5,0.4
		c-1.4-0.1-2.8-0.1-4.2-0.5c-1.3-0.3-2.5-0.9-3.4,0.6c-0.1,0.1-0.6,0.1-0.7,0c-1.6-1.6-1.3,0.8-2.2,1c-0.8-0.7-1.6-1.5-2.5-2.2
		c-0.4-0.4-1-0.5-1.1,0.4c-0.1,0.6-0.4,0.9-1,0.8c-0.7,0-1.3,0.1-1.8,0.6c-1,1.2-1.7,2.6-3.5,2.7c-0.3,0-0.6,0.7-0.9,1.2
		c-0.7,1.2-0.9,1.2-2,0.7c-0.8-0.4-1.6-0.9-2.3-1.4c-0.9-0.6-1.8-0.9-2.9-0.8c-1.3-0.8-2.4-1.9-4.2-1.5c-1.3,0.2-2.6-0.2-3.7-0.8
		c-0.9-0.5-1.9-0.8-2.9-0.8c-0.5,0-1.2-0.1-1.4-0.4c-1.1-1.4-3-1.5-4.1-2.6c-1.6-1.6-3.1-1.1-4.9-0.7c-0.9,0.2-1.6,0.7-2.5,1
		c-1.7,0.7-1.7,0.7-1.6,2.5c0.1,1.7,0.1,1.7-1.5,2.5c-1,0.5-1.1,1-0.5,1.7c1.8,2.3,3.6,4.7,5.4,7c0.5,0.7,1,1.5,1.4,2.3
		c0.1,0.2,0,0.5-0.3,0.6c-0.1,0-0.2,0-0.4,0c-0.6,0-0.9-0.3-1.3-0.7c-1.5-1.7-1.5-1.7-3.7-0.8c0.8,0.9,0.5,2.1,0.7,3.1
		c1,3.1,3.2,4.5,6.4,4.2c0.6-0.1,1.1-0.1,1.2,0.5c0.1,1.1,1.2,2.1,0.7,3.3c-0.1,0.2-0.4,0.4-0.6,0.4c-0.6,0.2-1.2,0.3-1.9,0.3
		c-0.5,0.1-1,0.2-1.2,0.8c-0.6,2.2-1.3,4.5,0.6,6.5c0.3,0.3,0.4,0.6,0.6,1c0.3,0.7,0.2,1.3-0.6,1.5c-0.1,0-0.2,0.1-0.4,0.1
		c-0.5,0.2-1,0.5-0.5,1.1c0.3,0.4,1.1,0.8,1.3,0.7c1-0.9,1.8-0.5,2.6,0.3c0.3,0.3,1,0.3,1.5,0.3c1.1,0.1,1.6,0.8,1.7,1.7
		c0.2,0.7,0.3,1.5,0.5,2.5c1.6-0.8,2.7,0.4,4,0.7c1.8,0.5,2.1,1.6,2.4,3c0.2,1-0.3,1.8-0.7,2.5c-1.6,2.2-3.2,4.5-5.5,6.2
		c-0.2,0.2-0.3,0.7-0.2,1c0.2,0.5,0.7,0.3,1,0.1c1.9-1.3,4.2-2.2,5.5-4.1c1-1.5,2.4-2.7,3-4.4c0.2-0.5,0.7-0.8,1.2-0.8
		c0.1-1,0.8-1,1.6-0.9c-0.2,0.8-0.8,1.1-1.5,1c0.1,0.8-0.1,1.8,0.7,2.5c0.4,0.4,0.8,0.6,1.3,0.2c0.6-0.4,1.2-1.1,1-1.9
		c-0.2-0.9,0-2.1-1.5-2.1c-1.6-2-2.6-4.2-1.4-6.8c0.1-0.2,0.2-0.4,0.3-0.7c0.8,0.5,0.2,1.5,0.7,2.1c0.5,0.7,0.5,1.8,1.4,2.2
		c0.2-0.1,0.5-0.2,0.6-0.3c1-1.4,2.8-2.4,1.8-4.6c-0.1-0.3,0.5-0.6,0.8-0.4c1.2,0.5,2.3,1.2,3.4,1.8c0.5,0.2,1,0.7,1.4,0.6
		c2-0.7,3.8,0.7,5.7,0.5c0.2,0.4,0.5,0.7,0.9,0.7c0.5,0,1,0.1,1.5,0.1l0,0c0,0.5,0.3,0.7,0.7,0.8c0.3,0.2,0.6,0.4,0.9,0.7
		c0.8,1,1.9,0.9,3,0.6c0,0.5-0.1,1.2,0.1,1.5c1.4,1.9,2.4,4.3,5.1,4.8c0.7,0.1,1.1,0.6,1.5,1.1c0.5,0.6,0.9,1.3,1.4,1.8
		c0.2,0.3,0.6,0.5,1,0.2c0.2-0.2,0.2-0.4,0.3-0.7c0.1-0.4-0.5-0.9,0.1-1.3c1.6,0.9,2.9,2.1,3.5,3.8c0.3,0.9,1,1.2,1.9,1.6
		c2.1,1,4.5,2.2,5,4.7c0.3,1.5,0.9,2.2,2.3,2.6c1.5,0.5,2.9,1,4.3,1.6c1,0,2.1,0,3.1,0c-0.2,0.7-0.8,0.8-1.4,0.8
		c2.2,3,4.5,5.9,5.8,9.5c1,2.8,1.6,5.7,3.9,7.8c0.2,0.2,0.2,0.5,0.3,0.7c0.9,2.8,3,4.6,5.3,6.3c1.5,1,2.8,2.2,4.3,3.3
		c1.3,1,2.8,1.8,4.1,2.8c0.7,0.5,1.4,0.7,2.2,0.6c3.4-0.5,6.3,0.6,8.8,2.8c2.9,2.3,5.7,4.8,9.7,4.9c0.7,0,1,0.7,1,1.4
		c0,0.5-0.4,1.1,0.1,1.4c0.4,0.3,1,0.3,1.5,0.3c0.9,0,1.8-0.1,2.7-0.1c1.8,0,3.7-0.2,4.7,1.8c0.2,0.3,0.6,0.5,1,0.6
		c2.3,0.4,4.5,0.8,6.8,1.1c0.2,0,0.7-0.4,0.8-0.7s-0.1-0.8-0.3-1c-0.5-0.4-1.2-0.9-1.7-0.8c-2,0.5-3.4-0.7-4.9-1.6
		c-1.9-1.1-3.9-1.9-5.9-2.6c-1.5-0.5-3.2-0.9-4-2.7c-0.8,0-1.5-0.1-2.3-0.1c-2.3,0.2-3.8-0.8-4.8-2.9c1.7-1.4,3.3-1.4,4.8,0
		c0.9,0.9,2.3,1.1,2.7,2.5c1.5,0.2,3.1,0.6,4.6,0.5c2-0.1,3.8,0.6,5.5,1.3c1.6,0.6,2.9,2.1,4.9,1.1c0.2-0.1,0.8,0.1,1.1,0.3
		c1,0.7,2.1,0.9,3.3,0.8c1.7-0.1,3.3,0.5,4.9,1c1.7,0.6,3.7,1.3,4.2,3.5c0.2,0.7,0.7,1,1.4,1.1c3.7,0.4,7.4,0.3,10.7-1.7
		c0.8-0.8,1.6-0.8,2.5-0.2c0.3,0,0.6,0,0.9-0.1c1.6-1.2,3.4-1.9,5.2-2.7c1.7-0.5,3.3-1.2,4.9-2c1.2-0.7,2.2-1.5,2.4-2.8
		c0.4-2,1.7-2.7,3.4-3.1c1.2,0.1,2.3,0.2,3.4-0.6c0.4,0,0.8,0,1.2,0c0-0.3,0-0.5,0-0.8c0.1,0.2,0,0.5,0,0.8c1.8,0.7,3.6-0.4,5.4-0.2
		l0.1,0.1c-0.2-0.8,0.1-1.2,0.8-1.6c2.3-1.4,4.6-2.9,7.1-3.9c2,0.1,4.1,0.2,6.1-0.2c1.8,1.3,3.6,2.2,5.7,0.4
		c0.6-0.5,1.7-0.6,2.5-0.8c0.3-0.1,0.7,0.3,1,0.5c0.6-0.2,1.2-0.5,1.8-0.6c0.9-0.2,1.2-0.8,1.3-1.6c0.7-0.4,1.4-0.9,2.3-0.9
		c0.5-0.4,0.7-1.4,1.6-0.8h0.4h0.4C658.6,175.5,658.6,175.4,657.6,174.6z M538.7,62.7c0.4,0,0.8,0.2,0.7,0.6c-0.1,0.6-0.3,1.3-1,1.4
		c-0.6-0.1-1.1-0.4-1.1-0.9C537.4,63.1,538.1,62.8,538.7,62.7z M516.3,61.3c-0.3,0.1-1.3-0.9-1.2-1.2c0-0.3,1-1,1.5-1
		c0.2,0.2,0.6,0.5,0.6,0.7C517.1,60.4,516.9,61.1,516.3,61.3z M476.1,92.5l-0.1-0.2h0.2L476.1,92.5z M494,101.4
		c-0.7,0.9-1.5,1.7-1.4,2.9c-1.3-0.6-1.4,0.8-2.1,1.3c-0.1,0.1-0.6-0.1-0.6-0.2c-0.2-0.5-0.2-1-0.3-1.2c0.3-1.1,0.6-1.9-0.8-2.3
		c-0.6-0.2-0.2-0.9,0-1.3c0.7-1.3,0.7-1.3,2.2-0.6c0.5,0.2,0.9,0.5,1.4,0.2c0.4-0.3,0.7-0.9,1.1-0.2
		C493.9,100.4,494.2,101.1,494,101.4z M494.1,90.7c0,0.1-0.4,0.2-0.6,0.3c-0.4-0.1-0.6-0.4-0.5-0.7c0-0.1,0.4-0.3,0.6-0.3
		C494,90,494.2,90.3,494.1,90.7z M502.6,91.7c-0.2-0.1-0.3-0.3-0.5-0.5c-1,0.1-2,0-2.8,0.9c-0.8,0.8-1.8,1.4-3,1.5
		c-0.5,0.1-1.2,0.1-1.3-0.4c-0.1-0.4,0.1-1.2,0.4-1.4c1.6-0.8,3.2-1.5,4.7-2.5c0.1-0.1,0.5,0.1,0.7,0.3c0.6,0.5,1.3,0.8,1.4,1.7
		c0.2,0,0.5,0,0.7,0.1c0.1,0,0.3,0.1,0.3,0.2C503,91.7,502.8,91.9,502.6,91.7z M503.7,114.8c-0.7-1.6,1.5-3.3-0.2-4.9
		c1.4-0.2,2.6-0.3,4.2-0.5C506.9,111.8,506.8,114.3,503.7,114.8z M511.4,153.8c-0.6-1.5-2-2-3.4-2.7c1.7-1.1,2.9,0.4,4.3,0.5
		c0.1,0.1,0.1,0.2,0.2,0.3C513.1,153.4,513.1,153.5,511.4,153.8z M516.2,83c0.2,0.1,0.3,0.4,0.3,0.6c0,0.3-0.3,0.4-0.5,0.1
		c-0.2-0.2-0.2-0.4-0.3-0.6C515.8,83.1,516.1,82.9,516.2,83z M519.1,112.1c-0.3,0.2-0.6,0.5-0.9,0.7c-1.8,1.4-3.8,2.8-2.8,6.5
		c-2.4-3.2-2-5.5,0.3-6.3C516.8,112.5,518,112.3,519.1,112.1l0.2-0.2L519.1,112.1z M528,113.8c-0.1,0.1-0.2,0.1-0.3,0.1
		c-0.6-0.2-1.1-1.4-0.7-1.8c0.1-0.1,0.2-0.1,0.3-0.1C527.8,112.1,528.3,113.4,528,113.8z M533,111c-0.1,0-0.3-0.2-0.3-0.2
		c0-0.5,0.2-1,0.7-1.3c0.1,0.2,0.3,0.3,0.3,0.5C533.7,110.5,533.7,111.1,533,111z M539.3,118.4c-0.1-0.3,0-0.7,0.2-1
		c0-0.1,0.4-0.1,0.6,0c0.2,0.1,0.5,0.2,0.7,0.3c1.3,0.8,2.6,1.6,3.9,2.5C541.5,120.8,540.3,120.4,539.3,118.4z M553,123.6
		c-0.4,0-0.9,0.1-1.3,0.1c-0.2-0.5-0.5-0.9-0.6-1.4c-0.1-0.2,0.1-0.5,0.3-0.6s0.5-0.1,0.7,0C552.9,122.1,553.1,122.8,553,123.6z
		 M575.8,82.4c0.7-0.4,1.5,0,2.1,1c0.1,0.1,0.1,0.2,0.1,0.3c-0.2,0.2-0.3,0.4-0.5,0.4c-1.1,0.2-2-0.2-2.2-0.9
		C575.3,83,575.5,82.5,575.8,82.4z M559.5,114.7c-0.6,0.2-0.8-0.4-0.8-0.9c0-0.4,0.2-0.7,0.7-0.7c0.4,0,0.6,0.3,0.7,0.9
		C559.9,114.2,559.7,114.7,559.5,114.7z M576.6,126.9c-0.2,0.2-0.7,0.2-1,0.1c-1.1-0.4-2-1.2-2.7-2.1c-0.9-1.1-1.6-2.3-2.8-3.1
		c-0.3-0.2-0.6-0.9-0.6-1.3c0.2-1.8,0.3-3.6,2.2-4.6c0.4,0.8,0.8,1.6,0.7,2.5c-0.2,2,0.6,3.5,2.5,4.4c1.3,0.6,1.8,1.8,2.1,3.1
		C577,126.2,576.8,126.7,576.6,126.9z M579.3,116.7c-0.3-0.1-0.8-0.4-1-0.3c-1.4,0.6-1.4,0.7-2,0c-1-1.3-2.2-1.5-3.6-0.9
		c-0.3,0.2-0.7,0.3-1,0.4c-0.3-1.6-0.3-1.6-2.1-1.3c-0.4,0.5-0.8,1-1,1.6c-0.7,1.7-1.9,2.7-3.8,2.2c-0.5-0.1-0.6,0.1-0.7,0.5
		c-0.1,0.8-0.4,1.4-0.7,2.2c-0.5,1.4-1.5,2-2.8,2.2c-0.8-1.2,0.4-2.2,0.3-3.3c1.1-1,0.8-2.3,0.8-3.6c0-1,0.4-1.9,1.3-2.1
		c2.1-0.6,4.2-1.8,6.5-0.5c1.8,0.3,3.2-0.2,4.4-1.6c0.7-0.9,1.7-1.5,2.7-2c0.7-0.3,1.5-0.3,2.2-0.2c0.9,0.2,1.3,1.1,0.6,1.6
		c-1.2,0.8-1,1.6-0.4,2.5c0.3,0.5,0.9,1,1.1,1.5C580.2,116,579.8,116.4,579.3,116.7c0.4,0.3,0.7,0.6,1,1
		C580,117.3,579.7,117,579.3,116.7z M585.5,113.8c-0.3,1.5-0.5,2.9-0.9,4.4c-0.2,0.9-0.8,1.6-1.5,2.1c-0.6,0.4-1.2,0.2-1.6-0.3l0,0
		c0.3-0.5,0.8-1.1,0.9-1.6c0.2-2.3,1.5-4.2,2.6-6.2C585.5,112.6,585.6,113.2,585.5,113.8z M585.8,109c-0.5,0.7-1,1.4-1.6,2.2l0,0
		c-0.3,0.3-0.7,0.5-0.9,0.1s-0.2-1,0-1.5c0.7-1.6,1.5-3.1,2.3-4.6c-0.1-0.3-0.1-0.6-0.1-1c0,0.3,0.1,0.6,0.1,1
		C586.9,106.4,586.7,107.7,585.8,109z M642.7,178.5c-0.3,0.3-0.5,0.7-0.8,1l0,0c-0.5-0.1-1-0.2-1.4-0.4c-0.3-0.1-0.2-0.5,0-0.5
		C641.2,178.5,641.9,178.5,642.7,178.5c0.3,0,0.7-0.1,0.9-0.2C643.3,178.4,643,178.4,642.7,178.5z"/>
	<path class="st0" d="M380.2,31.2c0.6,1.1-0.4,1.2-1,1.8c0.7,0,1.3,0.1,1.9,0c2.4-0.5,3.4-3.1,1.8-4.9c-0.8-0.9-1.8-1.8-2.7-2.7
		c-0.6-0.6-1.1-0.1-1.7,0C378.2,27.7,379.2,29.5,380.2,31.2z"/>
	<path class="st0" d="M476.7,70.1c1.1,0,1.4-1,2.2-1.3c0.9-1.5,1.2-3,0.5-4.7c-0.2-0.4-0.6-0.6-0.9-0.4c-1.1,0.4-2.2,0.8-2.5,2.1
		c-0.2,0.9-0.4,1.7-0.8,2.5C474.7,69.5,475.4,70.1,476.7,70.1z"/>
	<path class="st0" d="M290.5,299.5c2.2-0.8,4.2-0.2,6.1,0.9c0.3,0.2,0.8,0.1,1-0.3c0.2-0.3,0.2-0.7-0.1-1c-1.2-1.7-3-2.2-4.1-2.3
		c-2.6-0.1-3.2,0.2-3.7,1.3C289.5,298.8,290,299.7,290.5,299.5z"/>
	<path class="st0" d="M372,42c0.9,0.1,1.5-0.4,1.6-1.2c0.2-1.7-1-3.9-2.6-4.6c-0.4-0.2-0.8,0.3-0.8,0.7c0.1,1.6,0.1,3.2-1.3,4.8
		C370.3,41.7,371.1,41.9,372,42z"/>
	<path class="st0" d="M273.3,319.8L273.3,319.8L273.3,319.8L273.3,319.8z"/>
	<path class="st0" d="M279.7,316.3c-0.1-0.4-0.3-0.7-0.4-1.1c-0.5,0-1,0-1.5-0.1c-0.7,0-1.4,0.1-2.1,0.1l0,0c-1.1,1.3-1.7,3-2.4,4.5
		c1.2-0.3,2.4-0.6,3.5-0.9C278.2,318.5,279.2,317.6,279.7,316.3z"/>
	<path class="st0" d="M479.7,62.3c0.7,0.3,1.5,0.5,2.2,0.7c0.6,0.1,1.4-0.6,1.3-1.1c-0.3-1.5-0.9-2.9-2-4.1
		c-0.1-0.2-0.5-0.1-0.7-0.2c-0.8,0.1-1.4,1.4-0.9,2.4c0.3,0.5,0.5,0.8,0,1.2C479,61.6,479,62.1,479.7,62.3z"/>
	<path class="st0" d="M315.1,197.8L315.1,197.8c0.2,0.3,0.5,0.6,0.7,0.9c0.9,1,0.9,1.1-0.2,2.4c0,0.5-0.1,0.9-0.1,1.4
		c0.9,0.6,1.9,0.8,2.8-0.1c0.1-1,0.6-1.7,1.4-2.2c0.4-1.9-0.9-2.6-2.3-3.2C316.6,197.3,315.9,197.8,315.1,197.8z"/>
	<path class="st0" d="M260.9,315.6c-0.3,0.7,0.3,1.1,0.9,1.5c0.9,0.5,1.7,1.1,2.6,1.6c0.5,0.3,1,0.1,1.4-0.3s0.4-0.9,0.1-1.4
		c-0.9-1.2-2-1.9-4.3-1.6C261.8,315.3,261,315.3,260.9,315.6z"/>
	<path class="st0" d="M784.3,227.6c-1.2-0.2-1.7,1-2.5,1.5c-0.3,0.2-0.6,0.4-0.9,0.7c-0.3,0.3-0.3,0.7-0.2,1
		c0.3,0.9,0.8,1.6,1.8,1.6l0,0c0-0.7,0.4-1.1,0.8-1.6C784.6,229.4,785,227.7,784.3,227.6z"/>
	<path class="st0" d="M779.5,242.6L779.5,242.6C779.6,242.6,779.6,242.6,779.5,242.6L779.5,242.6z"/>
	<path class="st0" d="M493,143.4c-0.5-0.5-1.2-0.5-1.7-0.1c-0.6,0.4-0.4,1-0.1,1.3c1.4,1.4,2.5,3.2,4.7,3.7
		c-0.9-1.2-1.8-2.4-2.4-3.9C493.4,144.1,493.3,143.7,493,143.4z"/>
	<path class="st0" d="M495.9,148.3C495.9,148.3,495.9,148.4,495.9,148.3L495.9,148.3L495.9,148.3z"/>
	<path class="st0" d="M418.6,77c0.4,0.1,0.7-0.3,0.7-0.7c-0.2-1.4-1.4-2.6-2.8-2.7c-0.2,0.2-0.6,0.3-0.8,0.6
		c-0.3,0.6-0.3,1.3,0.2,1.7C416.6,76.6,417.6,76.8,418.6,77z"/>
	<path class="st0" d="M639.3,150.8c-0.2,0.2-0.3,0.4-0.4,0.6c0.5,1,1.5,0.7,2.3,0.7c0.9-1,1.8-2,1.7-3.5
		C641,148.3,640.4,149.9,639.3,150.8z"/>
	<path class="st0" d="M324.6,196.5c-0.6,0.2-1.2,0.4-1.8,0.6c-1.6,0.5-1.8,1.6-1.5,3c1.2-0.5,2.1-1.7,3.7-1.5
		c0.1-0.2,0.3-0.4,0.3-0.7c0.1-0.3,0.3-0.7,0.2-1C325.4,196.4,325,196.4,324.6,196.5z"/>
	<path class="st0" d="M287.3,299.5c0.3-0.1,0.4-0.6,0.6-0.9c-0.2-0.9-0.8-1.3-1.5-1.5s-1.3-0.1-1.6,0.5c-0.4,0.6,0,1.2,0.5,1.6
		C285.8,299.8,286.6,299.9,287.3,299.5z"/>
	<path class="st0" d="M658.1,127.5c0-0.7,0.3-1.6-0.5-1.9c-0.7-0.3-1.1,0.4-1.5,0.8c-0.7,0.7-1.1,1.6-0.9,2.7
		C656.5,129.3,657,127.9,658.1,127.5z"/>
	<path class="st0" d="M252.1,55.6c0.9,0.1,1.6-0.4,1.7-1.1c0.1-0.6-0.5-1.4-1.1-1.4c-0.8,0.1-1.5,0.3-1.8,1.2
		C250.8,54.9,251.4,55.5,252.1,55.6z"/>
	<path class="st0" d="M538,81.5c-0.8,0.4-1.1,1.4-0.6,2.2c0.1,0.2,0.4,0.4,0.6,0.4c0.3,0,0.7-0.2,0.9-0.4c0.2-0.3,0.2-0.7,0.3-0.9
		C539.1,81.8,538.4,81.2,538,81.5z"/>
	<path class="st0" d="M556.9,90.5c0-0.5-0.1-1-0.7-1.2c-0.6-0.2-1.2,0.5-1.3,1.1c0,0.6,0.6,1.3,1.2,1.2
		C556.7,91.5,556.8,91,556.9,90.5z"/>
	<path class="st0" d="M395.4,120.5C395.4,120.5,395.4,120.6,395.4,120.5C395.4,120.6,395.4,120.6,395.4,120.5
		C395.4,120.6,395.4,120.5,395.4,120.5z"/>
	<path class="st0" d="M396.4,122.7c0.5,0,1-0.2,1.1-0.7c0.2-0.8-0.4-1.1-1-1.2c-0.4-0.1-0.7-0.1-1.1-0.2c0,0.4,0.1,0.7,0.1,1.1
		C395.6,122.1,395.7,122.7,396.4,122.7z"/>
	<path class="st0" d="M234.9,290.3c-0.2,0.3-0.4,0.7-0.5,1c-0.1,0.4,0.1,0.7,0.5,0.9c0.2,0.1,0.5,0,0.7-0.1c0.4-0.3,0.6-0.8,0.6-1.3
		c-0.1-0.2-0.2-0.5-0.4-0.6C235.5,289.9,235.1,290,234.9,290.3z"/>
	<path class="st0" d="M541.2,80.2c0.1,0.6,0.3,1.2,1.1,1.2c0.1,0,0.4-0.3,0.4-0.5c-0.1-0.7-0.4-1.2-1.1-1.2
		C541.5,79.8,541.2,80.1,541.2,80.2z"/>
	<path class="st0" d="M313.5,294.1c0.1-0.1,0.2-0.2,0.2-0.3c-0.1-0.7-0.7-1.1-1.2-1.3c-0.2-0.1-0.4,0-0.7,0.1c0.1,0.2,0,0.5,0.2,0.6
		c0.3,0.4,0.7,0.7,1.1,0.9C313.2,294.2,313.4,294.1,313.5,294.1z"/>
	<path class="st0" d="M345.2,130.6c0.3,0.4,0.5,0.8,0.9,1.1c0.2,0.2,0.7,0.1,1,0.1c0.1,0,0.2-0.2,0.2-0.3c0-0.4-0.2-0.7-0.6-0.8
		C346.2,130.7,345.7,130.7,345.2,130.6z"/>
	<path class="st0" d="M345.2,130.6L345.2,130.6L345.2,130.6L345.2,130.6z"/>
	<path class="st0" d="M146.5,176.3c-0.3,0-0.4,0.3-0.3,0.5c0.3,0.4,0.6,0.7,1,1c0.2,0.2,0.5,0.1,0.6-0.2
		C148,177.1,147.2,176.2,146.5,176.3z"/>
	<path class="st0" d="M290.6,293c-0.2-0.4-0.5-0.6-0.9-0.5c-0.4,0.2-0.7,0.5-0.4,0.8c0.2,0.2,0.7,0.2,1,0.2S290.8,293.3,290.6,293z"
		/>
	<path class="st0" d="M73.1,227.9L73.1,227.9L73.1,227.9z"/>
	<path class="st0" d="M73.8,229c0.1,0,0.4-0.3,0.4-0.4c0-0.2-0.2-0.4-0.4-0.5c-0.2-0.1-0.5-0.1-0.7-0.2c0,0.2,0.1,0.5,0.2,0.7
		S73.6,229,73.8,229z"/>
	<path class="st0" d="M272.1,320.7c0.2,0,0.5,0.1,0.6,0c0.2-0.2,0.4-0.5,0.6-0.8c-0.3,0.1-0.7,0.1-1,0.3
		C272.2,320.2,272.2,320.5,272.1,320.7z"/>
	<path class="st0" d="M273.3,319.9C273.3,319.9,273.3,319.8,273.3,319.9C273.3,319.8,273.3,319.9,273.3,319.9L273.3,319.9z"/>
	<path class="st0" d="M322,388.6L322,388.6L322,388.6L322,388.6z"/>
	<path class="st0" d="M67,205.9c-0.3-0.1-0.5,0-0.6,0.3c0,0.1,0.1,0.2,0.1,0.3c0.2-0.1,0.4-0.2,0.6-0.3
		C67.1,206.1,67.1,205.9,67,205.9z"/>
	<path class="st0" d="M174,30.4c0.1-0.1,0.1-0.2,0.2-0.3c0-0.1-0.1-0.2-0.1-0.3c-0.1,0.1-0.2,0.2-0.2,0.3
		C173.8,30.2,173.9,30.3,174,30.4z"/>
	<path class="st0" d="M779.5,242.6C779.5,242.6,779.6,242.6,779.5,242.6c0.1,0,0.1-0.1,0.2-0.2C779.7,242.4,779.6,242.5,779.5,242.6
		z"/>
	<path class="st0" d="M124.1,182.3C124.1,182.3,124.1,182.4,124.1,182.3c0.1,0.1,0.2,0.1,0.3,0.2
		C124.3,182.5,124.2,182.4,124.1,182.3z"/>
	<polygon class="st0" points="495.9,148.4 496.1,148.5 495.9,148.3 	"/>
	<path class="st0" d="M297.2,139.1c0.3-0.3,0.5-0.5,0.8-0.8C297.5,138.3,297.3,138.6,297.2,139.1z"/>
	<path class="st0" d="M302.6,136c0.3-0.3,0.5-0.5,0.8-0.8C302.9,135.2,302.6,135.5,302.6,136z"/>
	<path class="st0" d="M153.5,64.9L153.5,64.9C153.5,65,153.5,65,153.5,64.9L153.5,64.9L153.5,64.9z"/>
	<path class="st0" d="M281,250.3c0,0.3,0,0.5,0.1,0.7c1.5-0.1,1.3-1.3,1.4-2.3c0-0.2,0-0.5,0-0.7C281.1,248.5,281.1,248.5,281,250.3
		z"/>
	<path class="st0" d="M142.7,58.7c-0.4-0.6-0.7-1.4-1.7-1.1c-0.7,0.2-0.6,1-0.7,1.6c0,0.6-0.1,1.2-0.1,1.9c0,0.8,0.1,1.5,0.1,2.3
		c0.8,0.1,1.5,0.2,2.2-0.2s1.4-0.4,2.2-0.2c0.1-0.1,0.2-0.3,0.4-0.4C144.3,61.2,143.5,60,142.7,58.7z"/>
	<path class="st0" d="M143.7,51.5c1.2-0.4,2.4-0.8,3.2-2c-0.4-0.5-0.8-1.1-1.2-1.6c-1.5,0.4-2.9,0.8-4.4,1.3
		c-0.3,0.1-0.5,0.5-0.6,0.9c-0.2,0.4,0.2,0.7,0.5,0.9C142,51.6,142.8,51.9,143.7,51.5z"/>
	<path class="st0" d="M160,98.6c0.2-0.1,0.5-0.3,0.5-0.5c0.1-0.2,0-0.5-0.1-0.6c-1.2-0.7-2.2-1.6-3.7-1.7c-0.2,0.9,0.3,1.6,0.8,2.3
		C158.4,98,159.1,99,160,98.6z"/>
	<path class="st0" d="M148,83.2c0.1,0.1,0.3,0.1,0.4,0.1c0.1,0,0.3-0.2,0.3-0.3c0.1-1.2-0.4-2.2-1.1-3.1c-0.1-0.1-0.3-0.1-0.4-0.1
		c-0.1,0-0.2,0.2-0.5,0.4C147.2,81.2,146.9,82.5,148,83.2z"/>
	<path class="st0" d="M150.4,48.6c0.3-1.5,0.3-1.5-0.9-1.5c-0.5,0-0.9,0-1.4,0.1c-0.3,0.3-0.5,0.5-0.8,0.8c0.5,1,1.5,0.7,2.3,0.8
		C149.9,48.7,150.1,48.7,150.4,48.6z"/>
	<polygon class="st0" points="149.2,84.7 149.4,84.6 149.2,84.5 	"/>
</g>
<text transform="matrix(1 0 0 1 729.8167 15.0758)" class="st1 st2">Authagraph</text>
<polygon points="56.8,72.4 59.1,77 64.1,77.7 60.5,81.3 61.3,86.3 56.8,83.9 52.3,86.3 53.1,81.3 49.5,77.7 54.5,77 "/>
<text transform="matrix(1 0 0 1 68.7042 83.6801)" class="st1 st3">Benin</text>
<ellipse transform="matrix(0.7071 -0.7071 0.7071 0.7071 22.0105 137.1802)" class="st4" cx="176.6" cy="42" rx="8.9" ry="15.6"/>
<ellipse transform="matrix(0.7071 -0.7071 0.7071 0.7071 24.4218 122.3549)" class="st4" cx="159.9" cy="31.7" rx="8.9" ry="15.6"/>
<text transform="matrix(1 0 0 1 193.2999 51.682)" class="st1 st3">Germany</text>
<text transform="matrix(1 0 0 1 174.2002 71.0995)" class="st1 st3">Austria</text>
<text transform="matrix(1 0 0 1 611.0038 112.0999)" class="st1 st3">United States</text>
<text transform="matrix(1 0 0 1 86.0998 54.8997)" class="st1 st3">Switzerland</text>
<text transform="matrix(1 0 0 1 79.9998 19.1002)" class="st1 st3">Netherlands</text>
<text transform="matrix(1 0 0 1 193.502 26.3502)" class="st1 st3">United Kingdom</text>
<ellipse transform="matrix(0.7413 -0.6712 0.6712 0.7413 29.7118 124.7034)" class="st5" cx="176.6" cy="23.8" rx="15.6" ry="8.9"/>
<ellipse transform="matrix(0.7413 -0.6712 0.6712 0.7413 12.2334 123.3349)" class="st5" cx="166.1" cy="45.8" rx="15.6" ry="8.9"/>
<ellipse transform="matrix(0.7413 -0.6712 0.6712 0.7413 6.427 128.2713)" class="st5" cx="169.6" cy="55.8" rx="15.6" ry="8.9"/>
<ellipse transform="matrix(0.7071 -0.7071 0.7071 0.7071 92.7766 457.2033)" class="st4" cx="598.3" cy="116.6" rx="8.9" ry="15.6"/>
</svg>
