<svg id="Layer_1" data-name="Layer 1" xmlns="http://www.w3.org/2000/svg" viewBox="0 0 500 483.99"><title>Artboard 1</title><path d="M295.8,298.48,221.41,345c-4.22-13.27-6.77-21.27-7.68-24.13,21.85-19.7,42.84-35.33,59.37-54.75,10.16-11.94,14.47-29.35,19.69-44.89,5.5-16.35,7.83-33.79,13.56-50.05,13-37,16.18-74.25,5.1-112C309.08,51.05,305.06,42,298.87,37c-5.27-4.24-15.05-4.93-22.25-3.72-3,.52-5.88,9.82-6.5,15.38-1.59,14.23-2.31,28.58-2.61,42.9-.92,43.56-23.93,73.63-55.67,101.19-38.45,33.39-80.07,51.12-131.52,45.6-21-2.25-42.41-.84-63.61-.22C4.92,238.45,0,234.78.1,222.21c.13-12,5.45-14.68,16-14.57,33.07.36,66.24,1.58,99.18-.55,15.36-1,30.74-7.84,45.2-14.13,8.89-3.86,15.67-12.32,24.09-17.59,42-26.33,56.89-65.69,55.45-113.19-.12-3.74,0-7.48.06-11.23.19-28.48,8.94-43.53,28.41-48.87,24.63-6.75,49.9,3.2,62.46,26,15.55,28.27,18.2,59.28,16.49,90.82-.6,11.14-2.16,22.22-3.59,36.39h73.61c10,0,20-.23,29.95.08,39.79,1.23,64.27,41.09,45.54,75.86-5.49,10.2-5.44,16.62.13,26.52,9.09,16.14,7.36,33.2-.58,50.29-2.75,5.93-3,15.26-.24,21.12,12,25.67,8,48.07-12.12,68.21-4.39,4.4-7,13.76-5.86,20,6.24,33.14-11.56,60.88-45.07,64.84-19.71,2.33-39.87,1.91-59.79,1.38-52.23-1.38-104.44-4-156.68-5.16-40.82-.91-79.92-7.5-112.54-33.76-23.93-19.27-50.94-21.17-79.46-19.47C9.88,425.83-.11,426.71,0,409.81c.11-17.5,11.18-14.07,21.42-14.85,34.61-2.64,67,2,95.16,24.81,25.89,20.94,56.76,27.94,89.28,28.37,33.49.44,67,.1,98.78.1,3.71-16.08,7.61-29.68,9.59-43.56.6-4.26-3.3-9.9-6.46-13.83-13.87-17.21-18.34-36.78-7.65-55.76C309,319.28,304.86,308.63,295.8,298.48ZM396.7,260q-23.31,0-46.63,0c-13.5,0-23.36,5.08-24.34,19.87-1,15.45,8.22,23.77,22.38,24.14q49.38,1.29,98.82-.08c13.28-.38,22.27-8.61,21.73-23s-9.68-20.76-23.46-20.9C429,259.9,412.87,260,396.7,260Zm.9-30.53c16.16,0,32.35.59,48.48-.19,13.4-.64,22.71-7.66,22.54-22.12-.17-14.18-8.86-21.7-22.65-21.88-32.32-.4-64.65-.27-97-.09-13.74.07-22.94,6.44-23.31,21-.39,15.41,9.09,22.62,23.43,23.18C365.25,230,381.43,229.51,397.6,229.46Zm-.36,104.79c-16.17,0-32.35-.38-48.51.12-13.48.42-22.81,6.67-23.16,21.38-.35,14.54,8.64,22.58,21.82,23q49.39,1.42,98.86,0c13-.36,22.65-8.05,22.38-22.56-.28-15.59-10.53-21.6-24.73-21.88C428.35,334,412.79,334.23,397.24,334.25ZM391,452.35c10.59,0,21.2.32,31.78-.08,13.93-.52,22.81-8,22.65-22-.16-13.08-9-20.52-21.9-20.88-21.17-.6-42.38-.69-63.55,0-12.74.42-21.68,7.71-21.74,21-.06,14.18,9.1,21.23,22.85,21.84C371.07,452.69,381.06,452.34,391,452.35Z"/></svg>