<svg width="575" height="401" viewBox="0 0 575 401" fill="none" xmlns="http://www.w3.org/2000/svg">
<path d="M573.5 200.5C573.5 255.24 541.686 304.954 489.935 341.045C438.189 377.132 366.622 399.5 287.5 399.5C208.378 399.5 136.811 377.132 85.0648 341.045C33.3137 304.954 1.5 255.24 1.5 200.5C1.5 145.76 33.3137 96.0463 85.0648 59.9554C136.811 23.8682 208.378 1.5 287.5 1.5C366.622 1.5 438.189 23.8682 489.935 59.9554C541.686 96.0463 573.5 145.76 573.5 200.5Z" stroke="black" stroke-width="3"/>
<path d="M497 200C497 240.176 473.682 276.652 435.773 303.125C397.868 329.596 345.448 346 287.5 346C229.552 346 177.132 329.596 139.227 303.125C101.318 276.652 78 240.176 78 200C78 159.824 101.318 123.348 139.227 96.8752C177.132 70.4044 229.552 54 287.5 54C345.448 54 397.868 70.4044 435.773 96.8752C473.682 123.348 497 159.824 497 200Z" stroke="black" stroke-width="2"/>
</svg>
