<svg version="1.1" id="Layer_1" xmlns="http://www.w3.org/2000/svg" xmlns:xlink="http://www.w3.org/1999/xlink" x="0px" y="0px"
	 viewBox="0 0 1920 1080" style="enable-background:new 0 0 1920 1080;" xml:space="preserve">

<defs>
	<style type="text/css">
		.line{
			fill:none;
			stroke:#EE72D3;
			stroke-width: 5px;
			stroke-linecap:round;
			stroke-linejoin:round;
			stroke-miterlimit:10;
			stroke-dasharray:2650;
			stroke-dashoffset:0;
			-webkit-animation:dash 4s linear forwards;
			-o-animation:dash 4s linear forwards;
			-mox-animation:dash 4s linear forwards;
			animation:dash 4s linear forwards;

		}

		@-webkit-keyframes dash {
			from {
				stroke-dashoffset:2650;
			}
			to {
				stroke-dashoffset:0;
			}
		}
	</style>
</defs>

<g>
	<path class="line" d="M52.3,112.2c1.3-8.3,3.9-15.8,12.6-21.2c23.4,13.4,19,39.5,25.8,60.2c1.9,5.8,2.5,29.8,7.3,34.1
		c6.1-18.3,8.3-24.9,17-35.5c15.7,13.5,38.8,14.3,45.5,37.6c2.2,7.9,11.6,0.2,18.9-2.8c10.7,10.1,20,20.3,22.3,37.2
		c1.2,8.9,2,47.8,10.6,54.9c3.8-12.9,7.2-26,11.6-38.8c3.2-9.3,9.5-16,21.5-16.8c3.5,8.8,9.3,17.2,9.9,25.9
		c1.2,17.8,10.2,29.3,25.7,33.9c29.5,8.8,31.8,34,38.9,57.4C334,386.1,334,436.5,347,484.5c10.1,37.4,20.6,74.8,30.8,111.9
		c22.5-0.4,20.9-19.2,26-32.1c8.2-20.5,11.2-23.3,29.6-13.1c13.4,7.4,34-2.5,39.7,19.5c21.5-10.4,41.4-19,63.4-19.8
		c11.4-0.4,12.8-9.4,15.7-16.3c11.2-26.4,21.7-53.1,32.1-79.9c2.9-7.5,5.4-15,12.4-21.3c14.7,12.6,31.8,21.8,49,31.2
		c15.2,8.3,27.9,10.1,43.9,4.2c17-6.2,29.2-1.4,37,17.7c7.5,18.1,12.4,37.7,26.5,53c8.1,8.8,14.4,21.3,25.6,24.3
		c27.1,7.3,32.3,28.6,39.2,50.7c2.6,8.5,6.1,17.2,10.3,25.6c9.5,18.8,21.8,25.7,43.4,16.3c16.9,36.1,47.5,35.7,80.7,32.6
		c4.9-0.5,15.3,1.6,22.8,5.3c44.5,22,94.6,18.8,141.3,30.6c26.2,6.6,52.2,16.6,75.5,31.4c14.8,9.4,30.2,16.7,48,18.3
		c10.5,0.9,16.2,9.5,22.7,16.1c12,12,24.4,21.7,41,27.9c24,8.9,47.2,19.6,66.9,37.7c15.1,13.8,37.8,11.4,56.7,13.3
		c60.1,6.3,119.4,18.3,180.3,20.1c47.9,1.4,96,5.3,143.8,9.3c32.9,2.7,65.6,2.1,98.3,3.4c15.3,0.6,30,7.4,45.7,4.6"/>
</g>
</svg>
