<?xml version="1.0" encoding="utf-8"?>
<!-- Generator: Adobe Illustrator 23.0.3, SVG Export Plug-In . SVG Version: 6.00 Build 0)  -->
<svg version="1.1" id="Layer_1" xmlns="http://www.w3.org/2000/svg" xmlns:xlink="http://www.w3.org/1999/xlink" x="0px" y="0px"
	 viewBox="0 0 1080 1080" style="enable-background:new 0 0 1080 1080;" xml:space="preserve">
<style type="text/css">
	.st0{fill:#EE72D3;}
</style>
<g>
	<path class="st0" d="M1078.7,839.1c-25.2-16.7-50.3-33.5-75.5-50.2c-25.6-17.1-51.3-34.1-76.9-51.1c-28.4-18.9-56.7-37.9-85-56.8
		c-25.5-17-51-33.9-76.5-50.9c-33.7-22.5-67.5-45.1-101.2-67.5c-26.2-17.4-52.4-34.8-78.6-52.2c-31.3-20.9-62.6-41.8-94-62.7
		c-27.7-18.5-55.4-36.9-83-55.3c-27.1-18-54.2-36-81.2-54.1c-33.3-22.2-66.5-44.5-99.8-66.7c-25.6-17.1-51.2-34-76.8-51.1
		c-28.2-18.8-56.4-37.7-84.7-56.6c-20.6-13.9-41.3-27.6-62-41.4c-0.7-0.4-1.4-0.7-2.2-1.1c0-8.6,0-17.1,0-25.7
		c10.2,6.6,20.4,13.2,30.5,19.9c20.9,13.9,41.8,27.8,62.6,41.8c33.9,22.6,67.7,45.2,101.6,67.8c28,18.7,56.1,37.3,84.1,55.9
		c25.6,17.1,51.1,34.2,76.7,51.3c17,11.3,34,22.6,51,33.9c26.3,17.5,52.5,35.1,78.8,52.6c31,20.7,62,41.3,93,62
		c30.8,20.5,61.5,41,92.3,61.5c23.3,15.5,46.7,31,70,46.5c33.2,22.1,66.3,44.3,99.5,66.4c28.2,18.8,56.5,37.6,84.8,56.4
		c25.8,17.2,51.6,34.5,77.5,51.7c25,16.7,50.1,33.3,75.2,49.9C1078.7,822,1078.7,830.6,1078.7,839.1z"/>
	<path class="st0" d="M1.3,167c24.3,16.2,48.6,32.5,72.9,48.7c25.4,16.9,50.7,33.8,76.1,50.7c31.6,21,63.1,42.1,94.7,63.2
		c28.3,18.9,56.7,37.9,85,56.8c31.3,20.9,62.7,41.7,94.1,62.6c26.6,17.7,53.2,35.6,79.9,53.3c27.1,18.1,54.3,36.2,81.4,54.3
		c36.2,24.1,72.3,48.3,108.5,72.4c34.1,22.7,68.2,45.3,102.3,68c33.3,22.2,66.5,44.5,99.8,66.7c25.6,17.1,51.2,34,76.8,51.1
		c28.2,18.8,56.4,37.7,84.7,56.5c7,4.6,14.2,9,21.2,13.4c0,8.6,0,17.1,0,25.7c-6.6-4.2-13.3-8.2-19.8-12.5
		c-26.6-17.6-53.1-35.3-79.6-53c-26.3-17.6-52.5-35.2-78.8-52.7C873.3,774,846,756,818.8,737.8c-29.6-19.7-59.3-39.4-88.9-59.2
		c-30.2-20.1-60.4-40.2-90.5-60.3c-17.9-11.9-35.7-24-53.6-35.9c-35.9-23.9-71.8-47.8-107.7-71.7c-37.7-25.1-75.3-50.2-113-75.3
		c-43.3-28.8-86.5-57.7-129.8-86.5c-21.7-14.5-43.4-28.9-65.1-43.4c-37.4-24.9-74.8-49.9-112.2-74.8c-17.1-11.4-34.2-22.9-51.3-34.3
		c-1.7-1.1-3.6-1.9-5.4-2.9C1.3,184.7,1.3,175.8,1.3,167z"/>
	<path class="st0" d="M1.3,23.6c19.3,12.8,38.6,25.6,57.9,38.5C85.1,79.4,111,96.7,137,114c33.8,22.5,67.5,45,101.3,67.5
		c31.1,20.7,62.2,41.4,93.4,62.2c33.9,22.6,67.7,45.2,101.6,67.8c31.2,20.8,62.5,41.5,93.7,62.4c33.3,22.2,66.5,44.5,99.8,66.7
		c31.1,20.7,62.3,41.4,93.4,62.1c28,18.7,56,37.4,84,56.1c25.9,17.3,52,34.5,77.9,51.8c31.1,20.8,62.1,41.6,93.2,62.4
		c14,9.3,28.1,18.5,42.1,27.8c19.9,13.2,39.7,26.4,59.6,39.7c0.6,0.4,1.2,0.6,1.8,0.9c0,8.6,0,17.1,0,25.7
		c-10.3-6.7-20.6-13.3-30.8-20.1c-9.3-6.2-18.6-12.4-27.9-18.7c-19-12.8-38-25.6-57-38.2c-24.6-16.4-49.2-32.6-73.8-49
		c-28.5-19-56.9-38.1-85.3-57c-26-17.3-52-34.4-78-51.7c-33.2-22.1-66.3-44.3-99.5-66.4c-28.3-18.9-56.7-37.7-85-56.6
		c-25.8-17.2-51.6-34.5-77.4-51.7c-25.5-17-51-33.9-76.5-50.9c-36.4-24.3-72.7-48.6-109.1-72.8c-23.3-15.5-46.7-30.9-69.9-46.4
		c-20.6-13.8-41.1-27.9-61.7-41.7c-19.5-13-39.2-25.7-58.7-38.7c-28.5-19-56.8-37.9-85.1-56.8c-0.6-0.4-1.2-0.7-1.8-1
		C1.3,40.7,1.3,32.2,1.3,23.6z"/>
	<path class="st0" d="M1078.7,982.5c-10.1-6.5-20.2-13-30.2-19.6c-20.9-13.9-41.7-27.9-62.6-41.8c-28.5-19-56.9-38-85.4-57
		c-25.8-17.2-51.7-34.3-77.5-51.5c-10.9-7.3-21.5-15-32.4-22.2c-16.1-10.7-32.3-21.1-48.4-31.7c-18.5-12.2-37-24.6-55.5-36.9
		c-24.5-16.4-49.1-32.8-73.6-49.2c-33.5-22.4-67-44.8-100.5-67.1c-36.5-24.3-73-48.6-109.5-72.9c-28-18.7-56-37.4-84-56.1
		c-25.7-17.1-51.4-34.3-77.1-51.4c-30.3-20.2-60.6-40.4-90.9-60.6c-28.9-19.3-57.9-38.6-86.8-57.8c-21-14-42-28-63.1-42
		c0-8.6,0-17.1,0-25.7c22.1,14.7,44.1,29.3,66.2,44c23.5,15.7,47.1,31.4,70.6,47.1c27.9,18.6,55.8,37.2,83.6,55.8
		c25.7,17.1,51.5,34.2,77.2,51.4c30.9,20.6,61.7,41.2,92.6,61.8c36.5,24.3,73.1,48.6,109.6,72.9c36.5,24.3,72.9,48.7,109.4,73.1
		c22.6,15.1,45.3,30.1,67.9,45.1c31.1,20.7,62.1,41.6,93.2,62.3c31.6,21,63.2,42,94.8,63.1c27.9,18.6,55.7,37.3,83.6,55.9
		c30.9,20.6,61.8,41.2,92.7,61.7c11.9,7.9,24,15.7,36,23.6C1078.7,965.4,1078.7,973.9,1078.7,982.5z"/>
	<path class="st0" d="M1004.9,1077.8c-13.6-9.2-27.1-18.4-40.8-27.6c-28.3-19-56.6-37.9-85-56.8c-31.2-20.8-62.5-41.6-93.7-62.4
		c-28-18.7-55.9-37.4-83.9-56.1c-28.1-18.7-56.3-37.4-84.5-56.2c-25.2-16.7-50.3-33.5-75.4-50.3c-31.7-21.1-63.4-42.2-95.1-63.4
		c-22.2-14.9-44.4-29.8-66.7-44.7c-20.8-13.9-41.7-27.5-62.5-41.4c-6.9-4.6-13.5-9.6-20.3-14.2c-11.2-7.4-22.6-14.6-33.9-22
		c-26.2-17.4-52.3-34.9-78.5-52.3c-25.7-17.1-51.5-34.2-77.2-51.4C73.7,456.6,39.9,434,6,411.4c-1.5-1-3.1-1.6-4.7-2.4
		c0-8.6,0-17.1,0-25.7c6.7,4.2,13.5,8.3,20.2,12.7c20.7,13.7,41.3,27.5,62,41.3c19.5,13,39,26,58.5,39
		c25.6,17.1,51.1,34.2,76.7,51.3c28.1,18.7,56.2,37.4,84.3,56.1c29.4,19.6,58.8,39.2,88.1,58.8c36.3,24.2,72.5,48.4,108.8,72.6
		c23.2,15.5,46.4,30.8,69.6,46.3c33.2,22.1,66.3,44.3,99.4,66.4c28.2,18.8,56.5,37.6,84.7,56.4c25.9,17.3,51.8,34.6,77.8,51.9
		c25.7,17.1,51.5,34.2,77.2,51.4c36.1,24.1,72.3,48.2,108.4,72.4c8.9,6,17.9,12,26.8,18C1030.9,1077.8,1017.9,1077.8,1004.9,1077.8z
		"/>
	<path class="st0" d="M75.1,0.4C85,7.2,94.8,14,104.8,20.7c25.8,17.2,51.7,34.4,77.5,51.6c26.6,17.7,53.3,35.5,79.9,53.3
		c28.1,18.8,56.2,37.6,84.3,56.3c30.9,20.6,61.8,41.1,92.7,61.7c33.9,22.6,67.7,45.2,101.5,67.8c36.3,24.2,72.6,48.3,108.9,72.5
		c17.5,11.7,34.9,23.7,52.5,35.4c16.3,10.9,32.7,21.5,49,32.4c25.9,17.2,51.9,34.4,77.8,51.7c31.5,21,62.8,42,94.3,63
		c39.5,26.4,79,52.7,118.5,79c11.1,7.4,22.3,14.9,33.4,22.2c1.1,0.7,2.4,1.2,3.7,1.7c0,8.6,0,17.1,0,25.7
		c-6.6-4.2-13.3-8.2-19.8-12.5c-31.6-21-63.1-42.1-94.7-63.1c-28.3-18.9-56.7-37.9-85-56.8c-14.6-9.7-29.2-19.4-43.8-29.1
		c-28.5-19-57.1-38.1-85.6-57.1c-19.2-12.8-38.4-25.5-57.5-38.3c-39-26-78.1-52-117.1-78c-30.5-20.4-60.9-40.9-91.5-61.2
		c-28.7-19.1-57.5-38.1-86.2-57.2c-32.6-21.7-65.2-43.5-97.8-65.2c-37.4-24.9-74.8-49.9-112.2-74.8c-18.6-12.4-37.2-24.8-55.8-37.2
		C99.8,43,68,21.7,36.1,0.4C49.1,0.4,62.1,0.4,75.1,0.4z"/>
	<path class="st0" d="M182.8,0.4c10.1,6.9,20.2,13.9,30.4,20.7c20.6,13.8,41.3,27.5,62,41.3c26.3,17.5,52.6,35,78.9,52.5
		c27.9,18.6,55.8,37.3,83.6,55.9c25.7,17.2,51.5,34.2,77.2,51.4c6.5,4.4,12.8,9.1,19.4,13.5c15,10,30.2,19.7,45.2,29.6
		c39.2,26.1,78.3,52.2,117.5,78.3c36.5,24.3,73.1,48.6,109.6,72.9c33.6,22.4,67.2,44.9,100.9,67.4c31,20.7,62,41.3,93,61.9
		c25.3,16.8,50.5,33.7,75.7,50.6c0.8,0.5,1.6,1,2.5,1.5c0,8.6,0,17.1,0,25.7c-24.6-16.3-49.2-32.6-73.8-49
		c-26.4-17.6-52.8-35.2-79.2-52.9c-35.9-24-71.8-47.9-107.8-71.9c-25.8-17.2-51.7-34.4-77.5-51.6c-19.7-13.2-39.3-26.5-59.1-39.7
		c-22.5-15-45.1-29.8-67.6-44.8c-32-21.3-63.9-42.6-95.8-63.9c-36.6-24.4-73.3-48.7-109.9-73.2c-35.8-23.9-71.6-47.8-107.4-71.7
		c-34-22.7-68-45.3-102-67.9c-17.3-11.6-34.7-23.1-52-34.7c-0.8-0.5-1.3-1.3-2-1.9C157.4,0.4,170.1,0.4,182.8,0.4z"/>
	<path class="st0" d="M290.5,0.4c10.1,6.9,20.2,13.9,30.4,20.7c17.8,12,35.7,24.1,53.6,36c23.6,15.7,47.4,31.3,71.1,47
		c39.1,26,78,52.1,117.1,78.1c31.1,20.7,62.3,41.3,93.4,62.1c38.6,25.7,77.1,51.6,115.6,77.3c36.7,24.5,73.5,48.9,110.3,73.4
		c44.2,29.5,88.3,59,132.5,88.5c20.7,13.8,41.4,27.5,62.1,41.2c0.7,0.4,1.4,0.8,2.2,1.1c0,8.6,0,17.1,0,25.7
		c-10.2-6.6-20.4-13.2-30.5-19.9c-20.9-13.9-41.8-27.9-62.6-41.8c-28.3-18.9-56.6-37.9-85-56.8c-25.8-17.2-51.7-34.3-77.6-51.5
		c-22.6-15.1-45.2-30.2-67.8-45.3c-25.6-17.1-51.2-34.1-76.8-51.2c-33.6-22.4-67.2-44.9-100.9-67.3c-26.1-17.4-52.2-34.6-78.2-52
		c-28.6-19-57.1-38.1-85.7-57.2c-16.6-11.1-33.3-22.2-49.9-33.3c-31.1-20.8-62.1-41.5-93.2-62.3c-6.3-4.2-12.6-8.4-18.9-12.7
		C264.6,0.4,277.6,0.4,290.5,0.4z"/>
	<path class="st0" d="M789.5,1077.8c-9.8-6.7-19.6-13.4-29.4-20c-17.6-11.9-35.2-23.8-52.9-35.5c-29.4-19.6-58.9-39-88.2-58.5
		c-28.1-18.7-56.2-37.5-84.3-56.3c-31.2-20.8-62.5-41.6-93.7-62.4c-28-18.7-56-37.4-84-56.1c-28.1-18.7-56.3-37.4-84.4-56.1
		c-31.2-20.8-62.4-41.7-93.6-62.6c-25.6-17.1-51.2-34.1-76.8-51.1c-28.2-18.8-56.4-37.7-84.7-56.5c-5.3-3.5-10.7-6.8-16-10.2
		c0-8.6,0-17.1,0-25.7c10.2,6.6,20.4,13.2,30.5,19.9c26.5,17.6,53,35.4,79.5,53.1c35.9,24,71.8,47.9,107.7,71.9
		c34.1,22.7,68.2,45.4,102.3,68.1c38.9,25.9,77.8,51.9,116.7,77.9C464,834.8,490,852,516,869.3c27.7,18.4,55.3,37,82.9,55.4
		c22.9,15.3,46,30.5,68.9,45.8c11.6,7.7,23,15.7,34.6,23.4c34.7,23.1,69.4,46,104.1,69.1c7.4,4.9,14.6,9.9,21.9,14.8
		C815.4,1077.8,802.4,1077.8,789.5,1077.8z"/>
	<path class="st0" d="M1078.7,1054.6c-24.6-16.3-49.2-32.6-73.8-49c-26.4-17.6-52.8-35.2-79.2-52.8c-37.2-24.8-74.3-49.7-111.5-74.5
		c-27.5-18.4-55.2-36.6-82.7-54.9c-36.2-24.1-72.3-48.3-108.5-72.4c-34-22.7-68-45.2-102-67.9c-33.2-22.1-66.3-44.3-99.5-66.4
		c-31.2-20.8-62.5-41.6-93.8-62.4c-18.7-12.5-37.4-24.9-56.1-37.4c-0.8-0.6-1.4-1.6-2-2.4c4.8-4.8,9.6-9.6,14.4-14.4
		c5,3.1,10.1,6.1,15.1,9.3c39.7,26.4,79.4,53,119.1,79.4c43.5,29,87,57.9,130.5,86.9c26.5,17.7,53,35.4,79.5,53.1
		c28.2,18.8,56.4,37.7,84.6,56.5c31.2,20.8,62.5,41.5,93.7,62.3c30.6,20.4,61.3,40.9,91.8,61.4c12.5,8.4,24.7,17.1,37.2,25.4
		c19.7,13.1,39.7,25.9,59.4,39c23.3,15.4,46.6,31,69.9,46.5c4.6,3.1,9.2,6.1,13.8,9.1C1078.7,1037.5,1078.7,1046,1078.7,1054.6z"/>
	<path class="st0" d="M897.2,1077.8c-10-6.8-20-13.7-30.1-20.5c-23.3-15.6-46.6-31-69.9-46.6c-23.7-15.8-47.3-31.5-71-47.3
		c-27.5-18.4-55.1-36.7-82.6-55.1c-26.1-17.4-52.1-34.7-78.1-52.1c-15.2-10.2-30.4-20.6-45.6-30.8c-17-11.3-34.1-22.4-51.1-33.7
		C442,774,415.4,756,388.7,738.2c-21.8-14.5-43.7-28.9-65.5-43.4c-36.3-24.2-72.5-48.4-108.8-72.6c-9.4-6.3-18.9-12.5-28.3-18.8
		c-1.1-0.7-1.8-1.9-2.7-2.8c4.8-4.8,9.6-9.6,14.4-14.4c5.1,3.2,10.4,6.2,15.4,9.6c29,19.2,57.9,38.5,86.8,57.8
		c17.8,11.9,35.5,23.9,53.2,35.9c16.1,10.8,32.3,21.7,48.5,32.4c37.2,24.7,74.5,49.4,111.7,74.1c25.6,17,51.2,34.1,76.8,51.1
		c28.1,18.8,56.2,37.6,84.3,56.3c31,20.7,62,41.3,93,62c28.4,18.9,56.7,37.9,85,56.8c25.7,17.1,51.5,34.2,77.2,51.4
		c1.9,1.3,3.6,2.8,5.4,4.3C922.6,1077.8,909.9,1077.8,897.2,1077.8z"/>
	<path class="st0" d="M681.7,1077.8c-10.1-6.9-20.2-13.9-30.4-20.7c-37.2-24.8-74.4-49.6-111.6-74.4c-25.6-17.1-51.2-34.1-76.8-51.2
		c-33.8-22.5-67.5-45-101.2-67.5c-36.2-24.1-72.3-48.2-108.5-72.3c-34-22.7-67.9-45.4-101.9-68c-14.8-9.9-29.7-19.7-44.5-29.6
		c-33.4-22.3-66.7-44.5-100.1-66.8c-1.7-1.1-3.6-1.9-5.4-2.8c0-8.8,0-17.7,0-26.5c24.4,16.3,48.9,32.6,73.3,48.9
		c14.6,9.7,29,19.6,43.6,29.3c33.1,22,66.2,44,99.3,66c31.1,20.7,62.3,41.4,93.4,62.1c33.3,22.2,66.6,44.4,99.8,66.6
		c20.5,13.7,41.1,27.3,61.7,41c22.6,15.1,45.2,30.2,67.8,45.3c31,20.7,62,41.3,93,61.9c28.5,19,56.9,38,85.3,57.1
		c0.5,0.4,0.9,0.9,1.3,1.4C707.1,1077.8,694.4,1077.8,681.7,1077.8z"/>
	<path class="st0" d="M398.3,0.4c10.3,7,20.5,14,30.8,20.9c26,17.4,52.1,34.8,78.1,52.2c26.1,17.4,52.1,34.7,78.2,52.1
		c36.3,24.2,72.5,48.4,108.8,72.6c34,22.6,68,45.2,102,67.9c33.3,22.2,66.5,44.5,99.8,66.7c25.6,17.1,51.3,34.1,76.9,51.1
		c28.2,18.8,56.3,37.7,84.6,56.5c7,4.6,14.2,9,21.2,13.4c0,8.6,0,17.1,0,25.7c-6.7-4.2-13.5-8.4-20.2-12.8
		c-28.5-18.9-57-37.9-85.4-56.9c-26-17.4-52.1-34.8-78.1-52.2c-33.4-22.3-66.9-44.4-100.3-66.7c-36.6-24.4-73.2-48.9-109.8-73.3
		c-22.7-15.2-45.5-30.2-68.2-45.3c-31-20.7-61.9-41.4-92.8-62.1c-31.2-20.8-62.5-41.6-93.7-62.4C406.5,32,382.9,16.2,359.3,0.4
		C372.3,0.4,385.3,0.4,398.3,0.4z"/>
	<path class="st0" d="M506,0.4c10.1,6.9,20.2,13.9,30.4,20.7c20.5,13.7,41.1,27.4,61.7,41.1c22.6,15.1,45.2,30.2,67.8,45.2
		c26.4,17.6,52.8,35.2,79.2,52.8c24.9,16.6,49.9,33.2,74.8,49.8c45.2,30.1,90.4,60.3,135.5,90.4c22.6,15.1,45.3,30.1,67.9,45.1
		c18.5,12.3,36.9,24.6,55.4,36.9c0,8.6,0,17.1,0,25.7c-18.8-12.6-37.6-25.2-56.4-37.7c-21.4-14.2-42.8-28.2-64.1-42.5
		c-19.6-13.1-39-26.5-58.6-39.6c-18-12-36.2-23.7-54.2-35.7c-23-15.2-45.9-30.6-68.8-45.9c-25.6-17.1-51.2-34.1-76.8-51.2
		c-11.9-8-23.7-16.2-35.6-24.1c-20.1-13.3-40.3-26.5-60.3-39.9c-28.7-19.1-57.4-38.3-86.1-57.4c-17-11.1-33.9-22.4-50.7-33.7
		C480.1,0.4,493,0.4,506,0.4z"/>
	<path class="st0" d="M574,1077.8c-13.5-9.1-26.9-18.3-40.4-27.4c-28.4-19-56.9-38-85.4-57c-30.9-20.6-61.8-41.1-92.7-61.7
		c-28.4-18.9-56.7-37.9-85-56.8c-28.1-18.7-56.2-37.3-84.3-56c-31.2-20.8-62.4-41.7-93.6-62.6c-12.4-8.3-24.8-16.4-37.2-24.6
		c-18-12-36-24-54-36c0-8.6,0-17.1,0-25.7c24.4,16.3,48.8,32.7,73.3,48.9c34.2,22.8,68.5,45.5,102.7,68.2
		c41.1,27.3,82.2,54.7,123.3,82c38.8,25.9,77.5,51.8,116.3,77.7c36.3,24.2,72.7,48.4,109.1,72.7c29,19.4,58,38.8,87,58.2
		C599.9,1077.8,587,1077.8,574,1077.8z"/>
	<path class="st0" d="M613.8,0.4c10.5,7.1,20.9,14.3,31.4,21.4c19.6,13.2,39.1,26.3,58.7,39.4c16.1,10.7,32.2,21.2,48.3,31.9
		c39,26,78,52.1,117,78.1c36.6,24.4,73.3,48.7,109.9,73.1c30.8,20.5,61.5,41.1,92.2,61.6c2.4,1.6,4.9,3,7.4,4.5c0,8.6,0,17.1,0,25.7
		c-10.4-6.8-20.8-13.5-31.2-20.3c-20.2-13.4-40.4-27-60.6-40.4c-28.1-18.7-56.3-37.5-84.4-56.2c-25.8-17.2-51.6-34.4-77.5-51.7
		c-34.2-22.8-68.4-45.7-102.6-68.5c-41.7-27.8-83.5-55.6-125.3-83.5c-7.3-4.9-14.4-10-21.6-15.1C588.3,0.4,601.1,0.4,613.8,0.4z"/>
	<path class="st0" d="M466.2,1077.8c-9.8-6.7-19.5-13.4-29.4-20c-23.4-15.7-46.7-31.4-70.1-46.9c-23.9-15.9-47.9-31.6-71.7-47.5
		c-33.2-22.1-66.3-44.3-99.4-66.4c-28.2-18.8-56.5-37.6-84.7-56.4c-25.8-17.2-51.6-34.5-77.4-51.7c-10.7-7.1-21.4-14-32.2-21
		c0-8.6,0-17.1,0-25.7c10.2,6.6,20.4,13.1,30.5,19.8c20.7,13.7,41.3,27.6,61.9,41.4c23.2,15.5,46.3,31,69.5,46.4
		c25.6,17.1,51.2,34.1,76.8,51.1c33.7,22.5,67.5,45,101.2,67.5c36.7,24.5,73.5,48.8,110.2,73.3c17,11.3,33.9,22.7,50.8,34.1
		c0.8,0.5,1.3,1.3,2,1.9C491.7,1077.8,478.9,1077.8,466.2,1077.8z"/>
	<path class="st0" d="M721.5,0.4c10.2,7,20.4,14,30.7,20.9C778.6,39,805,56.5,831.4,74.1c25.8,17.2,51.7,34.3,77.5,51.6
		c36.1,24.1,72.2,48.2,108.3,72.3c19.3,12.9,38.5,25.7,57.8,38.5c1.1,0.7,2.4,1.2,3.7,1.7c0,8.6,0,17.1,0,25.7
		c-6.6-4.2-13.3-8.2-19.8-12.5c-31.6-21-63.2-42.1-94.7-63.1c-28.3-18.9-56.6-37.9-85-56.8c-31-20.7-62-41.3-93-61.9
		c-28.2-18.8-56.4-37.7-84.7-56.5c-6.3-4.2-12.6-8.4-18.9-12.7C695.5,0.4,708.5,0.4,721.5,0.4z"/>
	<path class="st0" d="M358.5,1077.8c-10.3-7-20.5-14-30.8-20.9c-31.5-21.1-63.1-42.1-94.6-63.2c-25.8-17.2-51.6-34.4-77.5-51.6
		c-22.3-14.8-44.5-29.6-66.8-44.4c-26.3-17.5-52.5-35.1-78.8-52.6c-2.8-1.9-5.8-3.5-8.8-5.2c0-8.6,0-17.1,0-25.7
		c6.5,4.1,13.1,8,19.5,12.2c21.2,14,42.2,28.2,63.3,42.3c27.9,18.6,55.8,37.2,83.7,55.8c26.1,17.4,52.2,34.7,78.2,52.1
		c28,18.7,56,37.4,84,56.1c22.5,15,44.9,30,67.4,45C384.5,1077.8,371.5,1077.8,358.5,1077.8z"/>
	<path class="st0" d="M284,499.9c-4.8,4.8-9.6,9.6-14.4,14.4c-5.3-3.1-10.7-6.1-15.7-9.4c-34.7-23.1-69.3-46.2-103.9-69.3
		c-14.4-9.7-28.8-19.5-43.2-29.1c-13.6-9.1-27.4-18.1-41-27.1C44.9,365.5,24,351.6,3.1,337.8c-0.6-0.4-1.2-0.6-1.8-0.9
		c0-8.6,0-17.1,0-25.7c10.3,6.7,20.6,13.3,30.8,20.1c12.2,8.1,24.3,16.3,36.5,24.4c18.3,12.3,36.6,24.6,54.9,36.9
		c22.8,15.2,45.8,30.3,68.6,45.5c22.4,14.9,44.8,29.8,67.1,44.8c7.2,4.8,14.5,9.6,21.7,14.5C282.1,498,283,499,284,499.9z"/>
	<path class="st0" d="M250.8,1077.8c-10.1-6.9-20.2-13.9-30.4-20.7c-30.1-20.2-60.3-40.4-90.4-60.6c-16.1-10.7-32.3-21.2-48.3-31.9
		c-26-17.2-51.8-34.4-77.6-51.6c-0.9-0.6-1.9-1.2-2.8-1.7c0-8.6,0-17.1,0-25.7c19.4,12.9,38.8,25.8,58.2,38.7
		c25.9,17.3,51.9,34.5,77.8,51.8c33.6,22.4,67.2,44.8,100.8,67.3c16.5,11,33,22.1,49.5,33.1c0.5,0.4,0.9,0.9,1.3,1.4
		C276.2,1077.8,263.5,1077.8,250.8,1077.8z"/>
	<path class="st0" d="M829.2,0.4c10.3,7,20.5,14,30.8,20.9c26,17.4,52.1,34.8,78.1,52.2c19.7,13.2,39.5,26.3,59.2,39.5
		c26.5,17.7,53,35.3,79.5,53c0.6,0.4,1.2,0.7,1.8,1c0,8.6,0,17.1,0,25.7c-24.6-16.3-49.2-32.6-73.7-49c-26.3-17.5-52.5-35-78.8-52.6
		C890,67,853.9,42.9,817.8,18.8c-9.2-6.1-18.3-12.3-27.5-18.4C803.3,0.4,816.3,0.4,829.2,0.4z"/>
	<path class="st0" d="M197.8,586.1c-4.8,4.8-9.6,9.6-14.4,14.4c-5.3-3.1-10.7-6.1-15.8-9.5c-29.2-19.4-58.3-38.9-87.5-58.4
		c-26.3-17.5-52.6-35-78.9-52.5c0-8.6,0-17.1,0-25.7c24.8,16.6,49.5,33,74.2,49.4c20.8,13.8,41.5,27.7,62.3,41.5
		c19.3,12.8,38.6,25.7,57.8,38.6C196.4,584.5,197.1,585.4,197.8,586.1z"/>
	<path class="st0" d="M143,1077.8c-13.7-9.3-27.4-18.5-41.1-27.8c-17.1-11.6-34.2-23.2-51.4-34.7c-16.3-10.8-32.8-21.3-49.2-32
		c0-8.6,0-17.1,0-25.7c9.5,6.2,19,12.3,28.4,18.5c20.2,13.4,40.3,26.9,60.5,40.4c30.6,20.4,61.2,40.9,91.8,61.3
		C169,1077.8,156,1077.8,143,1077.8z"/>
	<path class="st0" d="M937,0.4c10.4,7,20.7,14.1,31.1,21.1c13.6,9.2,27.2,18.4,40.9,27.4c23.2,15.4,46.5,30.6,69.8,45.9
		c0,8.6,0,17.1,0,25.7c-9.9-6.4-19.9-12.8-29.8-19.4c-20.5-13.6-41-27.4-61.5-41.1C957.6,40.2,927.8,20.3,898,0.4
		C911,0.4,924,0.4,937,0.4z"/>
	<path class="st0" d="M1.3,1028.9c22.2,14.9,44.5,29.7,66.7,44.6c1.9,1.3,3.6,2.8,5.4,4.3c-12.7,0-25.4,0-38.1,0
		c-4-2.8-8-5.8-12.1-8.5c-7.2-4.7-14.6-9.3-21.8-13.9C1.3,1046.6,1.3,1037.8,1.3,1028.9z"/>
	<path class="st0" d="M1078.7,48.5c-5.8-3.6-11.6-7.1-17.3-10.9c-17.6-11.7-35.2-23.5-52.8-35.3c-0.7-0.5-1.3-1.3-2-1.9
		c12.7,0,25.4,0,38.1,0c7.9,5.4,15.8,10.9,23.8,16.3c3.3,2.2,6.8,4.1,10.2,6.1C1078.7,31.4,1078.7,39.9,1078.7,48.5z"/>
</g>
</svg>
